999
"DXF R12 Output" (www.mydxf.blogspot.com)
 0 
SECTION
 2 
HEADER
 9 
$ACADVER
 1 
AC1009
 9 
$EXTMIN
 10 
 0 
 20 
 0 
 9 
$EXTMAX
 10 
 8.5 
 20 
 11 
 0 
ENDSEC
 0 
SECTION
 2 
ENTITIES
0
POLYLINE
8
Layer 1
62
7
70
0
10
0.000000
20
0.000000
66
1
0
VERTEX
8
Layer 1
10
36.252267
20
247.871937
70
0
0
VERTEX
8
Layer 1
10
37.259817
20
250.373573
70
0
0
VERTEX
8
Layer 1
10
37.950839
20
251.760176
70
0
0
VERTEX
8
Layer 1
10
38.607011
20
252.470081
70
0
0
VERTEX
8
Layer 1
10
39.510009
20
252.941625
70
0
0
VERTEX
8
Layer 1
10
40.553385
20
253.285115
70
0
0
VERTEX
8
Layer 1
10
41.998065
20
253.355901
70
0
0
VERTEX
8
Layer 1
10
43.089707
20
253.316000
70
0
0
VERTEX
8
Layer 1
10
43.806199
20
253.168950
70
0
0
VERTEX
8
Layer 1
10
44.270482
20
252.868107
70
0
0
VERTEX
8
Layer 1
10
44.605496
20
252.366829
70
0
0
VERTEX
8
Layer 1
10
44.756779
20
252.003569
70
0
0
VERTEX
8
Layer 1
10
44.678620
20
251.444201
70
0
0
VERTEX
8
Layer 1
10
43.250852
20
247.749587
70
0
0
VERTEX
8
Layer 1
10
41.885505
20
244.342494
70
0
0
VERTEX
8
Layer 1
10
41.489229
20
244.316664
70
0
0
VERTEX
8
Layer 1
10
39.323491
20
244.321964
70
0
0
VERTEX
8
Layer 1
10
39.966075
20
246.245596
70
0
0
VERTEX
8
Layer 1
10
40.554846
20
247.930932
70
0
0
VERTEX
8
Layer 1
10
40.555084
20
248.197592
70
0
0
VERTEX
8
Layer 1
10
40.372251
20
248.141047
70
0
0
VERTEX
8
Layer 1
10
39.655199
20
248.123927
70
0
0
VERTEX
8
Layer 1
10
39.044256
20
248.186237
70
0
0
VERTEX
8
Layer 1
10
38.265228
20
246.204981
70
0
0
VERTEX
8
Layer 1
10
37.486200
20
244.223725
70
0
0
VERTEX
8
Layer 1
10
36.972186
20
244.255545
70
0
0
VERTEX
8
Layer 1
10
35.949527
20
244.243565
70
0
0
VERTEX
8
Layer 1
10
35.134004
20
244.222745
70
0
0
VERTEX
8
Layer 1
10
34.827128
20
244.245765
70
0
0
VERTEX
8
Layer 1
10
36.252267
20
247.871937
70
0
0
SEQEND
8
Layer 1
0
POLYLINE
8
Layer 1
62
7
70
0
10
0.000000
20
0.000000
66
1
0
VERTEX
8
Layer 1
10
40.335371
20
249.498455
70
0
0
VERTEX
8
Layer 1
10
40.959956
20
249.555435
70
0
0
VERTEX
8
Layer 1
10
41.327295
20
249.816078
70
0
0
VERTEX
8
Layer 1
10
41.740283
20
250.833222
70
0
0
VERTEX
8
Layer 1
10
42.162993
20
252.011415
70
0
0
VERTEX
8
Layer 1
10
41.344907
20
251.984075
70
0
0
VERTEX
8
Layer 1
10
40.526817
20
251.956725
70
0
0
VERTEX
8
Layer 1
10
40.049631
20
250.743114
70
0
0
VERTEX
8
Layer 1
10
39.686571
20
249.721411
70
0
0
VERTEX
8
Layer 1
10
39.699345
20
249.565851
70
0
0
VERTEX
8
Layer 1
10
39.820424
20
249.535282
70
0
0
VERTEX
8
Layer 1
10
40.335372
20
249.498452
70
0
0
VERTEX
8
Layer 1
10
40.335371
20
249.498455
70
0
0
SEQEND
8
Layer 1
0
POLYLINE
8
Layer 1
62
7
70
0
10
0.000000
20
0.000000
66
1
0
VERTEX
8
Layer 1
10
45.544638
20
248.905106
70
0
0
VERTEX
8
Layer 1
10
47.343141
20
253.401905
70
0
0
VERTEX
8
Layer 1
10
48.642870
20
253.430385
70
0
0
VERTEX
8
Layer 1
10
49.972043
20
253.391285
70
0
0
VERTEX
8
Layer 1
10
49.481809
20
252.101262
70
0
0
VERTEX
8
Layer 1
10
48.962136
20
250.878843
70
0
0
VERTEX
8
Layer 1
10
49.478926
20
251.153646
70
0
0
VERTEX
8
Layer 1
10
50.035971
20
251.516315
70
0
0
VERTEX
8
Layer 1
10
50.336577
20
251.749134
70
0
0
VERTEX
8
Layer 1
10
52.858866
20
253.423146
70
0
0
VERTEX
8
Layer 1
10
53.160394
20
253.483656
70
0
0
VERTEX
8
Layer 1
10
53.728172
20
253.448236
70
0
0
VERTEX
8
Layer 1
10
55.649619
20
253.540176
70
0
0
VERTEX
8
Layer 1
10
55.808397
20
253.491612
70
0
0
VERTEX
8
Layer 1
10
55.643919
20
253.311324
70
0
0
VERTEX
8
Layer 1
10
55.291619
20
253.066890
70
0
0
VERTEX
8
Layer 1
10
54.530015
20
252.594114
70
0
0
VERTEX
8
Layer 1
10
53.782670
20
252.115731
70
0
0
VERTEX
8
Layer 1
10
52.246173
20
251.175412
70
0
0
VERTEX
8
Layer 1
10
50.580412
20
250.145515
70
0
0
VERTEX
8
Layer 1
10
49.896602
20
249.712352
70
0
0
VERTEX
8
Layer 1
10
49.211774
20
249.304660
70
0
0
VERTEX
8
Layer 1
10
48.964574
20
249.121040
70
0
0
VERTEX
8
Layer 1
10
49.981522
20
247.703188
70
0
0
VERTEX
8
Layer 1
10
50.216064
20
247.317693
70
0
0
VERTEX
8
Layer 1
10
50.307314
20
247.163933
70
0
0
VERTEX
8
Layer 1
10
50.904553
20
246.451054
70
0
0
VERTEX
8
Layer 1
10
51.908433
20
245.092541
70
0
0
VERTEX
8
Layer 1
10
52.446475
20
244.395239
70
0
0
VERTEX
8
Layer 1
10
52.058317
20
244.402439
70
0
0
VERTEX
8
Layer 1
10
49.798080
20
244.376539
70
0
0
VERTEX
8
Layer 1
10
49.245187
20
244.722677
70
0
0
VERTEX
8
Layer 1
10
48.187317
20
246.032623
70
0
0
VERTEX
8
Layer 1
10
47.484572
20
246.869725
70
0
0
VERTEX
8
Layer 1
10
46.914286
20
245.632432
70
0
0
VERTEX
8
Layer 1
10
46.465475
20
244.347376
70
0
0
VERTEX
8
Layer 1
10
45.190537
20
244.344476
70
0
0
VERTEX
8
Layer 1
10
43.830866
20
244.374936
70
0
0
VERTEX
8
Layer 1
10
45.544627
20
248.905050
70
0
0
VERTEX
8
Layer 1
10
45.544638
20
248.905106
70
0
0
SEQEND
8
Layer 1
0
POLYLINE
8
Layer 1
62
7
70
0
10
0.000000
20
0.000000
66
1
0
VERTEX
8
Layer 1
10
56.376976
20
248.345752
70
0
0
VERTEX
8
Layer 1
10
57.879082
20
252.165966
70
0
0
VERTEX
8
Layer 1
10
56.935620
20
252.176856
70
0
0
VERTEX
8
Layer 1
10
55.793642
20
252.129236
70
0
0
VERTEX
8
Layer 1
10
55.696573
20
252.235320
70
0
0
VERTEX
8
Layer 1
10
55.881372
20
252.798726
70
0
0
VERTEX
8
Layer 1
10
56.167619
20
253.526727
70
0
0
VERTEX
8
Layer 1
10
56.831447
20
253.518827
70
0
0
VERTEX
8
Layer 1
10
57.992718
20
253.526327
70
0
0
VERTEX
8
Layer 1
10
63.110106
20
253.596657
70
0
0
VERTEX
8
Layer 1
10
63.262486
20
253.467690
70
0
0
VERTEX
8
Layer 1
10
63.085566
20
252.909356
70
0
0
VERTEX
8
Layer 1
10
62.821188
20
252.236975
70
0
0
VERTEX
8
Layer 1
10
61.852270
20
252.246275
70
0
0
VERTEX
8
Layer 1
10
60.698850
20
252.153985
70
0
0
VERTEX
8
Layer 1
10
59.055158
20
248.267568
70
0
0
VERTEX
8
Layer 1
10
57.595965
20
244.482774
70
0
0
VERTEX
8
Layer 1
10
56.613715
20
244.484274
70
0
0
VERTEX
8
Layer 1
10
55.376422
20
244.457204
70
0
0
VERTEX
8
Layer 1
10
54.998119
20
244.477084
70
0
0
VERTEX
8
Layer 1
10
56.376972
20
248.345776
70
0
0
VERTEX
8
Layer 1
10
56.376976
20
248.345752
70
0
0
SEQEND
8
Layer 1
0
POLYLINE
8
Layer 1
62
7
70
0
10
0.000000
20
0.000000
66
1
0
VERTEX
8
Layer 1
10
61.652462
20
244.633626
70
0
0
VERTEX
8
Layer 1
10
63.431510
20
249.161909
70
0
0
VERTEX
8
Layer 1
10
65.178563
20
253.597460
70
0
0
VERTEX
8
Layer 1
10
65.827001
20
253.646190
70
0
0
VERTEX
8
Layer 1
10
67.808420
20
253.621140
70
0
0
VERTEX
8
Layer 1
10
66.041124
20
249.100819
70
0
0
VERTEX
8
Layer 1
10
64.238904
20
244.594245
70
0
0
VERTEX
8
Layer 1
10
63.392140
20
244.583245
70
0
0
VERTEX
8
Layer 1
10
62.155338
20
244.528095
70
0
0
VERTEX
8
Layer 1
10
61.721004
20
244.512212
70
0
0
VERTEX
8
Layer 1
10
61.652449
20
244.633619
70
0
0
VERTEX
8
Layer 1
10
61.652462
20
244.633626
70
0
0
SEQEND
8
Layer 1
0
POLYLINE
8
Layer 1
62
7
70
0
10
0.000000
20
0.000000
66
1
0
VERTEX
8
Layer 1
10
68.154195
20
245.334835
70
0
0
VERTEX
8
Layer 1
10
67.940588
20
245.784770
70
0
0
VERTEX
8
Layer 1
10
67.973508
20
246.441885
70
0
0
VERTEX
8
Layer 1
10
68.969050
20
249.303613
70
0
0
VERTEX
8
Layer 1
10
69.700502
20
251.084424
70
0
0
VERTEX
8
Layer 1
10
70.269955
20
252.162310
70
0
0
VERTEX
8
Layer 1
10
70.855652
20
252.802350
70
0
0
VERTEX
8
Layer 1
10
71.635834
20
253.269624
70
0
0
VERTEX
8
Layer 1
10
72.821166
20
253.674157
70
0
0
VERTEX
8
Layer 1
10
74.617845
20
253.757079
70
0
0
VERTEX
8
Layer 1
10
76.127553
20
253.564556
70
0
0
VERTEX
8
Layer 1
10
76.604925
20
253.328731
70
0
0
VERTEX
8
Layer 1
10
76.911426
20
252.995155
70
0
0
VERTEX
8
Layer 1
10
77.102211
20
252.518471
70
0
0
VERTEX
8
Layer 1
10
77.052461
20
251.877051
70
0
0
VERTEX
8
Layer 1
10
75.955774
20
248.926812
70
0
0
VERTEX
8
Layer 1
10
74.871317
20
246.383279
70
0
0
VERTEX
8
Layer 1
10
74.294080
20
245.665346
70
0
0
VERTEX
8
Layer 1
10
72.992427
20
244.990324
70
0
0
VERTEX
8
Layer 1
10
71.291033
20
244.675113
70
0
0
VERTEX
8
Layer 1
10
69.181676
20
244.709194
70
0
0
VERTEX
8
Layer 1
10
68.579969
20
244.938127
70
0
0
VERTEX
8
Layer 1
10
68.154195
20
245.334835
70
0
0
VERTEX
8
Layer 1
10
68.154195
20
245.334835
70
0
0
SEQEND
8
Layer 1
0
POLYLINE
8
Layer 1
62
7
70
0
10
0.000000
20
0.000000
66
1
0
VERTEX
8
Layer 1
10
71.410745
20
246.095267
70
0
0
VERTEX
8
Layer 1
10
72.213643
20
246.128817
70
0
0
VERTEX
8
Layer 1
10
73.437510
20
249.241423
70
0
0
VERTEX
8
Layer 1
10
74.373239
20
251.713047
70
0
0
VERTEX
8
Layer 1
10
74.484780
20
252.351251
70
0
0
VERTEX
8
Layer 1
10
73.585998
20
252.386501
70
0
0
VERTEX
8
Layer 1
10
72.863816
20
252.424531
70
0
0
VERTEX
8
Layer 1
10
71.629360
20
249.284993
70
0
0
VERTEX
8
Layer 1
10
70.501372
20
246.103584
70
0
0
VERTEX
8
Layer 1
10
71.410745
20
246.095284
70
0
0
VERTEX
8
Layer 1
10
71.410745
20
246.095267
70
0
0
SEQEND
8
Layer 1
0
POLYLINE
8
Layer 1
62
7
70
0
10
0.000000
20
0.000000
66
1
0
VERTEX
8
Layer 1
10
41.647918
20
261.592652
70
0
0
VERTEX
8
Layer 1
10
42.984631
20
264.880018
70
0
0
VERTEX
8
Layer 1
10
43.313309
20
265.460734
70
0
0
VERTEX
8
Layer 1
10
43.654529
20
265.838469
70
0
0
VERTEX
8
Layer 1
10
44.780125
20
266.619683
70
0
0
VERTEX
8
Layer 1
10
45.987070
20
267.023037
70
0
0
VERTEX
8
Layer 1
10
47.882948
20
267.069482
70
0
0
VERTEX
8
Layer 1
10
49.287615
20
266.937177
70
0
0
VERTEX
8
Layer 1
10
49.642195
20
266.684438
70
0
0
VERTEX
8
Layer 1
10
49.930838
20
266.283430
70
0
0
VERTEX
8
Layer 1
10
50.108531
20
265.817562
70
0
0
VERTEX
8
Layer 1
10
50.130263
20
265.370245
70
0
0
VERTEX
8
Layer 1
10
48.659390
20
261.491606
70
0
0
VERTEX
8
Layer 1
10
47.262513
20
258.039021
70
0
0
VERTEX
8
Layer 1
10
46.909001
20
258.043021
70
0
0
VERTEX
8
Layer 1
10
45.770592
20
258.004311
70
0
0
VERTEX
8
Layer 1
10
45.055952
20
257.983364
70
0
0
VERTEX
8
Layer 1
10
44.779498
20
258.165285
70
0
0
VERTEX
8
Layer 1
10
44.898247
20
258.762413
70
0
0
VERTEX
8
Layer 1
10
45.369213
20
259.987090
70
0
0
VERTEX
8
Layer 1
10
46.037906
20
261.900461
70
0
0
VERTEX
8
Layer 1
10
45.571293
20
261.874291
70
0
0
VERTEX
8
Layer 1
10
44.795747
20
261.831701
70
0
0
VERTEX
8
Layer 1
10
44.414370
20
261.843751
70
0
0
VERTEX
8
Layer 1
10
43.665371
20
259.938859
70
0
0
VERTEX
8
Layer 1
10
42.997166
20
258.346269
70
0
0
VERTEX
8
Layer 1
10
42.640043
20
257.956102
70
0
0
VERTEX
8
Layer 1
10
42.179746
20
257.945992
70
0
0
VERTEX
8
Layer 1
10
41.094369
20
257.952992
70
0
0
VERTEX
8
Layer 1
10
40.192957
20
257.892272
70
0
0
VERTEX
8
Layer 1
10
41.647918
20
261.592652
70
0
0
SEQEND
8
Layer 1
0
POLYLINE
8
Layer 1
62
7
70
0
10
0.000000
20
0.000000
66
1
0
VERTEX
8
Layer 1
10
46.126047
20
263.250988
70
0
0
VERTEX
8
Layer 1
10
46.658869
20
263.267008
70
0
0
VERTEX
8
Layer 1
10
47.144314
20
264.501602
70
0
0
VERTEX
8
Layer 1
10
47.629751
20
265.736198
70
0
0
VERTEX
8
Layer 1
10
46.818885
20
265.727198
70
0
0
VERTEX
8
Layer 1
10
46.008016
20
265.718198
70
0
0
VERTEX
8
Layer 1
10
45.488777
20
264.499712
70
0
0
VERTEX
8
Layer 1
10
44.969534
20
263.281221
70
0
0
VERTEX
8
Layer 1
10
45.281383
20
263.258081
70
0
0
VERTEX
8
Layer 1
10
46.126052
20
263.250981
70
0
0
VERTEX
8
Layer 1
10
46.126047
20
263.250988
70
0
0
SEQEND
8
Layer 1
0
POLYLINE
8
Layer 1
62
7
70
0
10
0.000000
20
0.000000
66
1
0
VERTEX
8
Layer 1
10
76.531846
20
244.434443
70
0
0
VERTEX
8
Layer 1
10
76.859718
20
244.443743
70
0
0
VERTEX
8
Layer 1
10
76.987964
20
244.367566
70
0
0
VERTEX
8
Layer 1
10
76.835858
20
244.314867
70
0
0
VERTEX
8
Layer 1
10
76.513491
20
244.308333
70
0
0
VERTEX
8
Layer 1
10
76.531831
20
244.434373
70
0
0
VERTEX
8
Layer 1
10
76.531846
20
244.434443
70
0
0
SEQEND
8
Layer 1
0
POLYLINE
8
Layer 1
62
7
70
0
10
0.000000
20
0.000000
66
1
0
VERTEX
8
Layer 1
10
76.163423
20
244.829296
70
0
0
VERTEX
8
Layer 1
10
76.270569
20
245.169011
70
0
0
VERTEX
8
Layer 1
10
78.054802
20
249.610349
70
0
0
VERTEX
8
Layer 1
10
79.728582
20
253.814318
70
0
0
VERTEX
8
Layer 1
10
80.141622
20
253.821818
70
0
0
VERTEX
8
Layer 1
10
80.553887
20
253.741336
70
0
0
VERTEX
8
Layer 1
10
80.963154
20
253.322288
70
0
0
VERTEX
8
Layer 1
10
84.449670
20
249.324375
70
0
0
VERTEX
8
Layer 1
10
85.485920
20
251.591985
70
0
0
VERTEX
8
Layer 1
10
86.429980
20
253.895835
70
0
0
VERTEX
8
Layer 1
10
87.245010
20
253.905035
70
0
0
VERTEX
8
Layer 1
10
88.060040
20
253.914235
70
0
0
VERTEX
8
Layer 1
10
86.230100
20
249.359890
70
0
0
VERTEX
8
Layer 1
10
84.400170
20
244.805544
70
0
0
VERTEX
8
Layer 1
10
83.918826
20
244.829624
70
0
0
VERTEX
8
Layer 1
10
83.407570
20
244.979305
70
0
0
VERTEX
8
Layer 1
10
82.752675
20
245.732021
70
0
0
VERTEX
8
Layer 1
10
82.023170
20
246.627906
70
0
0
VERTEX
8
Layer 1
10
80.836056
20
248.007326
70
0
0
VERTEX
8
Layer 1
10
79.620722
20
249.397826
70
0
0
VERTEX
8
Layer 1
10
78.615418
20
247.055187
70
0
0
VERTEX
8
Layer 1
10
77.626716
20
244.706019
70
0
0
VERTEX
8
Layer 1
10
76.868600
20
244.727569
70
0
0
VERTEX
8
Layer 1
10
76.163475
20
244.829310
70
0
0
VERTEX
8
Layer 1
10
76.163423
20
244.829296
70
0
0
SEQEND
8
Layer 1
0
POLYLINE
8
Layer 1
62
7
70
0
10
0.000000
20
0.000000
66
1
0
VERTEX
8
Layer 1
10
46.145010
20
257.742028
70
0
0
VERTEX
8
Layer 1
10
46.374304
20
257.640760
70
0
0
VERTEX
8
Layer 1
10
46.189593
20
257.639660
70
0
0
VERTEX
8
Layer 1
10
46.072899
20
257.713564
70
0
0
VERTEX
8
Layer 1
10
46.145013
20
257.742015
70
0
0
VERTEX
8
Layer 1
10
46.145010
20
257.742028
70
0
0
SEQEND
8
Layer 1
0
POLYLINE
8
Layer 1
62
7
70
0
10
0.000000
20
0.000000
66
1
0
VERTEX
8
Layer 1
10
50.925407
20
262.606062
70
0
0
VERTEX
8
Layer 1
10
52.760513
20
267.179625
70
0
0
VERTEX
8
Layer 1
10
53.179296
20
267.139545
70
0
0
VERTEX
8
Layer 1
10
53.460154
20
267.052133
70
0
0
VERTEX
8
Layer 1
10
53.838723
20
266.743751
70
0
0
VERTEX
8
Layer 1
10
55.503229
20
264.862035
70
0
0
VERTEX
8
Layer 1
10
57.477760
20
262.597329
70
0
0
VERTEX
8
Layer 1
10
58.411803
20
264.829072
70
0
0
VERTEX
8
Layer 1
10
59.350882
20
267.001821
70
0
0
VERTEX
8
Layer 1
10
59.659488
20
267.271799
70
0
0
VERTEX
8
Layer 1
10
60.008478
20
267.218507
70
0
0
VERTEX
8
Layer 1
10
60.343955
20
267.210007
70
0
0
VERTEX
8
Layer 1
10
60.722392
20
267.258677
70
0
0
VERTEX
8
Layer 1
10
60.846933
20
267.162543
70
0
0
VERTEX
8
Layer 1
10
60.727882
20
266.645737
70
0
0
VERTEX
8
Layer 1
10
59.209914
20
262.692329
70
0
0
VERTEX
8
Layer 1
10
57.427124
20
258.158263
70
0
0
VERTEX
8
Layer 1
10
57.009385
20
258.150763
70
0
0
VERTEX
8
Layer 1
10
56.490794
20
258.335836
70
0
0
VERTEX
8
Layer 1
10
55.504980
20
259.413191
70
0
0
VERTEX
8
Layer 1
10
53.710876
20
261.541109
70
0
0
VERTEX
8
Layer 1
10
53.030379
20
262.355258
70
0
0
VERTEX
8
Layer 1
10
52.808459
20
262.529628
70
0
0
VERTEX
8
Layer 1
10
52.624955
20
262.526072
70
0
0
VERTEX
8
Layer 1
10
52.251781
20
261.916809
70
0
0
VERTEX
8
Layer 1
10
51.668033
20
260.390725
70
0
0
VERTEX
8
Layer 1
10
50.783893
20
258.059641
70
0
0
VERTEX
8
Layer 1
10
50.402571
20
258.065041
70
0
0
VERTEX
8
Layer 1
10
49.599360
20
258.034341
70
0
0
VERTEX
8
Layer 1
10
49.133889
20
258.015361
70
0
0
VERTEX
8
Layer 1
10
50.925410
20
262.606055
70
0
0
VERTEX
8
Layer 1
10
50.925407
20
262.606062
70
0
0
SEQEND
8
Layer 1
0
POLYLINE
8
Layer 1
62
7
70
1
10
0.000000
20
0.000000
66
1
0
VERTEX
8
Layer 1
10
61.779325
20
262.085267
70
0
0
VERTEX
8
Layer 1
10
63.287123
20
265.919984
70
0
0
VERTEX
8
Layer 1
10
62.152950
20
265.892214
70
0
0
VERTEX
8
Layer 1
10
61.018778
20
265.864444
70
0
0
VERTEX
8
Layer 1
10
61.293681
20
266.563601
70
0
0
VERTEX
8
Layer 1
10
61.568585
20
267.262759
70
0
0
VERTEX
8
Layer 1
10
62.584511
20
267.257559
70
0
0
VERTEX
8
Layer 1
10
64.171985
20
267.277659
70
0
0
VERTEX
8
Layer 1
10
66.219406
20
267.306979
70
0
0
VERTEX
8
Layer 1
10
68.145757
20
267.331509
70
0
0
VERTEX
8
Layer 1
10
68.675124
20
267.320909
70
0
0
VERTEX
8
Layer 1
10
68.445960
20
266.613503
70
0
0
VERTEX
8
Layer 1
10
68.137899
20
265.937120
70
0
0
VERTEX
8
Layer 1
10
67.438744
20
265.944420
70
0
0
VERTEX
8
Layer 1
10
66.370948
20
265.906920
70
0
0
VERTEX
8
Layer 1
10
66.002312
20
265.862110
70
0
0
VERTEX
8
Layer 1
10
64.495165
20
262.029056
70
0
0
VERTEX
8
Layer 1
10
62.988016
20
258.196000
70
0
0
VERTEX
8
Layer 1
10
61.935945
20
258.198500
70
0
0
VERTEX
8
Layer 1
10
60.577695
20
258.225750
70
0
0
VERTEX
8
Layer 1
10
60.271520
20
258.250520
70
0
0
VERTEX
8
Layer 1
10
61.779325
20
262.085267
70
0
0
SEQEND
8
Layer 1
0
POLYLINE
8
Layer 1
62
7
70
0
10
0.000000
20
0.000000
66
1
0
VERTEX
8
Layer 1
10
76.839761
20
253.676078
70
0
0
VERTEX
8
Layer 1
10
77.069056
20
253.574810
70
0
0
VERTEX
8
Layer 1
10
76.884346
20
253.573710
70
0
0
VERTEX
8
Layer 1
10
76.767651
20
253.647614
70
0
0
VERTEX
8
Layer 1
10
76.839766
20
253.676065
70
0
0
VERTEX
8
Layer 1
10
76.839761
20
253.676078
70
0
0
SEQEND
8
Layer 1
0
POLYLINE
8
Layer 1
62
7
70
0
10
0.000000
20
0.000000
66
1
0
VERTEX
8
Layer 1
10
68.681656
20
262.579677
70
0
0
VERTEX
8
Layer 1
10
70.479052
20
267.124760
70
0
0
VERTEX
8
Layer 1
10
70.845713
20
267.317774
70
0
0
VERTEX
8
Layer 1
10
71.836486
20
267.363256
70
0
0
VERTEX
8
Layer 1
10
73.155697
20
267.361056
70
0
0
VERTEX
8
Layer 1
10
71.465788
20
262.795384
70
0
0
VERTEX
8
Layer 1
10
69.540459
20
258.275476
70
0
0
VERTEX
8
Layer 1
10
68.811352
20
258.295886
70
0
0
VERTEX
8
Layer 1
10
67.072529
20
258.263016
70
0
0
VERTEX
8
Layer 1
10
68.681657
20
262.579634
70
0
0
VERTEX
8
Layer 1
10
68.681656
20
262.579677
70
0
0
SEQEND
8
Layer 1
0
POLYLINE
8
Layer 1
62
7
70
0
10
0.000000
20
0.000000
66
1
0
VERTEX
8
Layer 1
10
74.312786
20
262.892845
70
0
0
VERTEX
8
Layer 1
10
76.094404
20
267.422457
70
0
0
VERTEX
8
Layer 1
10
78.170653
20
267.437257
70
0
0
VERTEX
8
Layer 1
10
80.959390
20
267.478657
70
0
0
VERTEX
8
Layer 1
10
82.020258
20
267.445421
70
0
0
VERTEX
8
Layer 1
10
82.048675
20
267.232866
70
0
0
VERTEX
8
Layer 1
10
81.880441
20
266.785868
70
0
0
VERTEX
8
Layer 1
10
81.574202
20
266.174718
70
0
0
VERTEX
8
Layer 1
10
81.085681
20
266.103673
70
0
0
VERTEX
8
Layer 1
10
79.395967
20
266.091373
70
0
0
VERTEX
8
Layer 1
10
78.225227
20
266.059873
70
0
0
VERTEX
8
Layer 1
10
77.776667
20
264.919053
70
0
0
VERTEX
8
Layer 1
10
77.459223
20
264.009814
70
0
0
VERTEX
8
Layer 1
10
77.489539
20
263.714751
70
0
0
VERTEX
8
Layer 1
10
78.518704
20
263.661101
70
0
0
VERTEX
8
Layer 1
10
79.481492
20
263.633541
70
0
0
VERTEX
8
Layer 1
10
79.240777
20
262.924972
70
0
0
VERTEX
8
Layer 1
10
78.904989
20
262.253786
70
0
0
VERTEX
8
Layer 1
10
77.846537
20
262.240036
70
0
0
VERTEX
8
Layer 1
10
76.788082
20
262.226286
70
0
0
VERTEX
8
Layer 1
10
75.982601
20
260.275741
70
0
0
VERTEX
8
Layer 1
10
75.177123
20
258.325204
70
0
0
VERTEX
8
Layer 1
10
74.666229
20
258.356224
70
0
0
VERTEX
8
Layer 1
10
73.442117
20
258.336364
70
0
0
VERTEX
8
Layer 1
10
72.630052
20
258.324334
70
0
0
VERTEX
8
Layer 1
10
74.312809
20
262.892818
70
0
0
VERTEX
8
Layer 1
10
74.312786
20
262.892845
70
0
0
SEQEND
8
Layer 1
0
POLYLINE
8
Layer 1
62
7
70
0
10
0.000000
20
0.000000
66
1
0
VERTEX
8
Layer 1
10
48.500248
20
276.265639
70
0
0
VERTEX
8
Layer 1
10
50.305209
20
280.780083
70
0
0
VERTEX
8
Layer 1
10
51.327912
20
280.778883
70
0
0
VERTEX
8
Layer 1
10
52.652647
20
280.781283
70
0
0
VERTEX
8
Layer 1
10
52.954680
20
280.784783
70
0
0
VERTEX
8
Layer 1
10
51.191088
20
276.244840
70
0
0
VERTEX
8
Layer 1
10
49.427499
20
271.704905
70
0
0
VERTEX
8
Layer 1
10
48.178421
20
271.682035
70
0
0
VERTEX
8
Layer 1
10
46.812316
20
271.705175
70
0
0
VERTEX
8
Layer 1
10
48.500248
20
276.265627
70
0
0
VERTEX
8
Layer 1
10
48.500248
20
276.265639
70
0
0
SEQEND
8
Layer 1
0
POLYLINE
8
Layer 1
62
7
70
0
10
0.000000
20
0.000000
66
1
0
VERTEX
8
Layer 1
10
81.744744
20
262.155741
70
0
0
VERTEX
8
Layer 1
10
83.170254
20
265.781145
70
0
0
VERTEX
8
Layer 1
10
83.736485
20
266.305150
70
0
0
VERTEX
8
Layer 1
10
85.178700
20
267.203513
70
0
0
VERTEX
8
Layer 1
10
86.558583
20
267.541169
70
0
0
VERTEX
8
Layer 1
10
88.092801
20
267.569251
70
0
0
VERTEX
8
Layer 1
10
89.400177
20
267.317732
70
0
0
VERTEX
8
Layer 1
10
89.849680
20
267.096490
70
0
0
VERTEX
8
Layer 1
10
90.099530
20
266.816588
70
0
0
VERTEX
8
Layer 1
10
90.256522
20
266.295672
70
0
0
VERTEX
8
Layer 1
10
90.170226
20
265.597465
70
0
0
VERTEX
8
Layer 1
10
88.858320
20
262.119749
70
0
0
VERTEX
8
Layer 1
10
87.412490
20
258.537256
70
0
0
VERTEX
8
Layer 1
10
86.133440
20
258.498096
70
0
0
VERTEX
8
Layer 1
10
84.854380
20
258.458926
70
0
0
VERTEX
8
Layer 1
10
85.548370
20
260.402465
70
0
0
VERTEX
8
Layer 1
10
86.242360
20
262.346003
70
0
0
VERTEX
8
Layer 1
10
85.677930
20
262.338903
70
0
0
VERTEX
8
Layer 1
10
84.998145
20
262.318641
70
0
0
VERTEX
8
Layer 1
10
84.602329
20
262.129678
70
0
0
VERTEX
8
Layer 1
10
84.280433
20
261.545841
70
0
0
VERTEX
8
Layer 1
10
83.822404
20
260.340955
70
0
0
VERTEX
8
Layer 1
10
83.111254
20
258.443180
70
0
0
VERTEX
8
Layer 1
10
82.587905
20
258.474360
70
0
0
VERTEX
8
Layer 1
10
81.321296
20
258.467060
70
0
0
VERTEX
8
Layer 1
10
80.448642
20
258.479480
70
0
0
VERTEX
8
Layer 1
10
81.744748
20
262.155768
70
0
0
VERTEX
8
Layer 1
10
81.744744
20
262.155741
70
0
0
SEQEND
8
Layer 1
0
POLYLINE
8
Layer 1
62
7
70
0
10
0.000000
20
0.000000
66
1
0
VERTEX
8
Layer 1
10
86.141100
20
263.765489
70
0
0
VERTEX
8
Layer 1
10
86.896820
20
263.831919
70
0
0
VERTEX
8
Layer 1
10
87.346780
20
264.976290
70
0
0
VERTEX
8
Layer 1
10
87.687220
20
266.163736
70
0
0
VERTEX
8
Layer 1
10
86.815100
20
266.161636
70
0
0
VERTEX
8
Layer 1
10
86.052510
20
266.116406
70
0
0
VERTEX
8
Layer 1
10
85.629910
20
264.977870
70
0
0
VERTEX
8
Layer 1
10
85.198610
20
263.807653
70
0
0
VERTEX
8
Layer 1
10
86.141090
20
263.765543
70
0
0
VERTEX
8
Layer 1
10
86.141100
20
263.765489
70
0
0
SEQEND
8
Layer 1
0
POLYLINE
8
Layer 1
62
7
70
0
10
0.000000
20
0.000000
66
1
0
VERTEX
8
Layer 1
10
53.298967
20
272.671524
70
0
0
VERTEX
8
Layer 1
10
53.181710
20
273.174057
70
0
0
VERTEX
8
Layer 1
10
53.277199
20
273.850217
70
0
0
VERTEX
8
Layer 1
10
54.390891
20
276.798675
70
0
0
VERTEX
8
Layer 1
10
55.110965
20
278.486613
70
0
0
VERTEX
8
Layer 1
10
55.656267
20
279.466241
70
0
0
VERTEX
8
Layer 1
10
56.247800
20
280.039411
70
0
0
VERTEX
8
Layer 1
10
57.106565
20
280.507972
70
0
0
VERTEX
8
Layer 1
10
58.546561
20
280.843394
70
0
0
VERTEX
8
Layer 1
10
60.856167
20
280.850889
70
0
0
VERTEX
8
Layer 1
10
61.692569
20
280.668878
70
0
0
VERTEX
8
Layer 1
10
62.248766
20
280.260492
70
0
0
VERTEX
8
Layer 1
10
62.487845
20
279.671999
70
0
0
VERTEX
8
Layer 1
10
62.372896
20
278.949667
70
0
0
VERTEX
8
Layer 1
10
62.135874
20
278.651455
70
0
0
VERTEX
8
Layer 1
10
61.531275
20
278.571582
70
0
0
VERTEX
8
Layer 1
10
60.800743
20
278.585555
70
0
0
VERTEX
8
Layer 1
10
60.773223
20
278.873712
70
0
0
VERTEX
8
Layer 1
10
60.783222
20
279.207894
70
0
0
VERTEX
8
Layer 1
10
60.591065
20
279.411114
70
0
0
VERTEX
8
Layer 1
10
59.396878
20
279.520197
70
0
0
VERTEX
8
Layer 1
10
58.249297
20
279.494327
70
0
0
VERTEX
8
Layer 1
10
56.993189
20
276.407863
70
0
0
VERTEX
8
Layer 1
10
55.736798
20
273.226603
70
0
0
VERTEX
8
Layer 1
10
56.802847
20
273.147649
70
0
0
VERTEX
8
Layer 1
10
58.162009
20
273.291603
70
0
0
VERTEX
8
Layer 1
10
58.750743
20
273.820754
70
0
0
VERTEX
8
Layer 1
10
59.138494
20
274.160265
70
0
0
VERTEX
8
Layer 1
10
59.828179
20
274.169865
70
0
0
VERTEX
8
Layer 1
10
60.488376
20
274.165772
70
0
0
VERTEX
8
Layer 1
10
60.392180
20
273.772588
70
0
0
VERTEX
8
Layer 1
10
59.788205
20
272.990842
70
0
0
VERTEX
8
Layer 1
10
59.044114
20
272.403763
70
0
0
VERTEX
8
Layer 1
10
58.164150
20
272.013904
70
0
0
VERTEX
8
Layer 1
10
57.152555
20
271.823818
70
0
0
VERTEX
8
Layer 1
10
55.234968
20
271.785039
70
0
0
VERTEX
8
Layer 1
10
53.936837
20
271.993317
70
0
0
VERTEX
8
Layer 1
10
53.550937
20
272.237729
70
0
0
VERTEX
8
Layer 1
10
53.299198
20
272.671976
70
0
0
VERTEX
8
Layer 1
10
53.298967
20
272.671524
70
0
0
SEQEND
8
Layer 1
0
POLYLINE
8
Layer 1
62
7
70
0
10
0.000000
20
0.000000
66
1
0
VERTEX
8
Layer 1
10
90.349070
20
259.042501
70
0
0
VERTEX
8
Layer 1
10
90.024692
20
259.696677
70
0
0
VERTEX
8
Layer 1
10
90.063240
20
260.457649
70
0
0
VERTEX
8
Layer 1
10
90.297216
20
260.818032
70
0
0
VERTEX
8
Layer 1
10
90.801380
20
260.904551
70
0
0
VERTEX
8
Layer 1
10
91.551154
20
260.834705
70
0
0
VERTEX
8
Layer 1
10
91.678049
20
260.690485
70
0
0
VERTEX
8
Layer 1
10
91.686910
20
260.449073
70
0
0
VERTEX
8
Layer 1
10
91.810000
20
260.070814
70
0
0
VERTEX
8
Layer 1
10
92.540230
20
259.925165
70
0
0
VERTEX
8
Layer 1
10
93.065740
20
259.881165
70
0
0
VERTEX
8
Layer 1
10
93.357470
20
260.623103
70
0
0
VERTEX
8
Layer 1
10
93.536132
20
261.101235
70
0
0
VERTEX
8
Layer 1
10
93.532665
20
261.439812
70
0
0
VERTEX
8
Layer 1
10
92.671750
20
262.572894
70
0
0
VERTEX
8
Layer 1
10
91.776840
20
263.850798
70
0
0
VERTEX
8
Layer 1
10
91.623770
20
264.402933
70
0
0
VERTEX
8
Layer 1
10
91.910110
20
265.211797
70
0
0
VERTEX
8
Layer 1
10
92.536305
20
266.256659
70
0
0
VERTEX
8
Layer 1
10
93.382750
20
266.998591
70
0
0
VERTEX
8
Layer 1
10
94.459430
20
267.443757
70
0
0
VERTEX
8
Layer 1
10
95.776330
20
267.598320
70
0
0
VERTEX
8
Layer 1
10
97.105220
20
267.490169
70
0
0
VERTEX
8
Layer 1
10
97.821180
20
267.035081
70
0
0
VERTEX
8
Layer 1
10
98.103555
20
266.430529
70
0
0
VERTEX
8
Layer 1
10
98.040960
20
265.673023
70
0
0
VERTEX
8
Layer 1
10
97.830390
20
265.350768
70
0
0
VERTEX
8
Layer 1
10
97.156020
20
265.284504
70
0
0
VERTEX
8
Layer 1
10
96.357280
20
265.282604
70
0
0
VERTEX
8
Layer 1
10
96.427780
20
265.640365
70
0
0
VERTEX
8
Layer 1
10
96.438798
20
265.918576
70
0
0
VERTEX
8
Layer 1
10
96.296205
20
266.109395
70
0
0
VERTEX
8
Layer 1
10
95.528150
20
266.243646
70
0
0
VERTEX
8
Layer 1
10
95.037807
20
266.147295
70
0
0
VERTEX
8
Layer 1
10
94.746470
20
265.583900
70
0
0
VERTEX
8
Layer 1
10
94.491440
20
264.935296
70
0
0
VERTEX
8
Layer 1
10
95.248080
20
264.041356
70
0
0
VERTEX
8
Layer 1
10
96.280730
20
262.561113
70
0
0
VERTEX
8
Layer 1
10
96.471609
20
261.930672
70
0
0
VERTEX
8
Layer 1
10
96.196430
20
261.058592
70
0
0
VERTEX
8
Layer 1
10
95.578601
20
259.908704
70
0
0
VERTEX
8
Layer 1
10
94.676200
20
259.149296
70
0
0
VERTEX
8
Layer 1
10
93.605067
20
258.737675
70
0
0
VERTEX
8
Layer 1
10
92.343246
20
258.578128
70
0
0
VERTEX
8
Layer 1
10
91.166117
20
258.677454
70
0
0
VERTEX
8
Layer 1
10
90.349060
20
259.042453
70
0
0
VERTEX
8
Layer 1
10
90.349070
20
259.042501
70
0
0
SEQEND
8
Layer 1
0
POLYLINE
8
Layer 1
62
7
70
0
10
0.000000
20
0.000000
66
1
0
VERTEX
8
Layer 1
10
62.983777
20
276.333349
70
0
0
VERTEX
8
Layer 1
10
64.786509
20
280.854707
70
0
0
VERTEX
8
Layer 1
10
65.441685
20
280.911457
70
0
0
VERTEX
8
Layer 1
10
66.808260
20
280.968807
70
0
0
VERTEX
8
Layer 1
10
67.519654
20
280.969400
70
0
0
VERTEX
8
Layer 1
10
66.757281
20
279.030505
70
0
0
VERTEX
8
Layer 1
10
65.994904
20
277.091602
70
0
0
VERTEX
8
Layer 1
10
66.707755
20
277.156532
70
0
0
VERTEX
8
Layer 1
10
67.554954
20
277.168642
70
0
0
VERTEX
8
Layer 1
10
68.446263
20
279.040959
70
0
0
VERTEX
8
Layer 1
10
69.145099
20
280.710327
70
0
0
VERTEX
8
Layer 1
10
69.328919
20
280.938365
70
0
0
VERTEX
8
Layer 1
10
69.527396
20
280.987098
70
0
0
VERTEX
8
Layer 1
10
71.729275
20
281.003158
70
0
0
VERTEX
8
Layer 1
10
71.430410
20
279.949466
70
0
0
VERTEX
8
Layer 1
10
70.063345
20
276.453850
70
0
0
VERTEX
8
Layer 1
10
68.259135
20
271.958916
70
0
0
VERTEX
8
Layer 1
10
67.332076
20
271.922256
70
0
0
VERTEX
8
Layer 1
10
66.037859
20
271.933806
70
0
0
VERTEX
8
Layer 1
10
65.670699
20
271.982026
70
0
0
VERTEX
8
Layer 1
10
66.413059
20
273.870032
70
0
0
VERTEX
8
Layer 1
10
67.155416
20
275.758032
70
0
0
VERTEX
8
Layer 1
10
66.349743
20
275.762232
70
0
0
VERTEX
8
Layer 1
10
65.544066
20
275.766432
70
0
0
VERTEX
8
Layer 1
10
64.741445
20
273.823102
70
0
0
VERTEX
8
Layer 1
10
63.938815
20
271.879766
70
0
0
VERTEX
8
Layer 1
10
62.782845
20
271.877166
70
0
0
VERTEX
8
Layer 1
10
61.470860
20
271.817006
70
0
0
VERTEX
8
Layer 1
10
61.247944
20
271.785706
70
0
0
VERTEX
8
Layer 1
10
62.983776
20
276.333321
70
0
0
VERTEX
8
Layer 1
10
62.983777
20
276.333349
70
0
0
SEQEND
8
Layer 1
0
POLYLINE
8
Layer 1
62
7
70
0
10
0.000000
20
0.000000
66
1
0
VERTEX
8
Layer 1
10
98.195980
20
259.251246
70
0
0
VERTEX
8
Layer 1
10
97.953208
20
259.673537
70
0
0
VERTEX
8
Layer 1
10
97.986114
20
260.331810
70
0
0
VERTEX
8
Layer 1
10
99.108120
20
263.398117
70
0
0
VERTEX
8
Layer 1
10
100.304090
20
266.327640
70
0
0
VERTEX
8
Layer 1
10
100.917250
20
266.834006
70
0
0
VERTEX
8
Layer 1
10
102.069547
20
267.489189
70
0
0
VERTEX
8
Layer 1
10
103.548440
20
267.735531
70
0
0
VERTEX
8
Layer 1
10
104.809850
20
267.788431
70
0
0
VERTEX
8
Layer 1
10
105.823033
20
267.743750
70
0
0
VERTEX
8
Layer 1
10
106.573640
20
267.517063
70
0
0
VERTEX
8
Layer 1
10
107.050625
20
267.114037
70
0
0
VERTEX
8
Layer 1
10
107.242940
20
266.540335
70
0
0
VERTEX
8
Layer 1
10
107.242296
20
266.000748
70
0
0
VERTEX
8
Layer 1
10
107.117116
20
265.675923
70
0
0
VERTEX
8
Layer 1
10
106.822925
20
265.514262
70
0
0
VERTEX
8
Layer 1
10
106.315250
20
265.464164
70
0
0
VERTEX
8
Layer 1
10
105.510233
20
265.498534
70
0
0
VERTEX
8
Layer 1
10
105.444146
20
265.606641
70
0
0
VERTEX
8
Layer 1
10
105.508660
20
265.816257
70
0
0
VERTEX
8
Layer 1
10
105.539936
20
266.083039
70
0
0
VERTEX
8
Layer 1
10
105.404234
20
266.277437
70
0
0
VERTEX
8
Layer 1
10
104.672560
20
266.419714
70
0
0
VERTEX
8
Layer 1
10
102.981570
20
266.257730
70
0
0
VERTEX
8
Layer 1
10
101.640703
20
263.110868
70
0
0
VERTEX
8
Layer 1
10
100.488490
20
260.007081
70
0
0
VERTEX
8
Layer 1
10
100.804340
20
260.006917
70
0
0
VERTEX
8
Layer 1
10
102.292610
20
260.055197
70
0
0
VERTEX
8
Layer 1
10
103.143566
20
260.320082
70
0
0
VERTEX
8
Layer 1
10
103.465961
20
260.566853
70
0
0
VERTEX
8
Layer 1
10
103.595410
20
260.817179
70
0
0
VERTEX
8
Layer 1
10
103.803549
20
261.040562
70
0
0
VERTEX
8
Layer 1
10
104.423640
20
261.092780
70
0
0
VERTEX
8
Layer 1
10
105.104860
20
261.078550
70
0
0
VERTEX
8
Layer 1
10
105.286473
20
261.010425
70
0
0
VERTEX
8
Layer 1
10
105.101860
20
260.637950
70
0
0
VERTEX
8
Layer 1
10
104.475603
20
259.818804
70
0
0
VERTEX
8
Layer 1
10
103.655200
20
259.219214
70
0
0
VERTEX
8
Layer 1
10
102.431209
20
258.783697
70
0
0
VERTEX
8
Layer 1
10
100.496270
20
258.678036
70
0
0
VERTEX
8
Layer 1
10
98.996445
20
258.811881
70
0
0
VERTEX
8
Layer 1
10
98.196430
20
259.251275
70
0
0
VERTEX
8
Layer 1
10
98.195980
20
259.251246
70
0
0
SEQEND
8
Layer 1
0
POLYLINE
8
Layer 1
62
7
70
0
10
0.000000
20
0.000000
66
1
0
VERTEX
8
Layer 1
10
107.770040
20
263.269470
70
0
0
VERTEX
8
Layer 1
10
109.597830
20
267.824656
70
0
0
VERTEX
8
Layer 1
10
110.791040
20
267.835146
70
0
0
VERTEX
8
Layer 1
10
112.075530
20
267.769316
70
0
0
VERTEX
8
Layer 1
10
111.471330
20
265.899323
70
0
0
VERTEX
8
Layer 1
10
110.880570
20
264.064486
70
0
0
VERTEX
8
Layer 1
10
111.238430
20
264.047036
70
0
0
VERTEX
8
Layer 1
10
112.020690
20
264.086486
70
0
0
VERTEX
8
Layer 1
10
112.549820
20
264.102206
70
0
0
VERTEX
8
Layer 1
10
113.333630
20
265.997259
70
0
0
VERTEX
8
Layer 1
10
114.117450
20
267.892310
70
0
0
VERTEX
8
Layer 1
10
115.246900
20
267.908090
70
0
0
VERTEX
8
Layer 1
10
116.531280
20
267.871540
70
0
0
VERTEX
8
Layer 1
10
116.288123
20
266.898906
70
0
0
VERTEX
8
Layer 1
10
114.912570
20
263.308410
70
0
0
VERTEX
8
Layer 1
10
113.371867
20
259.484598
70
0
0
VERTEX
8
Layer 1
10
113.078075
20
258.925001
70
0
0
VERTEX
8
Layer 1
10
112.903920
20
258.824791
70
0
0
VERTEX
8
Layer 1
10
111.598510
20
258.807881
70
0
0
VERTEX
8
Layer 1
10
110.528120
20
258.763791
70
0
0
VERTEX
8
Layer 1
10
111.216300
20
260.612929
70
0
0
VERTEX
8
Layer 1
10
111.848760
20
262.578541
70
0
0
VERTEX
8
Layer 1
10
110.997490
20
262.635631
70
0
0
VERTEX
8
Layer 1
10
110.201910
20
262.576261
70
0
0
VERTEX
8
Layer 1
10
109.420050
20
260.685972
70
0
0
VERTEX
8
Layer 1
10
108.779352
20
259.233326
70
0
0
VERTEX
8
Layer 1
10
108.465370
20
258.793597
70
0
0
VERTEX
8
Layer 1
10
107.117330
20
258.752947
70
0
0
VERTEX
8
Layer 1
10
105.942120
20
258.714357
70
0
0
VERTEX
8
Layer 1
10
107.770040
20
263.269470
70
0
0
SEQEND
8
Layer 1
0
POLYLINE
8
Layer 1
62
7
70
0
10
0.000000
20
0.000000
66
1
0
VERTEX
8
Layer 1
10
76.412711
20
276.528794
70
0
0
VERTEX
8
Layer 1
10
78.307455
20
281.085395
70
0
0
VERTEX
8
Layer 1
10
79.025191
20
281.125325
70
0
0
VERTEX
8
Layer 1
10
82.269233
20
281.150535
70
0
0
VERTEX
8
Layer 1
10
83.512372
20
281.064863
70
0
0
VERTEX
8
Layer 1
10
84.281192
20
280.656012
70
0
0
VERTEX
8
Layer 1
10
84.551302
20
280.307558
70
0
0
VERTEX
8
Layer 1
10
84.639864
20
279.901165
70
0
0
VERTEX
8
Layer 1
10
84.270372
20
278.525011
70
0
0
VERTEX
8
Layer 1
10
83.859702
20
277.609210
70
0
0
VERTEX
8
Layer 1
10
83.348022
20
277.067476
70
0
0
VERTEX
8
Layer 1
10
82.809271
20
276.625976
70
0
0
VERTEX
8
Layer 1
10
83.028179
20
276.211231
70
0
0
VERTEX
8
Layer 1
10
83.153442
20
275.702310
70
0
0
VERTEX
8
Layer 1
10
82.793265
20
274.705177
70
0
0
VERTEX
8
Layer 1
10
82.317354
20
273.721870
70
0
0
VERTEX
8
Layer 1
10
81.768591
20
273.095228
70
0
0
VERTEX
8
Layer 1
10
81.037998
20
272.536192
70
0
0
VERTEX
8
Layer 1
10
80.171140
20
272.219985
70
0
0
VERTEX
8
Layer 1
10
78.831320
20
272.076461
70
0
0
VERTEX
8
Layer 1
10
76.681842
20
272.035473
70
0
0
VERTEX
8
Layer 1
10
74.680497
20
272.025673
70
0
0
VERTEX
8
Layer 1
10
76.412711
20
276.528794
70
0
0
SEQEND
8
Layer 1
0
POLYLINE
8
Layer 1
62
7
70
0
10
0.000000
20
0.000000
66
1
0
VERTEX
8
Layer 1
10
78.810969
20
273.454951
70
0
0
VERTEX
8
Layer 1
10
79.583426
20
273.442131
70
0
0
VERTEX
8
Layer 1
10
80.079741
20
274.704382
70
0
0
VERTEX
8
Layer 1
10
80.576057
20
275.966632
70
0
0
VERTEX
8
Layer 1
10
80.110005
20
275.941882
70
0
0
VERTEX
8
Layer 1
10
79.258464
20
275.918732
70
0
0
VERTEX
8
Layer 1
10
79.028452
20
275.900406
70
0
0
VERTEX
8
Layer 1
10
78.861892
20
275.768449
70
0
0
VERTEX
8
Layer 1
10
78.399501
20
274.716170
70
0
0
VERTEX
8
Layer 1
10
77.982269
20
273.489897
70
0
0
VERTEX
8
Layer 1
10
78.810969
20
273.454947
70
0
0
VERTEX
8
Layer 1
10
78.810969
20
273.454951
70
0
0
SEQEND
8
Layer 1
0
POLYLINE
8
Layer 1
62
7
70
0
10
0.000000
20
0.000000
66
1
0
VERTEX
8
Layer 1
10
80.457063
20
277.360175
70
0
0
VERTEX
8
Layer 1
10
81.119629
20
277.349075
70
0
0
VERTEX
8
Layer 1
10
81.591282
20
278.548612
70
0
0
VERTEX
8
Layer 1
10
81.970111
20
279.779882
70
0
0
VERTEX
8
Layer 1
10
81.298474
20
279.767922
70
0
0
VERTEX
8
Layer 1
10
80.566036
20
279.779862
70
0
0
VERTEX
8
Layer 1
10
80.332963
20
279.533391
70
0
0
VERTEX
8
Layer 1
10
79.904495
20
278.543754
70
0
0
VERTEX
8
Layer 1
10
79.541521
20
277.529110
70
0
0
VERTEX
8
Layer 1
10
79.595539
20
277.311645
70
0
0
VERTEX
8
Layer 1
10
80.457061
20
277.360175
70
0
0
VERTEX
8
Layer 1
10
80.457063
20
277.360175
70
0
0
SEQEND
8
Layer 1
0
POLYLINE
8
Layer 1
62
7
70
0
10
0.000000
20
0.000000
66
1
0
VERTEX
8
Layer 1
10
116.100720
20
258.835613
70
0
0
VERTEX
8
Layer 1
10
117.905000
20
263.434671
70
0
0
VERTEX
8
Layer 1
10
119.681620
20
267.957200
70
0
0
VERTEX
8
Layer 1
10
120.281940
20
267.957292
70
0
0
VERTEX
8
Layer 1
10
121.547110
20
267.984882
70
0
0
VERTEX
8
Layer 1
10
122.256970
20
267.909062
70
0
0
VERTEX
8
Layer 1
10
120.539450
20
263.345046
70
0
0
VERTEX
8
Layer 1
10
118.776970
20
258.884331
70
0
0
VERTEX
8
Layer 1
10
117.623870
20
258.882431
70
0
0
VERTEX
8
Layer 1
10
116.271470
20
258.819991
70
0
0
VERTEX
8
Layer 1
10
116.100350
20
258.835671
70
0
0
VERTEX
8
Layer 1
10
116.100720
20
258.835613
70
0
0
SEQEND
8
Layer 1
0
POLYLINE
8
Layer 1
62
7
70
0
10
0.000000
20
0.000000
66
1
0
VERTEX
8
Layer 1
10
82.115464
20
272.576102
70
0
0
VERTEX
8
Layer 1
10
82.167054
20
272.772487
70
0
0
VERTEX
8
Layer 1
10
82.246024
20
272.591687
70
0
0
VERTEX
8
Layer 1
10
82.196358
20
272.400986
70
0
0
VERTEX
8
Layer 1
10
82.115482
20
272.576137
70
0
0
VERTEX
8
Layer 1
10
82.115464
20
272.576102
70
0
0
SEQEND
8
Layer 1
0
POLYLINE
8
Layer 1
62
7
70
0
10
0.000000
20
0.000000
66
1
0
VERTEX
8
Layer 1
10
86.339380
20
276.697750
70
0
0
VERTEX
8
Layer 1
10
88.120510
20
281.227608
70
0
0
VERTEX
8
Layer 1
10
89.284740
20
281.242538
70
0
0
VERTEX
8
Layer 1
10
90.624390
20
281.257278
70
0
0
VERTEX
8
Layer 1
10
90.397956
20
280.326124
70
0
0
VERTEX
8
Layer 1
10
89.005820
20
276.694499
70
0
0
VERTEX
8
Layer 1
10
87.211820
20
272.131909
70
0
0
VERTEX
8
Layer 1
10
86.200030
20
272.147559
70
0
0
VERTEX
8
Layer 1
10
85.031330
20
272.103389
70
0
0
VERTEX
8
Layer 1
10
84.744136
20
272.082757
70
0
0
VERTEX
8
Layer 1
10
84.795248
20
272.591648
70
0
0
VERTEX
8
Layer 1
10
86.339380
20
276.697748
70
0
0
VERTEX
8
Layer 1
10
86.339380
20
276.697750
70
0
0
SEQEND
8
Layer 1
0
POLYLINE
8
Layer 1
62
7
70
0
10
0.000000
20
0.000000
66
1
0
VERTEX
8
Layer 1
10
91.838290
20
276.664970
70
0
0
VERTEX
8
Layer 1
10
93.717800
20
281.193756
70
0
0
VERTEX
8
Layer 1
10
94.318731
20
281.246223
70
0
0
VERTEX
8
Layer 1
10
94.925430
20
280.858259
70
0
0
VERTEX
8
Layer 1
10
95.831600
20
279.770541
70
0
0
VERTEX
8
Layer 1
10
98.181990
20
276.970020
70
0
0
VERTEX
8
Layer 1
10
98.491100
20
276.765968
70
0
0
VERTEX
8
Layer 1
10
99.474460
20
279.071644
70
0
0
VERTEX
8
Layer 1
10
100.398560
20
281.314109
70
0
0
VERTEX
8
Layer 1
10
101.211420
20
281.401099
70
0
0
VERTEX
8
Layer 1
10
101.975940
20
281.470759
70
0
0
VERTEX
8
Layer 1
10
100.161960
20
276.857360
70
0
0
VERTEX
8
Layer 1
10
98.347980
20
272.243961
70
0
0
VERTEX
8
Layer 1
10
97.942930
20
272.308671
70
0
0
VERTEX
8
Layer 1
10
97.289000
20
272.627357
70
0
0
VERTEX
8
Layer 1
10
96.465090
20
273.525790
70
0
0
VERTEX
8
Layer 1
10
95.180430
20
275.079294
70
0
0
VERTEX
8
Layer 1
10
94.040660
20
276.465613
70
0
0
VERTEX
8
Layer 1
10
93.672250
20
276.867740
70
0
0
VERTEX
8
Layer 1
10
92.654630
20
274.547498
70
0
0
VERTEX
8
Layer 1
10
91.728040
20
272.190946
70
0
0
VERTEX
8
Layer 1
10
91.275220
20
272.199846
70
0
0
VERTEX
8
Layer 1
10
90.567400
20
272.180306
70
0
0
VERTEX
8
Layer 1
10
90.203370
20
272.194756
70
0
0
VERTEX
8
Layer 1
10
91.838290
20
276.664985
70
0
0
VERTEX
8
Layer 1
10
91.838290
20
276.664970
70
0
0
SEQEND
8
Layer 1
0
POLYLINE
8
Layer 1
62
7
70
0
10
0.000000
20
0.000000
66
1
0
VERTEX
8
Layer 1
10
122.534380
20
259.727966
70
0
0
VERTEX
8
Layer 1
10
122.343775
20
260.370764
70
0
0
VERTEX
8
Layer 1
10
122.419120
20
260.973889
70
0
0
VERTEX
8
Layer 1
10
122.653969
20
261.214923
70
0
0
VERTEX
8
Layer 1
10
123.261680
20
261.283656
70
0
0
VERTEX
8
Layer 1
10
124.067656
20
261.243682
70
0
0
VERTEX
8
Layer 1
10
124.143085
20
261.132522
70
0
0
VERTEX
8
Layer 1
10
124.084280
20
260.923755
70
0
0
VERTEX
8
Layer 1
10
124.081777
20
260.605182
70
0
0
VERTEX
8
Layer 1
10
124.316535
20
260.387181
70
0
0
VERTEX
8
Layer 1
10
124.728143
20
260.298422
70
0
0
VERTEX
8
Layer 1
10
125.256190
20
260.367576
70
0
0
VERTEX
8
Layer 1
10
125.598672
20
260.566086
70
0
0
VERTEX
8
Layer 1
10
125.809710
20
261.179209
70
0
0
VERTEX
8
Layer 1
10
125.990720
20
261.887095
70
0
0
VERTEX
8
Layer 1
10
125.166140
20
262.821600
70
0
0
VERTEX
8
Layer 1
10
124.119950
20
264.246018
70
0
0
VERTEX
8
Layer 1
10
123.984048
20
264.786136
70
0
0
VERTEX
8
Layer 1
10
124.216350
20
265.541966
70
0
0
VERTEX
8
Layer 1
10
124.860119
20
266.629359
70
0
0
VERTEX
8
Layer 1
10
125.800922
20
267.416691
70
0
0
VERTEX
8
Layer 1
10
127.012037
20
267.888268
70
0
0
VERTEX
8
Layer 1
10
128.466740
20
268.028398
70
0
0
VERTEX
8
Layer 1
10
129.325141
20
267.957095
70
0
0
VERTEX
8
Layer 1
10
129.838400
20
267.702477
70
0
0
VERTEX
8
Layer 1
10
130.420216
20
267.040070
70
0
0
VERTEX
8
Layer 1
10
130.454660
20
266.229684
70
0
0
VERTEX
8
Layer 1
10
130.284259
20
265.753788
70
0
0
VERTEX
8
Layer 1
10
129.860500
20
265.672789
70
0
0
VERTEX
8
Layer 1
10
128.978073
20
265.723224
70
0
0
VERTEX
8
Layer 1
10
128.841090
20
265.845482
70
0
0
VERTEX
8
Layer 1
10
128.802640
20
266.071768
70
0
0
VERTEX
8
Layer 1
10
128.717683
20
266.347803
70
0
0
VERTEX
8
Layer 1
10
128.503210
20
266.537021
70
0
0
VERTEX
8
Layer 1
10
127.726510
20
266.633722
70
0
0
VERTEX
8
Layer 1
10
127.328334
20
266.501399
70
0
0
VERTEX
8
Layer 1
10
127.067160
20
266.010410
70
0
0
VERTEX
8
Layer 1
10
126.839570
20
265.431552
70
0
0
VERTEX
8
Layer 1
10
127.758900
20
264.287982
70
0
0
VERTEX
8
Layer 1
10
128.461757
20
263.343440
70
0
0
VERTEX
8
Layer 1
10
128.796361
20
262.638842
70
0
0
VERTEX
8
Layer 1
10
128.806825
20
262.002795
70
0
0
VERTEX
8
Layer 1
10
128.537260
20
261.263908
70
0
0
VERTEX
8
Layer 1
10
127.787719
20
260.117146
70
0
0
VERTEX
8
Layer 1
10
126.642650
20
259.373119
70
0
0
VERTEX
8
Layer 1
10
125.441979
20
259.024267
70
0
0
VERTEX
8
Layer 1
10
124.200464
20
258.980646
70
0
0
VERTEX
8
Layer 1
10
123.152972
20
259.221970
70
0
0
VERTEX
8
Layer 1
10
122.534370
20
259.727953
70
0
0
VERTEX
8
Layer 1
10
122.534380
20
259.727966
70
0
0
SEQEND
8
Layer 1
0
POLYLINE
8
Layer 1
62
7
70
0
10
0.000000
20
0.000000
66
1
0
VERTEX
8
Layer 1
10
132.028140
20
262.915470
70
0
0
VERTEX
8
Layer 1
10
133.551150
20
266.788757
70
0
0
VERTEX
8
Layer 1
10
132.734370
20
266.764707
70
0
0
VERTEX
8
Layer 1
10
131.659250
20
266.703747
70
0
0
VERTEX
8
Layer 1
10
131.345904
20
266.758541
70
0
0
VERTEX
8
Layer 1
10
131.551160
20
267.415670
70
0
0
VERTEX
8
Layer 1
10
131.826230
20
268.115427
70
0
0
VERTEX
8
Layer 1
10
132.774550
20
268.116827
70
0
0
VERTEX
8
Layer 1
10
136.334100
20
268.155807
70
0
0
VERTEX
8
Layer 1
10
138.976630
20
268.181007
70
0
0
VERTEX
8
Layer 1
10
138.732430
20
267.469692
70
0
0
VERTEX
8
Layer 1
10
138.457000
20
266.770652
70
0
0
VERTEX
8
Layer 1
10
137.343510
20
266.793922
70
0
0
VERTEX
8
Layer 1
10
136.230010
20
266.817192
70
0
0
VERTEX
8
Layer 1
10
134.711070
20
262.953985
70
0
0
VERTEX
8
Layer 1
10
133.192130
20
259.090779
70
0
0
VERTEX
8
Layer 1
10
132.398750
20
259.047599
70
0
0
VERTEX
8
Layer 1
10
131.433760
20
259.071899
70
0
0
VERTEX
8
Layer 1
10
131.154000
20
259.058439
70
0
0
VERTEX
8
Layer 1
10
130.775570
20
259.009769
70
0
0
VERTEX
8
Layer 1
10
130.647318
20
259.095790
70
0
0
VERTEX
8
Layer 1
10
130.738075
20
259.540728
70
0
0
VERTEX
8
Layer 1
10
132.028230
20
262.915350
70
0
0
VERTEX
8
Layer 1
10
132.028140
20
262.915470
70
0
0
SEQEND
8
Layer 1
0
POLYLINE
8
Layer 1
62
7
70
0
10
0.000000
20
0.000000
66
1
0
VERTEX
8
Layer 1
10
138.968110
20
263.708015
70
0
0
VERTEX
8
Layer 1
10
140.778460
20
268.207816
70
0
0
VERTEX
8
Layer 1
10
141.478630
20
268.203116
70
0
0
VERTEX
8
Layer 1
10
142.753890
20
268.232636
70
0
0
VERTEX
8
Layer 1
10
143.349930
20
268.222736
70
0
0
VERTEX
8
Layer 1
10
141.609870
20
263.690874
70
0
0
VERTEX
8
Layer 1
10
139.849320
20
259.203001
70
0
0
VERTEX
8
Layer 1
10
138.661820
20
259.146051
70
0
0
VERTEX
8
Layer 1
10
137.316330
20
259.148551
70
0
0
VERTEX
8
Layer 1
10
137.549363
20
260.090153
70
0
0
VERTEX
8
Layer 1
10
138.968640
20
263.707836
70
0
0
VERTEX
8
Layer 1
10
138.968110
20
263.708015
70
0
0
SEQEND
8
Layer 1
0
POLYLINE
8
Layer 1
62
7
70
0
10
0.000000
20
0.000000
66
1
0
VERTEX
8
Layer 1
10
106.216450
20
276.900629
70
0
0
VERTEX
8
Layer 1
10
107.999190
20
281.434549
70
0
0
VERTEX
8
Layer 1
10
108.746630
20
281.460759
70
0
0
VERTEX
8
Layer 1
10
110.064360
20
281.509009
70
0
0
VERTEX
8
Layer 1
10
112.031910
20
281.513709
70
0
0
VERTEX
8
Layer 1
10
113.585560
20
281.554919
70
0
0
VERTEX
8
Layer 1
10
113.835351
20
281.599841
70
0
0
VERTEX
8
Layer 1
10
113.948404
20
281.494413
70
0
0
VERTEX
8
Layer 1
10
113.767220
20
280.820706
70
0
0
VERTEX
8
Layer 1
10
113.464180
20
280.157074
70
0
0
VERTEX
8
Layer 1
10
111.812630
20
280.152574
70
0
0
VERTEX
8
Layer 1
10
110.161080
20
280.148074
70
0
0
VERTEX
8
Layer 1
10
109.670760
20
278.901052
70
0
0
VERTEX
8
Layer 1
10
109.180430
20
277.654031
70
0
0
VERTEX
8
Layer 1
10
109.786810
20
277.678581
70
0
0
VERTEX
8
Layer 1
10
110.925610
20
277.718131
70
0
0
VERTEX
8
Layer 1
10
111.458040
20
277.733121
70
0
0
VERTEX
8
Layer 1
10
111.177300
20
277.019124
70
0
0
VERTEX
8
Layer 1
10
110.896560
20
276.305123
70
0
0
VERTEX
8
Layer 1
10
109.769520
20
276.295523
70
0
0
VERTEX
8
Layer 1
10
108.642480
20
276.285923
70
0
0
VERTEX
8
Layer 1
10
107.858910
20
274.293095
70
0
0
VERTEX
8
Layer 1
10
107.193085
20
272.696640
70
0
0
VERTEX
8
Layer 1
10
106.903700
20
272.367760
70
0
0
VERTEX
8
Layer 1
10
105.582910
20
272.400990
70
0
0
VERTEX
8
Layer 1
10
104.433750
20
272.366740
70
0
0
VERTEX
8
Layer 1
10
106.216450
20
276.900629
70
0
0
SEQEND
8
Layer 1
0
POLYLINE
8
Layer 1
62
7
70
0
10
0.000000
20
0.000000
66
1
0
VERTEX
8
Layer 1
10
143.989880
20
259.621323
70
0
0
VERTEX
8
Layer 1
10
143.540423
20
260.225907
70
0
0
VERTEX
8
Layer 1
10
143.539900
20
261.016610
70
0
0
VERTEX
8
Layer 1
10
143.738477
20
261.456182
70
0
0
VERTEX
8
Layer 1
10
144.380170
20
261.539555
70
0
0
VERTEX
8
Layer 1
10
145.203747
20
261.499386
70
0
0
VERTEX
8
Layer 1
10
145.294047
20
261.382200
70
0
0
VERTEX
8
Layer 1
10
145.241850
20
261.169426
70
0
0
VERTEX
8
Layer 1
10
145.204197
20
260.907274
70
0
0
VERTEX
8
Layer 1
10
145.323528
20
260.721827
70
0
0
VERTEX
8
Layer 1
10
146.016020
20
260.593845
70
0
0
VERTEX
8
Layer 1
10
146.506076
20
260.685356
70
0
0
VERTEX
8
Layer 1
10
146.752990
20
261.043570
70
0
0
VERTEX
8
Layer 1
10
146.974744
20
261.656529
70
0
0
VERTEX
8
Layer 1
10
146.984359
20
262.119415
70
0
0
VERTEX
8
Layer 1
10
146.747530
20
262.570186
70
0
0
VERTEX
8
Layer 1
10
146.229950
20
263.146801
70
0
0
VERTEX
8
Layer 1
10
145.346660
20
264.381989
70
0
0
VERTEX
8
Layer 1
10
145.148410
20
265.027056
70
0
0
VERTEX
8
Layer 1
10
145.377060
20
265.798232
70
0
0
VERTEX
8
Layer 1
10
145.744393
20
266.493347
70
0
0
VERTEX
8
Layer 1
10
146.255285
20
267.122899
70
0
0
VERTEX
8
Layer 1
10
146.863475
20
267.639487
70
0
0
VERTEX
8
Layer 1
10
147.522700
20
267.995714
70
0
0
VERTEX
8
Layer 1
10
149.015862
20
268.273529
70
0
0
VERTEX
8
Layer 1
10
150.503670
20
268.114746
70
0
0
VERTEX
8
Layer 1
10
151.140398
20
267.848744
70
0
0
VERTEX
8
Layer 1
10
151.455660
20
267.396687
70
0
0
VERTEX
8
Layer 1
10
151.601470
20
266.443851
70
0
0
VERTEX
8
Layer 1
10
151.428268
20
266.043083
70
0
0
VERTEX
8
Layer 1
10
150.842160
20
265.935070
70
0
0
VERTEX
8
Layer 1
10
150.009170
20
265.964132
70
0
0
VERTEX
8
Layer 1
10
149.894446
20
266.097292
70
0
0
VERTEX
8
Layer 1
10
149.937940
20
266.328219
70
0
0
VERTEX
8
Layer 1
10
149.964924
20
266.607973
70
0
0
VERTEX
8
Layer 1
10
149.639790
20
266.796468
70
0
0
VERTEX
8
Layer 1
10
148.856510
20
266.964843
70
0
0
VERTEX
8
Layer 1
10
148.511183
20
266.865031
70
0
0
VERTEX
8
Layer 1
10
148.260910
20
266.276777
70
0
0
VERTEX
8
Layer 1
10
148.114590
20
265.640595
70
0
0
VERTEX
8
Layer 1
10
148.315310
20
265.236650
70
0
0
VERTEX
8
Layer 1
10
148.604400
20
264.781576
70
0
0
VERTEX
8
Layer 1
10
148.810890
20
264.592576
70
0
0
VERTEX
8
Layer 1
10
149.508090
20
263.721714
70
0
0
VERTEX
8
Layer 1
10
149.843506
20
263.088983
70
0
0
VERTEX
8
Layer 1
10
149.968274
20
262.537427
70
0
0
VERTEX
8
Layer 1
10
149.885875
20
261.975549
70
0
0
VERTEX
8
Layer 1
10
149.599790
20
261.311851
70
0
0
VERTEX
8
Layer 1
10
148.898583
20
260.343240
70
0
0
VERTEX
8
Layer 1
10
147.955782
20
259.672225
70
0
0
VERTEX
8
Layer 1
10
146.773076
20
259.299636
70
0
0
VERTEX
8
Layer 1
10
145.352150
20
259.226301
70
0
0
VERTEX
8
Layer 1
10
144.494914
20
259.306095
70
0
0
VERTEX
8
Layer 1
10
143.989840
20
259.621326
70
0
0
VERTEX
8
Layer 1
10
143.989880
20
259.621323
70
0
0
SEQEND
8
Layer 1
0
POLYLINE
8
Layer 1
62
7
70
0
10
0.000000
20
0.000000
66
1
0
VERTEX
8
Layer 1
10
113.153380
20
273.223392
70
0
0
VERTEX
8
Layer 1
10
112.889830
20
273.892168
70
0
0
VERTEX
8
Layer 1
10
114.339610
20
277.912554
70
0
0
VERTEX
8
Layer 1
10
115.785750
20
281.582087
70
0
0
VERTEX
8
Layer 1
10
117.112150
20
281.570517
70
0
0
VERTEX
8
Layer 1
10
118.438540
20
281.558947
70
0
0
VERTEX
8
Layer 1
10
116.934760
20
277.734522
70
0
0
VERTEX
8
Layer 1
10
115.973833
20
275.293558
70
0
0
VERTEX
8
Layer 1
10
115.629441
20
274.165028
70
0
0
VERTEX
8
Layer 1
10
115.676815
20
273.940821
70
0
0
VERTEX
8
Layer 1
10
115.864366
20
273.862195
70
0
0
VERTEX
8
Layer 1
10
116.641390
20
273.898318
70
0
0
VERTEX
8
Layer 1
10
117.280250
20
273.925068
70
0
0
VERTEX
8
Layer 1
10
118.730790
20
277.726376
70
0
0
VERTEX
8
Layer 1
10
120.181330
20
281.527687
70
0
0
VERTEX
8
Layer 1
10
120.547430
20
281.566027
70
0
0
VERTEX
8
Layer 1
10
122.084493
20
281.650833
70
0
0
VERTEX
8
Layer 1
10
122.834520
20
281.560427
70
0
0
VERTEX
8
Layer 1
10
121.403970
20
277.743623
70
0
0
VERTEX
8
Layer 1
10
119.913520
20
274.061995
70
0
0
VERTEX
8
Layer 1
10
119.290840
20
273.549655
70
0
0
VERTEX
8
Layer 1
10
118.588120
20
273.071562
70
0
0
VERTEX
8
Layer 1
10
117.808840
20
272.751135
70
0
0
VERTEX
8
Layer 1
10
115.788310
20
272.514638
70
0
0
VERTEX
8
Layer 1
10
114.072683
20
272.672465
70
0
0
VERTEX
8
Layer 1
10
113.539756
20
272.891716
70
0
0
VERTEX
8
Layer 1
10
113.153690
20
273.223279
70
0
0
VERTEX
8
Layer 1
10
113.153380
20
273.223392
70
0
0
SEQEND
8
Layer 1
0
POLYLINE
8
Layer 1
62
7
70
0
10
0.000000
20
0.000000
66
1
0
VERTEX
8
Layer 1
10
151.878870
20
259.761848
70
0
0
VERTEX
8
Layer 1
10
151.594953
20
260.087270
70
0
0
VERTEX
8
Layer 1
10
151.437890
20
260.513715
70
0
0
VERTEX
8
Layer 1
10
151.539954
20
261.363268
70
0
0
VERTEX
8
Layer 1
10
152.463200
20
263.821931
70
0
0
VERTEX
8
Layer 1
10
153.494300
20
266.326244
70
0
0
VERTEX
8
Layer 1
10
154.120100
20
267.186869
70
0
0
VERTEX
8
Layer 1
10
154.852610
20
267.797628
70
0
0
VERTEX
8
Layer 1
10
155.648575
20
268.172301
70
0
0
VERTEX
8
Layer 1
10
156.666450
20
268.360019
70
0
0
VERTEX
8
Layer 1
10
158.064690
20
268.409908
70
0
0
VERTEX
8
Layer 1
10
159.337478
20
268.354215
70
0
0
VERTEX
8
Layer 1
10
160.038630
20
268.141001
70
0
0
VERTEX
8
Layer 1
10
160.673504
20
267.542642
70
0
0
VERTEX
8
Layer 1
10
160.705460
20
266.678477
70
0
0
VERTEX
8
Layer 1
10
160.574860
20
266.147802
70
0
0
VERTEX
8
Layer 1
10
159.806430
20
266.115192
70
0
0
VERTEX
8
Layer 1
10
159.038010
20
266.082582
70
0
0
VERTEX
8
Layer 1
10
159.081210
20
266.470363
70
0
0
VERTEX
8
Layer 1
10
159.050485
20
266.799914
70
0
0
VERTEX
8
Layer 1
10
158.824910
20
266.975898
70
0
0
VERTEX
8
Layer 1
10
157.565178
20
267.046525
70
0
0
VERTEX
8
Layer 1
10
156.481080
20
266.930948
70
0
0
VERTEX
8
Layer 1
10
154.002900
20
260.659095
70
0
0
VERTEX
8
Layer 1
10
154.417660
20
260.642685
70
0
0
VERTEX
8
Layer 1
10
155.616120
20
260.708065
70
0
0
VERTEX
8
Layer 1
10
156.619198
20
260.938773
70
0
0
VERTEX
8
Layer 1
10
157.170010
20
261.510079
70
0
0
VERTEX
8
Layer 1
10
157.564208
20
261.686884
70
0
0
VERTEX
8
Layer 1
10
158.484260
20
261.696947
70
0
0
VERTEX
8
Layer 1
10
158.703948
20
261.613289
70
0
0
VERTEX
8
Layer 1
10
158.618820
20
261.274645
70
0
0
VERTEX
8
Layer 1
10
157.912155
20
260.361982
70
0
0
VERTEX
8
Layer 1
10
156.731880
20
259.655314
70
0
0
VERTEX
8
Layer 1
10
155.782359
20
259.407525
70
0
0
VERTEX
8
Layer 1
10
154.469470
20
259.328916
70
0
0
VERTEX
8
Layer 1
10
152.733783
20
259.400875
70
0
0
VERTEX
8
Layer 1
10
151.878940
20
259.761848
70
0
0
VERTEX
8
Layer 1
10
151.878870
20
259.761848
70
0
0
SEQEND
8
Layer 1
0
POLYLINE
8
Layer 1
62
7
70
0
10
0.000000
20
0.000000
66
1
0
VERTEX
8
Layer 1
10
122.919380
20
277.124974
70
0
0
VERTEX
8
Layer 1
10
124.616930
20
281.265108
70
0
0
VERTEX
8
Layer 1
10
125.021848
20
281.691185
70
0
0
VERTEX
8
Layer 1
10
125.509160
20
281.687807
70
0
0
VERTEX
8
Layer 1
10
126.605100
20
281.697007
70
0
0
VERTEX
8
Layer 1
10
127.515530
20
281.673567
70
0
0
VERTEX
8
Layer 1
10
127.826230
20
281.670867
70
0
0
VERTEX
8
Layer 1
10
129.080744
20
281.717849
70
0
0
VERTEX
8
Layer 1
10
130.419760
20
281.514454
70
0
0
VERTEX
8
Layer 1
10
130.891741
20
281.247154
70
0
0
VERTEX
8
Layer 1
10
131.109810
20
280.773556
70
0
0
VERTEX
8
Layer 1
10
131.165108
20
280.149600
70
0
0
VERTEX
8
Layer 1
10
130.818990
20
279.123022
70
0
0
VERTEX
8
Layer 1
10
130.358261
20
278.111351
70
0
0
VERTEX
8
Layer 1
10
129.805110
20
277.614737
70
0
0
VERTEX
8
Layer 1
10
129.232370
20
277.228308
70
0
0
VERTEX
8
Layer 1
10
129.453520
20
276.720535
70
0
0
VERTEX
8
Layer 1
10
129.674680
20
276.212765
70
0
0
VERTEX
8
Layer 1
10
128.953800
20
274.379315
70
0
0
VERTEX
8
Layer 1
10
128.149320
20
272.601028
70
0
0
VERTEX
8
Layer 1
10
126.547260
20
272.633098
70
0
0
VERTEX
8
Layer 1
10
125.591990
20
272.613948
70
0
0
VERTEX
8
Layer 1
10
126.354900
20
274.554217
70
0
0
VERTEX
8
Layer 1
10
127.079900
20
276.509397
70
0
0
VERTEX
8
Layer 1
10
126.442920
20
276.479037
70
0
0
VERTEX
8
Layer 1
10
125.655610
20
276.507787
70
0
0
VERTEX
8
Layer 1
10
125.395025
20
276.305437
70
0
0
VERTEX
8
Layer 1
10
124.887720
20
275.159945
70
0
0
VERTEX
8
Layer 1
10
124.123730
20
273.227292
70
0
0
VERTEX
8
Layer 1
10
123.747020
20
272.663345
70
0
0
VERTEX
8
Layer 1
10
121.274500
20
272.614165
70
0
0
VERTEX
8
Layer 1
10
122.919870
20
277.124733
70
0
0
VERTEX
8
Layer 1
10
122.919380
20
277.124974
70
0
0
SEQEND
8
Layer 1
0
POLYLINE
8
Layer 1
62
7
70
0
10
0.000000
20
0.000000
66
1
0
VERTEX
8
Layer 1
10
126.897050
20
277.907454
70
0
0
VERTEX
8
Layer 1
10
127.686260
20
277.940424
70
0
0
VERTEX
8
Layer 1
10
128.166390
20
279.161608
70
0
0
VERTEX
8
Layer 1
10
128.646590
20
280.382758
70
0
0
VERTEX
8
Layer 1
10
128.037990
20
280.352588
70
0
0
VERTEX
8
Layer 1
10
127.190940
20
280.340858
70
0
0
VERTEX
8
Layer 1
10
126.910170
20
280.142080
70
0
0
VERTEX
8
Layer 1
10
126.472830
20
279.139434
70
0
0
VERTEX
8
Layer 1
10
126.050550
20
277.897002
70
0
0
VERTEX
8
Layer 1
10
126.897090
20
277.907432
70
0
0
VERTEX
8
Layer 1
10
126.897050
20
277.907454
70
0
0
SEQEND
8
Layer 1
0
POLYLINE
8
Layer 1
62
7
70
0
10
0.000000
20
0.000000
66
1
0
VERTEX
8
Layer 1
10
159.574850
20
259.419500
70
0
0
VERTEX
8
Layer 1
10
163.185860
20
268.490545
70
0
0
VERTEX
8
Layer 1
10
163.881940
20
268.497645
70
0
0
VERTEX
8
Layer 1
10
164.677010
20
268.465845
70
0
0
VERTEX
8
Layer 1
10
165.031030
20
268.451265
70
0
0
VERTEX
8
Layer 1
10
165.495120
20
268.488855
70
0
0
VERTEX
8
Layer 1
10
165.801230
20
268.463935
70
0
0
VERTEX
8
Layer 1
10
165.080830
20
266.631636
70
0
0
VERTEX
8
Layer 1
10
164.489850
20
264.748450
70
0
0
VERTEX
8
Layer 1
10
165.320990
20
264.719750
70
0
0
VERTEX
8
Layer 1
10
166.022690
20
264.741950
70
0
0
VERTEX
8
Layer 1
10
166.770210
20
266.642966
70
0
0
VERTEX
8
Layer 1
10
167.517720
20
268.543981
70
0
0
VERTEX
8
Layer 1
10
167.976150
20
268.549381
70
0
0
VERTEX
8
Layer 1
10
168.993920
20
268.548900
70
0
0
VERTEX
8
Layer 1
10
169.807300
20
268.569140
70
0
0
VERTEX
8
Layer 1
10
170.123820
20
268.570640
70
0
0
VERTEX
8
Layer 1
10
168.393190
20
263.985883
70
0
0
VERTEX
8
Layer 1
10
166.481790
20
259.472198
70
0
0
VERTEX
8
Layer 1
10
164.456250
20
259.414168
70
0
0
VERTEX
8
Layer 1
10
164.167150
20
259.426607
70
0
0
VERTEX
8
Layer 1
10
164.098662
20
259.654646
70
0
0
VERTEX
8
Layer 1
10
164.701120
20
261.380831
70
0
0
VERTEX
8
Layer 1
10
165.170904
20
262.576185
70
0
0
VERTEX
8
Layer 1
10
165.299342
20
263.133745
70
0
0
VERTEX
8
Layer 1
10
165.044512
20
263.290508
70
0
0
VERTEX
8
Layer 1
10
164.364490
20
263.283471
70
0
0
VERTEX
8
Layer 1
10
163.768610
20
263.276971
70
0
0
VERTEX
8
Layer 1
10
162.970570
20
261.345343
70
0
0
VERTEX
8
Layer 1
10
162.172540
20
259.413715
70
0
0
VERTEX
8
Layer 1
10
161.398550
20
259.409215
70
0
0
VERTEX
8
Layer 1
10
160.416230
20
259.410615
70
0
0
VERTEX
8
Layer 1
10
159.887230
20
259.404315
70
0
0
VERTEX
8
Layer 1
10
159.574900
20
259.419525
70
0
0
VERTEX
8
Layer 1
10
159.574850
20
259.419500
70
0
0
SEQEND
8
Layer 1
0
POLYLINE
8
Layer 1
62
7
70
0
10
0.000000
20
0.000000
66
1
0
VERTEX
8
Layer 1
10
170.275620
20
264.123264
70
0
0
VERTEX
8
Layer 1
10
172.035660
20
268.591155
70
0
0
VERTEX
8
Layer 1
10
174.890450
20
268.628765
70
0
0
VERTEX
8
Layer 1
10
177.902980
20
268.602595
70
0
0
VERTEX
8
Layer 1
10
177.959213
20
268.411947
70
0
0
VERTEX
8
Layer 1
10
177.775670
20
267.921734
70
0
0
VERTEX
8
Layer 1
10
177.490590
20
267.304668
70
0
0
VERTEX
8
Layer 1
10
176.005870
20
267.278068
70
0
0
VERTEX
8
Layer 1
10
174.342050
20
267.242348
70
0
0
VERTEX
8
Layer 1
10
174.093370
20
266.950602
70
0
0
VERTEX
8
Layer 1
10
173.689920
20
266.030188
70
0
0
VERTEX
8
Layer 1
10
173.328079
20
264.938578
70
0
0
VERTEX
8
Layer 1
10
173.375970
20
264.782857
70
0
0
VERTEX
8
Layer 1
10
173.568900
20
264.811795
70
0
0
VERTEX
8
Layer 1
10
175.399300
20
264.811457
70
0
0
VERTEX
8
Layer 1
10
175.151880
20
264.106331
70
0
0
VERTEX
8
Layer 1
10
174.842100
20
263.425723
70
0
0
VERTEX
8
Layer 1
10
173.754950
20
263.427123
70
0
0
VERTEX
8
Layer 1
10
172.667800
20
263.428523
70
0
0
VERTEX
8
Layer 1
10
172.179940
20
262.189075
70
0
0
VERTEX
8
Layer 1
10
171.692090
20
260.949628
70
0
0
VERTEX
8
Layer 1
10
172.366570
20
260.968848
70
0
0
VERTEX
8
Layer 1
10
173.470000
20
261.007678
70
0
0
VERTEX
8
Layer 1
10
174.267380
20
260.979008
70
0
0
VERTEX
8
Layer 1
10
174.745190
20
261.012578
70
0
0
VERTEX
8
Layer 1
10
174.919196
20
261.086991
70
0
0
VERTEX
8
Layer 1
10
174.984816
20
260.982754
70
0
0
VERTEX
8
Layer 1
10
174.786090
20
260.319790
70
0
0
VERTEX
8
Layer 1
10
174.476530
20
259.639953
70
0
0
VERTEX
8
Layer 1
10
173.135880
20
259.622663
70
0
0
VERTEX
8
Layer 1
10
171.213510
20
259.570003
70
0
0
VERTEX
8
Layer 1
10
168.634240
20
259.608853
70
0
0
VERTEX
8
Layer 1
10
170.275440
20
264.123475
70
0
0
VERTEX
8
Layer 1
10
170.275620
20
264.123264
70
0
0
SEQEND
8
Layer 1
0
POLYLINE
8
Layer 1
62
7
70
0
10
0.000000
20
0.000000
66
1
0
VERTEX
8
Layer 1
10
117.297390
20
282.417003
70
0
0
VERTEX
8
Layer 1
10
117.589790
20
282.917314
70
0
0
VERTEX
8
Layer 1
10
118.272970
20
283.013515
70
0
0
VERTEX
8
Layer 1
10
119.021420
20
283.042275
70
0
0
VERTEX
8
Layer 1
10
118.763890
20
282.387236
70
0
0
VERTEX
8
Layer 1
10
118.506350
20
281.732197
70
0
0
VERTEX
8
Layer 1
10
117.861250
20
281.762047
70
0
0
VERTEX
8
Layer 1
10
117.143220
20
281.820567
70
0
0
VERTEX
8
Layer 1
10
117.297440
20
282.416982
70
0
0
VERTEX
8
Layer 1
10
117.297390
20
282.417003
70
0
0
SEQEND
8
Layer 1
0
POLYLINE
8
Layer 1
62
7
70
0
10
0.000000
20
0.000000
66
1
0
VERTEX
8
Layer 1
10
120.336060
20
282.457783
70
0
0
VERTEX
8
Layer 1
10
120.603914
20
282.930536
70
0
0
VERTEX
8
Layer 1
10
121.128440
20
283.058859
70
0
0
VERTEX
8
Layer 1
10
121.927090
20
283.007526
70
0
0
VERTEX
8
Layer 1
10
121.976291
20
282.784513
70
0
0
VERTEX
8
Layer 1
10
121.848540
20
282.376428
70
0
0
VERTEX
8
Layer 1
10
121.568566
20
281.862204
70
0
0
VERTEX
8
Layer 1
10
121.016860
20
281.790804
70
0
0
VERTEX
8
Layer 1
10
120.255852
20
281.896594
70
0
0
VERTEX
8
Layer 1
10
120.216611
20
282.094987
70
0
0
VERTEX
8
Layer 1
10
120.336060
20
282.457783
70
0
0
VERTEX
8
Layer 1
10
120.336060
20
282.457783
70
0
0
SEQEND
8
Layer 1
 0 
ENDSEC
 0 
EOF