999
"DXF R12 Output" (www.mydxf.blogspot.com)
 0 
SECTION
 2 
HEADER
 9 
$ACADVER
 1 
AC1009
 9 
$EXTMIN
 10 
 0 
 20 
 0 
 9 
$EXTMAX
 10 
 8.5 
 20 
 11 
 0 
ENDSEC
 0 
SECTION
 2 
ENTITIES
0
POLYLINE
8
Layer 1
62
7
70
0
10
0.000000
20
0.000000
66
1
0
VERTEX
8
Layer 1
10
30.273987
20
230.880484
70
0
0
VERTEX
8
Layer 1
10
30.675082
20
231.615497
70
0
0
VERTEX
8
Layer 1
10
31.635147
20
232.290881
70
0
0
VERTEX
8
Layer 1
10
32.796172
20
232.988287
70
0
0
VERTEX
8
Layer 1
10
33.586615
20
233.508508
70
0
0
VERTEX
8
Layer 1
10
34.216836
20
234.119523
70
0
0
VERTEX
8
Layer 1
10
34.443458
20
234.721329
70
0
0
VERTEX
8
Layer 1
10
34.093598
20
234.792014
70
0
0
VERTEX
8
Layer 1
10
33.127519
20
234.745384
70
0
0
VERTEX
8
Layer 1
10
32.309140
20
234.712454
70
0
0
VERTEX
8
Layer 1
10
31.914455
20
234.766478
70
0
0
VERTEX
8
Layer 1
10
31.945668
20
235.131982
70
0
0
VERTEX
8
Layer 1
10
32.080655
20
235.360236
70
0
0
VERTEX
8
Layer 1
10
32.367239
20
235.480631
70
0
0
VERTEX
8
Layer 1
10
34.064159
20
235.520590
70
0
0
VERTEX
8
Layer 1
10
35.200449
20
235.553750
70
0
0
VERTEX
8
Layer 1
10
35.883379
20
235.594440
70
0
0
VERTEX
8
Layer 1
10
36.478241
20
235.589740
70
0
0
VERTEX
8
Layer 1
10
36.215957
20
234.922695
70
0
0
VERTEX
8
Layer 1
10
35.809090
20
234.171739
70
0
0
VERTEX
8
Layer 1
10
35.364232
20
233.803863
70
0
0
VERTEX
8
Layer 1
10
33.725882
20
232.797471
70
0
0
VERTEX
8
Layer 1
10
32.512977
20
231.965354
70
0
0
VERTEX
8
Layer 1
10
32.048136
20
231.464655
70
0
0
VERTEX
8
Layer 1
10
31.969486
20
231.158310
70
0
0
VERTEX
8
Layer 1
10
32.040971
20
230.976099
70
0
0
VERTEX
8
Layer 1
10
32.714729
20
230.918178
70
0
0
VERTEX
8
Layer 1
10
33.999170
20
230.984178
70
0
0
VERTEX
8
Layer 1
10
34.667565
20
230.984741
70
0
0
VERTEX
8
Layer 1
10
34.530651
20
230.636595
70
0
0
VERTEX
8
Layer 1
10
34.197155
20
230.244675
70
0
0
VERTEX
8
Layer 1
10
33.288599
20
230.155910
70
0
0
VERTEX
8
Layer 1
10
30.179875
20
230.132410
70
0
0
VERTEX
8
Layer 1
10
30.079304
20
230.283419
70
0
0
VERTEX
8
Layer 1
10
30.273965
20
230.880531
70
0
0
VERTEX
8
Layer 1
10
30.273987
20
230.880484
70
0
0
SEQEND
8
Layer 1
0
POLYLINE
8
Layer 1
62
7
70
0
10
0.000000
20
0.000000
66
1
0
VERTEX
8
Layer 1
10
35.753991
20
230.891054
70
0
0
VERTEX
8
Layer 1
10
36.019854
20
231.567204
70
0
0
VERTEX
8
Layer 1
10
36.680405
20
231.594854
70
0
0
VERTEX
8
Layer 1
10
37.447103
20
231.580774
70
0
0
VERTEX
8
Layer 1
10
37.295459
20
230.883411
70
0
0
VERTEX
8
Layer 1
10
37.037668
20
230.227789
70
0
0
VERTEX
8
Layer 1
10
36.438683
20
230.221989
70
0
0
VERTEX
8
Layer 1
10
35.663915
20
230.215589
70
0
0
VERTEX
8
Layer 1
10
35.588424
20
230.368596
70
0
0
VERTEX
8
Layer 1
10
35.753995
20
230.891035
70
0
0
VERTEX
8
Layer 1
10
35.753991
20
230.891054
70
0
0
SEQEND
8
Layer 1
0
POLYLINE
8
Layer 1
62
7
70
0
10
0.000000
20
0.000000
66
1
0
VERTEX
8
Layer 1
10
39.357399
20
232.913644
70
0
0
VERTEX
8
Layer 1
10
40.401794
20
235.569806
70
0
0
VERTEX
8
Layer 1
10
40.874233
20
235.610796
70
0
0
VERTEX
8
Layer 1
10
42.517489
20
235.694686
70
0
0
VERTEX
8
Layer 1
10
43.559578
20
235.684727
70
0
0
VERTEX
8
Layer 1
10
43.970254
20
235.415454
70
0
0
VERTEX
8
Layer 1
10
44.250326
20
234.866743
70
0
0
VERTEX
8
Layer 1
10
43.993725
20
234.022785
70
0
0
VERTEX
8
Layer 1
10
43.471193
20
233.288300
70
0
0
VERTEX
8
Layer 1
10
43.181928
20
232.998991
70
0
0
VERTEX
8
Layer 1
10
43.258832
20
232.748217
70
0
0
VERTEX
8
Layer 1
10
43.306924
20
232.420461
70
0
0
VERTEX
8
Layer 1
10
43.194016
20
231.958336
70
0
0
VERTEX
8
Layer 1
10
42.629614
20
231.026209
70
0
0
VERTEX
8
Layer 1
10
41.795026
20
230.485488
70
0
0
VERTEX
8
Layer 1
10
40.934662
20
230.271229
70
0
0
VERTEX
8
Layer 1
10
38.666031
20
230.244769
70
0
0
VERTEX
8
Layer 1
10
38.410272
20
230.219219
70
0
0
VERTEX
8
Layer 1
10
39.357391
20
232.913649
70
0
0
VERTEX
8
Layer 1
10
39.357399
20
232.913644
70
0
0
SEQEND
8
Layer 1
0
POLYLINE
8
Layer 1
62
7
70
0
10
0.000000
20
0.000000
66
1
0
VERTEX
8
Layer 1
10
41.216567
20
231.081499
70
0
0
VERTEX
8
Layer 1
10
41.530820
20
231.800363
70
0
0
VERTEX
8
Layer 1
10
41.709881
20
232.521557
70
0
0
VERTEX
8
Layer 1
10
41.534091
20
232.625393
70
0
0
VERTEX
8
Layer 1
10
41.148090
20
232.630326
70
0
0
VERTEX
8
Layer 1
10
40.792419
20
232.493916
70
0
0
VERTEX
8
Layer 1
10
40.479102
20
231.838448
70
0
0
VERTEX
8
Layer 1
10
40.175331
20
231.065892
70
0
0
VERTEX
8
Layer 1
10
40.688169
20
231.076752
70
0
0
VERTEX
8
Layer 1
10
41.216563
20
231.081452
70
0
0
VERTEX
8
Layer 1
10
41.216567
20
231.081499
70
0
0
SEQEND
8
Layer 1
0
POLYLINE
8
Layer 1
62
7
70
0
10
0.000000
20
0.000000
66
1
0
VERTEX
8
Layer 1
10
42.050415
20
233.457208
70
0
0
VERTEX
8
Layer 1
10
42.463351
20
234.198489
70
0
0
VERTEX
8
Layer 1
10
42.657273
20
234.867591
70
0
0
VERTEX
8
Layer 1
10
42.132806
20
234.919661
70
0
0
VERTEX
8
Layer 1
10
41.714814
20
234.832185
70
0
0
VERTEX
8
Layer 1
10
41.393721
20
234.164533
70
0
0
VERTEX
8
Layer 1
10
41.090081
20
233.392317
70
0
0
VERTEX
8
Layer 1
10
41.505157
20
233.376037
70
0
0
VERTEX
8
Layer 1
10
42.050412
20
233.457197
70
0
0
VERTEX
8
Layer 1
10
42.050415
20
233.457208
70
0
0
SEQEND
8
Layer 1
0
POLYLINE
8
Layer 1
62
7
70
0
10
0.000000
20
0.000000
66
1
0
VERTEX
8
Layer 1
10
43.685610
20
230.848068
70
0
0
VERTEX
8
Layer 1
10
43.926103
20
231.399972
70
0
0
VERTEX
8
Layer 1
10
44.166078
20
231.665528
70
0
0
VERTEX
8
Layer 1
10
45.466778
20
231.757432
70
0
0
VERTEX
8
Layer 1
10
45.541754
20
231.602986
70
0
0
VERTEX
8
Layer 1
10
45.373858
20
231.074757
70
0
0
VERTEX
8
Layer 1
10
45.105158
20
230.391384
70
0
0
VERTEX
8
Layer 1
10
44.302260
20
230.357834
70
0
0
VERTEX
8
Layer 1
10
43.484186
20
230.330524
70
0
0
VERTEX
8
Layer 1
10
43.685640
20
230.848052
70
0
0
VERTEX
8
Layer 1
10
43.685610
20
230.848068
70
0
0
SEQEND
8
Layer 1
0
POLYLINE
8
Layer 1
62
7
70
0
10
0.000000
20
0.000000
66
1
0
VERTEX
8
Layer 1
10
49.739107
20
232.824316
70
0
0
VERTEX
8
Layer 1
10
50.698533
20
235.154046
70
0
0
VERTEX
8
Layer 1
10
51.366461
20
235.527108
70
0
0
VERTEX
8
Layer 1
10
52.091734
20
235.820424
70
0
0
VERTEX
8
Layer 1
10
52.960572
20
235.914103
70
0
0
VERTEX
8
Layer 1
10
54.131504
20
235.811083
70
0
0
VERTEX
8
Layer 1
10
54.420583
20
235.626908
70
0
0
VERTEX
8
Layer 1
10
54.601307
20
235.322084
70
0
0
VERTEX
8
Layer 1
10
54.609001
20
234.676687
70
0
0
VERTEX
8
Layer 1
10
53.891396
20
232.740185
70
0
0
VERTEX
8
Layer 1
10
53.027744
20
230.543696
70
0
0
VERTEX
8
Layer 1
10
52.326054
20
230.521486
70
0
0
VERTEX
8
Layer 1
10
51.514247
20
230.542586
70
0
0
VERTEX
8
Layer 1
10
51.810561
20
231.619541
70
0
0
VERTEX
8
Layer 1
10
52.136838
20
232.684699
70
0
0
VERTEX
8
Layer 1
10
51.883150
20
232.784960
70
0
0
VERTEX
8
Layer 1
10
51.591135
20
232.815888
70
0
0
VERTEX
8
Layer 1
10
51.324700
20
232.641803
70
0
0
VERTEX
8
Layer 1
10
50.759569
20
231.559824
70
0
0
VERTEX
8
Layer 1
10
50.342174
20
230.498295
70
0
0
VERTEX
8
Layer 1
10
49.686537
20
230.447295
70
0
0
VERTEX
8
Layer 1
10
48.905320
20
230.445695
70
0
0
VERTEX
8
Layer 1
10
49.739226
20
232.824789
70
0
0
VERTEX
8
Layer 1
10
49.739107
20
232.824316
70
0
0
SEQEND
8
Layer 1
0
POLYLINE
8
Layer 1
62
7
70
0
10
0.000000
20
0.000000
66
1
0
VERTEX
8
Layer 1
10
52.270662
20
233.572477
70
0
0
VERTEX
8
Layer 1
10
52.740134
20
234.002108
70
0
0
VERTEX
8
Layer 1
10
53.071269
20
234.818376
70
0
0
VERTEX
8
Layer 1
10
53.041343
20
235.115547
70
0
0
VERTEX
8
Layer 1
10
52.569244
20
235.108605
70
0
0
VERTEX
8
Layer 1
10
52.158249
20
234.961899
70
0
0
VERTEX
8
Layer 1
10
51.846740
20
234.324630
70
0
0
VERTEX
8
Layer 1
10
51.645837
20
233.709291
70
0
0
VERTEX
8
Layer 1
10
51.803220
20
233.589034
70
0
0
VERTEX
8
Layer 1
10
52.270666
20
233.572474
70
0
0
VERTEX
8
Layer 1
10
52.270662
20
233.572477
70
0
0
SEQEND
8
Layer 1
0
POLYLINE
8
Layer 1
62
7
70
0
10
0.000000
20
0.000000
66
1
0
VERTEX
8
Layer 1
10
55.016897
20
232.745739
70
0
0
VERTEX
8
Layer 1
10
55.738930
20
234.484921
70
0
0
VERTEX
8
Layer 1
10
56.040911
20
234.800201
70
0
0
VERTEX
8
Layer 1
10
56.806347
20
234.782911
70
0
0
VERTEX
8
Layer 1
10
57.263984
20
234.794572
70
0
0
VERTEX
8
Layer 1
10
57.311839
20
234.654377
70
0
0
VERTEX
8
Layer 1
10
57.351485
20
234.431925
70
0
0
VERTEX
8
Layer 1
10
57.599099
20
234.477649
70
0
0
VERTEX
8
Layer 1
10
58.393135
20
234.743828
70
0
0
VERTEX
8
Layer 1
10
59.159984
20
234.837484
70
0
0
VERTEX
8
Layer 1
10
59.205214
20
234.470444
70
0
0
VERTEX
8
Layer 1
10
58.982312
20
234.212578
70
0
0
VERTEX
8
Layer 1
10
58.516847
20
234.058835
70
0
0
VERTEX
8
Layer 1
10
57.406751
20
233.735204
70
0
0
VERTEX
8
Layer 1
10
56.866079
20
233.520681
70
0
0
VERTEX
8
Layer 1
10
56.288773
20
232.052436
70
0
0
VERTEX
8
Layer 1
10
55.711471
20
230.584199
70
0
0
VERTEX
8
Layer 1
10
55.074091
20
230.550489
70
0
0
VERTEX
8
Layer 1
10
54.308434
20
230.567219
70
0
0
VERTEX
8
Layer 1
10
55.016922
20
232.745757
70
0
0
VERTEX
8
Layer 1
10
55.016897
20
232.745739
70
0
0
SEQEND
8
Layer 1
0
POLYLINE
8
Layer 1
62
7
70
0
10
0.000000
20
0.000000
66
1
0
VERTEX
8
Layer 1
10
59.093023
20
230.882063
70
0
0
VERTEX
8
Layer 1
10
59.131862
20
231.325272
70
0
0
VERTEX
8
Layer 1
10
59.565014
20
232.528816
70
0
0
VERTEX
8
Layer 1
10
60.163906
20
234.051933
70
0
0
VERTEX
8
Layer 1
10
59.829893
20
234.095173
70
0
0
VERTEX
8
Layer 1
10
59.572866
20
234.195929
70
0
0
VERTEX
8
Layer 1
10
59.658957
20
234.553160
70
0
0
VERTEX
8
Layer 1
10
59.854797
20
234.880120
70
0
0
VERTEX
8
Layer 1
10
60.156053
20
234.924680
70
0
0
VERTEX
8
Layer 1
10
60.468499
20
234.979913
70
0
0
VERTEX
8
Layer 1
10
60.698468
20
235.411454
70
0
0
VERTEX
8
Layer 1
10
61.060566
20
235.951507
70
0
0
VERTEX
8
Layer 1
10
61.894179
20
236.042095
70
0
0
VERTEX
8
Layer 1
10
62.487624
20
236.033695
70
0
0
VERTEX
8
Layer 1
10
62.275388
20
235.493936
70
0
0
VERTEX
8
Layer 1
10
62.140830
20
235.024783
70
0
0
VERTEX
8
Layer 1
10
62.397172
20
234.910941
70
0
0
VERTEX
8
Layer 1
10
62.653814
20
234.814309
70
0
0
VERTEX
8
Layer 1
10
62.583474
20
234.492032
70
0
0
VERTEX
8
Layer 1
10
62.398251
20
234.200653
70
0
0
VERTEX
8
Layer 1
10
62.101739
20
234.159583
70
0
0
VERTEX
8
Layer 1
10
61.900523
20
234.161525
70
0
0
VERTEX
8
Layer 1
10
61.740765
20
234.020518
70
0
0
VERTEX
8
Layer 1
10
61.222123
20
232.815221
70
0
0
VERTEX
8
Layer 1
10
60.676522
20
231.427616
70
0
0
VERTEX
8
Layer 1
10
61.001952
20
231.385496
70
0
0
VERTEX
8
Layer 1
10
61.248904
20
231.292749
70
0
0
VERTEX
8
Layer 1
10
61.179171
20
230.995781
70
0
0
VERTEX
8
Layer 1
10
60.950884
20
230.711937
70
0
0
VERTEX
8
Layer 1
10
60.452730
20
230.642942
70
0
0
VERTEX
8
Layer 1
10
59.566416
20
230.699424
70
0
0
VERTEX
8
Layer 1
10
59.093027
20
230.882008
70
0
0
VERTEX
8
Layer 1
10
59.093023
20
230.882063
70
0
0
SEQEND
8
Layer 1
0
POLYLINE
8
Layer 1
62
7
70
0
10
0.000000
20
0.000000
66
1
0
VERTEX
8
Layer 1
10
62.364502
20
231.364968
70
0
0
VERTEX
8
Layer 1
10
62.701187
20
231.912248
70
0
0
VERTEX
8
Layer 1
10
63.306606
20
232.046137
70
0
0
VERTEX
8
Layer 1
10
64.136630
20
232.007842
70
0
0
VERTEX
8
Layer 1
10
64.164121
20
231.791700
70
0
0
VERTEX
8
Layer 1
10
63.999865
20
231.380260
70
0
0
VERTEX
8
Layer 1
10
63.603322
20
230.818045
70
0
0
VERTEX
8
Layer 1
10
62.588047
20
230.660179
70
0
0
VERTEX
8
Layer 1
10
62.184732
20
230.759164
70
0
0
VERTEX
8
Layer 1
10
62.364502
20
231.364968
70
0
0
VERTEX
8
Layer 1
10
62.364502
20
231.364968
70
0
0
SEQEND
8
Layer 1
0
POLYLINE
8
Layer 1
62
7
70
0
10
0.000000
20
0.000000
66
1
0
VERTEX
8
Layer 1
10
68.157778
20
231.171606
70
0
0
VERTEX
8
Layer 1
10
68.375094
20
231.478518
70
0
0
VERTEX
8
Layer 1
10
68.837310
20
231.560740
70
0
0
VERTEX
8
Layer 1
10
69.397999
20
231.687487
70
0
0
VERTEX
8
Layer 1
10
70.009076
20
232.015523
70
0
0
VERTEX
8
Layer 1
10
70.583054
20
232.503148
70
0
0
VERTEX
8
Layer 1
10
70.199734
20
232.539236
70
0
0
VERTEX
8
Layer 1
10
69.162961
20
232.628844
70
0
0
VERTEX
8
Layer 1
10
68.716053
20
232.821272
70
0
0
VERTEX
8
Layer 1
10
68.484106
20
233.061213
70
0
0
VERTEX
8
Layer 1
10
68.525865
20
233.580730
70
0
0
VERTEX
8
Layer 1
10
68.785237
20
234.352381
70
0
0
VERTEX
8
Layer 1
10
69.158219
20
235.122550
70
0
0
VERTEX
8
Layer 1
10
69.540806
20
235.637625
70
0
0
VERTEX
8
Layer 1
10
70.485672
20
236.093905
70
0
0
VERTEX
8
Layer 1
10
71.361439
20
236.217747
70
0
0
VERTEX
8
Layer 1
10
71.867052
20
236.218142
70
0
0
VERTEX
8
Layer 1
10
72.517419
20
236.188572
70
0
0
VERTEX
8
Layer 1
10
73.107410
20
235.950682
70
0
0
VERTEX
8
Layer 1
10
73.354544
20
235.611820
70
0
0
VERTEX
8
Layer 1
10
73.287639
20
235.023717
70
0
0
VERTEX
8
Layer 1
10
72.935517
20
234.038105
70
0
0
VERTEX
8
Layer 1
10
72.410852
20
232.703754
70
0
0
VERTEX
8
Layer 1
10
70.965826
20
231.733674
70
0
0
VERTEX
8
Layer 1
10
69.473632
20
230.782140
70
0
0
VERTEX
8
Layer 1
10
68.719001
20
230.800100
70
0
0
VERTEX
8
Layer 1
10
68.011537
20
230.799508
70
0
0
VERTEX
8
Layer 1
10
68.157778
20
231.171606
70
0
0
SEQEND
8
Layer 1
0
POLYLINE
8
Layer 1
62
7
70
0
10
0.000000
20
0.000000
66
1
0
VERTEX
8
Layer 1
10
70.519780
20
233.329576
70
0
0
VERTEX
8
Layer 1
10
70.947955
20
233.443043
70
0
0
VERTEX
8
Layer 1
10
71.391592
20
234.332984
70
0
0
VERTEX
8
Layer 1
10
71.811613
20
235.412157
70
0
0
VERTEX
8
Layer 1
10
71.294719
20
235.436637
70
0
0
VERTEX
8
Layer 1
10
70.804010
20
235.402067
70
0
0
VERTEX
8
Layer 1
10
70.406434
20
234.390932
70
0
0
VERTEX
8
Layer 1
10
70.051513
20
233.363044
70
0
0
VERTEX
8
Layer 1
10
70.519750
20
233.329584
70
0
0
VERTEX
8
Layer 1
10
70.519780
20
233.329576
70
0
0
SEQEND
8
Layer 1
0
POLYLINE
8
Layer 1
62
7
70
0
10
0.000000
20
0.000000
66
1
0
VERTEX
8
Layer 1
10
36.252267
20
247.871937
70
0
0
VERTEX
8
Layer 1
10
37.259817
20
250.373573
70
0
0
VERTEX
8
Layer 1
10
37.950839
20
251.760176
70
0
0
VERTEX
8
Layer 1
10
38.607011
20
252.470081
70
0
0
VERTEX
8
Layer 1
10
39.510009
20
252.941625
70
0
0
VERTEX
8
Layer 1
10
40.553385
20
253.285115
70
0
0
VERTEX
8
Layer 1
10
41.998065
20
253.355901
70
0
0
VERTEX
8
Layer 1
10
43.089707
20
253.316000
70
0
0
VERTEX
8
Layer 1
10
43.806199
20
253.168950
70
0
0
VERTEX
8
Layer 1
10
44.270482
20
252.868107
70
0
0
VERTEX
8
Layer 1
10
44.605496
20
252.366829
70
0
0
VERTEX
8
Layer 1
10
44.756779
20
252.003569
70
0
0
VERTEX
8
Layer 1
10
44.678620
20
251.444201
70
0
0
VERTEX
8
Layer 1
10
43.250852
20
247.749587
70
0
0
VERTEX
8
Layer 1
10
41.885505
20
244.342494
70
0
0
VERTEX
8
Layer 1
10
41.489229
20
244.316664
70
0
0
VERTEX
8
Layer 1
10
39.323491
20
244.321964
70
0
0
VERTEX
8
Layer 1
10
39.966075
20
246.245596
70
0
0
VERTEX
8
Layer 1
10
40.554846
20
247.930932
70
0
0
VERTEX
8
Layer 1
10
40.555084
20
248.197592
70
0
0
VERTEX
8
Layer 1
10
40.372251
20
248.141047
70
0
0
VERTEX
8
Layer 1
10
39.655199
20
248.123927
70
0
0
VERTEX
8
Layer 1
10
39.044256
20
248.186237
70
0
0
VERTEX
8
Layer 1
10
38.265228
20
246.204981
70
0
0
VERTEX
8
Layer 1
10
37.486200
20
244.223725
70
0
0
VERTEX
8
Layer 1
10
36.972186
20
244.255545
70
0
0
VERTEX
8
Layer 1
10
35.949527
20
244.243565
70
0
0
VERTEX
8
Layer 1
10
35.134004
20
244.222745
70
0
0
VERTEX
8
Layer 1
10
34.827128
20
244.245765
70
0
0
VERTEX
8
Layer 1
10
36.252267
20
247.871937
70
0
0
SEQEND
8
Layer 1
0
POLYLINE
8
Layer 1
62
7
70
0
10
0.000000
20
0.000000
66
1
0
VERTEX
8
Layer 1
10
40.335371
20
249.498455
70
0
0
VERTEX
8
Layer 1
10
40.959956
20
249.555435
70
0
0
VERTEX
8
Layer 1
10
41.327295
20
249.816078
70
0
0
VERTEX
8
Layer 1
10
41.740283
20
250.833222
70
0
0
VERTEX
8
Layer 1
10
42.162993
20
252.011415
70
0
0
VERTEX
8
Layer 1
10
41.344907
20
251.984075
70
0
0
VERTEX
8
Layer 1
10
40.526817
20
251.956725
70
0
0
VERTEX
8
Layer 1
10
40.049631
20
250.743114
70
0
0
VERTEX
8
Layer 1
10
39.686571
20
249.721411
70
0
0
VERTEX
8
Layer 1
10
39.699345
20
249.565851
70
0
0
VERTEX
8
Layer 1
10
39.820424
20
249.535282
70
0
0
VERTEX
8
Layer 1
10
40.335372
20
249.498452
70
0
0
VERTEX
8
Layer 1
10
40.335371
20
249.498455
70
0
0
SEQEND
8
Layer 1
0
POLYLINE
8
Layer 1
62
7
70
0
10
0.000000
20
0.000000
66
1
0
VERTEX
8
Layer 1
10
76.028949
20
230.657364
70
0
0
VERTEX
8
Layer 1
10
75.633740
20
231.163075
70
0
0
VERTEX
8
Layer 1
10
75.527025
20
231.334466
70
0
0
VERTEX
8
Layer 1
10
75.590445
20
231.749890
70
0
0
VERTEX
8
Layer 1
10
76.323897
20
233.661141
70
0
0
VERTEX
8
Layer 1
10
77.077673
20
235.444406
70
0
0
VERTEX
8
Layer 1
10
77.938465
20
236.038060
70
0
0
VERTEX
8
Layer 1
10
79.071082
20
236.649670
70
0
0
VERTEX
8
Layer 1
10
79.476965
20
236.744178
70
0
0
VERTEX
8
Layer 1
10
79.704723
20
236.672267
70
0
0
VERTEX
8
Layer 1
10
79.574865
20
236.217133
70
0
0
VERTEX
8
Layer 1
10
79.218915
20
235.936353
70
0
0
VERTEX
8
Layer 1
10
78.994385
20
235.915898
70
0
0
VERTEX
8
Layer 1
10
78.739234
20
235.572665
70
0
0
VERTEX
8
Layer 1
10
77.824595
20
233.334810
70
0
0
VERTEX
8
Layer 1
10
76.923563
20
230.939326
70
0
0
VERTEX
8
Layer 1
10
77.252098
20
230.896796
70
0
0
VERTEX
8
Layer 1
10
77.495934
20
230.817345
70
0
0
VERTEX
8
Layer 1
10
77.489913
20
230.629016
70
0
0
VERTEX
8
Layer 1
10
77.245478
20
230.306165
70
0
0
VERTEX
8
Layer 1
10
76.794693
20
230.171035
70
0
0
VERTEX
8
Layer 1
10
76.353628
20
230.206360
70
0
0
VERTEX
8
Layer 1
10
76.028943
20
230.657365
70
0
0
VERTEX
8
Layer 1
10
76.028949
20
230.657364
70
0
0
SEQEND
8
Layer 1
0
POLYLINE
8
Layer 1
62
7
70
0
10
0.000000
20
0.000000
66
1
0
VERTEX
8
Layer 1
10
45.544638
20
248.905106
70
0
0
VERTEX
8
Layer 1
10
47.343141
20
253.401905
70
0
0
VERTEX
8
Layer 1
10
48.642870
20
253.430385
70
0
0
VERTEX
8
Layer 1
10
49.972043
20
253.391285
70
0
0
VERTEX
8
Layer 1
10
49.481809
20
252.101262
70
0
0
VERTEX
8
Layer 1
10
48.962136
20
250.878843
70
0
0
VERTEX
8
Layer 1
10
49.478926
20
251.153646
70
0
0
VERTEX
8
Layer 1
10
50.035971
20
251.516315
70
0
0
VERTEX
8
Layer 1
10
50.336577
20
251.749134
70
0
0
VERTEX
8
Layer 1
10
52.858866
20
253.423146
70
0
0
VERTEX
8
Layer 1
10
53.160394
20
253.483656
70
0
0
VERTEX
8
Layer 1
10
53.728172
20
253.448236
70
0
0
VERTEX
8
Layer 1
10
55.649619
20
253.540176
70
0
0
VERTEX
8
Layer 1
10
55.808397
20
253.491612
70
0
0
VERTEX
8
Layer 1
10
55.643919
20
253.311324
70
0
0
VERTEX
8
Layer 1
10
55.291619
20
253.066890
70
0
0
VERTEX
8
Layer 1
10
54.530015
20
252.594114
70
0
0
VERTEX
8
Layer 1
10
53.782670
20
252.115731
70
0
0
VERTEX
8
Layer 1
10
52.246173
20
251.175412
70
0
0
VERTEX
8
Layer 1
10
50.580412
20
250.145515
70
0
0
VERTEX
8
Layer 1
10
49.896602
20
249.712352
70
0
0
VERTEX
8
Layer 1
10
49.211774
20
249.304660
70
0
0
VERTEX
8
Layer 1
10
48.964574
20
249.121040
70
0
0
VERTEX
8
Layer 1
10
49.981522
20
247.703188
70
0
0
VERTEX
8
Layer 1
10
50.216064
20
247.317693
70
0
0
VERTEX
8
Layer 1
10
50.307314
20
247.163933
70
0
0
VERTEX
8
Layer 1
10
50.904553
20
246.451054
70
0
0
VERTEX
8
Layer 1
10
51.908433
20
245.092541
70
0
0
VERTEX
8
Layer 1
10
52.446475
20
244.395239
70
0
0
VERTEX
8
Layer 1
10
52.058317
20
244.402439
70
0
0
VERTEX
8
Layer 1
10
49.798080
20
244.376539
70
0
0
VERTEX
8
Layer 1
10
49.245187
20
244.722677
70
0
0
VERTEX
8
Layer 1
10
48.187317
20
246.032623
70
0
0
VERTEX
8
Layer 1
10
47.484572
20
246.869725
70
0
0
VERTEX
8
Layer 1
10
46.914286
20
245.632432
70
0
0
VERTEX
8
Layer 1
10
46.465475
20
244.347376
70
0
0
VERTEX
8
Layer 1
10
45.190537
20
244.344476
70
0
0
VERTEX
8
Layer 1
10
43.830866
20
244.374936
70
0
0
VERTEX
8
Layer 1
10
45.544627
20
248.905050
70
0
0
VERTEX
8
Layer 1
10
45.544638
20
248.905106
70
0
0
SEQEND
8
Layer 1
0
POLYLINE
8
Layer 1
62
7
70
0
10
0.000000
20
0.000000
66
1
0
VERTEX
8
Layer 1
10
78.797973
20
231.450632
70
0
0
VERTEX
8
Layer 1
10
79.156345
20
231.984071
70
0
0
VERTEX
8
Layer 1
10
80.027136
20
232.632124
70
0
0
VERTEX
8
Layer 1
10
81.206501
20
233.399739
70
0
0
VERTEX
8
Layer 1
10
81.835127
20
233.818544
70
0
0
VERTEX
8
Layer 1
10
82.409653
20
234.119165
70
0
0
VERTEX
8
Layer 1
10
82.809331
20
234.867842
70
0
0
VERTEX
8
Layer 1
10
83.117489
20
235.651545
70
0
0
VERTEX
8
Layer 1
10
82.387083
20
235.637485
70
0
0
VERTEX
8
Layer 1
10
81.767389
20
235.560907
70
0
0
VERTEX
8
Layer 1
10
81.401224
20
235.341149
70
0
0
VERTEX
8
Layer 1
10
80.827999
20
235.051183
70
0
0
VERTEX
8
Layer 1
10
80.545078
20
235.046675
70
0
0
VERTEX
8
Layer 1
10
80.381169
20
235.156875
70
0
0
VERTEX
8
Layer 1
10
80.462655
20
235.396057
70
0
0
VERTEX
8
Layer 1
10
80.775110
20
235.725698
70
0
0
VERTEX
8
Layer 1
10
81.654534
20
236.272330
70
0
0
VERTEX
8
Layer 1
10
82.889078
20
236.424641
70
0
0
VERTEX
8
Layer 1
10
84.051235
20
236.282800
70
0
0
VERTEX
8
Layer 1
10
84.492609
20
235.838763
70
0
0
VERTEX
8
Layer 1
10
84.437840
20
235.077740
70
0
0
VERTEX
8
Layer 1
10
84.141400
20
234.335904
70
0
0
VERTEX
8
Layer 1
10
83.846269
20
234.079701
70
0
0
VERTEX
8
Layer 1
10
82.910472
20
233.489884
70
0
0
VERTEX
8
Layer 1
10
81.436552
20
232.495441
70
0
0
VERTEX
8
Layer 1
10
80.699767
20
231.895524
70
0
0
VERTEX
8
Layer 1
10
81.950317
20
231.819234
70
0
0
VERTEX
8
Layer 1
10
83.161047
20
231.834364
70
0
0
VERTEX
8
Layer 1
10
83.023033
20
231.483337
70
0
0
VERTEX
8
Layer 1
10
82.872944
20
231.243212
70
0
0
VERTEX
8
Layer 1
10
82.527965
20
231.107680
70
0
0
VERTEX
8
Layer 1
10
80.445452
20
230.998409
70
0
0
VERTEX
8
Layer 1
10
78.780242
20
230.959149
70
0
0
VERTEX
8
Layer 1
10
78.690196
20
231.071656
70
0
0
VERTEX
8
Layer 1
10
78.797982
20
231.450632
70
0
0
VERTEX
8
Layer 1
10
78.797973
20
231.450632
70
0
0
SEQEND
8
Layer 1
0
POLYLINE
8
Layer 1
62
7
70
0
10
0.000000
20
0.000000
66
1
0
VERTEX
8
Layer 1
10
83.831339
20
230.682375
70
0
0
VERTEX
8
Layer 1
10
84.029047
20
231.015319
70
0
0
VERTEX
8
Layer 1
10
84.331020
20
231.060476
70
0
0
VERTEX
8
Layer 1
10
84.665040
20
231.017246
70
0
0
VERTEX
8
Layer 1
10
85.645260
20
233.510171
70
0
0
VERTEX
8
Layer 1
10
86.625470
20
236.003092
70
0
0
VERTEX
8
Layer 1
10
86.282630
20
236.047462
70
0
0
VERTEX
8
Layer 1
10
86.019863
20
236.141985
70
0
0
VERTEX
8
Layer 1
10
86.133820
20
236.472449
70
0
0
VERTEX
8
Layer 1
10
86.372486
20
236.772561
70
0
0
VERTEX
8
Layer 1
10
86.756090
20
236.811356
70
0
0
VERTEX
8
Layer 1
10
87.181294
20
236.680386
70
0
0
VERTEX
8
Layer 1
10
87.597040
20
236.271936
70
0
0
VERTEX
8
Layer 1
10
88.009740
20
235.774201
70
0
0
VERTEX
8
Layer 1
10
87.214670
20
233.654316
70
0
0
VERTEX
8
Layer 1
10
86.302470
20
231.541973
70
0
0
VERTEX
8
Layer 1
10
85.860443
20
231.098474
70
0
0
VERTEX
8
Layer 1
10
85.182820
20
230.708212
70
0
0
VERTEX
8
Layer 1
10
84.703670
20
230.400876
70
0
0
VERTEX
8
Layer 1
10
84.171094
20
230.296641
70
0
0
VERTEX
8
Layer 1
10
83.665667
20
230.261031
70
0
0
VERTEX
8
Layer 1
10
83.831339
20
230.682375
70
0
0
SEQEND
8
Layer 1
0
POLYLINE
8
Layer 1
62
7
70
0
10
0.000000
20
0.000000
66
1
0
VERTEX
8
Layer 1
10
56.376976
20
248.345752
70
0
0
VERTEX
8
Layer 1
10
57.879082
20
252.165966
70
0
0
VERTEX
8
Layer 1
10
56.935620
20
252.176855
70
0
0
VERTEX
8
Layer 1
10
55.793642
20
252.129235
70
0
0
VERTEX
8
Layer 1
10
55.696573
20
252.235319
70
0
0
VERTEX
8
Layer 1
10
55.881372
20
252.798725
70
0
0
VERTEX
8
Layer 1
10
56.167619
20
253.526726
70
0
0
VERTEX
8
Layer 1
10
56.831447
20
253.518826
70
0
0
VERTEX
8
Layer 1
10
57.992718
20
253.526326
70
0
0
VERTEX
8
Layer 1
10
63.110106
20
253.596656
70
0
0
VERTEX
8
Layer 1
10
63.262486
20
253.467689
70
0
0
VERTEX
8
Layer 1
10
63.085566
20
252.909355
70
0
0
VERTEX
8
Layer 1
10
62.821188
20
252.236974
70
0
0
VERTEX
8
Layer 1
10
61.852270
20
252.246274
70
0
0
VERTEX
8
Layer 1
10
60.698850
20
252.153984
70
0
0
VERTEX
8
Layer 1
10
59.055158
20
248.267567
70
0
0
VERTEX
8
Layer 1
10
57.595965
20
244.482773
70
0
0
VERTEX
8
Layer 1
10
56.613715
20
244.484273
70
0
0
VERTEX
8
Layer 1
10
55.376422
20
244.457203
70
0
0
VERTEX
8
Layer 1
10
54.998119
20
244.477083
70
0
0
VERTEX
8
Layer 1
10
56.376972
20
248.345775
70
0
0
VERTEX
8
Layer 1
10
56.376976
20
248.345752
70
0
0
SEQEND
8
Layer 1
0
POLYLINE
8
Layer 1
62
7
70
0
10
0.000000
20
0.000000
66
1
0
VERTEX
8
Layer 1
10
90.408730
20
231.854148
70
0
0
VERTEX
8
Layer 1
10
90.919416
20
233.724647
70
0
0
VERTEX
8
Layer 1
10
91.823740
20
235.706508
70
0
0
VERTEX
8
Layer 1
10
92.664681
20
236.370410
70
0
0
VERTEX
8
Layer 1
10
93.939910
20
236.614333
70
0
0
VERTEX
8
Layer 1
10
95.208181
20
236.533379
70
0
0
VERTEX
8
Layer 1
10
95.570017
20
236.356336
70
0
0
VERTEX
8
Layer 1
10
95.794440
20
236.075424
70
0
0
VERTEX
8
Layer 1
10
95.832244
20
235.512993
70
0
0
VERTEX
8
Layer 1
10
95.699598
20
235.318403
70
0
0
VERTEX
8
Layer 1
10
95.493300
20
235.256068
70
0
0
VERTEX
8
Layer 1
10
95.009170
20
235.274618
70
0
0
VERTEX
8
Layer 1
10
94.835917
20
235.326006
70
0
0
VERTEX
8
Layer 1
10
94.862660
20
235.526903
70
0
0
VERTEX
8
Layer 1
10
94.846199
20
235.808358
70
0
0
VERTEX
8
Layer 1
10
94.082130
20
235.862900
70
0
0
VERTEX
8
Layer 1
10
93.383360
20
235.871200
70
0
0
VERTEX
8
Layer 1
10
92.598320
20
233.973198
70
0
0
VERTEX
8
Layer 1
10
91.813280
20
232.075193
70
0
0
VERTEX
8
Layer 1
10
92.183420
20
232.027283
70
0
0
VERTEX
8
Layer 1
10
92.818573
20
232.104879
70
0
0
VERTEX
8
Layer 1
10
93.212900
20
232.759501
70
0
0
VERTEX
8
Layer 1
10
93.382766
20
233.457198
70
0
0
VERTEX
8
Layer 1
10
93.323745
20
233.590392
70
0
0
VERTEX
8
Layer 1
10
93.170800
20
233.541653
70
0
0
VERTEX
8
Layer 1
10
92.920441
20
233.523391
70
0
0
VERTEX
8
Layer 1
10
92.975400
20
233.941018
70
0
0
VERTEX
8
Layer 1
10
93.253331
20
234.287304
70
0
0
VERTEX
8
Layer 1
10
94.150290
20
234.340183
70
0
0
VERTEX
8
Layer 1
10
95.316220
20
234.434463
70
0
0
VERTEX
8
Layer 1
10
94.894670
20
233.183854
70
0
0
VERTEX
8
Layer 1
10
94.323720
20
231.835181
70
0
0
VERTEX
8
Layer 1
10
93.652180
20
231.533400
70
0
0
VERTEX
8
Layer 1
10
92.512290
20
231.257796
70
0
0
VERTEX
8
Layer 1
10
91.655090
20
231.242496
70
0
0
VERTEX
8
Layer 1
10
90.835479
20
231.372207
70
0
0
VERTEX
8
Layer 1
10
90.553528
20
231.578671
70
0
0
VERTEX
8
Layer 1
10
90.408740
20
231.854062
70
0
0
VERTEX
8
Layer 1
10
90.408730
20
231.854148
70
0
0
SEQEND
8
Layer 1
0
POLYLINE
8
Layer 1
62
7
70
0
10
0.000000
20
0.000000
66
1
0
VERTEX
8
Layer 1
10
61.652462
20
244.633626
70
0
0
VERTEX
8
Layer 1
10
63.431510
20
249.161909
70
0
0
VERTEX
8
Layer 1
10
65.178563
20
253.597460
70
0
0
VERTEX
8
Layer 1
10
65.827001
20
253.646190
70
0
0
VERTEX
8
Layer 1
10
67.808420
20
253.621140
70
0
0
VERTEX
8
Layer 1
10
66.041124
20
249.100819
70
0
0
VERTEX
8
Layer 1
10
64.238904
20
244.594245
70
0
0
VERTEX
8
Layer 1
10
63.392140
20
244.583245
70
0
0
VERTEX
8
Layer 1
10
62.155338
20
244.528095
70
0
0
VERTEX
8
Layer 1
10
61.721004
20
244.512212
70
0
0
VERTEX
8
Layer 1
10
61.652449
20
244.633619
70
0
0
VERTEX
8
Layer 1
10
61.652462
20
244.633626
70
0
0
SEQEND
8
Layer 1
0
POLYLINE
8
Layer 1
62
7
70
0
10
0.000000
20
0.000000
66
1
0
VERTEX
8
Layer 1
10
96.126100
20
231.508763
70
0
0
VERTEX
8
Layer 1
10
95.810452
20
231.752338
70
0
0
VERTEX
8
Layer 1
10
95.747765
20
232.162166
70
0
0
VERTEX
8
Layer 1
10
96.475290
20
234.207010
70
0
0
VERTEX
8
Layer 1
10
97.273840
20
236.123516
70
0
0
VERTEX
8
Layer 1
10
97.821530
20
236.371897
70
0
0
VERTEX
8
Layer 1
10
98.918500
20
236.662183
70
0
0
VERTEX
8
Layer 1
10
99.879660
20
236.740573
70
0
0
VERTEX
8
Layer 1
10
100.429769
20
236.706082
70
0
0
VERTEX
8
Layer 1
10
100.857870
20
236.515012
70
0
0
VERTEX
8
Layer 1
10
101.126236
20
236.195045
70
0
0
VERTEX
8
Layer 1
10
101.197140
20
235.773862
70
0
0
VERTEX
8
Layer 1
10
101.001664
20
235.448947
70
0
0
VERTEX
8
Layer 1
10
100.458600
20
235.385218
70
0
0
VERTEX
8
Layer 1
10
100.236594
20
235.445914
70
0
0
VERTEX
8
Layer 1
10
100.226950
20
235.599525
70
0
0
VERTEX
8
Layer 1
10
100.226075
20
235.757789
70
0
0
VERTEX
8
Layer 1
10
100.074221
20
235.868591
70
0
0
VERTEX
8
Layer 1
10
99.285320
20
235.960185
70
0
0
VERTEX
8
Layer 1
10
98.686200
20
235.966085
70
0
0
VERTEX
8
Layer 1
10
97.927640
20
234.036923
70
0
0
VERTEX
8
Layer 1
10
97.231530
20
232.083198
70
0
0
VERTEX
8
Layer 1
10
97.549480
20
232.088398
70
0
0
VERTEX
8
Layer 1
10
98.043660
20
232.100278
70
0
0
VERTEX
8
Layer 1
10
98.292169
20
232.230575
70
0
0
VERTEX
8
Layer 1
10
98.570760
20
232.815914
70
0
0
VERTEX
8
Layer 1
10
98.737084
20
233.555356
70
0
0
VERTEX
8
Layer 1
10
98.610297
20
233.654114
70
0
0
VERTEX
8
Layer 1
10
98.339670
20
233.585140
70
0
0
VERTEX
8
Layer 1
10
98.218998
20
233.617449
70
0
0
VERTEX
8
Layer 1
10
98.329670
20
233.988118
70
0
0
VERTEX
8
Layer 1
10
98.522910
20
234.479663
70
0
0
VERTEX
8
Layer 1
10
99.473850
20
234.478961
70
0
0
VERTEX
8
Layer 1
10
100.573790
20
234.419661
70
0
0
VERTEX
8
Layer 1
10
100.578838
20
234.075580
70
0
0
VERTEX
8
Layer 1
10
100.337620
20
233.369633
70
0
0
VERTEX
8
Layer 1
10
99.594840
20
232.036930
70
0
0
VERTEX
8
Layer 1
10
98.747640
20
231.506209
70
0
0
VERTEX
8
Layer 1
10
97.345070
20
231.335531
70
0
0
VERTEX
8
Layer 1
10
96.126280
20
231.508709
70
0
0
VERTEX
8
Layer 1
10
96.126100
20
231.508763
70
0
0
SEQEND
8
Layer 1
0
POLYLINE
8
Layer 1
62
7
70
0
10
0.000000
20
0.000000
66
1
0
VERTEX
8
Layer 1
10
68.154195
20
245.334835
70
0
0
VERTEX
8
Layer 1
10
67.940588
20
245.784770
70
0
0
VERTEX
8
Layer 1
10
67.973508
20
246.441885
70
0
0
VERTEX
8
Layer 1
10
68.969050
20
249.303613
70
0
0
VERTEX
8
Layer 1
10
69.700502
20
251.084424
70
0
0
VERTEX
8
Layer 1
10
70.269955
20
252.162310
70
0
0
VERTEX
8
Layer 1
10
70.855652
20
252.802350
70
0
0
VERTEX
8
Layer 1
10
71.635834
20
253.269624
70
0
0
VERTEX
8
Layer 1
10
72.821166
20
253.674157
70
0
0
VERTEX
8
Layer 1
10
74.617845
20
253.757079
70
0
0
VERTEX
8
Layer 1
10
76.127553
20
253.564556
70
0
0
VERTEX
8
Layer 1
10
76.604925
20
253.328731
70
0
0
VERTEX
8
Layer 1
10
76.911426
20
252.995155
70
0
0
VERTEX
8
Layer 1
10
77.102211
20
252.518471
70
0
0
VERTEX
8
Layer 1
10
77.052461
20
251.877051
70
0
0
VERTEX
8
Layer 1
10
75.955774
20
248.926812
70
0
0
VERTEX
8
Layer 1
10
74.871317
20
246.383279
70
0
0
VERTEX
8
Layer 1
10
74.294080
20
245.665346
70
0
0
VERTEX
8
Layer 1
10
72.992427
20
244.990324
70
0
0
VERTEX
8
Layer 1
10
71.291033
20
244.675113
70
0
0
VERTEX
8
Layer 1
10
69.181676
20
244.709194
70
0
0
VERTEX
8
Layer 1
10
68.579969
20
244.938127
70
0
0
VERTEX
8
Layer 1
10
68.154195
20
245.334835
70
0
0
VERTEX
8
Layer 1
10
68.154195
20
245.334835
70
0
0
SEQEND
8
Layer 1
0
POLYLINE
8
Layer 1
62
7
70
0
10
0.000000
20
0.000000
66
1
0
VERTEX
8
Layer 1
10
71.410745
20
246.095267
70
0
0
VERTEX
8
Layer 1
10
72.213643
20
246.128817
70
0
0
VERTEX
8
Layer 1
10
73.437510
20
249.241423
70
0
0
VERTEX
8
Layer 1
10
74.373239
20
251.713047
70
0
0
VERTEX
8
Layer 1
10
74.484780
20
252.351251
70
0
0
VERTEX
8
Layer 1
10
73.585998
20
252.386501
70
0
0
VERTEX
8
Layer 1
10
72.863816
20
252.424531
70
0
0
VERTEX
8
Layer 1
10
71.629360
20
249.284993
70
0
0
VERTEX
8
Layer 1
10
70.501372
20
246.103584
70
0
0
VERTEX
8
Layer 1
10
71.410745
20
246.095284
70
0
0
VERTEX
8
Layer 1
10
71.410745
20
246.095267
70
0
0
SEQEND
8
Layer 1
0
POLYLINE
8
Layer 1
62
7
70
0
10
0.000000
20
0.000000
66
1
0
VERTEX
8
Layer 1
10
103.706500
20
232.029450
70
0
0
VERTEX
8
Layer 1
10
103.775865
20
232.913907
70
0
0
VERTEX
8
Layer 1
10
104.216270
20
233.783028
70
0
0
VERTEX
8
Layer 1
10
104.822880
20
234.217789
70
0
0
VERTEX
8
Layer 1
10
105.046929
20
234.344352
70
0
0
VERTEX
8
Layer 1
10
104.755780
20
234.405962
70
0
0
VERTEX
8
Layer 1
10
104.452625
20
234.504225
70
0
0
VERTEX
8
Layer 1
10
104.626110
20
234.885642
70
0
0
VERTEX
8
Layer 1
10
104.939294
20
235.252276
70
0
0
VERTEX
8
Layer 1
10
105.394664
20
235.503758
70
0
0
VERTEX
8
Layer 1
10
106.879490
20
235.715598
70
0
0
VERTEX
8
Layer 1
10
108.086765
20
235.651491
70
0
0
VERTEX
8
Layer 1
10
108.602210
20
235.276001
70
0
0
VERTEX
8
Layer 1
10
108.636347
20
234.765803
70
0
0
VERTEX
8
Layer 1
10
108.121890
20
233.253457
70
0
0
VERTEX
8
Layer 1
10
107.473250
20
231.496091
70
0
0
VERTEX
8
Layer 1
10
106.013000
20
231.473541
70
0
0
VERTEX
8
Layer 1
10
104.325541
20
231.575735
70
0
0
VERTEX
8
Layer 1
10
103.911127
20
231.751748
70
0
0
VERTEX
8
Layer 1
10
103.706390
20
232.029485
70
0
0
VERTEX
8
Layer 1
10
103.706500
20
232.029450
70
0
0
SEQEND
8
Layer 1
0
POLYLINE
8
Layer 1
62
7
70
0
10
0.000000
20
0.000000
66
1
0
VERTEX
8
Layer 1
10
105.711130
20
232.276296
70
0
0
VERTEX
8
Layer 1
10
106.192800
20
232.494776
70
0
0
VERTEX
8
Layer 1
10
106.587590
20
233.213320
70
0
0
VERTEX
8
Layer 1
10
106.669971
20
233.668193
70
0
0
VERTEX
8
Layer 1
10
106.126170
20
233.767122
70
0
0
VERTEX
8
Layer 1
10
105.711633
20
233.683912
70
0
0
VERTEX
8
Layer 1
10
105.408500
20
233.066465
70
0
0
VERTEX
8
Layer 1
10
105.233985
20
232.377629
70
0
0
VERTEX
8
Layer 1
10
105.711130
20
232.276296
70
0
0
VERTEX
8
Layer 1
10
105.711130
20
232.276296
70
0
0
SEQEND
8
Layer 1
0
POLYLINE
8
Layer 1
62
7
70
0
10
0.000000
20
0.000000
66
1
0
VERTEX
8
Layer 1
10
106.179010
20
234.542297
70
0
0
VERTEX
8
Layer 1
10
107.014239
20
234.660259
70
0
0
VERTEX
8
Layer 1
10
107.205840
20
234.824298
70
0
0
VERTEX
8
Layer 1
10
106.448231
20
234.923189
70
0
0
VERTEX
8
Layer 1
10
105.542250
20
234.746898
70
0
0
VERTEX
8
Layer 1
10
105.378623
20
234.517369
70
0
0
VERTEX
8
Layer 1
10
106.179000
20
234.542287
70
0
0
VERTEX
8
Layer 1
10
106.179010
20
234.542297
70
0
0
SEQEND
8
Layer 1
0
POLYLINE
8
Layer 1
62
7
70
0
10
0.000000
20
0.000000
66
1
0
VERTEX
8
Layer 1
10
41.647918
20
261.592652
70
0
0
VERTEX
8
Layer 1
10
42.984631
20
264.880018
70
0
0
VERTEX
8
Layer 1
10
43.313309
20
265.460734
70
0
0
VERTEX
8
Layer 1
10
43.654529
20
265.838469
70
0
0
VERTEX
8
Layer 1
10
44.780125
20
266.619683
70
0
0
VERTEX
8
Layer 1
10
45.987070
20
267.023037
70
0
0
VERTEX
8
Layer 1
10
47.882948
20
267.069482
70
0
0
VERTEX
8
Layer 1
10
49.287615
20
266.937177
70
0
0
VERTEX
8
Layer 1
10
49.642195
20
266.684438
70
0
0
VERTEX
8
Layer 1
10
49.930838
20
266.283430
70
0
0
VERTEX
8
Layer 1
10
50.108531
20
265.817562
70
0
0
VERTEX
8
Layer 1
10
50.130263
20
265.370245
70
0
0
VERTEX
8
Layer 1
10
48.659390
20
261.491606
70
0
0
VERTEX
8
Layer 1
10
47.262513
20
258.039021
70
0
0
VERTEX
8
Layer 1
10
46.909001
20
258.043021
70
0
0
VERTEX
8
Layer 1
10
45.770592
20
258.004311
70
0
0
VERTEX
8
Layer 1
10
45.055952
20
257.983364
70
0
0
VERTEX
8
Layer 1
10
44.779498
20
258.165285
70
0
0
VERTEX
8
Layer 1
10
44.898247
20
258.762413
70
0
0
VERTEX
8
Layer 1
10
45.369213
20
259.987090
70
0
0
VERTEX
8
Layer 1
10
46.037906
20
261.900461
70
0
0
VERTEX
8
Layer 1
10
45.571293
20
261.874291
70
0
0
VERTEX
8
Layer 1
10
44.795747
20
261.831701
70
0
0
VERTEX
8
Layer 1
10
44.414370
20
261.843751
70
0
0
VERTEX
8
Layer 1
10
43.665371
20
259.938859
70
0
0
VERTEX
8
Layer 1
10
42.997166
20
258.346269
70
0
0
VERTEX
8
Layer 1
10
42.640043
20
257.956102
70
0
0
VERTEX
8
Layer 1
10
42.179746
20
257.945992
70
0
0
VERTEX
8
Layer 1
10
41.094369
20
257.952992
70
0
0
VERTEX
8
Layer 1
10
40.192957
20
257.892272
70
0
0
VERTEX
8
Layer 1
10
41.647918
20
261.592652
70
0
0
SEQEND
8
Layer 1
0
POLYLINE
8
Layer 1
62
7
70
0
10
0.000000
20
0.000000
66
1
0
VERTEX
8
Layer 1
10
46.126047
20
263.250988
70
0
0
VERTEX
8
Layer 1
10
46.658869
20
263.267008
70
0
0
VERTEX
8
Layer 1
10
47.144314
20
264.501602
70
0
0
VERTEX
8
Layer 1
10
47.629751
20
265.736198
70
0
0
VERTEX
8
Layer 1
10
46.818885
20
265.727198
70
0
0
VERTEX
8
Layer 1
10
46.008016
20
265.718198
70
0
0
VERTEX
8
Layer 1
10
45.488777
20
264.499712
70
0
0
VERTEX
8
Layer 1
10
44.969534
20
263.281221
70
0
0
VERTEX
8
Layer 1
10
45.281383
20
263.258081
70
0
0
VERTEX
8
Layer 1
10
46.126052
20
263.250981
70
0
0
VERTEX
8
Layer 1
10
46.126047
20
263.250988
70
0
0
SEQEND
8
Layer 1
0
POLYLINE
8
Layer 1
62
7
70
0
10
0.000000
20
0.000000
66
1
0
VERTEX
8
Layer 1
10
109.258150
20
233.567321
70
0
0
VERTEX
8
Layer 1
10
110.179660
20
235.643219
70
0
0
VERTEX
8
Layer 1
10
112.692160
20
235.824486
70
0
0
VERTEX
8
Layer 1
10
113.408145
20
235.773092
70
0
0
VERTEX
8
Layer 1
10
113.772950
20
235.494125
70
0
0
VERTEX
8
Layer 1
10
113.970702
20
235.188099
70
0
0
VERTEX
8
Layer 1
10
113.993079
20
234.793289
70
0
0
VERTEX
8
Layer 1
10
113.413280
20
233.075503
70
0
0
VERTEX
8
Layer 1
10
112.835990
20
231.601239
70
0
0
VERTEX
8
Layer 1
10
112.109750
20
231.587259
70
0
0
VERTEX
8
Layer 1
10
111.298330
20
231.606779
70
0
0
VERTEX
8
Layer 1
10
111.711870
20
232.953547
70
0
0
VERTEX
8
Layer 1
10
112.360280
20
234.662010
70
0
0
VERTEX
8
Layer 1
10
112.510040
20
235.057172
70
0
0
VERTEX
8
Layer 1
10
112.004620
20
235.021552
70
0
0
VERTEX
8
Layer 1
10
111.499190
20
234.985942
70
0
0
VERTEX
8
Layer 1
10
110.871630
20
233.390047
70
0
0
VERTEX
8
Layer 1
10
110.018110
20
231.665681
70
0
0
VERTEX
8
Layer 1
10
108.538030
20
231.568861
70
0
0
VERTEX
8
Layer 1
10
109.258570
20
233.567153
70
0
0
VERTEX
8
Layer 1
10
109.258150
20
233.567321
70
0
0
SEQEND
8
Layer 1
0
POLYLINE
8
Layer 1
62
7
70
0
10
0.000000
20
0.000000
66
1
0
VERTEX
8
Layer 1
10
76.531846
20
244.434443
70
0
0
VERTEX
8
Layer 1
10
76.859718
20
244.443743
70
0
0
VERTEX
8
Layer 1
10
76.987964
20
244.367566
70
0
0
VERTEX
8
Layer 1
10
76.835858
20
244.314867
70
0
0
VERTEX
8
Layer 1
10
76.513491
20
244.308333
70
0
0
VERTEX
8
Layer 1
10
76.531831
20
244.434373
70
0
0
VERTEX
8
Layer 1
10
76.531846
20
244.434443
70
0
0
SEQEND
8
Layer 1
0
POLYLINE
8
Layer 1
62
7
70
0
10
0.000000
20
0.000000
66
1
0
VERTEX
8
Layer 1
10
76.163423
20
244.829296
70
0
0
VERTEX
8
Layer 1
10
76.270569
20
245.169011
70
0
0
VERTEX
8
Layer 1
10
78.054802
20
249.610349
70
0
0
VERTEX
8
Layer 1
10
79.728582
20
253.814318
70
0
0
VERTEX
8
Layer 1
10
80.141622
20
253.821818
70
0
0
VERTEX
8
Layer 1
10
80.553887
20
253.741336
70
0
0
VERTEX
8
Layer 1
10
80.963154
20
253.322288
70
0
0
VERTEX
8
Layer 1
10
84.449670
20
249.324375
70
0
0
VERTEX
8
Layer 1
10
85.485920
20
251.591985
70
0
0
VERTEX
8
Layer 1
10
86.429980
20
253.895835
70
0
0
VERTEX
8
Layer 1
10
87.245010
20
253.905035
70
0
0
VERTEX
8
Layer 1
10
88.060040
20
253.914235
70
0
0
VERTEX
8
Layer 1
10
86.230100
20
249.359890
70
0
0
VERTEX
8
Layer 1
10
84.400170
20
244.805544
70
0
0
VERTEX
8
Layer 1
10
83.918826
20
244.829624
70
0
0
VERTEX
8
Layer 1
10
83.407570
20
244.979305
70
0
0
VERTEX
8
Layer 1
10
82.752675
20
245.732021
70
0
0
VERTEX
8
Layer 1
10
82.023170
20
246.627906
70
0
0
VERTEX
8
Layer 1
10
80.836056
20
248.007326
70
0
0
VERTEX
8
Layer 1
10
79.620722
20
249.397826
70
0
0
VERTEX
8
Layer 1
10
78.615418
20
247.055187
70
0
0
VERTEX
8
Layer 1
10
77.626716
20
244.706019
70
0
0
VERTEX
8
Layer 1
10
76.868600
20
244.727569
70
0
0
VERTEX
8
Layer 1
10
76.163475
20
244.829310
70
0
0
VERTEX
8
Layer 1
10
76.163423
20
244.829296
70
0
0
SEQEND
8
Layer 1
0
POLYLINE
8
Layer 1
62
7
70
0
10
0.000000
20
0.000000
66
1
0
VERTEX
8
Layer 1
10
111.285060
20
231.050338
70
0
0
VERTEX
8
Layer 1
10
111.461660
20
231.121308
70
0
0
VERTEX
8
Layer 1
10
111.467660
20
230.978616
70
0
0
VERTEX
8
Layer 1
10
111.291060
20
230.907646
70
0
0
VERTEX
8
Layer 1
10
111.285060
20
231.050346
70
0
0
VERTEX
8
Layer 1
10
111.285060
20
231.050338
70
0
0
SEQEND
8
Layer 1
0
POLYLINE
8
Layer 1
62
7
70
0
10
0.000000
20
0.000000
66
1
0
VERTEX
8
Layer 1
10
46.145010
20
257.742028
70
0
0
VERTEX
8
Layer 1
10
46.374304
20
257.640760
70
0
0
VERTEX
8
Layer 1
10
46.189593
20
257.639660
70
0
0
VERTEX
8
Layer 1
10
46.072899
20
257.713564
70
0
0
VERTEX
8
Layer 1
10
46.145013
20
257.742015
70
0
0
VERTEX
8
Layer 1
10
46.145010
20
257.742028
70
0
0
SEQEND
8
Layer 1
0
POLYLINE
8
Layer 1
62
7
70
0
10
0.000000
20
0.000000
66
1
0
VERTEX
8
Layer 1
10
114.708520
20
233.787795
70
0
0
VERTEX
8
Layer 1
10
115.514910
20
235.869414
70
0
0
VERTEX
8
Layer 1
10
116.294790
20
235.902004
70
0
0
VERTEX
8
Layer 1
10
117.132020
20
235.912044
70
0
0
VERTEX
8
Layer 1
10
116.519970
20
234.187014
70
0
0
VERTEX
8
Layer 1
10
115.907220
20
232.462251
70
0
0
VERTEX
8
Layer 1
10
116.438080
20
232.473271
70
0
0
VERTEX
8
Layer 1
10
116.912250
20
232.506551
70
0
0
VERTEX
8
Layer 1
10
117.546660
20
234.216128
70
0
0
VERTEX
8
Layer 1
10
118.181060
20
235.925706
70
0
0
VERTEX
8
Layer 1
10
118.567700
20
235.920206
70
0
0
VERTEX
8
Layer 1
10
119.352570
20
235.948766
70
0
0
VERTEX
8
Layer 1
10
119.777760
20
235.833836
70
0
0
VERTEX
8
Layer 1
10
119.155630
20
234.159259
70
0
0
VERTEX
8
Layer 1
10
118.638235
20
232.797041
70
0
0
VERTEX
8
Layer 1
10
118.690473
20
232.594275
70
0
0
VERTEX
8
Layer 1
10
118.922710
20
232.519107
70
0
0
VERTEX
8
Layer 1
10
119.372780
20
232.770986
70
0
0
VERTEX
8
Layer 1
10
119.765780
20
233.281575
70
0
0
VERTEX
8
Layer 1
10
120.293180
20
234.499182
70
0
0
VERTEX
8
Layer 1
10
120.866100
20
235.956227
70
0
0
VERTEX
8
Layer 1
10
121.334190
20
235.986147
70
0
0
VERTEX
8
Layer 1
10
122.122550
20
235.937867
70
0
0
VERTEX
8
Layer 1
10
122.442810
20
235.859637
70
0
0
VERTEX
8
Layer 1
10
122.004180
20
234.641261
70
0
0
VERTEX
8
Layer 1
10
121.536695
20
233.519678
70
0
0
VERTEX
8
Layer 1
10
120.898540
20
232.969903
70
0
0
VERTEX
8
Layer 1
10
119.156969
20
231.872566
70
0
0
VERTEX
8
Layer 1
10
118.626109
20
231.742201
70
0
0
VERTEX
8
Layer 1
10
117.900280
20
231.714130
70
0
0
VERTEX
8
Layer 1
10
116.303430
20
231.672540
70
0
0
VERTEX
8
Layer 1
10
113.984230
20
231.673840
70
0
0
VERTEX
8
Layer 1
10
114.708400
20
233.787788
70
0
0
VERTEX
8
Layer 1
10
114.708520
20
233.787795
70
0
0
SEQEND
8
Layer 1
0
POLYLINE
8
Layer 1
62
7
70
0
10
0.000000
20
0.000000
66
1
0
VERTEX
8
Layer 1
10
50.925407
20
262.606062
70
0
0
VERTEX
8
Layer 1
10
52.760513
20
267.179625
70
0
0
VERTEX
8
Layer 1
10
53.179296
20
267.139545
70
0
0
VERTEX
8
Layer 1
10
53.460154
20
267.052133
70
0
0
VERTEX
8
Layer 1
10
53.838723
20
266.743751
70
0
0
VERTEX
8
Layer 1
10
55.503229
20
264.862035
70
0
0
VERTEX
8
Layer 1
10
57.477760
20
262.597329
70
0
0
VERTEX
8
Layer 1
10
58.411803
20
264.829072
70
0
0
VERTEX
8
Layer 1
10
59.350882
20
267.001821
70
0
0
VERTEX
8
Layer 1
10
59.659488
20
267.271799
70
0
0
VERTEX
8
Layer 1
10
60.008478
20
267.218507
70
0
0
VERTEX
8
Layer 1
10
60.343955
20
267.210007
70
0
0
VERTEX
8
Layer 1
10
60.722392
20
267.258677
70
0
0
VERTEX
8
Layer 1
10
60.846933
20
267.162543
70
0
0
VERTEX
8
Layer 1
10
60.727882
20
266.645737
70
0
0
VERTEX
8
Layer 1
10
59.209914
20
262.692329
70
0
0
VERTEX
8
Layer 1
10
57.427124
20
258.158263
70
0
0
VERTEX
8
Layer 1
10
57.009385
20
258.150763
70
0
0
VERTEX
8
Layer 1
10
56.490794
20
258.335836
70
0
0
VERTEX
8
Layer 1
10
55.504980
20
259.413191
70
0
0
VERTEX
8
Layer 1
10
53.710876
20
261.541109
70
0
0
VERTEX
8
Layer 1
10
53.030379
20
262.355258
70
0
0
VERTEX
8
Layer 1
10
52.808459
20
262.529628
70
0
0
VERTEX
8
Layer 1
10
52.624955
20
262.526072
70
0
0
VERTEX
8
Layer 1
10
52.251781
20
261.916809
70
0
0
VERTEX
8
Layer 1
10
51.668033
20
260.390725
70
0
0
VERTEX
8
Layer 1
10
50.783893
20
258.059641
70
0
0
VERTEX
8
Layer 1
10
50.402571
20
258.065041
70
0
0
VERTEX
8
Layer 1
10
49.599360
20
258.034341
70
0
0
VERTEX
8
Layer 1
10
49.133889
20
258.015361
70
0
0
VERTEX
8
Layer 1
10
50.925410
20
262.606055
70
0
0
VERTEX
8
Layer 1
10
50.925407
20
262.606062
70
0
0
SEQEND
8
Layer 1
0
POLYLINE
8
Layer 1
62
7
70
0
10
0.000000
20
0.000000
66
1
0
VERTEX
8
Layer 1
10
122.482000
20
232.416798
70
0
0
VERTEX
8
Layer 1
10
122.450266
20
232.891995
70
0
0
VERTEX
8
Layer 1
10
122.666730
20
233.697666
70
0
0
VERTEX
8
Layer 1
10
123.285486
20
234.995207
70
0
0
VERTEX
8
Layer 1
10
124.170890
20
235.727345
70
0
0
VERTEX
8
Layer 1
10
124.854389
20
235.933677
70
0
0
VERTEX
8
Layer 1
10
125.734169
20
236.031750
70
0
0
VERTEX
8
Layer 1
10
126.565100
20
236.010548
70
0
0
VERTEX
8
Layer 1
10
127.102050
20
235.859057
70
0
0
VERTEX
8
Layer 1
10
127.308258
20
235.587543
70
0
0
VERTEX
8
Layer 1
10
127.372906
20
235.191604
70
0
0
VERTEX
8
Layer 1
10
127.079350
20
234.161182
70
0
0
VERTEX
8
Layer 1
10
126.773350
20
233.563559
70
0
0
VERTEX
8
Layer 1
10
125.979270
20
233.556559
70
0
0
VERTEX
8
Layer 1
10
124.451975
20
233.481206
70
0
0
VERTEX
8
Layer 1
10
124.209389
20
233.327572
70
0
0
VERTEX
8
Layer 1
10
124.067710
20
233.028556
70
0
0
VERTEX
8
Layer 1
10
123.924030
20
232.539419
70
0
0
VERTEX
8
Layer 1
10
124.458610
20
232.559919
70
0
0
VERTEX
8
Layer 1
10
125.305630
20
232.735929
70
0
0
VERTEX
8
Layer 1
10
125.754250
20
233.032759
70
0
0
VERTEX
8
Layer 1
10
126.113603
20
233.220108
70
0
0
VERTEX
8
Layer 1
10
126.586220
20
233.151296
70
0
0
VERTEX
8
Layer 1
10
126.601424
20
232.958380
70
0
0
VERTEX
8
Layer 1
10
126.149880
20
232.506641
70
0
0
VERTEX
8
Layer 1
10
125.475386
20
232.041895
70
0
0
VERTEX
8
Layer 1
10
124.518450
20
231.853801
70
0
0
VERTEX
8
Layer 1
10
123.124719
20
231.887910
70
0
0
VERTEX
8
Layer 1
10
122.714925
20
232.088998
70
0
0
VERTEX
8
Layer 1
10
122.482060
20
232.416771
70
0
0
VERTEX
8
Layer 1
10
122.482000
20
232.416798
70
0
0
SEQEND
8
Layer 1
0
POLYLINE
8
Layer 1
62
7
70
0
10
0.000000
20
0.000000
66
1
0
VERTEX
8
Layer 1
10
125.196060
20
234.308290
70
0
0
VERTEX
8
Layer 1
10
125.526239
20
234.413980
70
0
0
VERTEX
8
Layer 1
10
125.744870
20
234.794528
70
0
0
VERTEX
8
Layer 1
10
125.852189
20
235.253616
70
0
0
VERTEX
8
Layer 1
10
125.363040
20
235.269536
70
0
0
VERTEX
8
Layer 1
10
124.982811
20
235.151777
70
0
0
VERTEX
8
Layer 1
10
124.765190
20
234.802581
70
0
0
VERTEX
8
Layer 1
10
124.704996
20
234.372385
70
0
0
VERTEX
8
Layer 1
10
125.196060
20
234.308290
70
0
0
VERTEX
8
Layer 1
10
125.196060
20
234.308290
70
0
0
SEQEND
8
Layer 1
0
POLYLINE
8
Layer 1
62
7
70
1
10
0.000000
20
0.000000
66
1
0
VERTEX
8
Layer 1
10
61.779325
20
262.085267
70
0
0
VERTEX
8
Layer 1
10
63.287123
20
265.919984
70
0
0
VERTEX
8
Layer 1
10
62.152950
20
265.892214
70
0
0
VERTEX
8
Layer 1
10
61.018778
20
265.864444
70
0
0
VERTEX
8
Layer 1
10
61.293681
20
266.563601
70
0
0
VERTEX
8
Layer 1
10
61.568585
20
267.262759
70
0
0
VERTEX
8
Layer 1
10
62.584511
20
267.257559
70
0
0
VERTEX
8
Layer 1
10
64.171985
20
267.277659
70
0
0
VERTEX
8
Layer 1
10
66.219406
20
267.306979
70
0
0
VERTEX
8
Layer 1
10
68.145757
20
267.331509
70
0
0
VERTEX
8
Layer 1
10
68.675124
20
267.320909
70
0
0
VERTEX
8
Layer 1
10
68.445960
20
266.613503
70
0
0
VERTEX
8
Layer 1
10
68.137899
20
265.937120
70
0
0
VERTEX
8
Layer 1
10
67.438744
20
265.944420
70
0
0
VERTEX
8
Layer 1
10
66.370948
20
265.906920
70
0
0
VERTEX
8
Layer 1
10
66.002312
20
265.862110
70
0
0
VERTEX
8
Layer 1
10
64.495165
20
262.029056
70
0
0
VERTEX
8
Layer 1
10
62.988016
20
258.196000
70
0
0
VERTEX
8
Layer 1
10
61.935945
20
258.198500
70
0
0
VERTEX
8
Layer 1
10
60.577695
20
258.225750
70
0
0
VERTEX
8
Layer 1
10
60.271520
20
258.250520
70
0
0
VERTEX
8
Layer 1
10
61.779325
20
262.085267
70
0
0
SEQEND
8
Layer 1
0
POLYLINE
8
Layer 1
62
7
70
0
10
0.000000
20
0.000000
66
1
0
VERTEX
8
Layer 1
10
128.129840
20
233.994595
70
0
0
VERTEX
8
Layer 1
10
128.860530
20
235.670551
70
0
0
VERTEX
8
Layer 1
10
129.204340
20
236.094002
70
0
0
VERTEX
8
Layer 1
10
130.757741
20
236.147348
70
0
0
VERTEX
8
Layer 1
10
132.071660
20
236.041342
70
0
0
VERTEX
8
Layer 1
10
132.477945
20
235.877038
70
0
0
VERTEX
8
Layer 1
10
132.695000
20
235.624904
70
0
0
VERTEX
8
Layer 1
10
132.638660
20
234.670390
70
0
0
VERTEX
8
Layer 1
10
132.119743
20
233.194842
70
0
0
VERTEX
8
Layer 1
10
131.580830
20
232.077501
70
0
0
VERTEX
8
Layer 1
10
130.885970
20
231.923070
70
0
0
VERTEX
8
Layer 1
10
130.087190
20
231.941343
70
0
0
VERTEX
8
Layer 1
10
130.646040
20
233.690148
70
0
0
VERTEX
8
Layer 1
10
131.316460
20
235.395085
70
0
0
VERTEX
8
Layer 1
10
130.768970
20
235.341765
70
0
0
VERTEX
8
Layer 1
10
130.221470
20
235.288445
70
0
0
VERTEX
8
Layer 1
10
129.575230
20
233.614088
70
0
0
VERTEX
8
Layer 1
10
128.929000
20
231.939739
70
0
0
VERTEX
8
Layer 1
10
128.163160
20
231.907729
70
0
0
VERTEX
8
Layer 1
10
127.337120
20
231.899429
70
0
0
VERTEX
8
Layer 1
10
128.129870
20
233.994595
70
0
0
VERTEX
8
Layer 1
10
128.129840
20
233.994595
70
0
0
SEQEND
8
Layer 1
0
POLYLINE
8
Layer 1
62
7
70
0
10
0.000000
20
0.000000
66
1
0
VERTEX
8
Layer 1
10
76.839761
20
253.676078
70
0
0
VERTEX
8
Layer 1
10
77.069056
20
253.574810
70
0
0
VERTEX
8
Layer 1
10
76.884346
20
253.573710
70
0
0
VERTEX
8
Layer 1
10
76.767651
20
253.647614
70
0
0
VERTEX
8
Layer 1
10
76.839766
20
253.676065
70
0
0
VERTEX
8
Layer 1
10
76.839761
20
253.676078
70
0
0
SEQEND
8
Layer 1
0
POLYLINE
8
Layer 1
62
7
70
0
10
0.000000
20
0.000000
66
1
0
VERTEX
8
Layer 1
10
68.681656
20
262.579677
70
0
0
VERTEX
8
Layer 1
10
70.479052
20
267.124760
70
0
0
VERTEX
8
Layer 1
10
70.845713
20
267.317774
70
0
0
VERTEX
8
Layer 1
10
71.836486
20
267.363256
70
0
0
VERTEX
8
Layer 1
10
73.155697
20
267.361056
70
0
0
VERTEX
8
Layer 1
10
71.465788
20
262.795384
70
0
0
VERTEX
8
Layer 1
10
69.540459
20
258.275476
70
0
0
VERTEX
8
Layer 1
10
68.811352
20
258.295886
70
0
0
VERTEX
8
Layer 1
10
67.072529
20
258.263016
70
0
0
VERTEX
8
Layer 1
10
68.681657
20
262.579634
70
0
0
VERTEX
8
Layer 1
10
68.681656
20
262.579677
70
0
0
SEQEND
8
Layer 1
0
POLYLINE
8
Layer 1
62
7
70
0
10
0.000000
20
0.000000
66
1
0
VERTEX
8
Layer 1
10
133.207010
20
232.615127
70
0
0
VERTEX
8
Layer 1
10
133.156529
20
233.149960
70
0
0
VERTEX
8
Layer 1
10
133.468440
20
234.083456
70
0
0
VERTEX
8
Layer 1
10
133.968126
20
235.092100
70
0
0
VERTEX
8
Layer 1
10
134.561764
20
235.763241
70
0
0
VERTEX
8
Layer 1
10
135.293872
20
236.131783
70
0
0
VERTEX
8
Layer 1
10
136.208970
20
236.232629
70
0
0
VERTEX
8
Layer 1
10
136.905290
20
236.218049
70
0
0
VERTEX
8
Layer 1
10
137.185690
20
236.824709
70
0
0
VERTEX
8
Layer 1
10
137.506767
20
237.349267
70
0
0
VERTEX
8
Layer 1
10
138.052080
20
237.421244
70
0
0
VERTEX
8
Layer 1
10
138.650975
20
237.400439
70
0
0
VERTEX
8
Layer 1
10
138.863459
20
237.189575
70
0
0
VERTEX
8
Layer 1
10
138.195740
20
235.141570
70
0
0
VERTEX
8
Layer 1
10
137.131046
20
232.520755
70
0
0
VERTEX
8
Layer 1
10
136.817580
20
232.096074
70
0
0
VERTEX
8
Layer 1
10
136.521310
20
232.022078
70
0
0
VERTEX
8
Layer 1
10
135.234870
20
232.006438
70
0
0
VERTEX
8
Layer 1
10
133.782236
20
232.076861
70
0
0
VERTEX
8
Layer 1
10
133.412127
20
232.279353
70
0
0
VERTEX
8
Layer 1
10
133.207020
20
232.615121
70
0
0
VERTEX
8
Layer 1
10
133.207010
20
232.615127
70
0
0
SEQEND
8
Layer 1
0
POLYLINE
8
Layer 1
62
7
70
0
10
0.000000
20
0.000000
66
1
0
VERTEX
8
Layer 1
10
135.375100
20
232.772787
70
0
0
VERTEX
8
Layer 1
10
135.661662
20
232.984269
70
0
0
VERTEX
8
Layer 1
10
136.137540
20
234.086968
70
0
0
VERTEX
8
Layer 1
10
136.663100
20
235.423632
70
0
0
VERTEX
8
Layer 1
10
136.296430
20
235.471092
70
0
0
VERTEX
8
Layer 1
10
135.918606
20
235.484409
70
0
0
VERTEX
8
Layer 1
10
135.652146
20
235.342724
70
0
0
VERTEX
8
Layer 1
10
135.097270
20
234.224099
70
0
0
VERTEX
8
Layer 1
10
134.677404
20
233.022137
70
0
0
VERTEX
8
Layer 1
10
134.716490
20
232.831345
70
0
0
VERTEX
8
Layer 1
10
134.905110
20
232.791233
70
0
0
VERTEX
8
Layer 1
10
135.375080
20
232.772793
70
0
0
VERTEX
8
Layer 1
10
135.375100
20
232.772787
70
0
0
SEQEND
8
Layer 1
0
POLYLINE
8
Layer 1
62
7
70
0
10
0.000000
20
0.000000
66
1
0
VERTEX
8
Layer 1
10
74.312786
20
262.892845
70
0
0
VERTEX
8
Layer 1
10
76.094404
20
267.422457
70
0
0
VERTEX
8
Layer 1
10
78.170653
20
267.437257
70
0
0
VERTEX
8
Layer 1
10
80.959390
20
267.478657
70
0
0
VERTEX
8
Layer 1
10
82.020258
20
267.445421
70
0
0
VERTEX
8
Layer 1
10
82.048675
20
267.232866
70
0
0
VERTEX
8
Layer 1
10
81.880441
20
266.785868
70
0
0
VERTEX
8
Layer 1
10
81.574202
20
266.174718
70
0
0
VERTEX
8
Layer 1
10
81.085681
20
266.103673
70
0
0
VERTEX
8
Layer 1
10
79.395967
20
266.091373
70
0
0
VERTEX
8
Layer 1
10
78.225227
20
266.059873
70
0
0
VERTEX
8
Layer 1
10
77.776667
20
264.919053
70
0
0
VERTEX
8
Layer 1
10
77.459223
20
264.009814
70
0
0
VERTEX
8
Layer 1
10
77.489539
20
263.714751
70
0
0
VERTEX
8
Layer 1
10
78.518704
20
263.661101
70
0
0
VERTEX
8
Layer 1
10
79.481492
20
263.633541
70
0
0
VERTEX
8
Layer 1
10
79.240777
20
262.924972
70
0
0
VERTEX
8
Layer 1
10
78.904989
20
262.253786
70
0
0
VERTEX
8
Layer 1
10
77.846537
20
262.240036
70
0
0
VERTEX
8
Layer 1
10
76.788082
20
262.226286
70
0
0
VERTEX
8
Layer 1
10
75.982601
20
260.275741
70
0
0
VERTEX
8
Layer 1
10
75.177123
20
258.325204
70
0
0
VERTEX
8
Layer 1
10
74.666229
20
258.356224
70
0
0
VERTEX
8
Layer 1
10
73.442117
20
258.336364
70
0
0
VERTEX
8
Layer 1
10
72.630052
20
258.324334
70
0
0
VERTEX
8
Layer 1
10
74.312809
20
262.892818
70
0
0
VERTEX
8
Layer 1
10
74.312786
20
262.892845
70
0
0
SEQEND
8
Layer 1
0
POLYLINE
8
Layer 1
62
7
70
0
10
0.000000
20
0.000000
66
1
0
VERTEX
8
Layer 1
10
138.586160
20
232.610972
70
0
0
VERTEX
8
Layer 1
10
138.542214
20
233.294237
70
0
0
VERTEX
8
Layer 1
10
138.996230
20
234.520309
70
0
0
VERTEX
8
Layer 1
10
139.430751
20
235.329044
70
0
0
VERTEX
8
Layer 1
10
139.929050
20
235.864238
70
0
0
VERTEX
8
Layer 1
10
140.563279
20
236.180132
70
0
0
VERTEX
8
Layer 1
10
141.405590
20
236.330967
70
0
0
VERTEX
8
Layer 1
10
142.726111
20
236.316051
70
0
0
VERTEX
8
Layer 1
10
143.121371
20
236.169631
70
0
0
VERTEX
8
Layer 1
10
143.388050
20
235.920603
70
0
0
VERTEX
8
Layer 1
10
143.524280
20
235.518301
70
0
0
VERTEX
8
Layer 1
10
143.281130
20
234.757562
70
0
0
VERTEX
8
Layer 1
10
142.948930
20
233.912690
70
0
0
VERTEX
8
Layer 1
10
142.195050
20
233.870120
70
0
0
VERTEX
8
Layer 1
10
140.837930
20
233.810980
70
0
0
VERTEX
8
Layer 1
10
140.308825
20
233.730171
70
0
0
VERTEX
8
Layer 1
10
140.076540
20
233.392181
70
0
0
VERTEX
8
Layer 1
10
140.000552
20
233.114059
70
0
0
VERTEX
8
Layer 1
10
140.067710
20
232.952024
70
0
0
VERTEX
8
Layer 1
10
140.774170
20
232.869209
70
0
0
VERTEX
8
Layer 1
10
141.708930
20
233.203698
70
0
0
VERTEX
8
Layer 1
10
142.222700
20
233.487981
70
0
0
VERTEX
8
Layer 1
10
142.543720
20
233.446981
70
0
0
VERTEX
8
Layer 1
10
142.699852
20
233.380114
70
0
0
VERTEX
8
Layer 1
10
142.659680
20
233.201997
70
0
0
VERTEX
8
Layer 1
10
142.054830
20
232.620809
70
0
0
VERTEX
8
Layer 1
10
141.411017
20
232.287446
70
0
0
VERTEX
8
Layer 1
10
140.484530
20
232.135374
70
0
0
VERTEX
8
Layer 1
10
139.186614
20
232.180736
70
0
0
VERTEX
8
Layer 1
10
138.803303
20
232.346720
70
0
0
VERTEX
8
Layer 1
10
138.586160
20
232.610979
70
0
0
VERTEX
8
Layer 1
10
138.586160
20
232.610972
70
0
0
SEQEND
8
Layer 1
0
POLYLINE
8
Layer 1
62
7
70
0
10
0.000000
20
0.000000
66
1
0
VERTEX
8
Layer 1
10
141.274830
20
234.636527
70
0
0
VERTEX
8
Layer 1
10
141.655050
20
234.754287
70
0
0
VERTEX
8
Layer 1
10
141.872670
20
235.103482
70
0
0
VERTEX
8
Layer 1
10
141.972704
20
235.516362
70
0
0
VERTEX
8
Layer 1
10
141.434060
20
235.551268
70
0
0
VERTEX
8
Layer 1
10
140.896126
20
235.387698
70
0
0
VERTEX
8
Layer 1
10
140.737250
20
234.855776
70
0
0
VERTEX
8
Layer 1
10
140.804810
20
234.623684
70
0
0
VERTEX
8
Layer 1
10
141.274730
20
234.636305
70
0
0
VERTEX
8
Layer 1
10
141.274830
20
234.636527
70
0
0
SEQEND
8
Layer 1
0
POLYLINE
8
Layer 1
62
7
70
0
10
0.000000
20
0.000000
66
1
0
VERTEX
8
Layer 1
10
144.220080
20
234.288829
70
0
0
VERTEX
8
Layer 1
10
145.047130
20
236.392280
70
0
0
VERTEX
8
Layer 1
10
146.502170
20
236.432660
70
0
0
VERTEX
8
Layer 1
10
148.179817
20
236.352155
70
0
0
VERTEX
8
Layer 1
10
148.609832
20
236.186876
70
0
0
VERTEX
8
Layer 1
10
148.833760
20
235.923742
70
0
0
VERTEX
8
Layer 1
10
148.854010
20
235.373404
70
0
0
VERTEX
8
Layer 1
10
148.219870
20
233.707575
70
0
0
VERTEX
8
Layer 1
10
147.625330
20
232.236610
70
0
0
VERTEX
8
Layer 1
10
147.026350
20
232.230810
70
0
0
VERTEX
8
Layer 1
10
146.251590
20
232.224410
70
0
0
VERTEX
8
Layer 1
10
146.254935
20
232.585256
70
0
0
VERTEX
8
Layer 1
10
146.750340
20
233.939201
70
0
0
VERTEX
8
Layer 1
10
147.333480
20
235.690094
70
0
0
VERTEX
8
Layer 1
10
146.744910
20
235.638684
70
0
0
VERTEX
8
Layer 1
10
146.247710
20
235.551864
70
0
0
VERTEX
8
Layer 1
10
145.612730
20
233.881467
70
0
0
VERTEX
8
Layer 1
10
144.977760
20
232.211076
70
0
0
VERTEX
8
Layer 1
10
144.230640
20
232.180436
70
0
0
VERTEX
8
Layer 1
10
143.438310
20
232.167566
70
0
0
VERTEX
8
Layer 1
10
144.220130
20
234.288814
70
0
0
VERTEX
8
Layer 1
10
144.220080
20
234.288829
70
0
0
SEQEND
8
Layer 1
0
POLYLINE
8
Layer 1
62
7
70
0
10
0.000000
20
0.000000
66
1
0
VERTEX
8
Layer 1
10
48.500248
20
276.265639
70
0
0
VERTEX
8
Layer 1
10
50.305209
20
280.780083
70
0
0
VERTEX
8
Layer 1
10
51.327912
20
280.778883
70
0
0
VERTEX
8
Layer 1
10
52.652647
20
280.781283
70
0
0
VERTEX
8
Layer 1
10
52.954680
20
280.784783
70
0
0
VERTEX
8
Layer 1
10
51.191088
20
276.244840
70
0
0
VERTEX
8
Layer 1
10
49.427499
20
271.704905
70
0
0
VERTEX
8
Layer 1
10
48.178421
20
271.682035
70
0
0
VERTEX
8
Layer 1
10
46.812316
20
271.705175
70
0
0
VERTEX
8
Layer 1
10
48.500248
20
276.265627
70
0
0
VERTEX
8
Layer 1
10
48.500248
20
276.265639
70
0
0
SEQEND
8
Layer 1
0
POLYLINE
8
Layer 1
62
7
70
0
10
0.000000
20
0.000000
66
1
0
VERTEX
8
Layer 1
10
81.744744
20
262.155741
70
0
0
VERTEX
8
Layer 1
10
83.170254
20
265.781145
70
0
0
VERTEX
8
Layer 1
10
83.736485
20
266.305150
70
0
0
VERTEX
8
Layer 1
10
85.178700
20
267.203513
70
0
0
VERTEX
8
Layer 1
10
86.558583
20
267.541169
70
0
0
VERTEX
8
Layer 1
10
88.092801
20
267.569251
70
0
0
VERTEX
8
Layer 1
10
89.400177
20
267.317732
70
0
0
VERTEX
8
Layer 1
10
89.849680
20
267.096490
70
0
0
VERTEX
8
Layer 1
10
90.099530
20
266.816588
70
0
0
VERTEX
8
Layer 1
10
90.256522
20
266.295672
70
0
0
VERTEX
8
Layer 1
10
90.170226
20
265.597465
70
0
0
VERTEX
8
Layer 1
10
88.858320
20
262.119749
70
0
0
VERTEX
8
Layer 1
10
87.412490
20
258.537256
70
0
0
VERTEX
8
Layer 1
10
86.133440
20
258.498096
70
0
0
VERTEX
8
Layer 1
10
84.854380
20
258.458926
70
0
0
VERTEX
8
Layer 1
10
85.548370
20
260.402465
70
0
0
VERTEX
8
Layer 1
10
86.242360
20
262.346003
70
0
0
VERTEX
8
Layer 1
10
85.677930
20
262.338903
70
0
0
VERTEX
8
Layer 1
10
84.998145
20
262.318641
70
0
0
VERTEX
8
Layer 1
10
84.602329
20
262.129678
70
0
0
VERTEX
8
Layer 1
10
84.280433
20
261.545841
70
0
0
VERTEX
8
Layer 1
10
83.822404
20
260.340955
70
0
0
VERTEX
8
Layer 1
10
83.111254
20
258.443180
70
0
0
VERTEX
8
Layer 1
10
82.587905
20
258.474360
70
0
0
VERTEX
8
Layer 1
10
81.321296
20
258.467060
70
0
0
VERTEX
8
Layer 1
10
80.448642
20
258.479480
70
0
0
VERTEX
8
Layer 1
10
81.744748
20
262.155768
70
0
0
VERTEX
8
Layer 1
10
81.744744
20
262.155741
70
0
0
SEQEND
8
Layer 1
0
POLYLINE
8
Layer 1
62
7
70
0
10
0.000000
20
0.000000
66
1
0
VERTEX
8
Layer 1
10
86.141100
20
263.765489
70
0
0
VERTEX
8
Layer 1
10
86.896820
20
263.831919
70
0
0
VERTEX
8
Layer 1
10
87.346780
20
264.976290
70
0
0
VERTEX
8
Layer 1
10
87.687220
20
266.163736
70
0
0
VERTEX
8
Layer 1
10
86.815100
20
266.161636
70
0
0
VERTEX
8
Layer 1
10
86.052510
20
266.116406
70
0
0
VERTEX
8
Layer 1
10
85.629910
20
264.977870
70
0
0
VERTEX
8
Layer 1
10
85.198610
20
263.807653
70
0
0
VERTEX
8
Layer 1
10
86.141090
20
263.765543
70
0
0
VERTEX
8
Layer 1
10
86.141100
20
263.765489
70
0
0
SEQEND
8
Layer 1
0
POLYLINE
8
Layer 1
62
7
70
0
10
0.000000
20
0.000000
66
1
0
VERTEX
8
Layer 1
10
53.298967
20
272.671524
70
0
0
VERTEX
8
Layer 1
10
53.181710
20
273.174057
70
0
0
VERTEX
8
Layer 1
10
53.277199
20
273.850217
70
0
0
VERTEX
8
Layer 1
10
54.390891
20
276.798675
70
0
0
VERTEX
8
Layer 1
10
55.110965
20
278.486613
70
0
0
VERTEX
8
Layer 1
10
55.656267
20
279.466241
70
0
0
VERTEX
8
Layer 1
10
56.247800
20
280.039411
70
0
0
VERTEX
8
Layer 1
10
57.106565
20
280.507972
70
0
0
VERTEX
8
Layer 1
10
58.546561
20
280.843394
70
0
0
VERTEX
8
Layer 1
10
60.856167
20
280.850889
70
0
0
VERTEX
8
Layer 1
10
61.692569
20
280.668878
70
0
0
VERTEX
8
Layer 1
10
62.248766
20
280.260492
70
0
0
VERTEX
8
Layer 1
10
62.487845
20
279.671999
70
0
0
VERTEX
8
Layer 1
10
62.372896
20
278.949667
70
0
0
VERTEX
8
Layer 1
10
62.135874
20
278.651455
70
0
0
VERTEX
8
Layer 1
10
61.531275
20
278.571582
70
0
0
VERTEX
8
Layer 1
10
60.800743
20
278.585555
70
0
0
VERTEX
8
Layer 1
10
60.773223
20
278.873712
70
0
0
VERTEX
8
Layer 1
10
60.783222
20
279.207894
70
0
0
VERTEX
8
Layer 1
10
60.591065
20
279.411114
70
0
0
VERTEX
8
Layer 1
10
59.396878
20
279.520197
70
0
0
VERTEX
8
Layer 1
10
58.249297
20
279.494327
70
0
0
VERTEX
8
Layer 1
10
56.993189
20
276.407863
70
0
0
VERTEX
8
Layer 1
10
55.736798
20
273.226603
70
0
0
VERTEX
8
Layer 1
10
56.802847
20
273.147649
70
0
0
VERTEX
8
Layer 1
10
58.162009
20
273.291603
70
0
0
VERTEX
8
Layer 1
10
58.750743
20
273.820754
70
0
0
VERTEX
8
Layer 1
10
59.138494
20
274.160265
70
0
0
VERTEX
8
Layer 1
10
59.828179
20
274.169865
70
0
0
VERTEX
8
Layer 1
10
60.488376
20
274.165772
70
0
0
VERTEX
8
Layer 1
10
60.392180
20
273.772588
70
0
0
VERTEX
8
Layer 1
10
59.788205
20
272.990842
70
0
0
VERTEX
8
Layer 1
10
59.044114
20
272.403763
70
0
0
VERTEX
8
Layer 1
10
58.164150
20
272.013904
70
0
0
VERTEX
8
Layer 1
10
57.152555
20
271.823818
70
0
0
VERTEX
8
Layer 1
10
55.234968
20
271.785039
70
0
0
VERTEX
8
Layer 1
10
53.936837
20
271.993317
70
0
0
VERTEX
8
Layer 1
10
53.550937
20
272.237729
70
0
0
VERTEX
8
Layer 1
10
53.299198
20
272.671976
70
0
0
VERTEX
8
Layer 1
10
53.298967
20
272.671524
70
0
0
SEQEND
8
Layer 1
0
POLYLINE
8
Layer 1
62
7
70
0
10
0.000000
20
0.000000
66
1
0
VERTEX
8
Layer 1
10
90.349070
20
259.042501
70
0
0
VERTEX
8
Layer 1
10
90.024692
20
259.696677
70
0
0
VERTEX
8
Layer 1
10
90.063240
20
260.457649
70
0
0
VERTEX
8
Layer 1
10
90.297216
20
260.818032
70
0
0
VERTEX
8
Layer 1
10
90.801380
20
260.904551
70
0
0
VERTEX
8
Layer 1
10
91.551154
20
260.834705
70
0
0
VERTEX
8
Layer 1
10
91.678049
20
260.690485
70
0
0
VERTEX
8
Layer 1
10
91.686910
20
260.449073
70
0
0
VERTEX
8
Layer 1
10
91.810000
20
260.070814
70
0
0
VERTEX
8
Layer 1
10
92.540230
20
259.925165
70
0
0
VERTEX
8
Layer 1
10
93.065740
20
259.881165
70
0
0
VERTEX
8
Layer 1
10
93.357470
20
260.623103
70
0
0
VERTEX
8
Layer 1
10
93.536132
20
261.101235
70
0
0
VERTEX
8
Layer 1
10
93.532665
20
261.439812
70
0
0
VERTEX
8
Layer 1
10
92.671750
20
262.572894
70
0
0
VERTEX
8
Layer 1
10
91.776840
20
263.850798
70
0
0
VERTEX
8
Layer 1
10
91.623770
20
264.402933
70
0
0
VERTEX
8
Layer 1
10
91.910110
20
265.211797
70
0
0
VERTEX
8
Layer 1
10
92.536305
20
266.256659
70
0
0
VERTEX
8
Layer 1
10
93.382750
20
266.998591
70
0
0
VERTEX
8
Layer 1
10
94.459430
20
267.443757
70
0
0
VERTEX
8
Layer 1
10
95.776330
20
267.598320
70
0
0
VERTEX
8
Layer 1
10
97.105220
20
267.490169
70
0
0
VERTEX
8
Layer 1
10
97.821180
20
267.035081
70
0
0
VERTEX
8
Layer 1
10
98.103555
20
266.430529
70
0
0
VERTEX
8
Layer 1
10
98.040960
20
265.673023
70
0
0
VERTEX
8
Layer 1
10
97.830390
20
265.350768
70
0
0
VERTEX
8
Layer 1
10
97.156020
20
265.284504
70
0
0
VERTEX
8
Layer 1
10
96.357280
20
265.282604
70
0
0
VERTEX
8
Layer 1
10
96.427780
20
265.640365
70
0
0
VERTEX
8
Layer 1
10
96.438798
20
265.918576
70
0
0
VERTEX
8
Layer 1
10
96.296205
20
266.109395
70
0
0
VERTEX
8
Layer 1
10
95.528150
20
266.243646
70
0
0
VERTEX
8
Layer 1
10
95.037807
20
266.147295
70
0
0
VERTEX
8
Layer 1
10
94.746470
20
265.583900
70
0
0
VERTEX
8
Layer 1
10
94.491440
20
264.935296
70
0
0
VERTEX
8
Layer 1
10
95.248080
20
264.041356
70
0
0
VERTEX
8
Layer 1
10
96.280730
20
262.561113
70
0
0
VERTEX
8
Layer 1
10
96.471609
20
261.930672
70
0
0
VERTEX
8
Layer 1
10
96.196430
20
261.058592
70
0
0
VERTEX
8
Layer 1
10
95.578601
20
259.908704
70
0
0
VERTEX
8
Layer 1
10
94.676200
20
259.149296
70
0
0
VERTEX
8
Layer 1
10
93.605067
20
258.737675
70
0
0
VERTEX
8
Layer 1
10
92.343246
20
258.578128
70
0
0
VERTEX
8
Layer 1
10
91.166117
20
258.677454
70
0
0
VERTEX
8
Layer 1
10
90.349060
20
259.042453
70
0
0
VERTEX
8
Layer 1
10
90.349070
20
259.042501
70
0
0
SEQEND
8
Layer 1
0
POLYLINE
8
Layer 1
62
7
70
0
10
0.000000
20
0.000000
66
1
0
VERTEX
8
Layer 1
10
62.983777
20
276.333349
70
0
0
VERTEX
8
Layer 1
10
64.786509
20
280.854707
70
0
0
VERTEX
8
Layer 1
10
65.441685
20
280.911457
70
0
0
VERTEX
8
Layer 1
10
66.808260
20
280.968807
70
0
0
VERTEX
8
Layer 1
10
67.519654
20
280.969400
70
0
0
VERTEX
8
Layer 1
10
66.757281
20
279.030505
70
0
0
VERTEX
8
Layer 1
10
65.994904
20
277.091602
70
0
0
VERTEX
8
Layer 1
10
66.707755
20
277.156532
70
0
0
VERTEX
8
Layer 1
10
67.554954
20
277.168642
70
0
0
VERTEX
8
Layer 1
10
68.446263
20
279.040959
70
0
0
VERTEX
8
Layer 1
10
69.145099
20
280.710327
70
0
0
VERTEX
8
Layer 1
10
69.328919
20
280.938365
70
0
0
VERTEX
8
Layer 1
10
69.527396
20
280.987098
70
0
0
VERTEX
8
Layer 1
10
71.729275
20
281.003158
70
0
0
VERTEX
8
Layer 1
10
71.430410
20
279.949466
70
0
0
VERTEX
8
Layer 1
10
70.063345
20
276.453850
70
0
0
VERTEX
8
Layer 1
10
68.259135
20
271.958916
70
0
0
VERTEX
8
Layer 1
10
67.332076
20
271.922256
70
0
0
VERTEX
8
Layer 1
10
66.037859
20
271.933806
70
0
0
VERTEX
8
Layer 1
10
65.670699
20
271.982026
70
0
0
VERTEX
8
Layer 1
10
66.413059
20
273.870032
70
0
0
VERTEX
8
Layer 1
10
67.155416
20
275.758032
70
0
0
VERTEX
8
Layer 1
10
66.349743
20
275.762232
70
0
0
VERTEX
8
Layer 1
10
65.544066
20
275.766432
70
0
0
VERTEX
8
Layer 1
10
64.741445
20
273.823102
70
0
0
VERTEX
8
Layer 1
10
63.938815
20
271.879766
70
0
0
VERTEX
8
Layer 1
10
62.782845
20
271.877166
70
0
0
VERTEX
8
Layer 1
10
61.470860
20
271.817006
70
0
0
VERTEX
8
Layer 1
10
61.247944
20
271.785706
70
0
0
VERTEX
8
Layer 1
10
62.983776
20
276.333321
70
0
0
VERTEX
8
Layer 1
10
62.983777
20
276.333349
70
0
0
SEQEND
8
Layer 1
0
POLYLINE
8
Layer 1
62
7
70
0
10
0.000000
20
0.000000
66
1
0
VERTEX
8
Layer 1
10
98.195980
20
259.251246
70
0
0
VERTEX
8
Layer 1
10
97.953208
20
259.673537
70
0
0
VERTEX
8
Layer 1
10
97.986114
20
260.331810
70
0
0
VERTEX
8
Layer 1
10
99.108120
20
263.398117
70
0
0
VERTEX
8
Layer 1
10
100.304090
20
266.327640
70
0
0
VERTEX
8
Layer 1
10
100.917250
20
266.834006
70
0
0
VERTEX
8
Layer 1
10
102.069547
20
267.489189
70
0
0
VERTEX
8
Layer 1
10
103.548440
20
267.735531
70
0
0
VERTEX
8
Layer 1
10
104.809850
20
267.788431
70
0
0
VERTEX
8
Layer 1
10
105.823033
20
267.743750
70
0
0
VERTEX
8
Layer 1
10
106.573640
20
267.517063
70
0
0
VERTEX
8
Layer 1
10
107.050625
20
267.114037
70
0
0
VERTEX
8
Layer 1
10
107.242940
20
266.540335
70
0
0
VERTEX
8
Layer 1
10
107.242296
20
266.000748
70
0
0
VERTEX
8
Layer 1
10
107.117116
20
265.675923
70
0
0
VERTEX
8
Layer 1
10
106.822925
20
265.514262
70
0
0
VERTEX
8
Layer 1
10
106.315250
20
265.464164
70
0
0
VERTEX
8
Layer 1
10
105.510233
20
265.498534
70
0
0
VERTEX
8
Layer 1
10
105.444146
20
265.606641
70
0
0
VERTEX
8
Layer 1
10
105.508660
20
265.816257
70
0
0
VERTEX
8
Layer 1
10
105.539936
20
266.083039
70
0
0
VERTEX
8
Layer 1
10
105.404234
20
266.277437
70
0
0
VERTEX
8
Layer 1
10
104.672560
20
266.419714
70
0
0
VERTEX
8
Layer 1
10
102.981570
20
266.257730
70
0
0
VERTEX
8
Layer 1
10
101.640703
20
263.110868
70
0
0
VERTEX
8
Layer 1
10
100.488490
20
260.007081
70
0
0
VERTEX
8
Layer 1
10
100.804340
20
260.006917
70
0
0
VERTEX
8
Layer 1
10
102.292610
20
260.055197
70
0
0
VERTEX
8
Layer 1
10
103.143566
20
260.320082
70
0
0
VERTEX
8
Layer 1
10
103.465961
20
260.566853
70
0
0
VERTEX
8
Layer 1
10
103.595410
20
260.817179
70
0
0
VERTEX
8
Layer 1
10
103.803549
20
261.040562
70
0
0
VERTEX
8
Layer 1
10
104.423640
20
261.092780
70
0
0
VERTEX
8
Layer 1
10
105.104860
20
261.078550
70
0
0
VERTEX
8
Layer 1
10
105.286473
20
261.010425
70
0
0
VERTEX
8
Layer 1
10
105.101860
20
260.637950
70
0
0
VERTEX
8
Layer 1
10
104.475603
20
259.818804
70
0
0
VERTEX
8
Layer 1
10
103.655200
20
259.219214
70
0
0
VERTEX
8
Layer 1
10
102.431209
20
258.783697
70
0
0
VERTEX
8
Layer 1
10
100.496270
20
258.678036
70
0
0
VERTEX
8
Layer 1
10
98.996445
20
258.811881
70
0
0
VERTEX
8
Layer 1
10
98.196430
20
259.251275
70
0
0
VERTEX
8
Layer 1
10
98.195980
20
259.251246
70
0
0
SEQEND
8
Layer 1
0
POLYLINE
8
Layer 1
62
7
70
0
10
0.000000
20
0.000000
66
1
0
VERTEX
8
Layer 1
10
107.770040
20
263.269470
70
0
0
VERTEX
8
Layer 1
10
109.597830
20
267.824656
70
0
0
VERTEX
8
Layer 1
10
110.791040
20
267.835146
70
0
0
VERTEX
8
Layer 1
10
112.075530
20
267.769316
70
0
0
VERTEX
8
Layer 1
10
111.471330
20
265.899323
70
0
0
VERTEX
8
Layer 1
10
110.880570
20
264.064486
70
0
0
VERTEX
8
Layer 1
10
111.238430
20
264.047036
70
0
0
VERTEX
8
Layer 1
10
112.020690
20
264.086486
70
0
0
VERTEX
8
Layer 1
10
112.549820
20
264.102206
70
0
0
VERTEX
8
Layer 1
10
113.333630
20
265.997259
70
0
0
VERTEX
8
Layer 1
10
114.117450
20
267.892310
70
0
0
VERTEX
8
Layer 1
10
115.246900
20
267.908090
70
0
0
VERTEX
8
Layer 1
10
116.531280
20
267.871540
70
0
0
VERTEX
8
Layer 1
10
116.288123
20
266.898906
70
0
0
VERTEX
8
Layer 1
10
114.912570
20
263.308410
70
0
0
VERTEX
8
Layer 1
10
113.371867
20
259.484598
70
0
0
VERTEX
8
Layer 1
10
113.078075
20
258.925001
70
0
0
VERTEX
8
Layer 1
10
112.903920
20
258.824791
70
0
0
VERTEX
8
Layer 1
10
111.598510
20
258.807881
70
0
0
VERTEX
8
Layer 1
10
110.528120
20
258.763791
70
0
0
VERTEX
8
Layer 1
10
111.216300
20
260.612929
70
0
0
VERTEX
8
Layer 1
10
111.848760
20
262.578541
70
0
0
VERTEX
8
Layer 1
10
110.997490
20
262.635631
70
0
0
VERTEX
8
Layer 1
10
110.201910
20
262.576261
70
0
0
VERTEX
8
Layer 1
10
109.420050
20
260.685972
70
0
0
VERTEX
8
Layer 1
10
108.779352
20
259.233326
70
0
0
VERTEX
8
Layer 1
10
108.465370
20
258.793597
70
0
0
VERTEX
8
Layer 1
10
107.117330
20
258.752947
70
0
0
VERTEX
8
Layer 1
10
105.942120
20
258.714357
70
0
0
VERTEX
8
Layer 1
10
107.770040
20
263.269470
70
0
0
SEQEND
8
Layer 1
0
POLYLINE
8
Layer 1
62
7
70
0
10
0.000000
20
0.000000
66
1
0
VERTEX
8
Layer 1
10
76.412711
20
276.528794
70
0
0
VERTEX
8
Layer 1
10
78.307455
20
281.085395
70
0
0
VERTEX
8
Layer 1
10
79.025191
20
281.125325
70
0
0
VERTEX
8
Layer 1
10
82.269233
20
281.150535
70
0
0
VERTEX
8
Layer 1
10
83.512372
20
281.064863
70
0
0
VERTEX
8
Layer 1
10
84.281192
20
280.656012
70
0
0
VERTEX
8
Layer 1
10
84.551302
20
280.307558
70
0
0
VERTEX
8
Layer 1
10
84.639864
20
279.901165
70
0
0
VERTEX
8
Layer 1
10
84.270372
20
278.525011
70
0
0
VERTEX
8
Layer 1
10
83.859702
20
277.609210
70
0
0
VERTEX
8
Layer 1
10
83.348022
20
277.067476
70
0
0
VERTEX
8
Layer 1
10
82.809271
20
276.625976
70
0
0
VERTEX
8
Layer 1
10
83.028179
20
276.211231
70
0
0
VERTEX
8
Layer 1
10
83.153442
20
275.702310
70
0
0
VERTEX
8
Layer 1
10
82.793265
20
274.705177
70
0
0
VERTEX
8
Layer 1
10
82.317354
20
273.721870
70
0
0
VERTEX
8
Layer 1
10
81.768591
20
273.095228
70
0
0
VERTEX
8
Layer 1
10
81.037998
20
272.536192
70
0
0
VERTEX
8
Layer 1
10
80.171140
20
272.219985
70
0
0
VERTEX
8
Layer 1
10
78.831320
20
272.076461
70
0
0
VERTEX
8
Layer 1
10
76.681842
20
272.035473
70
0
0
VERTEX
8
Layer 1
10
74.680497
20
272.025673
70
0
0
VERTEX
8
Layer 1
10
76.412711
20
276.528794
70
0
0
SEQEND
8
Layer 1
0
POLYLINE
8
Layer 1
62
7
70
0
10
0.000000
20
0.000000
66
1
0
VERTEX
8
Layer 1
10
78.810969
20
273.454951
70
0
0
VERTEX
8
Layer 1
10
79.583426
20
273.442131
70
0
0
VERTEX
8
Layer 1
10
80.079741
20
274.704382
70
0
0
VERTEX
8
Layer 1
10
80.576057
20
275.966632
70
0
0
VERTEX
8
Layer 1
10
80.110005
20
275.941882
70
0
0
VERTEX
8
Layer 1
10
79.258464
20
275.918732
70
0
0
VERTEX
8
Layer 1
10
79.028452
20
275.900406
70
0
0
VERTEX
8
Layer 1
10
78.861892
20
275.768449
70
0
0
VERTEX
8
Layer 1
10
78.399501
20
274.716170
70
0
0
VERTEX
8
Layer 1
10
77.982269
20
273.489897
70
0
0
VERTEX
8
Layer 1
10
78.810969
20
273.454947
70
0
0
VERTEX
8
Layer 1
10
78.810969
20
273.454951
70
0
0
SEQEND
8
Layer 1
0
POLYLINE
8
Layer 1
62
7
70
0
10
0.000000
20
0.000000
66
1
0
VERTEX
8
Layer 1
10
80.457063
20
277.360175
70
0
0
VERTEX
8
Layer 1
10
81.119629
20
277.349075
70
0
0
VERTEX
8
Layer 1
10
81.591282
20
278.548612
70
0
0
VERTEX
8
Layer 1
10
81.970111
20
279.779882
70
0
0
VERTEX
8
Layer 1
10
81.298474
20
279.767922
70
0
0
VERTEX
8
Layer 1
10
80.566036
20
279.779862
70
0
0
VERTEX
8
Layer 1
10
80.332963
20
279.533391
70
0
0
VERTEX
8
Layer 1
10
79.904495
20
278.543754
70
0
0
VERTEX
8
Layer 1
10
79.541521
20
277.529110
70
0
0
VERTEX
8
Layer 1
10
79.595539
20
277.311645
70
0
0
VERTEX
8
Layer 1
10
80.457061
20
277.360175
70
0
0
VERTEX
8
Layer 1
10
80.457063
20
277.360175
70
0
0
SEQEND
8
Layer 1
0
POLYLINE
8
Layer 1
62
7
70
0
10
0.000000
20
0.000000
66
1
0
VERTEX
8
Layer 1
10
116.100720
20
258.835613
70
0
0
VERTEX
8
Layer 1
10
117.905000
20
263.434671
70
0
0
VERTEX
8
Layer 1
10
119.681620
20
267.957200
70
0
0
VERTEX
8
Layer 1
10
120.281940
20
267.957292
70
0
0
VERTEX
8
Layer 1
10
121.547110
20
267.984882
70
0
0
VERTEX
8
Layer 1
10
122.256970
20
267.909062
70
0
0
VERTEX
8
Layer 1
10
120.539450
20
263.345046
70
0
0
VERTEX
8
Layer 1
10
118.776970
20
258.884331
70
0
0
VERTEX
8
Layer 1
10
117.623870
20
258.882431
70
0
0
VERTEX
8
Layer 1
10
116.271470
20
258.819991
70
0
0
VERTEX
8
Layer 1
10
116.100350
20
258.835671
70
0
0
VERTEX
8
Layer 1
10
116.100720
20
258.835613
70
0
0
SEQEND
8
Layer 1
0
POLYLINE
8
Layer 1
62
7
70
0
10
0.000000
20
0.000000
66
1
0
VERTEX
8
Layer 1
10
82.115464
20
272.576102
70
0
0
VERTEX
8
Layer 1
10
82.167054
20
272.772487
70
0
0
VERTEX
8
Layer 1
10
82.246024
20
272.591687
70
0
0
VERTEX
8
Layer 1
10
82.196358
20
272.400986
70
0
0
VERTEX
8
Layer 1
10
82.115482
20
272.576137
70
0
0
VERTEX
8
Layer 1
10
82.115464
20
272.576102
70
0
0
SEQEND
8
Layer 1
0
POLYLINE
8
Layer 1
62
7
70
0
10
0.000000
20
0.000000
66
1
0
VERTEX
8
Layer 1
10
86.339380
20
276.697750
70
0
0
VERTEX
8
Layer 1
10
88.120510
20
281.227608
70
0
0
VERTEX
8
Layer 1
10
89.284740
20
281.242538
70
0
0
VERTEX
8
Layer 1
10
90.624390
20
281.257278
70
0
0
VERTEX
8
Layer 1
10
90.397956
20
280.326124
70
0
0
VERTEX
8
Layer 1
10
89.005820
20
276.694499
70
0
0
VERTEX
8
Layer 1
10
87.211820
20
272.131909
70
0
0
VERTEX
8
Layer 1
10
86.200030
20
272.147559
70
0
0
VERTEX
8
Layer 1
10
85.031330
20
272.103389
70
0
0
VERTEX
8
Layer 1
10
84.744136
20
272.082757
70
0
0
VERTEX
8
Layer 1
10
84.795248
20
272.591648
70
0
0
VERTEX
8
Layer 1
10
86.339380
20
276.697748
70
0
0
VERTEX
8
Layer 1
10
86.339380
20
276.697750
70
0
0
SEQEND
8
Layer 1
0
POLYLINE
8
Layer 1
62
7
70
0
10
0.000000
20
0.000000
66
1
0
VERTEX
8
Layer 1
10
91.838290
20
276.664970
70
0
0
VERTEX
8
Layer 1
10
93.717800
20
281.193756
70
0
0
VERTEX
8
Layer 1
10
94.318731
20
281.246223
70
0
0
VERTEX
8
Layer 1
10
94.925430
20
280.858259
70
0
0
VERTEX
8
Layer 1
10
95.831600
20
279.770541
70
0
0
VERTEX
8
Layer 1
10
98.181990
20
276.970020
70
0
0
VERTEX
8
Layer 1
10
98.491100
20
276.765968
70
0
0
VERTEX
8
Layer 1
10
99.474460
20
279.071644
70
0
0
VERTEX
8
Layer 1
10
100.398560
20
281.314109
70
0
0
VERTEX
8
Layer 1
10
101.211420
20
281.401099
70
0
0
VERTEX
8
Layer 1
10
101.975940
20
281.470759
70
0
0
VERTEX
8
Layer 1
10
100.161960
20
276.857360
70
0
0
VERTEX
8
Layer 1
10
98.347980
20
272.243961
70
0
0
VERTEX
8
Layer 1
10
97.942930
20
272.308671
70
0
0
VERTEX
8
Layer 1
10
97.289000
20
272.627357
70
0
0
VERTEX
8
Layer 1
10
96.465090
20
273.525790
70
0
0
VERTEX
8
Layer 1
10
95.180430
20
275.079294
70
0
0
VERTEX
8
Layer 1
10
94.040660
20
276.465613
70
0
0
VERTEX
8
Layer 1
10
93.672250
20
276.867740
70
0
0
VERTEX
8
Layer 1
10
92.654630
20
274.547498
70
0
0
VERTEX
8
Layer 1
10
91.728040
20
272.190946
70
0
0
VERTEX
8
Layer 1
10
91.275220
20
272.199846
70
0
0
VERTEX
8
Layer 1
10
90.567400
20
272.180306
70
0
0
VERTEX
8
Layer 1
10
90.203370
20
272.194756
70
0
0
VERTEX
8
Layer 1
10
91.838290
20
276.664985
70
0
0
VERTEX
8
Layer 1
10
91.838290
20
276.664970
70
0
0
SEQEND
8
Layer 1
0
POLYLINE
8
Layer 1
62
7
70
0
10
0.000000
20
0.000000
66
1
0
VERTEX
8
Layer 1
10
122.534380
20
259.727966
70
0
0
VERTEX
8
Layer 1
10
122.343775
20
260.370764
70
0
0
VERTEX
8
Layer 1
10
122.419120
20
260.973889
70
0
0
VERTEX
8
Layer 1
10
122.653969
20
261.214923
70
0
0
VERTEX
8
Layer 1
10
123.261680
20
261.283656
70
0
0
VERTEX
8
Layer 1
10
124.067656
20
261.243682
70
0
0
VERTEX
8
Layer 1
10
124.143085
20
261.132522
70
0
0
VERTEX
8
Layer 1
10
124.084280
20
260.923755
70
0
0
VERTEX
8
Layer 1
10
124.081777
20
260.605182
70
0
0
VERTEX
8
Layer 1
10
124.316535
20
260.387181
70
0
0
VERTEX
8
Layer 1
10
124.728143
20
260.298422
70
0
0
VERTEX
8
Layer 1
10
125.256190
20
260.367576
70
0
0
VERTEX
8
Layer 1
10
125.598672
20
260.566086
70
0
0
VERTEX
8
Layer 1
10
125.809710
20
261.179209
70
0
0
VERTEX
8
Layer 1
10
125.990720
20
261.887095
70
0
0
VERTEX
8
Layer 1
10
125.166140
20
262.821600
70
0
0
VERTEX
8
Layer 1
10
124.119950
20
264.246018
70
0
0
VERTEX
8
Layer 1
10
123.984048
20
264.786136
70
0
0
VERTEX
8
Layer 1
10
124.216350
20
265.541966
70
0
0
VERTEX
8
Layer 1
10
124.860119
20
266.629359
70
0
0
VERTEX
8
Layer 1
10
125.800922
20
267.416691
70
0
0
VERTEX
8
Layer 1
10
127.012037
20
267.888268
70
0
0
VERTEX
8
Layer 1
10
128.466740
20
268.028398
70
0
0
VERTEX
8
Layer 1
10
129.325141
20
267.957095
70
0
0
VERTEX
8
Layer 1
10
129.838400
20
267.702477
70
0
0
VERTEX
8
Layer 1
10
130.420216
20
267.040070
70
0
0
VERTEX
8
Layer 1
10
130.454660
20
266.229684
70
0
0
VERTEX
8
Layer 1
10
130.284259
20
265.753788
70
0
0
VERTEX
8
Layer 1
10
129.860500
20
265.672789
70
0
0
VERTEX
8
Layer 1
10
128.978073
20
265.723224
70
0
0
VERTEX
8
Layer 1
10
128.841090
20
265.845482
70
0
0
VERTEX
8
Layer 1
10
128.802640
20
266.071768
70
0
0
VERTEX
8
Layer 1
10
128.717683
20
266.347803
70
0
0
VERTEX
8
Layer 1
10
128.503210
20
266.537021
70
0
0
VERTEX
8
Layer 1
10
127.726510
20
266.633722
70
0
0
VERTEX
8
Layer 1
10
127.328334
20
266.501399
70
0
0
VERTEX
8
Layer 1
10
127.067160
20
266.010410
70
0
0
VERTEX
8
Layer 1
10
126.839570
20
265.431552
70
0
0
VERTEX
8
Layer 1
10
127.758900
20
264.287982
70
0
0
VERTEX
8
Layer 1
10
128.461757
20
263.343440
70
0
0
VERTEX
8
Layer 1
10
128.796361
20
262.638842
70
0
0
VERTEX
8
Layer 1
10
128.806825
20
262.002795
70
0
0
VERTEX
8
Layer 1
10
128.537260
20
261.263908
70
0
0
VERTEX
8
Layer 1
10
127.787719
20
260.117146
70
0
0
VERTEX
8
Layer 1
10
126.642650
20
259.373119
70
0
0
VERTEX
8
Layer 1
10
125.441979
20
259.024267
70
0
0
VERTEX
8
Layer 1
10
124.200464
20
258.980646
70
0
0
VERTEX
8
Layer 1
10
123.152972
20
259.221970
70
0
0
VERTEX
8
Layer 1
10
122.534370
20
259.727953
70
0
0
VERTEX
8
Layer 1
10
122.534380
20
259.727966
70
0
0
SEQEND
8
Layer 1
0
POLYLINE
8
Layer 1
62
7
70
0
10
0.000000
20
0.000000
66
1
0
VERTEX
8
Layer 1
10
132.028140
20
262.915470
70
0
0
VERTEX
8
Layer 1
10
133.551150
20
266.788757
70
0
0
VERTEX
8
Layer 1
10
132.734370
20
266.764707
70
0
0
VERTEX
8
Layer 1
10
131.659250
20
266.703747
70
0
0
VERTEX
8
Layer 1
10
131.345904
20
266.758541
70
0
0
VERTEX
8
Layer 1
10
131.551160
20
267.415670
70
0
0
VERTEX
8
Layer 1
10
131.826230
20
268.115427
70
0
0
VERTEX
8
Layer 1
10
132.774550
20
268.116827
70
0
0
VERTEX
8
Layer 1
10
136.334100
20
268.155807
70
0
0
VERTEX
8
Layer 1
10
138.976630
20
268.181007
70
0
0
VERTEX
8
Layer 1
10
138.732430
20
267.469692
70
0
0
VERTEX
8
Layer 1
10
138.457000
20
266.770652
70
0
0
VERTEX
8
Layer 1
10
137.343510
20
266.793922
70
0
0
VERTEX
8
Layer 1
10
136.230010
20
266.817192
70
0
0
VERTEX
8
Layer 1
10
134.711070
20
262.953985
70
0
0
VERTEX
8
Layer 1
10
133.192130
20
259.090779
70
0
0
VERTEX
8
Layer 1
10
132.398750
20
259.047599
70
0
0
VERTEX
8
Layer 1
10
131.433760
20
259.071899
70
0
0
VERTEX
8
Layer 1
10
131.154000
20
259.058439
70
0
0
VERTEX
8
Layer 1
10
130.775570
20
259.009769
70
0
0
VERTEX
8
Layer 1
10
130.647318
20
259.095790
70
0
0
VERTEX
8
Layer 1
10
130.738075
20
259.540728
70
0
0
VERTEX
8
Layer 1
10
132.028230
20
262.915350
70
0
0
VERTEX
8
Layer 1
10
132.028140
20
262.915470
70
0
0
SEQEND
8
Layer 1
0
POLYLINE
8
Layer 1
62
7
70
0
10
0.000000
20
0.000000
66
1
0
VERTEX
8
Layer 1
10
138.968110
20
263.708015
70
0
0
VERTEX
8
Layer 1
10
140.778460
20
268.207816
70
0
0
VERTEX
8
Layer 1
10
141.478630
20
268.203116
70
0
0
VERTEX
8
Layer 1
10
142.753890
20
268.232636
70
0
0
VERTEX
8
Layer 1
10
143.349930
20
268.222736
70
0
0
VERTEX
8
Layer 1
10
141.609870
20
263.690874
70
0
0
VERTEX
8
Layer 1
10
139.849320
20
259.203001
70
0
0
VERTEX
8
Layer 1
10
138.661820
20
259.146051
70
0
0
VERTEX
8
Layer 1
10
137.316330
20
259.148551
70
0
0
VERTEX
8
Layer 1
10
137.549363
20
260.090153
70
0
0
VERTEX
8
Layer 1
10
138.968640
20
263.707836
70
0
0
VERTEX
8
Layer 1
10
138.968110
20
263.708015
70
0
0
SEQEND
8
Layer 1
0
POLYLINE
8
Layer 1
62
7
70
0
10
0.000000
20
0.000000
66
1
0
VERTEX
8
Layer 1
10
106.216450
20
276.900629
70
0
0
VERTEX
8
Layer 1
10
107.999190
20
281.434549
70
0
0
VERTEX
8
Layer 1
10
108.746630
20
281.460759
70
0
0
VERTEX
8
Layer 1
10
110.064360
20
281.509009
70
0
0
VERTEX
8
Layer 1
10
112.031910
20
281.513709
70
0
0
VERTEX
8
Layer 1
10
113.585560
20
281.554919
70
0
0
VERTEX
8
Layer 1
10
113.835351
20
281.599841
70
0
0
VERTEX
8
Layer 1
10
113.948404
20
281.494413
70
0
0
VERTEX
8
Layer 1
10
113.767220
20
280.820706
70
0
0
VERTEX
8
Layer 1
10
113.464180
20
280.157074
70
0
0
VERTEX
8
Layer 1
10
111.812630
20
280.152574
70
0
0
VERTEX
8
Layer 1
10
110.161080
20
280.148074
70
0
0
VERTEX
8
Layer 1
10
109.670760
20
278.901052
70
0
0
VERTEX
8
Layer 1
10
109.180430
20
277.654031
70
0
0
VERTEX
8
Layer 1
10
109.786810
20
277.678581
70
0
0
VERTEX
8
Layer 1
10
110.925610
20
277.718131
70
0
0
VERTEX
8
Layer 1
10
111.458040
20
277.733121
70
0
0
VERTEX
8
Layer 1
10
111.177300
20
277.019124
70
0
0
VERTEX
8
Layer 1
10
110.896560
20
276.305123
70
0
0
VERTEX
8
Layer 1
10
109.769520
20
276.295523
70
0
0
VERTEX
8
Layer 1
10
108.642480
20
276.285923
70
0
0
VERTEX
8
Layer 1
10
107.858910
20
274.293095
70
0
0
VERTEX
8
Layer 1
10
107.193085
20
272.696640
70
0
0
VERTEX
8
Layer 1
10
106.903700
20
272.367760
70
0
0
VERTEX
8
Layer 1
10
105.582910
20
272.400990
70
0
0
VERTEX
8
Layer 1
10
104.433750
20
272.366740
70
0
0
VERTEX
8
Layer 1
10
106.216450
20
276.900629
70
0
0
SEQEND
8
Layer 1
0
POLYLINE
8
Layer 1
62
7
70
0
10
0.000000
20
0.000000
66
1
0
VERTEX
8
Layer 1
10
143.989880
20
259.621323
70
0
0
VERTEX
8
Layer 1
10
143.540423
20
260.225907
70
0
0
VERTEX
8
Layer 1
10
143.539900
20
261.016610
70
0
0
VERTEX
8
Layer 1
10
143.738477
20
261.456182
70
0
0
VERTEX
8
Layer 1
10
144.380170
20
261.539555
70
0
0
VERTEX
8
Layer 1
10
145.203747
20
261.499386
70
0
0
VERTEX
8
Layer 1
10
145.294047
20
261.382200
70
0
0
VERTEX
8
Layer 1
10
145.241850
20
261.169426
70
0
0
VERTEX
8
Layer 1
10
145.204197
20
260.907274
70
0
0
VERTEX
8
Layer 1
10
145.323528
20
260.721827
70
0
0
VERTEX
8
Layer 1
10
146.016020
20
260.593845
70
0
0
VERTEX
8
Layer 1
10
146.506076
20
260.685356
70
0
0
VERTEX
8
Layer 1
10
146.752990
20
261.043570
70
0
0
VERTEX
8
Layer 1
10
146.974744
20
261.656529
70
0
0
VERTEX
8
Layer 1
10
146.984359
20
262.119415
70
0
0
VERTEX
8
Layer 1
10
146.747530
20
262.570186
70
0
0
VERTEX
8
Layer 1
10
146.229950
20
263.146801
70
0
0
VERTEX
8
Layer 1
10
145.346660
20
264.381989
70
0
0
VERTEX
8
Layer 1
10
145.148410
20
265.027056
70
0
0
VERTEX
8
Layer 1
10
145.377060
20
265.798232
70
0
0
VERTEX
8
Layer 1
10
145.744393
20
266.493347
70
0
0
VERTEX
8
Layer 1
10
146.255285
20
267.122899
70
0
0
VERTEX
8
Layer 1
10
146.863475
20
267.639487
70
0
0
VERTEX
8
Layer 1
10
147.522700
20
267.995714
70
0
0
VERTEX
8
Layer 1
10
149.015862
20
268.273529
70
0
0
VERTEX
8
Layer 1
10
150.503670
20
268.114746
70
0
0
VERTEX
8
Layer 1
10
151.140398
20
267.848744
70
0
0
VERTEX
8
Layer 1
10
151.455660
20
267.396687
70
0
0
VERTEX
8
Layer 1
10
151.601470
20
266.443851
70
0
0
VERTEX
8
Layer 1
10
151.428268
20
266.043083
70
0
0
VERTEX
8
Layer 1
10
150.842160
20
265.935070
70
0
0
VERTEX
8
Layer 1
10
150.009170
20
265.964132
70
0
0
VERTEX
8
Layer 1
10
149.894446
20
266.097292
70
0
0
VERTEX
8
Layer 1
10
149.937940
20
266.328219
70
0
0
VERTEX
8
Layer 1
10
149.964924
20
266.607973
70
0
0
VERTEX
8
Layer 1
10
149.639790
20
266.796468
70
0
0
VERTEX
8
Layer 1
10
148.856510
20
266.964843
70
0
0
VERTEX
8
Layer 1
10
148.511183
20
266.865031
70
0
0
VERTEX
8
Layer 1
10
148.260910
20
266.276777
70
0
0
VERTEX
8
Layer 1
10
148.114590
20
265.640595
70
0
0
VERTEX
8
Layer 1
10
148.315310
20
265.236650
70
0
0
VERTEX
8
Layer 1
10
148.604400
20
264.781576
70
0
0
VERTEX
8
Layer 1
10
148.810890
20
264.592576
70
0
0
VERTEX
8
Layer 1
10
149.508090
20
263.721714
70
0
0
VERTEX
8
Layer 1
10
149.843506
20
263.088983
70
0
0
VERTEX
8
Layer 1
10
149.968274
20
262.537427
70
0
0
VERTEX
8
Layer 1
10
149.885875
20
261.975549
70
0
0
VERTEX
8
Layer 1
10
149.599790
20
261.311851
70
0
0
VERTEX
8
Layer 1
10
148.898583
20
260.343240
70
0
0
VERTEX
8
Layer 1
10
147.955782
20
259.672225
70
0
0
VERTEX
8
Layer 1
10
146.773076
20
259.299636
70
0
0
VERTEX
8
Layer 1
10
145.352150
20
259.226301
70
0
0
VERTEX
8
Layer 1
10
144.494914
20
259.306095
70
0
0
VERTEX
8
Layer 1
10
143.989840
20
259.621326
70
0
0
VERTEX
8
Layer 1
10
143.989880
20
259.621323
70
0
0
SEQEND
8
Layer 1
0
POLYLINE
8
Layer 1
62
7
70
0
10
0.000000
20
0.000000
66
1
0
VERTEX
8
Layer 1
10
113.153380
20
273.223392
70
0
0
VERTEX
8
Layer 1
10
112.889830
20
273.892168
70
0
0
VERTEX
8
Layer 1
10
114.339610
20
277.912554
70
0
0
VERTEX
8
Layer 1
10
115.785750
20
281.582087
70
0
0
VERTEX
8
Layer 1
10
117.112150
20
281.570517
70
0
0
VERTEX
8
Layer 1
10
118.438540
20
281.558947
70
0
0
VERTEX
8
Layer 1
10
116.934760
20
277.734522
70
0
0
VERTEX
8
Layer 1
10
115.973833
20
275.293558
70
0
0
VERTEX
8
Layer 1
10
115.629441
20
274.165028
70
0
0
VERTEX
8
Layer 1
10
115.676815
20
273.940821
70
0
0
VERTEX
8
Layer 1
10
115.864366
20
273.862195
70
0
0
VERTEX
8
Layer 1
10
116.641390
20
273.898318
70
0
0
VERTEX
8
Layer 1
10
117.280250
20
273.925068
70
0
0
VERTEX
8
Layer 1
10
118.730790
20
277.726376
70
0
0
VERTEX
8
Layer 1
10
120.181330
20
281.527687
70
0
0
VERTEX
8
Layer 1
10
120.547430
20
281.566027
70
0
0
VERTEX
8
Layer 1
10
122.084493
20
281.650833
70
0
0
VERTEX
8
Layer 1
10
122.834520
20
281.560427
70
0
0
VERTEX
8
Layer 1
10
121.403970
20
277.743623
70
0
0
VERTEX
8
Layer 1
10
119.913520
20
274.061995
70
0
0
VERTEX
8
Layer 1
10
119.290840
20
273.549655
70
0
0
VERTEX
8
Layer 1
10
118.588120
20
273.071562
70
0
0
VERTEX
8
Layer 1
10
117.808840
20
272.751135
70
0
0
VERTEX
8
Layer 1
10
115.788310
20
272.514638
70
0
0
VERTEX
8
Layer 1
10
114.072683
20
272.672465
70
0
0
VERTEX
8
Layer 1
10
113.539756
20
272.891716
70
0
0
VERTEX
8
Layer 1
10
113.153690
20
273.223279
70
0
0
VERTEX
8
Layer 1
10
113.153380
20
273.223392
70
0
0
SEQEND
8
Layer 1
0
POLYLINE
8
Layer 1
62
7
70
0
10
0.000000
20
0.000000
66
1
0
VERTEX
8
Layer 1
10
151.878870
20
259.761848
70
0
0
VERTEX
8
Layer 1
10
151.594953
20
260.087270
70
0
0
VERTEX
8
Layer 1
10
151.437890
20
260.513715
70
0
0
VERTEX
8
Layer 1
10
151.539954
20
261.363268
70
0
0
VERTEX
8
Layer 1
10
152.463200
20
263.821931
70
0
0
VERTEX
8
Layer 1
10
153.494300
20
266.326244
70
0
0
VERTEX
8
Layer 1
10
154.120100
20
267.186869
70
0
0
VERTEX
8
Layer 1
10
154.852610
20
267.797628
70
0
0
VERTEX
8
Layer 1
10
155.648575
20
268.172301
70
0
0
VERTEX
8
Layer 1
10
156.666450
20
268.360019
70
0
0
VERTEX
8
Layer 1
10
158.064690
20
268.409908
70
0
0
VERTEX
8
Layer 1
10
159.337478
20
268.354215
70
0
0
VERTEX
8
Layer 1
10
160.038630
20
268.141001
70
0
0
VERTEX
8
Layer 1
10
160.673504
20
267.542642
70
0
0
VERTEX
8
Layer 1
10
160.705460
20
266.678477
70
0
0
VERTEX
8
Layer 1
10
160.574860
20
266.147802
70
0
0
VERTEX
8
Layer 1
10
159.806430
20
266.115192
70
0
0
VERTEX
8
Layer 1
10
159.038010
20
266.082582
70
0
0
VERTEX
8
Layer 1
10
159.081210
20
266.470363
70
0
0
VERTEX
8
Layer 1
10
159.050485
20
266.799914
70
0
0
VERTEX
8
Layer 1
10
158.824910
20
266.975898
70
0
0
VERTEX
8
Layer 1
10
157.565178
20
267.046525
70
0
0
VERTEX
8
Layer 1
10
156.481080
20
266.930948
70
0
0
VERTEX
8
Layer 1
10
154.002900
20
260.659095
70
0
0
VERTEX
8
Layer 1
10
154.417660
20
260.642685
70
0
0
VERTEX
8
Layer 1
10
155.616120
20
260.708065
70
0
0
VERTEX
8
Layer 1
10
156.619198
20
260.938773
70
0
0
VERTEX
8
Layer 1
10
157.170010
20
261.510079
70
0
0
VERTEX
8
Layer 1
10
157.564208
20
261.686884
70
0
0
VERTEX
8
Layer 1
10
158.484260
20
261.696947
70
0
0
VERTEX
8
Layer 1
10
158.703948
20
261.613289
70
0
0
VERTEX
8
Layer 1
10
158.618820
20
261.274645
70
0
0
VERTEX
8
Layer 1
10
157.912155
20
260.361982
70
0
0
VERTEX
8
Layer 1
10
156.731880
20
259.655314
70
0
0
VERTEX
8
Layer 1
10
155.782359
20
259.407525
70
0
0
VERTEX
8
Layer 1
10
154.469470
20
259.328916
70
0
0
VERTEX
8
Layer 1
10
152.733783
20
259.400875
70
0
0
VERTEX
8
Layer 1
10
151.878940
20
259.761848
70
0
0
VERTEX
8
Layer 1
10
151.878870
20
259.761848
70
0
0
SEQEND
8
Layer 1
0
POLYLINE
8
Layer 1
62
7
70
0
10
0.000000
20
0.000000
66
1
0
VERTEX
8
Layer 1
10
122.919380
20
277.124974
70
0
0
VERTEX
8
Layer 1
10
124.616930
20
281.265108
70
0
0
VERTEX
8
Layer 1
10
125.021848
20
281.691185
70
0
0
VERTEX
8
Layer 1
10
125.509160
20
281.687807
70
0
0
VERTEX
8
Layer 1
10
126.605100
20
281.697007
70
0
0
VERTEX
8
Layer 1
10
127.515530
20
281.673567
70
0
0
VERTEX
8
Layer 1
10
127.826230
20
281.670867
70
0
0
VERTEX
8
Layer 1
10
129.080744
20
281.717849
70
0
0
VERTEX
8
Layer 1
10
130.419760
20
281.514454
70
0
0
VERTEX
8
Layer 1
10
130.891741
20
281.247154
70
0
0
VERTEX
8
Layer 1
10
131.109810
20
280.773556
70
0
0
VERTEX
8
Layer 1
10
131.165108
20
280.149600
70
0
0
VERTEX
8
Layer 1
10
130.818990
20
279.123022
70
0
0
VERTEX
8
Layer 1
10
130.358261
20
278.111351
70
0
0
VERTEX
8
Layer 1
10
129.805110
20
277.614737
70
0
0
VERTEX
8
Layer 1
10
129.232370
20
277.228308
70
0
0
VERTEX
8
Layer 1
10
129.453520
20
276.720535
70
0
0
VERTEX
8
Layer 1
10
129.674680
20
276.212765
70
0
0
VERTEX
8
Layer 1
10
128.953800
20
274.379315
70
0
0
VERTEX
8
Layer 1
10
128.149320
20
272.601028
70
0
0
VERTEX
8
Layer 1
10
126.547260
20
272.633098
70
0
0
VERTEX
8
Layer 1
10
125.591990
20
272.613948
70
0
0
VERTEX
8
Layer 1
10
126.354900
20
274.554217
70
0
0
VERTEX
8
Layer 1
10
127.079900
20
276.509397
70
0
0
VERTEX
8
Layer 1
10
126.442920
20
276.479037
70
0
0
VERTEX
8
Layer 1
10
125.655610
20
276.507787
70
0
0
VERTEX
8
Layer 1
10
125.395025
20
276.305437
70
0
0
VERTEX
8
Layer 1
10
124.887720
20
275.159945
70
0
0
VERTEX
8
Layer 1
10
124.123730
20
273.227292
70
0
0
VERTEX
8
Layer 1
10
123.747020
20
272.663345
70
0
0
VERTEX
8
Layer 1
10
121.274500
20
272.614165
70
0
0
VERTEX
8
Layer 1
10
122.919870
20
277.124733
70
0
0
VERTEX
8
Layer 1
10
122.919380
20
277.124974
70
0
0
SEQEND
8
Layer 1
0
POLYLINE
8
Layer 1
62
7
70
0
10
0.000000
20
0.000000
66
1
0
VERTEX
8
Layer 1
10
126.897050
20
277.907454
70
0
0
VERTEX
8
Layer 1
10
127.686260
20
277.940424
70
0
0
VERTEX
8
Layer 1
10
128.166390
20
279.161608
70
0
0
VERTEX
8
Layer 1
10
128.646590
20
280.382758
70
0
0
VERTEX
8
Layer 1
10
128.037990
20
280.352588
70
0
0
VERTEX
8
Layer 1
10
127.190940
20
280.340858
70
0
0
VERTEX
8
Layer 1
10
126.910170
20
280.142080
70
0
0
VERTEX
8
Layer 1
10
126.472830
20
279.139434
70
0
0
VERTEX
8
Layer 1
10
126.050550
20
277.897002
70
0
0
VERTEX
8
Layer 1
10
126.897090
20
277.907432
70
0
0
VERTEX
8
Layer 1
10
126.897050
20
277.907454
70
0
0
SEQEND
8
Layer 1
0
POLYLINE
8
Layer 1
62
7
70
0
10
0.000000
20
0.000000
66
1
0
VERTEX
8
Layer 1
10
159.574850
20
259.419500
70
0
0
VERTEX
8
Layer 1
10
163.185860
20
268.490545
70
0
0
VERTEX
8
Layer 1
10
163.881940
20
268.497645
70
0
0
VERTEX
8
Layer 1
10
164.677010
20
268.465845
70
0
0
VERTEX
8
Layer 1
10
165.031030
20
268.451265
70
0
0
VERTEX
8
Layer 1
10
165.495120
20
268.488855
70
0
0
VERTEX
8
Layer 1
10
165.801230
20
268.463935
70
0
0
VERTEX
8
Layer 1
10
165.080830
20
266.631636
70
0
0
VERTEX
8
Layer 1
10
164.489850
20
264.748450
70
0
0
VERTEX
8
Layer 1
10
165.320990
20
264.719750
70
0
0
VERTEX
8
Layer 1
10
166.022690
20
264.741950
70
0
0
VERTEX
8
Layer 1
10
166.770210
20
266.642966
70
0
0
VERTEX
8
Layer 1
10
167.517720
20
268.543981
70
0
0
VERTEX
8
Layer 1
10
167.976150
20
268.549381
70
0
0
VERTEX
8
Layer 1
10
168.993920
20
268.548900
70
0
0
VERTEX
8
Layer 1
10
169.807300
20
268.569140
70
0
0
VERTEX
8
Layer 1
10
170.123820
20
268.570640
70
0
0
VERTEX
8
Layer 1
10
168.393190
20
263.985883
70
0
0
VERTEX
8
Layer 1
10
166.481790
20
259.472198
70
0
0
VERTEX
8
Layer 1
10
164.456250
20
259.414168
70
0
0
VERTEX
8
Layer 1
10
164.167150
20
259.426607
70
0
0
VERTEX
8
Layer 1
10
164.098662
20
259.654646
70
0
0
VERTEX
8
Layer 1
10
164.701120
20
261.380831
70
0
0
VERTEX
8
Layer 1
10
165.170904
20
262.576185
70
0
0
VERTEX
8
Layer 1
10
165.299342
20
263.133745
70
0
0
VERTEX
8
Layer 1
10
165.044512
20
263.290508
70
0
0
VERTEX
8
Layer 1
10
164.364490
20
263.283471
70
0
0
VERTEX
8
Layer 1
10
163.768610
20
263.276971
70
0
0
VERTEX
8
Layer 1
10
162.970570
20
261.345343
70
0
0
VERTEX
8
Layer 1
10
162.172540
20
259.413715
70
0
0
VERTEX
8
Layer 1
10
161.398550
20
259.409215
70
0
0
VERTEX
8
Layer 1
10
160.416230
20
259.410615
70
0
0
VERTEX
8
Layer 1
10
159.887230
20
259.404315
70
0
0
VERTEX
8
Layer 1
10
159.574900
20
259.419525
70
0
0
VERTEX
8
Layer 1
10
159.574850
20
259.419500
70
0
0
SEQEND
8
Layer 1
0
POLYLINE
8
Layer 1
62
7
70
0
10
0.000000
20
0.000000
66
1
0
VERTEX
8
Layer 1
10
170.275620
20
264.123264
70
0
0
VERTEX
8
Layer 1
10
172.035660
20
268.591155
70
0
0
VERTEX
8
Layer 1
10
174.890450
20
268.628765
70
0
0
VERTEX
8
Layer 1
10
177.902980
20
268.602595
70
0
0
VERTEX
8
Layer 1
10
177.959213
20
268.411947
70
0
0
VERTEX
8
Layer 1
10
177.775670
20
267.921734
70
0
0
VERTEX
8
Layer 1
10
177.490590
20
267.304668
70
0
0
VERTEX
8
Layer 1
10
176.005870
20
267.278068
70
0
0
VERTEX
8
Layer 1
10
174.342050
20
267.242348
70
0
0
VERTEX
8
Layer 1
10
174.093370
20
266.950602
70
0
0
VERTEX
8
Layer 1
10
173.689920
20
266.030188
70
0
0
VERTEX
8
Layer 1
10
173.328079
20
264.938578
70
0
0
VERTEX
8
Layer 1
10
173.375970
20
264.782857
70
0
0
VERTEX
8
Layer 1
10
173.568900
20
264.811795
70
0
0
VERTEX
8
Layer 1
10
175.399300
20
264.811457
70
0
0
VERTEX
8
Layer 1
10
175.151880
20
264.106331
70
0
0
VERTEX
8
Layer 1
10
174.842100
20
263.425723
70
0
0
VERTEX
8
Layer 1
10
173.754950
20
263.427123
70
0
0
VERTEX
8
Layer 1
10
172.667800
20
263.428523
70
0
0
VERTEX
8
Layer 1
10
172.179940
20
262.189075
70
0
0
VERTEX
8
Layer 1
10
171.692090
20
260.949628
70
0
0
VERTEX
8
Layer 1
10
172.366570
20
260.968848
70
0
0
VERTEX
8
Layer 1
10
173.470000
20
261.007678
70
0
0
VERTEX
8
Layer 1
10
174.267380
20
260.979008
70
0
0
VERTEX
8
Layer 1
10
174.745190
20
261.012578
70
0
0
VERTEX
8
Layer 1
10
174.919196
20
261.086991
70
0
0
VERTEX
8
Layer 1
10
174.984816
20
260.982754
70
0
0
VERTEX
8
Layer 1
10
174.786090
20
260.319790
70
0
0
VERTEX
8
Layer 1
10
174.476530
20
259.639953
70
0
0
VERTEX
8
Layer 1
10
173.135880
20
259.622663
70
0
0
VERTEX
8
Layer 1
10
171.213510
20
259.570003
70
0
0
VERTEX
8
Layer 1
10
168.634240
20
259.608853
70
0
0
VERTEX
8
Layer 1
10
170.275440
20
264.123475
70
0
0
VERTEX
8
Layer 1
10
170.275620
20
264.123264
70
0
0
SEQEND
8
Layer 1
0
POLYLINE
8
Layer 1
62
7
70
0
10
0.000000
20
0.000000
66
1
0
VERTEX
8
Layer 1
10
117.297390
20
282.417003
70
0
0
VERTEX
8
Layer 1
10
117.589790
20
282.917314
70
0
0
VERTEX
8
Layer 1
10
118.272970
20
283.013515
70
0
0
VERTEX
8
Layer 1
10
119.021420
20
283.042275
70
0
0
VERTEX
8
Layer 1
10
118.763890
20
282.387236
70
0
0
VERTEX
8
Layer 1
10
118.506350
20
281.732197
70
0
0
VERTEX
8
Layer 1
10
117.861250
20
281.762047
70
0
0
VERTEX
8
Layer 1
10
117.143220
20
281.820567
70
0
0
VERTEX
8
Layer 1
10
117.297440
20
282.416982
70
0
0
VERTEX
8
Layer 1
10
117.297390
20
282.417003
70
0
0
SEQEND
8
Layer 1
0
POLYLINE
8
Layer 1
62
7
70
0
10
0.000000
20
0.000000
66
1
0
VERTEX
8
Layer 1
10
120.336060
20
282.457783
70
0
0
VERTEX
8
Layer 1
10
120.603914
20
282.930536
70
0
0
VERTEX
8
Layer 1
10
121.128440
20
283.058859
70
0
0
VERTEX
8
Layer 1
10
121.927090
20
283.007526
70
0
0
VERTEX
8
Layer 1
10
121.976291
20
282.784513
70
0
0
VERTEX
8
Layer 1
10
121.848540
20
282.376428
70
0
0
VERTEX
8
Layer 1
10
121.568566
20
281.862204
70
0
0
VERTEX
8
Layer 1
10
121.016860
20
281.790804
70
0
0
VERTEX
8
Layer 1
10
120.255852
20
281.896594
70
0
0
VERTEX
8
Layer 1
10
120.216611
20
282.094987
70
0
0
VERTEX
8
Layer 1
10
120.336060
20
282.457783
70
0
0
VERTEX
8
Layer 1
10
120.336060
20
282.457783
70
0
0
SEQEND
8
Layer 1
 0 
ENDSEC
 0 
EOF