999
"DXF R12 Output" (www.mydxf.blogspot.com)
 0 
SECTION
 2 
HEADER
 9 
$ACADVER
 1 
AC1009
 9 
$EXTMIN
 10 
 0 
 20 
 0 
 9 
$EXTMAX
 10 
 8.5 
 20 
 11 
 0 
ENDSEC
 0 
SECTION
 2 
ENTITIES
0
POLYLINE
8
Layer 1
62
7
70
0
10
0.000000
20
0.000000
66
1
0
VERTEX
8
Layer 1
10
19.435759
20
22.428640
70
0
0
VERTEX
8
Layer 1
10
19.844707
20
27.125000
70
0
0
VERTEX
8
Layer 1
10
20.387913
20
33.342710
70
0
0
VERTEX
8
Layer 1
10
20.850781
20
39.163540
70
0
0
VERTEX
8
Layer 1
10
21.048132
20
42.867710
70
0
0
VERTEX
8
Layer 1
10
19.997603
20
44.852080
70
0
0
VERTEX
8
Layer 1
10
19.398256
20
46.040596
70
0
0
VERTEX
8
Layer 1
10
19.072457
20
46.999604
70
0
0
VERTEX
8
Layer 1
10
18.835471
20
50.042560
70
0
0
VERTEX
8
Layer 1
10
18.873908
20
53.492134
70
0
0
VERTEX
8
Layer 1
10
19.181994
20
57.379250
70
0
0
VERTEX
8
Layer 1
10
19.470519
20
60.443142
70
0
0
VERTEX
8
Layer 1
10
19.443860
20
62.296548
70
0
0
VERTEX
8
Layer 1
10
19.034916
20
63.394009
70
0
0
VERTEX
8
Layer 1
10
18.176589
20
64.190070
70
0
0
VERTEX
8
Layer 1
10
16.886842
20
65.301603
70
0
0
VERTEX
8
Layer 1
10
16.007930
20
66.506378
70
0
0
VERTEX
8
Layer 1
10
15.505658
20
67.867928
70
0
0
VERTEX
8
Layer 1
10
15.345833
20
69.449790
70
0
0
VERTEX
8
Layer 1
10
15.472447
20
71.042388
70
0
0
VERTEX
8
Layer 1
10
15.899998
20
72.418161
70
0
0
VERTEX
8
Layer 1
10
16.700048
20
73.734019
70
0
0
VERTEX
8
Layer 1
10
17.944160
20
75.146870
70
0
0
VERTEX
8
Layer 1
10
19.767299
20
76.998960
70
0
0
VERTEX
8
Layer 1
10
19.942688
20
80.570830
70
0
0
VERTEX
8
Layer 1
10
19.994832
20
85.216170
70
0
0
VERTEX
8
Layer 1
10
19.845388
20
90.862055
70
0
0
VERTEX
8
Layer 1
10
19.563164
20
95.818495
70
0
0
VERTEX
8
Layer 1
10
19.216966
20
98.395500
70
0
0
VERTEX
8
Layer 1
10
18.563688
20
99.951560
70
0
0
VERTEX
8
Layer 1
10
18.217531
20
100.468499
70
0
0
VERTEX
8
Layer 1
10
17.798901
20
100.680480
70
0
0
VERTEX
8
Layer 1
10
17.169190
20
100.867445
70
0
0
VERTEX
8
Layer 1
10
16.544217
20
101.331785
70
0
0
VERTEX
8
Layer 1
10
16.068831
20
101.933165
70
0
0
VERTEX
8
Layer 1
10
15.887881
20
102.531250
70
0
0
VERTEX
8
Layer 1
10
15.876661
20
104.817700
70
0
0
VERTEX
8
Layer 1
10
15.974000
20
106.279933
70
0
0
VERTEX
8
Layer 1
10
16.389642
20
107.331240
70
0
0
VERTEX
8
Layer 1
10
16.772519
20
108.158964
70
0
0
VERTEX
8
Layer 1
10
16.932346
20
108.901270
70
0
0
VERTEX
8
Layer 1
10
17.121479
20
109.561529
70
0
0
VERTEX
8
Layer 1
10
17.581069
20
110.191270
70
0
0
VERTEX
8
Layer 1
10
18.087797
20
110.845348
70
0
0
VERTEX
8
Layer 1
10
18.396519
20
111.563400
70
0
0
VERTEX
8
Layer 1
10
18.773039
20
112.299559
70
0
0
VERTEX
8
Layer 1
10
19.442851
20
112.997160
70
0
0
VERTEX
8
Layer 1
10
20.111961
20
113.664046
70
0
0
VERTEX
8
Layer 1
10
20.486873
20
114.326350
70
0
0
VERTEX
8
Layer 1
10
20.805772
20
114.917777
70
0
0
VERTEX
8
Layer 1
10
21.428257
20
115.253411
70
0
0
VERTEX
8
Layer 1
10
22.397543
20
115.344848
70
0
0
VERTEX
8
Layer 1
10
23.756843
20
115.203680
70
0
0
VERTEX
8
Layer 1
10
26.590627
20
114.833220
70
0
0
VERTEX
8
Layer 1
10
28.354353
20
114.586833
70
0
0
VERTEX
8
Layer 1
10
29.765627
20
114.179690
70
0
0
VERTEX
8
Layer 1
10
31.135561
20
113.646270
70
0
0
VERTEX
8
Layer 1
10
31.928476
20
113.245482
70
0
0
VERTEX
8
Layer 1
10
32.492204
20
112.722810
70
0
0
VERTEX
8
Layer 1
10
32.828877
20
112.075480
70
0
0
VERTEX
8
Layer 1
10
32.940627
20
111.300720
70
0
0
VERTEX
8
Layer 1
10
33.062522
20
110.491066
70
0
0
VERTEX
8
Layer 1
10
33.505336
20
110.088460
70
0
0
VERTEX
8
Layer 1
10
33.986779
20
109.596655
70
0
0
VERTEX
8
Layer 1
10
34.236307
20
108.425830
70
0
0
VERTEX
8
Layer 1
10
34.446441
20
107.278295
70
0
0
VERTEX
8
Layer 1
10
34.718187
20
106.505820
70
0
0
VERTEX
8
Layer 1
10
34.888633
20
106.005905
70
0
0
VERTEX
8
Layer 1
10
34.618327
20
105.522610
70
0
0
VERTEX
8
Layer 1
10
34.278839
20
104.884056
70
0
0
VERTEX
8
Layer 1
10
34.046068
20
104.019790
70
0
0
VERTEX
8
Layer 1
10
33.825319
20
103.169508
70
0
0
VERTEX
8
Layer 1
10
33.514742
20
102.564580
70
0
0
VERTEX
8
Layer 1
10
33.207376
20
101.911001
70
0
0
VERTEX
8
Layer 1
10
32.994349
20
100.943750
70
0
0
VERTEX
8
Layer 1
10
32.443184
20
96.445830
70
0
0
VERTEX
8
Layer 1
10
31.993125
20
90.637578
70
0
0
VERTEX
8
Layer 1
10
31.971342
20
88.366342
70
0
0
VERTEX
8
Layer 1
10
32.111244
20
87.243080
70
0
0
VERTEX
8
Layer 1
10
32.478008
20
86.957480
70
0
0
VERTEX
8
Layer 1
10
33.049971
20
87.043989
70
0
0
VERTEX
8
Layer 1
10
33.892751
20
87.529121
70
0
0
VERTEX
8
Layer 1
10
35.071963
20
88.439390
70
0
0
VERTEX
8
Layer 1
10
37.895241
20
90.754490
70
0
0
VERTEX
8
Layer 1
10
44.334074
20
96.313540
70
0
0
VERTEX
8
Layer 1
10
48.125662
20
99.564279
70
0
0
VERTEX
8
Layer 1
10
50.823619
20
101.711818
70
0
0
VERTEX
8
Layer 1
10
52.730922
20
102.980937
70
0
0
VERTEX
8
Layer 1
10
54.150552
20
103.596420
70
0
0
VERTEX
8
Layer 1
10
55.251021
20
103.760687
70
0
0
VERTEX
8
Layer 1
10
56.528189
20
103.726834
70
0
0
VERTEX
8
Layer 1
10
57.786591
20
103.513886
70
0
0
VERTEX
8
Layer 1
10
58.830764
20
103.140870
70
0
0
VERTEX
8
Layer 1
10
60.768897
20
102.398050
70
0
0
VERTEX
8
Layer 1
10
61.849365
20
102.176969
70
0
0
VERTEX
8
Layer 1
10
62.156255
20
102.286980
70
0
0
VERTEX
8
Layer 1
10
62.469845
20
102.559420
70
0
0
VERTEX
8
Layer 1
10
63.085517
20
102.971783
70
0
0
VERTEX
8
Layer 1
10
63.839003
20
103.236470
70
0
0
VERTEX
8
Layer 1
10
64.708904
20
103.549033
70
0
0
VERTEX
8
Layer 1
10
65.604467
20
104.076560
70
0
0
VERTEX
8
Layer 1
10
66.441147
20
104.560600
70
0
0
VERTEX
8
Layer 1
10
67.169478
20
104.768670
70
0
0
VERTEX
8
Layer 1
10
67.526292
20
104.832694
70
0
0
VERTEX
8
Layer 1
10
67.802861
20
105.067925
70
0
0
VERTEX
8
Layer 1
10
68.372308
20
106.400950
70
0
0
VERTEX
8
Layer 1
10
69.231751
20
108.385330
70
0
0
VERTEX
8
Layer 1
10
69.381722
20
108.787588
70
0
0
VERTEX
8
Layer 1
10
69.095671
20
109.296570
70
0
0
VERTEX
8
Layer 1
10
68.438150
20
109.882665
70
0
0
VERTEX
8
Layer 1
10
67.471847
20
110.527463
70
0
0
VERTEX
8
Layer 1
10
66.500425
20
111.048296
70
0
0
VERTEX
8
Layer 1
10
65.827546
20
111.262500
70
0
0
VERTEX
8
Layer 1
10
64.771576
20
111.775260
70
0
0
VERTEX
8
Layer 1
10
63.346833
20
112.475420
70
0
0
VERTEX
8
Layer 1
10
62.319597
20
112.896392
70
0
0
VERTEX
8
Layer 1
10
61.159704
20
113.607308
70
0
0
VERTEX
8
Layer 1
10
60.150500
20
114.410395
70
0
0
VERTEX
8
Layer 1
10
59.575333
20
115.107880
70
0
0
VERTEX
8
Layer 1
10
59.357341
20
115.928665
70
0
0
VERTEX
8
Layer 1
10
59.266672
20
116.950750
70
0
0
VERTEX
8
Layer 1
10
59.438740
20
118.071494
70
0
0
VERTEX
8
Layer 1
10
60.213448
20
119.035690
70
0
0
VERTEX
8
Layer 1
10
61.223715
20
119.773583
70
0
0
VERTEX
8
Layer 1
10
62.676147
20
120.469335
70
0
0
VERTEX
8
Layer 1
10
64.540422
20
121.115948
70
0
0
VERTEX
8
Layer 1
10
66.786216
20
121.706423
70
0
0
VERTEX
8
Layer 1
10
72.301073
20
122.690958
70
0
0
VERTEX
8
Layer 1
10
78.978131
20
123.366950
70
0
0
VERTEX
8
Layer 1
10
81.573092
20
123.647774
70
0
0
VERTEX
8
Layer 1
10
83.053677
20
124.040580
70
0
0
VERTEX
8
Layer 1
10
83.684466
20
124.267363
70
0
0
VERTEX
8
Layer 1
10
84.620180
20
124.405059
70
0
0
VERTEX
8
Layer 1
10
88.323295
20
124.491670
70
0
0
VERTEX
8
Layer 1
10
91.364073
20
124.536530
70
0
0
VERTEX
8
Layer 1
10
92.539588
20
124.644450
70
0
0
VERTEX
8
Layer 1
10
89.651220
20
124.929620
70
0
0
VERTEX
8
Layer 1
10
86.724585
20
125.046639
70
0
0
VERTEX
8
Layer 1
10
85.791151
20
124.876820
70
0
0
VERTEX
8
Layer 1
10
85.336064
20
124.824313
70
0
0
VERTEX
8
Layer 1
10
85.195839
20
125.063270
70
0
0
VERTEX
8
Layer 1
10
85.015547
20
125.497263
70
0
0
VERTEX
8
Layer 1
10
84.538559
20
126.128576
70
0
0
VERTEX
8
Layer 1
10
83.077836
20
127.535680
70
0
0
VERTEX
8
Layer 1
10
82.068923
20
128.581193
70
0
0
VERTEX
8
Layer 1
10
81.498583
20
129.742686
70
0
0
VERTEX
8
Layer 1
10
81.377364
20
130.983517
70
0
0
VERTEX
8
Layer 1
10
81.715815
20
132.267040
70
0
0
VERTEX
8
Layer 1
10
82.240557
20
133.133624
70
0
0
VERTEX
8
Layer 1
10
82.933128
20
133.791777
70
0
0
VERTEX
8
Layer 1
10
83.757368
20
134.237040
70
0
0
VERTEX
8
Layer 1
10
84.677118
20
134.464958
70
0
0
VERTEX
8
Layer 1
10
85.656217
20
134.471073
70
0
0
VERTEX
8
Layer 1
10
86.658504
20
134.250930
70
0
0
VERTEX
8
Layer 1
10
87.647819
20
133.800071
70
0
0
VERTEX
8
Layer 1
10
88.588003
20
133.114040
70
0
0
VERTEX
8
Layer 1
10
89.429484
20
132.456657
70
0
0
VERTEX
8
Layer 1
10
90.120900
20
132.127810
70
0
0
VERTEX
8
Layer 1
10
90.686307
20
132.121073
70
0
0
VERTEX
8
Layer 1
10
91.149764
20
132.430020
70
0
0
VERTEX
8
Layer 1
10
91.624865
20
132.794931
70
0
0
VERTEX
8
Layer 1
10
92.188929
20
133.006375
70
0
0
VERTEX
8
Layer 1
10
92.725899
20
133.038659
70
0
0
VERTEX
8
Layer 1
10
93.119717
20
132.866090
70
0
0
VERTEX
8
Layer 1
10
93.331776
20
132.861534
70
0
0
VERTEX
8
Layer 1
10
93.397922
20
133.460690
70
0
0
VERTEX
8
Layer 1
10
93.587464
20
134.324178
70
0
0
VERTEX
8
Layer 1
10
94.192398
20
135.167250
70
0
0
VERTEX
8
Layer 1
10
95.647607
20
136.698140
70
0
0
VERTEX
8
Layer 1
10
96.117423
20
137.320734
70
0
0
VERTEX
8
Layer 1
10
96.269184
20
137.889449
70
0
0
VERTEX
8
Layer 1
10
96.102337
20
138.445562
70
0
0
VERTEX
8
Layer 1
10
95.616327
20
139.030350
70
0
0
VERTEX
8
Layer 1
10
93.890612
20
141.257223
70
0
0
VERTEX
8
Layer 1
10
92.152038
20
144.335390
70
0
0
VERTEX
8
Layer 1
10
90.484149
20
147.933434
70
0
0
VERTEX
8
Layer 1
10
89.958338
20
149.324640
70
0
0
VERTEX
8
Layer 1
10
89.580361
20
150.333220
70
0
0
VERTEX
8
Layer 1
10
88.446074
20
152.915239
70
0
0
VERTEX
8
Layer 1
10
87.329269
20
155.912660
70
0
0
VERTEX
8
Layer 1
10
86.056469
20
159.055655
70
0
0
VERTEX
8
Layer 1
10
85.504462
20
159.853982
70
0
0
VERTEX
8
Layer 1
10
84.994558
20
160.162640
70
0
0
VERTEX
8
Layer 1
10
84.522651
20
160.104483
70
0
0
VERTEX
8
Layer 1
10
84.399471
20
159.633480
70
0
0
VERTEX
8
Layer 1
10
83.999910
20
153.984600
70
0
0
VERTEX
8
Layer 1
10
83.215782
20
148.476660
70
0
0
VERTEX
8
Layer 1
10
82.290588
20
143.673930
70
0
0
VERTEX
8
Layer 1
10
81.903760
20
141.826536
70
0
0
VERTEX
8
Layer 1
10
81.374273
20
140.321404
70
0
0
VERTEX
8
Layer 1
10
80.707475
20
139.170405
70
0
0
VERTEX
8
Layer 1
10
79.908713
20
138.385410
70
0
0
VERTEX
8
Layer 1
10
79.091873
20
137.927437
70
0
0
VERTEX
8
Layer 1
10
78.312759
20
137.753363
70
0
0
VERTEX
8
Layer 1
10
77.529112
20
137.896243
70
0
0
VERTEX
8
Layer 1
10
76.698674
20
138.389134
70
0
0
VERTEX
8
Layer 1
10
75.779187
20
139.265090
70
0
0
VERTEX
8
Layer 1
10
74.728392
20
140.557168
70
0
0
VERTEX
8
Layer 1
10
72.063848
20
144.521910
70
0
0
VERTEX
8
Layer 1
10
71.800928
20
144.808710
70
0
0
VERTEX
8
Layer 1
10
71.589651
20
144.831330
70
0
0
VERTEX
8
Layer 1
10
70.765051
20
141.524040
70
0
0
VERTEX
8
Layer 1
10
70.262465
20
139.404470
70
0
0
VERTEX
8
Layer 1
10
69.749582
20
138.035043
70
0
0
VERTEX
8
Layer 1
10
69.133061
20
137.236586
70
0
0
VERTEX
8
Layer 1
10
68.319560
20
136.829930
70
0
0
VERTEX
8
Layer 1
10
67.042892
20
136.731536
70
0
0
VERTEX
8
Layer 1
10
66.437987
20
136.913193
70
0
0
VERTEX
8
Layer 1
10
65.837345
20
137.261761
70
0
0
VERTEX
8
Layer 1
10
64.594785
20
138.498661
70
0
0
VERTEX
8
Layer 1
10
63.207076
20
140.520290
70
0
0
VERTEX
8
Layer 1
10
62.152806
20
142.078014
70
0
0
VERTEX
8
Layer 1
10
61.550864
20
142.671440
70
0
0
VERTEX
8
Layer 1
10
61.381140
20
142.270724
70
0
0
VERTEX
8
Layer 1
10
61.353413
20
141.348444
70
0
0
VERTEX
8
Layer 1
10
61.698069
20
138.646850
70
0
0
VERTEX
8
Layer 1
10
62.312112
20
135.604140
70
0
0
VERTEX
8
Layer 1
10
63.075046
20
132.032260
70
0
0
VERTEX
8
Layer 1
10
63.652041
20
128.460390
70
0
0
VERTEX
8
Layer 1
10
63.671416
20
126.846201
70
0
0
VERTEX
8
Layer 1
10
63.107553
20
125.679920
70
0
0
VERTEX
8
Layer 1
10
62.423835
20
124.838958
70
0
0
VERTEX
8
Layer 1
10
61.609163
20
124.121119
70
0
0
VERTEX
8
Layer 1
10
60.790439
20
123.621025
70
0
0
VERTEX
8
Layer 1
10
60.094562
20
123.433300
70
0
0
VERTEX
8
Layer 1
10
59.565663
20
123.629554
70
0
0
VERTEX
8
Layer 1
10
59.132806
20
124.201735
70
0
0
VERTEX
8
Layer 1
10
58.808582
20
125.124968
70
0
0
VERTEX
8
Layer 1
10
58.605582
20
126.374380
70
0
0
VERTEX
8
Layer 1
10
57.948116
20
130.312470
70
0
0
VERTEX
8
Layer 1
10
56.876567
20
135.868720
70
0
0
VERTEX
8
Layer 1
10
55.952622
20
140.292080
70
0
0
VERTEX
8
Layer 1
10
54.619157
20
145.687259
70
0
0
VERTEX
8
Layer 1
10
53.134142
20
151.067961
70
0
0
VERTEX
8
Layer 1
10
51.755546
20
155.447890
70
0
0
VERTEX
8
Layer 1
10
48.781553
20
163.109821
70
0
0
VERTEX
8
Layer 1
10
47.312035
20
166.319754
70
0
0
VERTEX
8
Layer 1
10
45.972053
20
168.842640
70
0
0
VERTEX
8
Layer 1
10
45.171767
20
170.198850
70
0
0
VERTEX
8
Layer 1
10
43.514602
20
170.368640
70
0
0
VERTEX
8
Layer 1
10
41.599851
20
170.645636
70
0
0
VERTEX
8
Layer 1
10
40.169433
20
171.088640
70
0
0
VERTEX
8
Layer 1
10
38.985353
20
171.803009
70
0
0
VERTEX
8
Layer 1
10
37.809615
20
172.894100
70
0
0
VERTEX
8
Layer 1
10
36.678788
20
174.251734
70
0
0
VERTEX
8
Layer 1
10
36.073986
20
175.514050
70
0
0
VERTEX
8
Layer 1
10
35.923903
20
176.934459
70
0
0
VERTEX
8
Layer 1
10
36.157233
20
178.766370
70
0
0
VERTEX
8
Layer 1
10
36.636106
20
180.399949
70
0
0
VERTEX
8
Layer 1
10
37.414675
20
181.770644
70
0
0
VERTEX
8
Layer 1
10
38.511867
20
182.903722
70
0
0
VERTEX
8
Layer 1
10
39.946613
20
183.824450
70
0
0
VERTEX
8
Layer 1
10
41.580774
20
184.390173
70
0
0
VERTEX
8
Layer 1
10
43.434957
20
184.597701
70
0
0
VERTEX
8
Layer 1
10
45.301722
20
184.444031
70
0
0
VERTEX
8
Layer 1
10
46.973628
20
183.926160
70
0
0
VERTEX
8
Layer 1
10
48.155500
20
183.185784
70
0
0
VERTEX
8
Layer 1
10
49.298582
20
182.147309
70
0
0
VERTEX
8
Layer 1
10
50.240779
20
180.982036
70
0
0
VERTEX
8
Layer 1
10
50.819997
20
179.861270
70
0
0
VERTEX
8
Layer 1
10
51.036092
20
178.590236
70
0
0
VERTEX
8
Layer 1
10
50.982106
20
177.107046
70
0
0
VERTEX
8
Layer 1
10
50.684531
20
175.634441
70
0
0
VERTEX
8
Layer 1
10
50.169859
20
174.395160
70
0
0
VERTEX
8
Layer 1
10
49.680589
20
173.409404
70
0
0
VERTEX
8
Layer 1
10
49.477088
20
172.699400
70
0
0
VERTEX
8
Layer 1
10
49.777992
20
171.957314
70
0
0
VERTEX
8
Layer 1
10
50.501441
20
170.894430
70
0
0
VERTEX
8
Layer 1
10
53.969835
20
165.898930
70
0
0
VERTEX
8
Layer 1
10
56.914231
20
161.477870
70
0
0
VERTEX
8
Layer 1
10
57.414588
20
160.600320
70
0
0
VERTEX
8
Layer 1
10
58.049931
20
159.597420
70
0
0
VERTEX
8
Layer 1
10
59.389870
20
157.537449
70
0
0
VERTEX
8
Layer 1
10
61.372267
20
153.992680
70
0
0
VERTEX
8
Layer 1
10
62.844837
20
151.479140
70
0
0
VERTEX
8
Layer 1
10
63.970531
20
149.494760
70
0
0
VERTEX
8
Layer 1
10
64.645674
20
148.282355
70
0
0
VERTEX
8
Layer 1
10
65.237622
20
147.490681
70
0
0
VERTEX
8
Layer 1
10
65.716749
20
147.151035
70
0
0
VERTEX
8
Layer 1
10
66.053425
20
147.294710
70
0
0
VERTEX
8
Layer 1
10
66.268069
20
149.031924
70
0
0
VERTEX
8
Layer 1
10
66.366347
20
152.408926
70
0
0
VERTEX
8
Layer 1
10
66.333865
20
155.918928
70
0
0
VERTEX
8
Layer 1
10
66.156227
20
158.055140
70
0
0
VERTEX
8
Layer 1
10
65.943172
20
158.661838
70
0
0
VERTEX
8
Layer 1
10
65.615959
20
159.148933
70
0
0
VERTEX
8
Layer 1
10
64.216650
20
160.211750
70
0
0
VERTEX
8
Layer 1
10
62.975196
20
161.093388
70
0
0
VERTEX
8
Layer 1
10
62.155797
20
161.910455
70
0
0
VERTEX
8
Layer 1
10
61.674840
20
162.770804
70
0
0
VERTEX
8
Layer 1
10
61.448716
20
163.782290
70
0
0
VERTEX
8
Layer 1
10
61.513531
20
165.294522
70
0
0
VERTEX
8
Layer 1
10
62.012648
20
166.617307
70
0
0
VERTEX
8
Layer 1
10
62.864607
20
167.706999
70
0
0
VERTEX
8
Layer 1
10
63.987951
20
168.519955
70
0
0
VERTEX
8
Layer 1
10
65.301223
20
169.012530
70
0
0
VERTEX
8
Layer 1
10
66.722964
20
169.141078
70
0
0
VERTEX
8
Layer 1
10
68.171718
20
168.861957
70
0
0
VERTEX
8
Layer 1
10
69.566026
20
168.131520
70
0
0
VERTEX
8
Layer 1
10
70.645617
20
167.105495
70
0
0
VERTEX
8
Layer 1
10
71.271656
20
165.926544
70
0
0
VERTEX
8
Layer 1
10
71.440133
20
164.607273
70
0
0
VERTEX
8
Layer 1
10
71.147038
20
163.160290
70
0
0
VERTEX
8
Layer 1
10
70.769773
20
162.498510
70
0
0
VERTEX
8
Layer 1
10
70.154851
20
162.306170
70
0
0
VERTEX
8
Layer 1
10
69.756412
20
162.252190
70
0
0
VERTEX
8
Layer 1
10
69.783859
20
162.151830
70
0
0
VERTEX
8
Layer 1
10
70.020694
20
161.742125
70
0
0
VERTEX
8
Layer 1
10
70.114588
20
160.911850
70
0
0
VERTEX
8
Layer 1
10
70.291516
20
159.784096
70
0
0
VERTEX
8
Layer 1
10
70.781280
20
158.618790
70
0
0
VERTEX
8
Layer 1
10
71.863421
20
156.506220
70
0
0
VERTEX
8
Layer 1
10
74.104112
20
152.045443
70
0
0
VERTEX
8
Layer 1
10
76.135065
20
148.609150
70
0
0
VERTEX
8
Layer 1
10
76.776696
20
147.903399
70
0
0
VERTEX
8
Layer 1
10
77.003468
20
147.957799
70
0
0
VERTEX
8
Layer 1
10
77.310468
20
148.238670
70
0
0
VERTEX
8
Layer 1
10
77.859542
20
149.604845
70
0
0
VERTEX
8
Layer 1
10
78.442612
20
152.365128
70
0
0
VERTEX
8
Layer 1
10
78.973336
20
156.022039
70
0
0
VERTEX
8
Layer 1
10
79.365369
20
160.078100
70
0
0
VERTEX
8
Layer 1
10
79.950575
20
170.342346
70
0
0
VERTEX
8
Layer 1
10
80.054792
20
176.209170
70
0
0
VERTEX
8
Layer 1
10
79.918630
20
176.635802
70
0
0
VERTEX
8
Layer 1
10
79.653419
20
176.996013
70
0
0
VERTEX
8
Layer 1
10
78.513810
20
177.737360
70
0
0
VERTEX
8
Layer 1
10
77.270484
20
178.515875
70
0
0
VERTEX
8
Layer 1
10
76.115764
20
179.464906
70
0
0
VERTEX
8
Layer 1
10
75.201240
20
180.443256
70
0
0
VERTEX
8
Layer 1
10
74.678502
20
181.309730
70
0
0
VERTEX
8
Layer 1
10
73.903168
20
183.835590
70
0
0
VERTEX
8
Layer 1
10
73.554171
20
185.652070
70
0
0
VERTEX
8
Layer 1
10
73.379298
20
186.274363
70
0
0
VERTEX
8
Layer 1
10
72.958859
20
186.848430
70
0
0
VERTEX
8
Layer 1
10
71.555342
20
188.358110
70
0
0
VERTEX
8
Layer 1
10
71.137466
20
188.974323
70
0
0
VERTEX
8
Layer 1
10
71.045175
20
189.321910
70
0
0
VERTEX
8
Layer 1
10
70.964822
20
189.530046
70
0
0
VERTEX
8
Layer 1
10
70.581451
20
189.722740
70
0
0
VERTEX
8
Layer 1
10
69.997400
20
190.053628
70
0
0
VERTEX
8
Layer 1
10
69.320442
20
190.628033
70
0
0
VERTEX
8
Layer 1
10
68.760397
20
191.244035
70
0
0
VERTEX
8
Layer 1
10
68.527088
20
191.699720
70
0
0
VERTEX
8
Layer 1
10
68.257920
20
191.994010
70
0
0
VERTEX
8
Layer 1
10
67.610773
20
192.370380
70
0
0
VERTEX
8
Layer 1
10
66.914811
20
192.831273
70
0
0
VERTEX
8
Layer 1
10
66.528281
20
193.328780
70
0
0
VERTEX
8
Layer 1
10
66.372677
20
193.660310
70
0
0
VERTEX
8
Layer 1
10
66.231923
20
193.722170
70
0
0
VERTEX
8
Layer 1
10
65.986706
20
193.772709
70
0
0
VERTEX
8
Layer 1
10
65.495550
20
194.125350
70
0
0
VERTEX
8
Layer 1
10
63.905740
20
195.606397
70
0
0
VERTEX
8
Layer 1
10
59.208331
20
200.757784
70
0
0
VERTEX
8
Layer 1
10
58.374752
20
201.485389
70
0
0
VERTEX
8
Layer 1
10
57.010601
20
202.673549
70
0
0
VERTEX
8
Layer 1
10
55.827088
20
204.043056
70
0
0
VERTEX
8
Layer 1
10
54.371880
20
205.575239
70
0
0
VERTEX
8
Layer 1
10
53.344139
20
206.667877
70
0
0
VERTEX
8
Layer 1
10
52.916671
20
207.362494
70
0
0
VERTEX
8
Layer 1
10
52.761889
20
207.693364
70
0
0
VERTEX
8
Layer 1
10
52.389752
20
207.911464
70
0
0
VERTEX
8
Layer 1
10
51.880943
20
208.260203
70
0
0
VERTEX
8
Layer 1
10
51.397565
20
208.905160
70
0
0
VERTEX
8
Layer 1
10
50.171829
20
210.451872
70
0
0
VERTEX
8
Layer 1
10
48.447809
20
212.129744
70
0
0
VERTEX
8
Layer 1
10
46.881977
20
213.875581
70
0
0
VERTEX
8
Layer 1
10
46.015720
20
214.718944
70
0
0
VERTEX
8
Layer 1
10
45.162186
20
215.269136
70
0
0
VERTEX
8
Layer 1
10
44.173482
20
215.864683
70
0
0
VERTEX
8
Layer 1
10
43.980992
20
216.245719
70
0
0
VERTEX
8
Layer 1
10
43.924889
20
216.760431
70
0
0
VERTEX
8
Layer 1
10
43.688290
20
217.352005
70
0
0
VERTEX
8
Layer 1
10
43.035576
20
218.202471
70
0
0
VERTEX
8
Layer 1
10
40.788305
20
220.331113
70
0
0
VERTEX
8
Layer 1
10
40.096918
20
221.078287
70
0
0
VERTEX
8
Layer 1
10
39.997681
20
221.906375
70
0
0
VERTEX
8
Layer 1
10
39.954210
20
222.623373
70
0
0
VERTEX
8
Layer 1
10
39.494961
20
222.904401
70
0
0
VERTEX
8
Layer 1
10
38.724281
20
223.204851
70
0
0
VERTEX
8
Layer 1
10
38.210634
20
223.690111
70
0
0
VERTEX
8
Layer 1
10
37.924265
20
224.404811
70
0
0
VERTEX
8
Layer 1
10
37.835421
20
225.393578
70
0
0
VERTEX
8
Layer 1
10
37.865429
20
226.212405
70
0
0
VERTEX
8
Layer 1
10
38.020174
20
226.798614
70
0
0
VERTEX
8
Layer 1
10
39.092192
20
228.113610
70
0
0
VERTEX
8
Layer 1
10
40.352446
20
229.262694
70
0
0
VERTEX
8
Layer 1
10
41.566233
20
230.029110
70
0
0
VERTEX
8
Layer 1
10
42.824447
20
230.456762
70
0
0
VERTEX
8
Layer 1
10
44.217982
20
230.589556
70
0
0
VERTEX
8
Layer 1
10
45.618150
20
230.473839
70
0
0
VERTEX
8
Layer 1
10
46.494474
20
230.060389
70
0
0
VERTEX
8
Layer 1
10
47.509992
20
229.531223
70
0
0
VERTEX
8
Layer 1
10
47.776925
20
229.363385
70
0
0
VERTEX
8
Layer 1
10
47.937332
20
228.959859
70
0
0
VERTEX
8
Layer 1
10
48.137110
20
228.536151
70
0
0
VERTEX
8
Layer 1
10
48.498704
20
228.319787
70
0
0
VERTEX
8
Layer 1
10
49.182051
20
228.095442
70
0
0
VERTEX
8
Layer 1
10
49.812864
20
227.622717
70
0
0
VERTEX
8
Layer 1
10
50.398616
20
226.894231
70
0
0
VERTEX
8
Layer 1
10
50.946778
20
225.902608
70
0
0
VERTEX
8
Layer 1
10
52.293359
20
223.553123
70
0
0
VERTEX
8
Layer 1
10
52.869652
20
222.610413
70
0
0
VERTEX
8
Layer 1
10
52.712842
20
222.420674
70
0
0
VERTEX
8
Layer 1
10
52.255209
20
222.278823
70
0
0
VERTEX
8
Layer 1
10
51.788054
20
222.065337
70
0
0
VERTEX
8
Layer 1
10
51.593751
20
221.785192
70
0
0
VERTEX
8
Layer 1
10
51.964459
20
221.320368
70
0
0
VERTEX
8
Layer 1
10
52.806403
20
220.732694
70
0
0
VERTEX
8
Layer 1
10
53.714313
20
220.266295
70
0
0
VERTEX
8
Layer 1
10
54.282920
20
220.165297
70
0
0
VERTEX
8
Layer 1
10
54.716505
20
220.186609
70
0
0
VERTEX
8
Layer 1
10
55.346271
20
219.899972
70
0
0
VERTEX
8
Layer 1
10
56.879870
20
218.593224
70
0
0
VERTEX
8
Layer 1
10
58.753652
20
216.608849
70
0
0
VERTEX
8
Layer 1
10
61.383045
20
213.619399
70
0
0
VERTEX
8
Layer 1
10
63.122483
20
211.220216
70
0
0
VERTEX
8
Layer 1
10
64.342629
20
209.555180
70
0
0
VERTEX
8
Layer 1
10
67.437480
20
206.314035
70
0
0
VERTEX
8
Layer 1
10
70.009510
20
203.866639
70
0
0
VERTEX
8
Layer 1
10
71.077950
20
203.238427
70
0
0
VERTEX
8
Layer 1
10
72.714350
20
201.803387
70
0
0
VERTEX
8
Layer 1
10
74.214259
20
200.235919
70
0
0
VERTEX
8
Layer 1
10
74.873227
20
199.210419
70
0
0
VERTEX
8
Layer 1
10
75.119098
20
198.687246
70
0
0
VERTEX
8
Layer 1
10
75.935417
20
198.239516
70
0
0
VERTEX
8
Layer 1
10
76.705454
20
197.817477
70
0
0
VERTEX
8
Layer 1
10
76.993751
20
197.384888
70
0
0
VERTEX
8
Layer 1
10
77.311414
20
196.769703
70
0
0
VERTEX
8
Layer 1
10
78.075159
20
195.906970
70
0
0
VERTEX
8
Layer 1
10
78.921672
20
194.908796
70
0
0
VERTEX
8
Layer 1
10
79.199638
20
194.009480
70
0
0
VERTEX
8
Layer 1
10
79.251285
20
193.537620
70
0
0
VERTEX
8
Layer 1
10
79.399365
20
193.261110
70
0
0
VERTEX
8
Layer 1
10
80.301042
20
193.006060
70
0
0
VERTEX
8
Layer 1
10
81.797694
20
192.644410
70
0
0
VERTEX
8
Layer 1
10
83.483553
20
191.999393
70
0
0
VERTEX
8
Layer 1
10
85.083701
20
191.192484
70
0
0
VERTEX
8
Layer 1
10
86.323217
20
190.345160
70
0
0
VERTEX
8
Layer 1
10
87.385802
20
189.245440
70
0
0
VERTEX
8
Layer 1
10
88.239549
20
188.055390
70
0
0
VERTEX
8
Layer 1
10
88.835648
20
186.645034
70
0
0
VERTEX
8
Layer 1
10
89.304943
20
184.897493
70
0
0
VERTEX
8
Layer 1
10
89.577691
20
183.141998
70
0
0
VERTEX
8
Layer 1
10
89.584151
20
181.707780
70
0
0
VERTEX
8
Layer 1
10
89.591057
20
180.678818
70
0
0
VERTEX
8
Layer 1
10
89.813491
20
180.632291
70
0
0
VERTEX
8
Layer 1
10
90.222854
20
180.842250
70
0
0
VERTEX
8
Layer 1
10
90.530347
20
180.911858
70
0
0
VERTEX
8
Layer 1
10
90.768417
20
180.702963
70
0
0
VERTEX
8
Layer 1
10
90.998071
20
179.515100
70
0
0
VERTEX
8
Layer 1
10
91.172031
20
178.956593
70
0
0
VERTEX
8
Layer 1
10
91.870229
20
178.778740
70
0
0
VERTEX
8
Layer 1
10
92.591626
20
178.651877
70
0
0
VERTEX
8
Layer 1
10
93.272051
20
178.318023
70
0
0
VERTEX
8
Layer 1
10
95.188266
20
176.579860
70
0
0
VERTEX
8
Layer 1
10
98.596023
20
172.947129
70
0
0
VERTEX
8
Layer 1
10
100.720581
20
170.223480
70
0
0
VERTEX
8
Layer 1
10
102.149151
20
168.412470
70
0
0
VERTEX
8
Layer 1
10
102.920561
20
167.287990
70
0
0
VERTEX
8
Layer 1
10
104.063278
20
165.728355
70
0
0
VERTEX
8
Layer 1
10
104.679288
20
165.195560
70
0
0
VERTEX
8
Layer 1
10
105.171871
20
164.984210
70
0
0
VERTEX
8
Layer 1
10
105.620375
20
165.344651
70
0
0
VERTEX
8
Layer 1
10
106.235224
20
166.362716
70
0
0
VERTEX
8
Layer 1
10
107.769793
20
169.870234
70
0
0
VERTEX
8
Layer 1
10
109.387249
20
174.503784
70
0
0
VERTEX
8
Layer 1
10
110.699261
20
179.260390
70
0
0
VERTEX
8
Layer 1
10
111.311111
20
181.244760
70
0
0
VERTEX
8
Layer 1
10
112.065391
20
183.818910
70
0
0
VERTEX
8
Layer 1
10
112.542061
20
185.863890
70
0
0
VERTEX
8
Layer 1
10
110.941491
20
187.425200
70
0
0
VERTEX
8
Layer 1
10
109.644490
20
188.856308
70
0
0
VERTEX
8
Layer 1
10
108.876442
20
190.207208
70
0
0
VERTEX
8
Layer 1
10
108.541544
20
191.727273
70
0
0
VERTEX
8
Layer 1
10
108.543991
20
193.665880
70
0
0
VERTEX
8
Layer 1
10
108.779620
20
195.612578
70
0
0
VERTEX
8
Layer 1
10
109.285121
20
196.771700
70
0
0
VERTEX
8
Layer 1
10
110.845557
20
198.649907
70
0
0
VERTEX
8
Layer 1
10
111.657210
20
199.283530
70
0
0
VERTEX
8
Layer 1
10
112.580211
20
199.796476
70
0
0
VERTEX
8
Layer 1
10
114.156410
20
200.311106
70
0
0
VERTEX
8
Layer 1
10
115.751704
20
200.415029
70
0
0
VERTEX
8
Layer 1
10
117.306198
20
200.141884
70
0
0
VERTEX
8
Layer 1
10
118.759998
20
199.525312
70
0
0
VERTEX
8
Layer 1
10
120.053212
20
198.598955
70
0
0
VERTEX
8
Layer 1
10
121.125944
20
197.396454
70
0
0
VERTEX
8
Layer 1
10
121.918302
20
195.951448
70
0
0
VERTEX
8
Layer 1
10
122.370391
20
194.297580
70
0
0
VERTEX
8
Layer 1
10
122.423223
20
193.271892
70
0
0
VERTEX
8
Layer 1
10
122.289924
20
192.221963
70
0
0
VERTEX
8
Layer 1
10
121.984806
20
191.174341
70
0
0
VERTEX
8
Layer 1
10
121.522177
20
190.155574
70
0
0
VERTEX
8
Layer 1
10
120.916350
20
189.192208
70
0
0
VERTEX
8
Layer 1
10
120.181635
20
188.310793
70
0
0
VERTEX
8
Layer 1
10
119.332341
20
187.537874
70
0
0
VERTEX
8
Layer 1
10
118.382781
20
186.900000
70
0
0
VERTEX
8
Layer 1
10
116.945831
20
186.089040
70
0
0
VERTEX
8
Layer 1
10
116.945831
20
184.376840
70
0
0
VERTEX
8
Layer 1
10
117.184876
20
181.447491
70
0
0
VERTEX
8
Layer 1
10
117.771923
20
177.189379
70
0
0
VERTEX
8
Layer 1
10
118.511839
20
172.864635
70
0
0
VERTEX
8
Layer 1
10
119.209491
20
169.735390
70
0
0
VERTEX
8
Layer 1
10
119.729411
20
167.618720
70
0
0
VERTEX
8
Layer 1
10
120.712848
20
164.128020
70
0
0
VERTEX
8
Layer 1
10
121.305775
20
162.659641
70
0
0
VERTEX
8
Layer 1
10
121.798241
20
161.844610
70
0
0
VERTEX
8
Layer 1
10
122.423285
20
161.381199
70
0
0
VERTEX
8
Layer 1
10
122.960690
20
161.229980
70
0
0
VERTEX
8
Layer 1
10
123.407988
20
161.390926
70
0
0
VERTEX
8
Layer 1
10
123.762711
20
161.864010
70
0
0
VERTEX
8
Layer 1
10
124.085013
20
162.377886
70
0
0
VERTEX
8
Layer 1
10
124.360351
20
162.591620
70
0
0
VERTEX
8
Layer 1
10
125.470391
20
163.378390
70
0
0
VERTEX
8
Layer 1
10
127.535048
20
165.149894
70
0
0
VERTEX
8
Layer 1
10
128.116610
20
165.563051
70
0
0
VERTEX
8
Layer 1
10
128.322921
20
165.602860
70
0
0
VERTEX
8
Layer 1
10
128.444220
20
165.621666
70
0
0
VERTEX
8
Layer 1
10
128.735851
20
165.973840
70
0
0
VERTEX
8
Layer 1
10
129.275365
20
166.517919
70
0
0
VERTEX
8
Layer 1
10
129.992621
20
166.998150
70
0
0
VERTEX
8
Layer 1
10
131.182191
20
167.922680
70
0
0
VERTEX
8
Layer 1
10
131.524990
20
168.268582
70
0
0
VERTEX
8
Layer 1
10
131.863671
20
168.412450
70
0
0
VERTEX
8
Layer 1
10
132.283338
20
168.606755
70
0
0
VERTEX
8
Layer 1
10
132.820831
20
169.073910
70
0
0
VERTEX
8
Layer 1
10
133.401598
20
169.541065
70
0
0
VERTEX
8
Layer 1
10
133.925291
20
169.735370
70
0
0
VERTEX
8
Layer 1
10
134.266971
20
169.793662
70
0
0
VERTEX
8
Layer 1
10
134.410141
20
169.933810
70
0
0
VERTEX
8
Layer 1
10
135.402331
20
170.778440
70
0
0
VERTEX
8
Layer 1
10
136.725561
20
171.824100
70
0
0
VERTEX
8
Layer 1
10
137.212601
20
172.187659
70
0
0
VERTEX
8
Layer 1
10
137.916181
20
172.500810
70
0
0
VERTEX
8
Layer 1
10
138.599507
20
172.867440
70
0
0
VERTEX
8
Layer 1
10
138.852731
20
173.454390
70
0
0
VERTEX
8
Layer 1
10
139.120698
20
174.047886
70
0
0
VERTEX
8
Layer 1
10
139.940231
20
174.399950
70
0
0
VERTEX
8
Layer 1
10
140.822162
20
174.527746
70
0
0
VERTEX
8
Layer 1
10
141.525241
20
174.456050
70
0
0
VERTEX
8
Layer 1
10
141.998664
20
174.412227
70
0
0
VERTEX
8
Layer 1
10
142.259160
20
174.637489
70
0
0
VERTEX
8
Layer 1
10
142.266648
20
175.038211
70
0
0
VERTEX
8
Layer 1
10
141.981051
20
175.520770
70
0
0
VERTEX
8
Layer 1
10
141.771460
20
175.877615
70
0
0
VERTEX
8
Layer 1
10
141.640267
20
176.461340
70
0
0
VERTEX
8
Layer 1
10
141.554671
20
178.752060
70
0
0
VERTEX
8
Layer 1
10
141.669831
20
181.248889
70
0
0
VERTEX
8
Layer 1
10
142.180151
20
182.832270
70
0
0
VERTEX
8
Layer 1
10
143.434341
20
184.822170
70
0
0
VERTEX
8
Layer 1
10
144.383980
20
185.657016
70
0
0
VERTEX
8
Layer 1
10
145.452921
20
186.294804
70
0
0
VERTEX
8
Layer 1
10
146.619253
20
186.733208
70
0
0
VERTEX
8
Layer 1
10
147.861062
20
186.969902
70
0
0
VERTEX
8
Layer 1
10
149.156435
20
187.002560
70
0
0
VERTEX
8
Layer 1
10
150.483457
20
186.828855
70
0
0
VERTEX
8
Layer 1
10
151.820217
20
186.446460
70
0
0
VERTEX
8
Layer 1
10
153.144801
20
185.853050
70
0
0
VERTEX
8
Layer 1
10
154.249567
20
185.323393
70
0
0
VERTEX
8
Layer 1
10
155.004387
20
185.108243
70
0
0
VERTEX
8
Layer 1
10
155.436965
20
185.204833
70
0
0
VERTEX
8
Layer 1
10
155.575001
20
185.610400
70
0
0
VERTEX
8
Layer 1
10
155.692621
20
185.988417
70
0
0
VERTEX
8
Layer 1
10
155.986791
20
186.139560
70
0
0
VERTEX
8
Layer 1
10
156.508216
20
186.392157
70
0
0
VERTEX
8
Layer 1
10
157.183601
20
186.999460
70
0
0
VERTEX
8
Layer 1
10
158.115991
20
187.839924
70
0
0
VERTEX
8
Layer 1
10
159.255351
20
188.653110
70
0
0
VERTEX
8
Layer 1
10
163.861983
20
191.682165
70
0
0
VERTEX
8
Layer 1
10
167.475211
20
194.363130
70
0
0
VERTEX
8
Layer 1
10
171.708541
20
197.434321
70
0
0
VERTEX
8
Layer 1
10
174.766601
20
199.617134
70
0
0
VERTEX
8
Layer 1
10
175.541901
20
200.162482
70
0
0
VERTEX
8
Layer 1
10
177.384681
20
201.199140
70
0
0
VERTEX
8
Layer 1
10
180.836697
20
203.213904
70
0
0
VERTEX
8
Layer 1
10
184.316141
20
205.020176
70
0
0
VERTEX
8
Layer 1
10
185.323941
20
205.691736
70
0
0
VERTEX
8
Layer 1
10
185.583782
20
205.897664
70
0
0
VERTEX
8
Layer 1
10
185.955471
20
205.983315
70
0
0
VERTEX
8
Layer 1
10
187.394101
20
206.512482
70
0
0
VERTEX
8
Layer 1
10
188.661471
20
207.041649
70
0
0
VERTEX
8
Layer 1
10
190.156331
20
207.595055
70
0
0
VERTEX
8
Layer 1
10
191.245670
20
207.929424
70
0
0
VERTEX
8
Layer 1
10
192.352423
20
208.002487
70
0
0
VERTEX
8
Layer 1
10
193.315353
20
207.822569
70
0
0
VERTEX
8
Layer 1
10
193.973221
20
207.397993
70
0
0
VERTEX
8
Layer 1
10
194.907571
20
206.761117
70
0
0
VERTEX
8
Layer 1
10
195.347339
20
206.416240
70
0
0
VERTEX
8
Layer 1
10
195.698612
20
205.718868
70
0
0
VERTEX
8
Layer 1
10
196.210601
20
203.053446
70
0
0
VERTEX
8
Layer 1
10
196.236666
20
201.953648
70
0
0
VERTEX
8
Layer 1
10
196.047067
20
200.967328
70
0
0
VERTEX
8
Layer 1
10
195.644193
20
200.101950
70
0
0
VERTEX
8
Layer 1
10
195.030431
20
199.364981
70
0
0
VERTEX
8
Layer 1
10
193.255508
20
197.997119
70
0
0
VERTEX
8
Layer 1
10
191.889951
20
197.252065
70
0
0
VERTEX
8
Layer 1
10
190.662318
20
196.795912
70
0
0
VERTEX
8
Layer 1
10
189.567721
20
196.007390
70
0
0
VERTEX
8
Layer 1
10
188.748096
20
195.563680
70
0
0
VERTEX
8
Layer 1
10
187.157801
20
195.015900
70
0
0
VERTEX
8
Layer 1
10
184.349065
20
194.007854
70
0
0
VERTEX
8
Layer 1
10
183.406844
20
193.423177
70
0
0
VERTEX
8
Layer 1
10
182.481631
20
192.636620
70
0
0
VERTEX
8
Layer 1
10
181.653431
20
191.972175
70
0
0
VERTEX
8
Layer 1
10
181.076181
20
191.695810
70
0
0
VERTEX
8
Layer 1
10
180.317498
20
191.485104
70
0
0
VERTEX
8
Layer 1
10
179.218731
20
191.000035
70
0
0
VERTEX
8
Layer 1
10
178.229644
20
190.461176
70
0
0
VERTEX
8
Layer 1
10
177.800001
20
190.089100
70
0
0
VERTEX
8
Layer 1
10
177.644045
20
189.915809
70
0
0
VERTEX
8
Layer 1
10
177.269081
20
189.843730
70
0
0
VERTEX
8
Layer 1
10
176.725181
20
189.649429
70
0
0
VERTEX
8
Layer 1
10
176.163041
20
189.182270
70
0
0
VERTEX
8
Layer 1
10
175.662598
20
188.715115
70
0
0
VERTEX
8
Layer 1
10
175.267051
20
188.520810
70
0
0
VERTEX
8
Layer 1
10
174.995713
20
188.404230
70
0
0
VERTEX
8
Layer 1
10
174.793901
20
188.123940
70
0
0
VERTEX
8
Layer 1
10
174.607678
20
187.843645
70
0
0
VERTEX
8
Layer 1
10
174.373861
20
187.727060
70
0
0
VERTEX
8
Layer 1
10
172.595680
20
186.756287
70
0
0
VERTEX
8
Layer 1
10
170.532221
20
185.287050
70
0
0
VERTEX
8
Layer 1
10
169.404741
20
184.645430
70
0
0
VERTEX
8
Layer 1
10
168.980590
20
184.469680
70
0
0
VERTEX
8
Layer 1
10
168.804171
20
184.258800
70
0
0
VERTEX
8
Layer 1
10
168.275001
20
183.493730
70
0
0
VERTEX
8
Layer 1
10
167.889111
20
182.862105
70
0
0
VERTEX
8
Layer 1
10
167.745831
20
182.056990
70
0
0
VERTEX
8
Layer 1
10
167.641793
20
181.308881
70
0
0
VERTEX
8
Layer 1
10
167.018231
20
181.356890
70
0
0
VERTEX
8
Layer 1
10
165.665391
20
181.467810
70
0
0
VERTEX
8
Layer 1
10
164.852723
20
181.157644
70
0
0
VERTEX
8
Layer 1
10
163.715006
20
180.469095
70
0
0
VERTEX
8
Layer 1
10
160.938511
20
178.276890
70
0
0
VERTEX
8
Layer 1
10
157.755950
20
175.470169
70
0
0
VERTEX
8
Layer 1
10
156.763291
20
174.762480
70
0
0
VERTEX
8
Layer 1
10
155.425431
20
173.836440
70
0
0
VERTEX
8
Layer 1
10
154.018341
20
172.910400
70
0
0
VERTEX
8
Layer 1
10
153.468659
20
172.531694
70
0
0
VERTEX
8
Layer 1
10
152.563160
20
171.674905
70
0
0
VERTEX
8
Layer 1
10
151.716083
20
170.759023
70
0
0
VERTEX
8
Layer 1
10
151.341671
20
170.203040
70
0
0
VERTEX
8
Layer 1
10
150.985801
20
169.999980
70
0
0
VERTEX
8
Layer 1
10
150.593793
20
169.844539
70
0
0
VERTEX
8
Layer 1
10
150.151041
20
169.470810
70
0
0
VERTEX
8
Layer 1
10
149.364931
20
168.941650
70
0
0
VERTEX
8
Layer 1
10
148.939603
20
168.494751
70
0
0
VERTEX
8
Layer 1
10
148.348421
20
167.420290
70
0
0
VERTEX
8
Layer 1
10
147.419904
20
164.661710
70
0
0
VERTEX
8
Layer 1
10
146.771252
20
160.915441
70
0
0
VERTEX
8
Layer 1
10
146.389392
20
156.072509
70
0
0
VERTEX
8
Layer 1
10
146.261251
20
150.023940
70
0
0
VERTEX
8
Layer 1
10
146.334146
20
145.094257
70
0
0
VERTEX
8
Layer 1
10
146.558811
20
142.905450
70
0
0
VERTEX
8
Layer 1
10
146.861741
20
142.136960
70
0
0
VERTEX
8
Layer 1
10
147.646491
20
142.888810
70
0
0
VERTEX
8
Layer 1
10
148.431251
20
143.839040
70
0
0
VERTEX
8
Layer 1
10
151.143231
20
148.033960
70
0
0
VERTEX
8
Layer 1
10
153.744958
20
151.871432
70
0
0
VERTEX
8
Layer 1
10
154.936292
20
153.785260
70
0
0
VERTEX
8
Layer 1
10
155.175263
20
154.672413
70
0
0
VERTEX
8
Layer 1
10
154.919901
20
155.429860
70
0
0
VERTEX
8
Layer 1
10
154.621790
20
156.510861
70
0
0
VERTEX
8
Layer 1
10
154.542346
20
157.498660
70
0
0
VERTEX
8
Layer 1
10
154.683949
20
158.468204
70
0
0
VERTEX
8
Layer 1
10
155.048981
20
159.494440
70
0
0
VERTEX
8
Layer 1
10
155.589275
20
160.463901
70
0
0
VERTEX
8
Layer 1
10
156.274563
20
161.247040
70
0
0
VERTEX
8
Layer 1
10
157.116163
20
161.854161
70
0
0
VERTEX
8
Layer 1
10
158.125391
20
162.295570
70
0
0
VERTEX
8
Layer 1
10
159.238862
20
162.495169
70
0
0
VERTEX
8
Layer 1
10
160.573861
20
162.049400
70
0
0
VERTEX
8
Layer 1
10
161.794718
20
161.362643
70
0
0
VERTEX
8
Layer 1
10
162.624700
20
160.496565
70
0
0
VERTEX
8
Layer 1
10
163.097777
20
159.399997
70
0
0
VERTEX
8
Layer 1
10
163.247921
20
158.021770
70
0
0
VERTEX
8
Layer 1
10
163.035321
20
156.272112
70
0
0
VERTEX
8
Layer 1
10
162.383347
20
154.858901
70
0
0
VERTEX
8
Layer 1
10
161.270741
20
153.751775
70
0
0
VERTEX
8
Layer 1
10
159.676241
20
152.920370
70
0
0
VERTEX
8
Layer 1
10
158.925735
20
152.587920
70
0
0
VERTEX
8
Layer 1
10
158.472647
20
151.954534
70
0
0
VERTEX
8
Layer 1
10
158.096174
20
150.451573
70
0
0
VERTEX
8
Layer 1
10
157.575511
20
147.510400
70
0
0
VERTEX
8
Layer 1
10
156.886891
20
143.719900
70
0
0
VERTEX
8
Layer 1
10
156.643226
20
141.592901
70
0
0
VERTEX
8
Layer 1
10
156.695436
20
140.874835
70
0
0
VERTEX
8
Layer 1
10
156.864591
20
140.519510
70
0
0
VERTEX
8
Layer 1
10
157.245080
20
140.589082
70
0
0
VERTEX
8
Layer 1
10
157.831093
20
141.084915
70
0
0
VERTEX
8
Layer 1
10
159.415101
20
143.144770
70
0
0
VERTEX
8
Layer 1
10
162.375488
20
147.375635
70
0
0
VERTEX
8
Layer 1
10
166.234621
20
152.568992
70
0
0
VERTEX
8
Layer 1
10
170.055421
20
157.490643
70
0
0
VERTEX
8
Layer 1
10
172.900811
20
160.906390
70
0
0
VERTEX
8
Layer 1
10
173.923644
20
162.090802
70
0
0
VERTEX
8
Layer 1
10
174.439826
20
162.924810
70
0
0
VERTEX
8
Layer 1
10
174.545668
20
163.649798
70
0
0
VERTEX
8
Layer 1
10
174.337481
20
164.507150
70
0
0
VERTEX
8
Layer 1
10
174.076948
20
165.898725
70
0
0
VERTEX
8
Layer 1
10
173.975731
20
167.661550
70
0
0
VERTEX
8
Layer 1
10
174.135268
20
169.612545
70
0
0
VERTEX
8
Layer 1
10
174.933131
20
171.233420
70
0
0
VERTEX
8
Layer 1
10
176.058817
20
172.696646
70
0
0
VERTEX
8
Layer 1
10
177.366966
20
173.768760
70
0
0
VERTEX
8
Layer 1
10
178.797198
20
174.446532
70
0
0
VERTEX
8
Layer 1
10
180.289130
20
174.726735
70
0
0
VERTEX
8
Layer 1
10
181.782379
20
174.606140
70
0
0
VERTEX
8
Layer 1
10
183.216564
20
174.081518
70
0
0
VERTEX
8
Layer 1
10
184.531302
20
173.149641
70
0
0
VERTEX
8
Layer 1
10
185.666211
20
171.807280
70
0
0
VERTEX
8
Layer 1
10
186.064374
20
171.136732
70
0
0
VERTEX
8
Layer 1
10
186.284723
20
170.477889
70
0
0
VERTEX
8
Layer 1
10
186.398921
20
168.167220
70
0
0
VERTEX
8
Layer 1
10
186.278161
20
165.824452
70
0
0
VERTEX
8
Layer 1
10
186.046875
20
165.098538
70
0
0
VERTEX
8
Layer 1
10
185.630241
20
164.311440
70
0
0
VERTEX
8
Layer 1
10
184.769849
20
163.014432
70
0
0
VERTEX
8
Layer 1
10
183.867936
20
162.049861
70
0
0
VERTEX
8
Layer 1
10
182.860685
20
161.362507
70
0
0
VERTEX
8
Layer 1
10
181.684281
20
160.897150
70
0
0
VERTEX
8
Layer 1
10
180.478006
20
160.417212
70
0
0
VERTEX
8
Layer 1
10
179.790311
20
159.859770
70
0
0
VERTEX
8
Layer 1
10
179.503831
20
158.792107
70
0
0
VERTEX
8
Layer 1
10
179.189972
20
156.178419
70
0
0
VERTEX
8
Layer 1
10
178.314451
20
144.599980
70
0
0
VERTEX
8
Layer 1
10
177.775131
20
138.249980
70
0
0
VERTEX
8
Layer 1
10
177.265401
20
133.023610
70
0
0
VERTEX
8
Layer 1
10
176.911883
20
130.272497
70
0
0
VERTEX
8
Layer 1
10
176.636430
20
129.865496
70
0
0
VERTEX
8
Layer 1
10
176.188541
20
129.783310
70
0
0
VERTEX
8
Layer 1
10
175.728513
20
129.917031
70
0
0
VERTEX
8
Layer 1
10
175.505552
20
130.454649
70
0
0
VERTEX
8
Layer 1
10
175.490756
20
131.600845
70
0
0
VERTEX
8
Layer 1
10
175.655221
20
133.560300
70
0
0
VERTEX
8
Layer 1
10
176.349701
20
141.160400
70
0
0
VERTEX
8
Layer 1
10
177.139407
20
149.822931
70
0
0
VERTEX
8
Layer 1
10
177.675351
20
153.557970
70
0
0
VERTEX
8
Layer 1
10
177.932485
20
155.365774
70
0
0
VERTEX
8
Layer 1
10
178.051633
20
157.264829
70
0
0
VERTEX
8
Layer 1
10
178.021153
20
158.803650
70
0
0
VERTEX
8
Layer 1
10
177.829401
20
159.530750
70
0
0
VERTEX
8
Layer 1
10
177.465106
20
159.391936
70
0
0
VERTEX
8
Layer 1
10
176.813227
20
158.589781
70
0
0
VERTEX
8
Layer 1
10
174.314371
20
154.521860
70
0
0
VERTEX
8
Layer 1
10
170.926275
20
148.320272
70
0
0
VERTEX
8
Layer 1
10
168.585651
20
143.277060
70
0
0
VERTEX
8
Layer 1
10
167.151851
20
139.837480
70
0
0
VERTEX
8
Layer 1
10
165.220911
20
134.810400
70
0
0
VERTEX
8
Layer 1
10
164.838041
20
133.884350
70
0
0
VERTEX
8
Layer 1
10
163.930621
20
131.370810
70
0
0
VERTEX
8
Layer 1
10
162.947191
20
128.328100
70
0
0
VERTEX
8
Layer 1
10
162.313441
20
126.343730
70
0
0
VERTEX
8
Layer 1
10
161.568471
20
123.962480
70
0
0
VERTEX
8
Layer 1
10
160.736641
20
121.052060
70
0
0
VERTEX
8
Layer 1
10
159.699651
20
117.744770
70
0
0
VERTEX
8
Layer 1
10
159.087435
20
116.416747
70
0
0
VERTEX
8
Layer 1
10
158.790112
20
116.226177
70
0
0
VERTEX
8
Layer 1
10
158.377201
20
116.210320
70
0
0
VERTEX
8
Layer 1
10
157.740554
20
116.419353
70
0
0
VERTEX
8
Layer 1
10
157.081796
20
116.901094
70
0
0
VERTEX
8
Layer 1
10
156.497498
20
117.566433
70
0
0
VERTEX
8
Layer 1
10
156.084231
20
118.326260
70
0
0
VERTEX
8
Layer 1
10
155.850396
20
119.600703
70
0
0
VERTEX
8
Layer 1
10
155.942057
20
121.300914
70
0
0
VERTEX
8
Layer 1
10
156.353760
20
123.385873
70
0
0
VERTEX
8
Layer 1
10
157.080051
20
125.814560
70
0
0
VERTEX
8
Layer 1
10
159.835941
20
133.534390
70
0
0
VERTEX
8
Layer 1
10
160.177408
20
134.991842
70
0
0
VERTEX
8
Layer 1
10
160.096058
20
135.439800
70
0
0
VERTEX
8
Layer 1
10
159.846141
20
135.596860
70
0
0
VERTEX
8
Layer 1
10
159.014551
20
134.667200
70
0
0
VERTEX
8
Layer 1
10
157.364641
20
132.623970
70
0
0
VERTEX
8
Layer 1
10
156.372451
20
131.300780
70
0
0
VERTEX
8
Layer 1
10
156.091665
20
130.951305
70
0
0
VERTEX
8
Layer 1
10
155.428520
20
130.538316
70
0
0
VERTEX
8
Layer 1
10
154.636088
20
130.193587
70
0
0
VERTEX
8
Layer 1
10
153.967441
20
130.048890
70
0
0
VERTEX
8
Layer 1
10
153.329735
20
130.223061
70
0
0
VERTEX
8
Layer 1
10
152.753491
20
130.643210
70
0
0
VERTEX
8
Layer 1
10
152.157978
20
131.492837
70
0
0
VERTEX
8
Layer 1
10
151.775427
20
132.551334
70
0
0
VERTEX
8
Layer 1
10
151.567388
20
133.980681
70
0
0
VERTEX
8
Layer 1
10
151.495411
20
135.942860
70
0
0
VERTEX
8
Layer 1
10
151.403530
20
138.151131
70
0
0
VERTEX
8
Layer 1
10
151.174601
20
138.966810
70
0
0
VERTEX
8
Layer 1
10
150.740251
20
138.725557
70
0
0
VERTEX
8
Layer 1
10
150.116271
20
138.005040
70
0
0
VERTEX
8
Layer 1
10
148.309611
20
135.467210
70
0
0
VERTEX
8
Layer 1
10
147.400411
20
134.342360
70
0
0
VERTEX
8
Layer 1
10
146.504676
20
133.561351
70
0
0
VERTEX
8
Layer 1
10
145.595928
20
133.106047
70
0
0
VERTEX
8
Layer 1
10
144.647691
20
132.958310
70
0
0
VERTEX
8
Layer 1
10
143.810548
20
133.137581
70
0
0
VERTEX
8
Layer 1
10
143.156802
20
133.757106
70
0
0
VERTEX
8
Layer 1
10
142.604406
20
134.939456
70
0
0
VERTEX
8
Layer 1
10
142.071311
20
136.807200
70
0
0
VERTEX
8
Layer 1
10
141.750759
20
138.322251
70
0
0
VERTEX
8
Layer 1
10
141.592463
20
140.074109
70
0
0
VERTEX
8
Layer 1
10
141.616611
20
147.827240
70
0
0
VERTEX
8
Layer 1
10
141.648221
20
154.788404
70
0
0
VERTEX
8
Layer 1
10
141.561987
20
156.171991
70
0
0
VERTEX
8
Layer 1
10
141.396361
20
156.610890
70
0
0
VERTEX
8
Layer 1
10
141.132672
20
156.465103
70
0
0
VERTEX
8
Layer 1
10
140.684156
20
155.911110
70
0
0
VERTEX
8
Layer 1
10
139.282401
20
153.648210
70
0
0
VERTEX
8
Layer 1
10
135.762471
20
147.953010
70
0
0
VERTEX
8
Layer 1
10
133.132401
20
143.855870
70
0
0
VERTEX
8
Layer 1
10
131.509966
20
141.461249
70
0
0
VERTEX
8
Layer 1
10
130.138391
20
139.834590
70
0
0
VERTEX
8
Layer 1
10
129.014501
20
138.515230
70
0
0
VERTEX
8
Layer 1
10
128.077421
20
137.331050
70
0
0
VERTEX
8
Layer 1
10
128.795471
20
136.625920
70
0
0
VERTEX
8
Layer 1
10
129.778091
20
135.563790
70
0
0
VERTEX
8
Layer 1
10
130.770281
20
134.232500
70
0
0
VERTEX
8
Layer 1
10
131.497891
20
133.059140
70
0
0
VERTEX
8
Layer 1
10
132.556221
20
131.604960
70
0
0
VERTEX
8
Layer 1
10
133.614551
20
130.066570
70
0
0
VERTEX
8
Layer 1
10
133.879790
20
129.846050
70
0
0
VERTEX
8
Layer 1
10
134.507971
20
129.802036
70
0
0
VERTEX
8
Layer 1
10
135.247789
20
129.920797
70
0
0
VERTEX
8
Layer 1
10
135.847941
20
130.188600
70
0
0
VERTEX
8
Layer 1
10
136.466116
20
130.458209
70
0
0
VERTEX
8
Layer 1
10
137.276552
20
130.554209
70
0
0
VERTEX
8
Layer 1
10
138.124701
20
130.475029
70
0
0
VERTEX
8
Layer 1
10
138.856011
20
130.219100
70
0
0
VERTEX
8
Layer 1
10
139.437957
20
129.751621
70
0
0
VERTEX
8
Layer 1
10
139.978751
20
129.104000
70
0
0
VERTEX
8
Layer 1
10
140.407441
20
127.884084
70
0
0
VERTEX
8
Layer 1
10
140.454705
20
126.449595
70
0
0
VERTEX
8
Layer 1
10
140.162861
20
125.255361
70
0
0
VERTEX
8
Layer 1
10
139.903000
20
124.890473
70
0
0
VERTEX
8
Layer 1
10
139.574231
20
124.756210
70
0
0
VERTEX
8
Layer 1
10
139.360047
20
124.648829
70
0
0
VERTEX
8
Layer 1
10
139.699971
20
124.227040
70
0
0
VERTEX
8
Layer 1
10
140.073696
20
123.734299
70
0
0
VERTEX
8
Layer 1
10
140.229141
20
123.292700
70
0
0
VERTEX
8
Layer 1
10
140.342763
20
122.962937
70
0
0
VERTEX
8
Layer 1
10
140.615941
20
122.739090
70
0
0
VERTEX
8
Layer 1
10
140.940595
20
122.466582
70
0
0
VERTEX
8
Layer 1
10
141.177971
20
122.019790
70
0
0
VERTEX
8
Layer 1
10
141.990663
20
120.795406
70
0
0
VERTEX
8
Layer 1
10
143.513743
20
119.153045
70
0
0
VERTEX
8
Layer 1
10
145.120010
20
117.710919
70
0
0
VERTEX
8
Layer 1
10
146.182261
20
117.087240
70
0
0
VERTEX
8
Layer 1
10
147.249546
20
116.866738
70
0
0
VERTEX
8
Layer 1
10
148.966313
20
116.301359
70
0
0
VERTEX
8
Layer 1
10
153.056281
20
114.602930
70
0
0
VERTEX
8
Layer 1
10
154.963321
20
113.578783
70
0
0
VERTEX
8
Layer 1
10
156.424138
20
112.532465
70
0
0
VERTEX
8
Layer 1
10
157.437142
20
111.469052
70
0
0
VERTEX
8
Layer 1
10
158.000742
20
110.393616
70
0
0
VERTEX
8
Layer 1
10
158.113350
20
109.311232
70
0
0
VERTEX
8
Layer 1
10
157.773374
20
108.226974
70
0
0
VERTEX
8
Layer 1
10
156.979224
20
107.145915
70
0
0
VERTEX
8
Layer 1
10
155.729311
20
106.073130
70
0
0
VERTEX
8
Layer 1
10
155.129400
20
105.439529
70
0
0
VERTEX
8
Layer 1
10
154.965622
20
104.688527
70
0
0
VERTEX
8
Layer 1
10
155.240941
20
103.775897
70
0
0
VERTEX
8
Layer 1
10
155.958321
20
102.657410
70
0
0
VERTEX
8
Layer 1
10
157.309471
20
101.137880
70
0
0
VERTEX
8
Layer 1
10
158.421885
20
99.798001
70
0
0
VERTEX
8
Layer 1
10
159.279141
20
98.398430
70
0
0
VERTEX
8
Layer 1
10
160.181560
20
96.936447
70
0
0
VERTEX
8
Layer 1
10
161.675781
20
94.949750
70
0
0
VERTEX
8
Layer 1
10
162.871621
20
93.031530
70
0
0
VERTEX
8
Layer 1
10
163.527441
20
91.947880
70
0
0
VERTEX
8
Layer 1
10
164.149131
20
90.785360
70
0
0
VERTEX
8
Layer 1
10
164.593101
20
89.622850
70
0
0
VERTEX
8
Layer 1
10
166.111631
20
90.358440
70
0
0
VERTEX
8
Layer 1
10
168.902579
20
91.424489
70
0
0
VERTEX
8
Layer 1
10
171.876938
20
92.060262
70
0
0
VERTEX
8
Layer 1
10
174.807096
20
92.234535
70
0
0
VERTEX
8
Layer 1
10
177.465441
20
91.916080
70
0
0
VERTEX
8
Layer 1
10
180.690541
20
90.934579
70
0
0
VERTEX
8
Layer 1
10
182.048969
20
90.322154
70
0
0
VERTEX
8
Layer 1
10
183.266950
20
89.609355
70
0
0
VERTEX
8
Layer 1
10
184.366209
20
88.781741
70
0
0
VERTEX
8
Layer 1
10
185.368472
20
87.824868
70
0
0
VERTEX
8
Layer 1
10
187.168911
20
85.465580
70
0
0
VERTEX
8
Layer 1
10
188.095680
20
83.845328
70
0
0
VERTEX
8
Layer 1
10
188.667635
20
82.357251
70
0
0
VERTEX
8
Layer 1
10
188.958225
20
80.736621
70
0
0
VERTEX
8
Layer 1
10
189.040901
20
78.718710
70
0
0
VERTEX
8
Layer 1
10
188.937405
20
76.221217
70
0
0
VERTEX
8
Layer 1
10
188.741045
20
75.531827
70
0
0
VERTEX
8
Layer 1
10
188.391731
20
74.882250
70
0
0
VERTEX
8
Layer 1
10
187.043782
20
73.100393
70
0
0
VERTEX
8
Layer 1
10
186.368332
20
72.502393
70
0
0
VERTEX
8
Layer 1
10
185.696979
20
72.101967
70
0
0
VERTEX
8
Layer 1
10
185.033533
20
71.900835
70
0
0
VERTEX
8
Layer 1
10
184.381806
20
71.900713
70
0
0
VERTEX
8
Layer 1
10
183.745609
20
72.103319
70
0
0
VERTEX
8
Layer 1
10
183.128751
20
72.510370
70
0
0
VERTEX
8
Layer 1
10
182.439114
20
73.362680
70
0
0
VERTEX
8
Layer 1
10
182.033021
20
74.693190
70
0
0
VERTEX
8
Layer 1
10
181.612947
20
76.444459
70
0
0
VERTEX
8
Layer 1
10
181.085966
20
77.966788
70
0
0
VERTEX
8
Layer 1
10
180.445366
20
79.268203
70
0
0
VERTEX
8
Layer 1
10
179.684437
20
80.356731
70
0
0
VERTEX
8
Layer 1
10
178.796468
20
81.240399
70
0
0
VERTEX
8
Layer 1
10
177.774748
20
81.927234
70
0
0
VERTEX
8
Layer 1
10
176.612566
20
82.425262
70
0
0
VERTEX
8
Layer 1
10
175.303211
20
82.742510
70
0
0
VERTEX
8
Layer 1
10
173.220551
20
82.843978
70
0
0
VERTEX
8
Layer 1
10
171.325409
20
82.476620
70
0
0
VERTEX
8
Layer 1
10
169.766419
20
81.690087
70
0
0
VERTEX
8
Layer 1
10
169.159432
20
81.155145
70
0
0
VERTEX
8
Layer 1
10
168.692221
20
80.534030
70
0
0
VERTEX
8
Layer 1
10
168.343899
20
79.452919
70
0
0
VERTEX
8
Layer 1
10
168.269984
20
78.027664
70
0
0
VERTEX
8
Layer 1
10
168.460769
20
76.503204
70
0
0
VERTEX
8
Layer 1
10
168.906551
20
75.124480
70
0
0
VERTEX
8
Layer 1
10
169.977151
20
73.284996
70
0
0
VERTEX
8
Layer 1
10
171.642362
20
71.096200
70
0
0
VERTEX
8
Layer 1
10
173.915300
20
68.542296
70
0
0
VERTEX
8
Layer 1
10
176.809081
20
65.607490
70
0
0
VERTEX
8
Layer 1
10
179.707605
20
62.700104
70
0
0
VERTEX
8
Layer 1
10
181.727389
20
60.425490
70
0
0
VERTEX
8
Layer 1
10
183.243445
20
58.318981
70
0
0
VERTEX
8
Layer 1
10
184.630791
20
55.915910
70
0
0
VERTEX
8
Layer 1
10
185.764297
20
53.512294
70
0
0
VERTEX
8
Layer 1
10
186.514419
20
51.182635
70
0
0
VERTEX
8
Layer 1
10
186.929661
20
48.727779
70
0
0
VERTEX
8
Layer 1
10
187.058531
20
45.948570
70
0
0
VERTEX
8
Layer 1
10
186.944540
20
43.577498
70
0
0
VERTEX
8
Layer 1
10
186.599032
20
41.354987
70
0
0
VERTEX
8
Layer 1
10
186.021202
20
39.279430
70
0
0
VERTEX
8
Layer 1
10
185.210249
20
37.349220
70
0
0
VERTEX
8
Layer 1
10
184.165367
20
35.562749
70
0
0
VERTEX
8
Layer 1
10
182.885754
20
33.918411
70
0
0
VERTEX
8
Layer 1
10
181.370607
20
32.414597
70
0
0
VERTEX
8
Layer 1
10
179.619121
20
31.049700
70
0
0
VERTEX
8
Layer 1
10
177.837011
20
29.961602
70
0
0
VERTEX
8
Layer 1
10
176.107525
20
29.238499
70
0
0
VERTEX
8
Layer 1
10
174.292979
20
28.836686
70
0
0
VERTEX
8
Layer 1
10
172.255691
20
28.712460
70
0
0
VERTEX
8
Layer 1
10
170.087606
20
28.794045
70
0
0
VERTEX
8
Layer 1
10
168.244042
20
29.099192
70
0
0
VERTEX
8
Layer 1
10
166.359702
20
29.718488
70
0
0
VERTEX
8
Layer 1
10
164.069291
20
30.742520
70
0
0
VERTEX
8
Layer 1
10
161.201260
20
32.313185
70
0
0
VERTEX
8
Layer 1
10
160.140503
20
33.167750
70
0
0
VERTEX
8
Layer 1
10
158.909911
20
34.362200
70
0
0
VERTEX
8
Layer 1
10
157.616044
20
35.750134
70
0
0
VERTEX
8
Layer 1
10
156.643980
20
37.041080
70
0
0
VERTEX
8
Layer 1
10
155.783259
20
38.557401
70
0
0
VERTEX
8
Layer 1
10
154.823421
20
40.621460
70
0
0
VERTEX
8
Layer 1
10
154.455739
20
41.670209
70
0
0
VERTEX
8
Layer 1
10
154.209502
20
42.835021
70
0
0
VERTEX
8
Layer 1
10
154.072544
20
45.289202
70
0
0
VERTEX
8
Layer 1
10
154.394911
20
47.536748
70
0
0
VERTEX
8
Layer 1
10
154.722832
20
48.443264
70
0
0
VERTEX
8
Layer 1
10
155.158971
20
49.130400
70
0
0
VERTEX
8
Layer 1
10
155.809063
20
49.743497
70
0
0
VERTEX
8
Layer 1
10
156.560042
20
50.238124
70
0
0
VERTEX
8
Layer 1
10
158.209405
20
50.841254
70
0
0
VERTEX
8
Layer 1
10
159.030160
20
50.934401
70
0
0
VERTEX
8
Layer 1
10
159.796546
20
50.878365
70
0
0
VERTEX
8
Layer 1
10
160.469748
20
50.665467
70
0
0
VERTEX
8
Layer 1
10
161.010951
20
50.288030
70
0
0
VERTEX
8
Layer 1
10
161.472327
20
49.728680
70
0
0
VERTEX
8
Layer 1
10
161.669621
20
49.295840
70
0
0
VERTEX
8
Layer 1
10
162.176860
20
46.408939
70
0
0
VERTEX
8
Layer 1
10
162.626154
20
44.877255
70
0
0
VERTEX
8
Layer 1
10
163.077871
20
43.787470
70
0
0
VERTEX
8
Layer 1
10
163.884497
20
42.616831
70
0
0
VERTEX
8
Layer 1
10
164.890957
20
41.573127
70
0
0
VERTEX
8
Layer 1
10
166.063525
20
40.672623
70
0
0
VERTEX
8
Layer 1
10
167.368476
20
39.931585
70
0
0
VERTEX
8
Layer 1
10
168.772084
20
39.366280
70
0
0
VERTEX
8
Layer 1
10
170.240622
20
38.992973
70
0
0
VERTEX
8
Layer 1
10
171.740367
20
38.827931
70
0
0
VERTEX
8
Layer 1
10
173.237591
20
38.887420
70
0
0
VERTEX
8
Layer 1
10
175.183166
20
39.330421
70
0
0
VERTEX
8
Layer 1
10
176.699392
20
40.161251
70
0
0
VERTEX
8
Layer 1
10
177.825351
20
41.410681
70
0
0
VERTEX
8
Layer 1
10
178.600121
20
43.109480
70
0
0
VERTEX
8
Layer 1
10
178.789550
20
44.380547
70
0
0
VERTEX
8
Layer 1
10
178.785076
20
46.057571
70
0
0
VERTEX
8
Layer 1
10
178.609309
20
47.721450
70
0
0
VERTEX
8
Layer 1
10
178.284861
20
48.953080
70
0
0
VERTEX
8
Layer 1
10
177.504524
20
50.452859
70
0
0
VERTEX
8
Layer 1
10
176.462387
20
52.116565
70
0
0
VERTEX
8
Layer 1
10
174.166881
20
55.081300
70
0
0
VERTEX
8
Layer 1
10
169.603734
20
59.470737
70
0
0
VERTEX
8
Layer 1
10
165.088811
20
63.508350
70
0
0
VERTEX
8
Layer 1
10
164.231531
20
64.570131
70
0
0
VERTEX
8
Layer 1
10
162.993197
20
66.439876
70
0
0
VERTEX
8
Layer 1
10
161.879418
20
68.313021
70
0
0
VERTEX
8
Layer 1
10
161.395801
20
69.385000
70
0
0
VERTEX
8
Layer 1
10
160.333431
20
71.253490
70
0
0
VERTEX
8
Layer 1
10
159.409390
20
72.928845
70
0
0
VERTEX
8
Layer 1
10
158.928664
20
74.742419
70
0
0
VERTEX
8
Layer 1
10
158.834340
20
77.107780
70
0
0
VERTEX
8
Layer 1
10
159.069511
20
80.438500
70
0
0
VERTEX
8
Layer 1
10
158.931428
20
81.186435
70
0
0
VERTEX
8
Layer 1
10
158.498436
20
82.132483
70
0
0
VERTEX
8
Layer 1
10
157.906444
20
83.031929
70
0
0
VERTEX
8
Layer 1
10
157.291361
20
83.640060
70
0
0
VERTEX
8
Layer 1
10
156.798021
20
84.146264
70
0
0
VERTEX
8
Layer 1
10
156.633301
20
84.802160
70
0
0
VERTEX
8
Layer 1
10
156.517641
20
85.414365
70
0
0
VERTEX
8
Layer 1
10
156.239561
20
85.859860
70
0
0
VERTEX
8
Layer 1
10
155.878488
20
85.997370
70
0
0
VERTEX
8
Layer 1
10
155.661724
20
85.676461
70
0
0
VERTEX
8
Layer 1
10
155.642561
20
83.588760
70
0
0
VERTEX
8
Layer 1
10
155.673972
20
82.224388
70
0
0
VERTEX
8
Layer 1
10
155.536935
20
80.994352
70
0
0
VERTEX
8
Layer 1
10
155.229511
20
79.895548
70
0
0
VERTEX
8
Layer 1
10
154.749764
20
78.924873
70
0
0
VERTEX
8
Layer 1
10
154.095754
20
78.079221
70
0
0
VERTEX
8
Layer 1
10
153.265546
20
77.355489
70
0
0
VERTEX
8
Layer 1
10
152.257200
20
76.750574
70
0
0
VERTEX
8
Layer 1
10
151.068781
20
76.261370
70
0
0
VERTEX
8
Layer 1
10
149.985302
20
76.001560
70
0
0
VERTEX
8
Layer 1
10
149.225171
20
76.205070
70
0
0
VERTEX
8
Layer 1
10
148.474339
20
76.699473
70
0
0
VERTEX
8
Layer 1
10
147.946497
20
77.335295
70
0
0
VERTEX
8
Layer 1
10
147.585105
20
78.208484
70
0
0
VERTEX
8
Layer 1
10
147.333621
20
79.414990
70
0
0
VERTEX
8
Layer 1
10
147.080072
20
80.669016
70
0
0
VERTEX
8
Layer 1
10
146.698087
20
81.536974
70
0
0
VERTEX
8
Layer 1
10
146.060834
20
82.210709
70
0
0
VERTEX
8
Layer 1
10
145.041481
20
82.882070
70
0
0
VERTEX
8
Layer 1
10
143.868799
20
83.397514
70
0
0
VERTEX
8
Layer 1
10
142.590831
20
83.395930
70
0
0
VERTEX
8
Layer 1
10
140.912198
20
82.998153
70
0
0
VERTEX
8
Layer 1
10
139.208063
20
82.213962
70
0
0
VERTEX
8
Layer 1
10
137.503446
20
81.068126
70
0
0
VERTEX
8
Layer 1
10
135.823366
20
79.585415
70
0
0
VERTEX
8
Layer 1
10
134.192844
20
77.790599
70
0
0
VERTEX
8
Layer 1
10
132.636901
20
75.708448
70
0
0
VERTEX
8
Layer 1
10
131.180557
20
73.363732
70
0
0
VERTEX
8
Layer 1
10
129.848831
20
70.781220
70
0
0
VERTEX
8
Layer 1
10
128.505580
20
67.487289
70
0
0
VERTEX
8
Layer 1
10
127.577530
20
64.213919
70
0
0
VERTEX
8
Layer 1
10
127.054920
20
60.916906
70
0
0
VERTEX
8
Layer 1
10
126.927991
20
57.552050
70
0
0
VERTEX
8
Layer 1
10
127.112070
20
54.678709
70
0
0
VERTEX
8
Layer 1
10
127.554406
20
52.343676
70
0
0
VERTEX
8
Layer 1
10
128.278697
20
50.461278
70
0
0
VERTEX
8
Layer 1
10
129.308641
20
48.945840
70
0
0
VERTEX
8
Layer 1
10
130.015367
20
48.278803
70
0
0
VERTEX
8
Layer 1
10
130.829392
20
47.754879
70
0
0
VERTEX
8
Layer 1
10
131.727544
20
47.377624
70
0
0
VERTEX
8
Layer 1
10
132.686651
20
47.150598
70
0
0
VERTEX
8
Layer 1
10
133.683541
20
47.077355
70
0
0
VERTEX
8
Layer 1
10
134.695043
20
47.161455
70
0
0
VERTEX
8
Layer 1
10
135.697983
20
47.406454
70
0
0
VERTEX
8
Layer 1
10
136.669191
20
47.815910
70
0
0
VERTEX
8
Layer 1
10
138.657435
20
49.173322
70
0
0
VERTEX
8
Layer 1
10
140.666637
20
51.090824
70
0
0
VERTEX
8
Layer 1
10
142.439554
20
53.288516
70
0
0
VERTEX
8
Layer 1
10
143.718941
20
55.486500
70
0
0
VERTEX
8
Layer 1
10
144.022421
20
56.422066
70
0
0
VERTEX
8
Layer 1
10
143.869531
20
56.691421
70
0
0
VERTEX
8
Layer 1
10
143.484821
20
57.016210
70
0
0
VERTEX
8
Layer 1
10
143.028005
20
57.296276
70
0
0
VERTEX
8
Layer 1
10
142.407450
20
57.458655
70
0
0
VERTEX
8
Layer 1
10
139.849541
20
57.552050
70
0
0
VERTEX
8
Layer 1
10
137.181891
20
57.657754
70
0
0
VERTEX
8
Layer 1
10
136.486975
20
57.866360
70
0
0
VERTEX
8
Layer 1
10
135.824041
20
58.246780
70
0
0
VERTEX
8
Layer 1
10
135.146441
20
58.808853
70
0
0
VERTEX
8
Layer 1
10
134.632339
20
59.489555
70
0
0
VERTEX
8
Layer 1
10
134.285348
20
60.255381
70
0
0
VERTEX
8
Layer 1
10
134.109079
20
61.072828
70
0
0
VERTEX
8
Layer 1
10
134.107144
20
61.908392
70
0
0
VERTEX
8
Layer 1
10
134.283157
20
62.728569
70
0
0
VERTEX
8
Layer 1
10
134.640728
20
63.499856
70
0
0
VERTEX
8
Layer 1
10
135.183471
20
64.188750
70
0
0
VERTEX
8
Layer 1
10
136.231178
20
64.928486
70
0
0
VERTEX
8
Layer 1
10
137.776526
20
65.430398
70
0
0
VERTEX
8
Layer 1
10
140.047439
20
65.743140
70
0
0
VERTEX
8
Layer 1
10
143.271841
20
65.915370
70
0
0
VERTEX
8
Layer 1
10
150.300837
20
66.059810
70
0
0
VERTEX
8
Layer 1
10
154.699921
20
65.901110
70
0
0
VERTEX
8
Layer 1
10
156.161371
20
65.683121
70
0
0
VERTEX
8
Layer 1
10
157.263095
20
65.359392
70
0
0
VERTEX
8
Layer 1
10
158.104341
20
64.919940
70
0
0
VERTEX
8
Layer 1
10
158.784361
20
64.354780
70
0
0
VERTEX
8
Layer 1
10
159.317034
20
63.668769
70
0
0
VERTEX
8
Layer 1
10
159.630174
20
62.916359
70
0
0
VERTEX
8
Layer 1
10
159.730850
20
62.125102
70
0
0
VERTEX
8
Layer 1
10
159.626134
20
61.322550
70
0
0
VERTEX
8
Layer 1
10
159.323096
20
60.536254
70
0
0
VERTEX
8
Layer 1
10
158.828807
20
59.793766
70
0
0
VERTEX
8
Layer 1
10
158.150338
20
59.122637
70
0
0
VERTEX
8
Layer 1
10
157.294761
20
58.550420
70
0
0
VERTEX
8
Layer 1
10
156.158767
20
58.039098
70
0
0
VERTEX
8
Layer 1
10
155.285251
20
57.822810
70
0
0
VERTEX
8
Layer 1
10
154.572917
20
57.648345
70
0
0
VERTEX
8
Layer 1
10
154.026284
20
57.105044
70
0
0
VERTEX
8
Layer 1
10
153.612044
20
56.140548
70
0
0
VERTEX
8
Layer 1
10
153.296891
20
54.702500
70
0
0
VERTEX
8
Layer 1
10
152.708131
20
51.466630
70
0
0
VERTEX
8
Layer 1
10
152.394497
20
47.937175
70
0
0
VERTEX
8
Layer 1
10
152.137497
20
42.005881
70
0
0
VERTEX
8
Layer 1
10
152.019489
20
36.241337
70
0
0
VERTEX
8
Layer 1
10
152.122831
20
33.212130
70
0
0
VERTEX
8
Layer 1
10
152.390869
20
31.834774
70
0
0
VERTEX
8
Layer 1
10
152.422824
20
30.369798
70
0
0
VERTEX
8
Layer 1
10
152.240383
20
28.882619
70
0
0
VERTEX
8
Layer 1
10
151.865232
20
27.438659
70
0
0
VERTEX
8
Layer 1
10
151.319057
20
26.103335
70
0
0
VERTEX
8
Layer 1
10
150.623545
20
24.942068
70
0
0
VERTEX
8
Layer 1
10
149.800381
20
24.020276
70
0
0
VERTEX
8
Layer 1
10
148.871251
20
23.403380
70
0
0
VERTEX
8
Layer 1
10
147.161311
20
22.897440
70
0
0
VERTEX
8
Layer 1
10
146.446032
20
23.014673
70
0
0
VERTEX
8
Layer 1
10
145.698275
20
23.356276
70
0
0
VERTEX
8
Layer 1
10
144.977471
20
23.886859
70
0
0
VERTEX
8
Layer 1
10
144.343051
20
24.571030
70
0
0
VERTEX
8
Layer 1
10
143.660457
20
25.803921
70
0
0
VERTEX
8
Layer 1
10
143.302091
20
27.585983
70
0
0
VERTEX
8
Layer 1
10
143.219148
20
30.428705
70
0
0
VERTEX
8
Layer 1
10
143.362821
20
34.843580
70
0
0
VERTEX
8
Layer 1
10
143.526976
20
40.072100
70
0
0
VERTEX
8
Layer 1
10
143.467879
20
41.173145
70
0
0
VERTEX
8
Layer 1
10
143.312021
20
41.618000
70
0
0
VERTEX
8
Layer 1
10
142.983203
20
41.706743
70
0
0
VERTEX
8
Layer 1
10
142.296556
20
41.515495
70
0
0
VERTEX
8
Layer 1
10
139.165611
20
40.031190
70
0
0
VERTEX
8
Layer 1
10
135.358411
20
38.105180
70
0
0
VERTEX
8
Layer 1
10
131.774521
20
38.105180
70
0
0
VERTEX
8
Layer 1
10
128.511921
20
38.211530
70
0
0
VERTEX
8
Layer 1
10
127.611917
20
38.420405
70
0
0
VERTEX
8
Layer 1
10
126.707621
20
38.800580
70
0
0
VERTEX
8
Layer 1
10
125.408839
20
39.564453
70
0
0
VERTEX
8
Layer 1
10
123.948657
20
40.683053
70
0
0
VERTEX
8
Layer 1
10
122.450603
20
42.052485
70
0
0
VERTEX
8
Layer 1
10
121.038201
20
43.568860
70
0
0
VERTEX
8
Layer 1
10
119.947576
20
45.086890
70
0
0
VERTEX
8
Layer 1
10
118.956252
20
46.937983
70
0
0
VERTEX
8
Layer 1
10
118.115253
20
49.012811
70
0
0
VERTEX
8
Layer 1
10
117.475601
20
51.202050
70
0
0
VERTEX
8
Layer 1
10
116.987246
20
54.301335
70
0
0
VERTEX
8
Layer 1
10
116.810896
20
57.855394
70
0
0
VERTEX
8
Layer 1
10
116.948924
20
61.423146
70
0
0
VERTEX
8
Layer 1
10
117.403701
20
64.563510
70
0
0
VERTEX
8
Layer 1
10
118.372629
20
68.519755
70
0
0
VERTEX
8
Layer 1
10
119.187341
20
70.913510
70
0
0
VERTEX
8
Layer 1
10
119.964821
20
72.899340
70
0
0
VERTEX
8
Layer 1
10
121.274982
20
75.645255
70
0
0
VERTEX
8
Layer 1
10
123.359971
20
79.015396
70
0
0
VERTEX
8
Layer 1
10
125.748710
20
82.308169
70
0
0
VERTEX
8
Layer 1
10
127.970121
20
84.821980
70
0
0
VERTEX
8
Layer 1
10
129.926776
20
86.578366
70
0
0
VERTEX
8
Layer 1
10
131.948060
20
88.195089
70
0
0
VERTEX
8
Layer 1
10
133.878411
20
89.554972
70
0
0
VERTEX
8
Layer 1
10
135.562271
20
90.540840
70
0
0
VERTEX
8
Layer 1
10
138.354402
20
91.689044
70
0
0
VERTEX
8
Layer 1
10
141.204396
20
92.412023
70
0
0
VERTEX
8
Layer 1
10
143.829952
20
92.659730
70
0
0
VERTEX
8
Layer 1
10
144.970348
20
92.589717
70
0
0
VERTEX
8
Layer 1
10
145.948771
20
92.382120
70
0
0
VERTEX
8
Layer 1
10
149.389331
20
91.300460
70
0
0
VERTEX
8
Layer 1
10
151.272282
20
90.779883
70
0
0
VERTEX
8
Layer 1
10
152.364859
20
90.652163
70
0
0
VERTEX
8
Layer 1
10
152.616657
20
90.735810
70
0
0
VERTEX
8
Layer 1
10
152.673141
20
90.917895
70
0
0
VERTEX
8
Layer 1
10
152.203211
20
91.577680
70
0
0
VERTEX
8
Layer 1
10
151.475611
20
92.500150
70
0
0
VERTEX
8
Layer 1
10
149.952571
20
94.574210
70
0
0
VERTEX
8
Layer 1
10
148.695801
20
96.437880
70
0
0
VERTEX
8
Layer 1
10
148.543499
20
96.992144
70
0
0
VERTEX
8
Layer 1
10
148.184385
20
97.693874
70
0
0
VERTEX
8
Layer 1
10
147.765149
20
98.297127
70
0
0
VERTEX
8
Layer 1
10
147.432481
20
98.555960
70
0
0
VERTEX
8
Layer 1
10
147.127186
20
98.735588
70
0
0
VERTEX
8
Layer 1
10
146.866801
20
99.157780
70
0
0
VERTEX
8
Layer 1
10
145.802471
20
100.679140
70
0
0
VERTEX
8
Layer 1
10
144.174171
20
102.727420
70
0
0
VERTEX
8
Layer 1
10
143.411732
20
103.575511
70
0
0
VERTEX
8
Layer 1
10
142.693101
20
104.022510
70
0
0
VERTEX
8
Layer 1
10
138.404791
20
103.970910
70
0
0
VERTEX
8
Layer 1
10
129.248931
20
103.719550
70
0
0
VERTEX
8
Layer 1
10
121.579250
20
103.887896
70
0
0
VERTEX
8
Layer 1
10
108.346841
20
104.779160
70
0
0
VERTEX
8
Layer 1
10
99.268830
20
105.444830
70
0
0
VERTEX
8
Layer 1
10
93.315705
20
106.085100
70
0
0
VERTEX
8
Layer 1
10
87.695358
20
106.882248
70
0
0
VERTEX
8
Layer 1
10
83.684528
20
107.230313
70
0
0
VERTEX
8
Layer 1
10
81.160153
20
107.134036
70
0
0
VERTEX
8
Layer 1
10
80.416928
20
106.920752
70
0
0
VERTEX
8
Layer 1
10
79.999168
20
106.598160
70
0
0
VERTEX
8
Layer 1
10
78.405924
20
104.596470
70
0
0
VERTEX
8
Layer 1
10
77.706468
20
103.507119
70
0
0
VERTEX
8
Layer 1
10
77.553421
20
101.953090
70
0
0
VERTEX
8
Layer 1
10
77.468210
20
100.255323
70
0
0
VERTEX
8
Layer 1
10
77.225268
20
98.813761
70
0
0
VERTEX
8
Layer 1
10
76.790685
20
97.490011
70
0
0
VERTEX
8
Layer 1
10
76.130554
20
96.145680
70
0
0
VERTEX
8
Layer 1
10
75.298196
20
94.790331
70
0
0
VERTEX
8
Layer 1
10
74.533274
20
93.898534
70
0
0
VERTEX
8
Layer 1
10
73.699505
20
93.347272
70
0
0
VERTEX
8
Layer 1
10
72.660608
20
93.013530
70
0
0
VERTEX
8
Layer 1
10
70.832469
20
92.436500
70
0
0
VERTEX
8
Layer 1
10
70.434813
20
92.151756
70
0
0
VERTEX
8
Layer 1
10
70.799849
20
91.884180
70
0
0
VERTEX
8
Layer 1
10
72.557076
20
90.735996
70
0
0
VERTEX
8
Layer 1
10
73.671860
20
89.424560
70
0
0
VERTEX
8
Layer 1
10
74.352657
20
87.888616
70
0
0
VERTEX
8
Layer 1
10
74.699747
20
85.722876
70
0
0
VERTEX
8
Layer 1
10
74.765524
20
82.206193
70
0
0
VERTEX
8
Layer 1
10
74.602387
20
76.617420
70
0
0
VERTEX
8
Layer 1
10
74.414414
20
67.550065
70
0
0
VERTEX
8
Layer 1
10
74.472836
20
57.105650
70
0
0
VERTEX
8
Layer 1
10
74.561182
20
49.442951
70
0
0
VERTEX
8
Layer 1
10
74.378826
20
45.231101
70
0
0
VERTEX
8
Layer 1
10
74.130961
20
43.987446
70
0
0
VERTEX
8
Layer 1
10
73.749213
20
43.088345
70
0
0
VERTEX
8
Layer 1
10
73.211511
20
42.361080
70
0
0
VERTEX
8
Layer 1
10
72.495787
20
41.632930
70
0
0
VERTEX
8
Layer 1
10
71.188497
20
40.582563
70
0
0
VERTEX
8
Layer 1
10
69.763287
20
40.216120
70
0
0
VERTEX
8
Layer 1
10
68.457569
20
40.165454
70
0
0
VERTEX
8
Layer 1
10
67.402476
20
40.332370
70
0
0
VERTEX
8
Layer 1
10
66.469068
20
40.799885
70
0
0
VERTEX
8
Layer 1
10
65.622683
20
41.518021
70
0
0
VERTEX
8
Layer 1
10
64.945743
20
42.400192
70
0
0
VERTEX
8
Layer 1
10
64.520671
20
43.359810
70
0
0
VERTEX
8
Layer 1
10
64.320651
20
50.347318
70
0
0
VERTEX
8
Layer 1
10
64.267382
20
64.610641
70
0
0
VERTEX
8
Layer 1
10
64.352898
20
79.056374
70
0
0
VERTEX
8
Layer 1
10
64.569231
20
86.591110
70
0
0
VERTEX
8
Layer 1
10
64.969065
20
88.038250
70
0
0
VERTEX
8
Layer 1
10
65.729990
20
89.373606
70
0
0
VERTEX
8
Layer 1
10
66.949599
20
90.729806
70
0
0
VERTEX
8
Layer 1
10
68.725488
20
92.239480
70
0
0
VERTEX
8
Layer 1
10
68.991319
20
92.516095
70
0
0
VERTEX
8
Layer 1
10
68.972254
20
92.772606
70
0
0
VERTEX
8
Layer 1
10
67.910936
20
93.482440
70
0
0
VERTEX
8
Layer 1
10
66.202084
20
94.658906
70
0
0
VERTEX
8
Layer 1
10
64.990195
20
96.116886
70
0
0
VERTEX
8
Layer 1
10
64.268225
20
97.868065
70
0
0
VERTEX
8
Layer 1
10
64.029134
20
99.924130
70
0
0
VERTEX
8
Layer 1
10
63.920091
20
100.989946
70
0
0
VERTEX
8
Layer 1
10
63.494500
20
101.475840
70
0
0
VERTEX
8
Layer 1
10
62.946731
20
101.660731
70
0
0
VERTEX
8
Layer 1
10
62.643372
20
101.416749
70
0
0
VERTEX
8
Layer 1
10
62.544528
20
100.642942
70
0
0
VERTEX
8
Layer 1
10
62.610308
20
99.238360
70
0
0
VERTEX
8
Layer 1
10
62.643139
20
97.144128
70
0
0
VERTEX
8
Layer 1
10
62.419803
20
96.460552
70
0
0
VERTEX
8
Layer 1
10
61.964781
20
95.616160
70
0
0
VERTEX
8
Layer 1
10
61.054389
20
94.295798
70
0
0
VERTEX
8
Layer 1
10
60.009841
20
93.114350
70
0
0
VERTEX
8
Layer 1
10
56.343945
20
90.271610
70
0
0
VERTEX
8
Layer 1
10
51.811920
20
87.116840
70
0
0
VERTEX
8
Layer 1
10
47.774249
20
84.025014
70
0
0
VERTEX
8
Layer 1
10
43.896227
20
80.861660
70
0
0
VERTEX
8
Layer 1
10
42.135060
20
79.380210
70
0
0
VERTEX
8
Layer 1
10
41.102401
20
78.481482
70
0
0
VERTEX
8
Layer 1
10
40.454998
20
77.710485
70
0
0
VERTEX
8
Layer 1
10
40.171879
20
77.034610
70
0
0
VERTEX
8
Layer 1
10
40.232073
20
76.421250
70
0
0
VERTEX
8
Layer 1
10
42.252118
20
73.612650
70
0
0
VERTEX
8
Layer 1
10
46.790531
20
67.899940
70
0
0
VERTEX
8
Layer 1
10
49.851431
20
64.093960
70
0
0
VERTEX
8
Layer 1
10
51.950352
20
61.520830
70
0
0
VERTEX
8
Layer 1
10
54.719555
20
58.102978
70
0
0
VERTEX
8
Layer 1
10
57.515209
20
54.931230
70
0
0
VERTEX
8
Layer 1
10
59.595654
20
52.479425
70
0
0
VERTEX
8
Layer 1
10
61.048334
20
50.378453
70
0
0
VERTEX
8
Layer 1
10
61.941828
20
48.512354
70
0
0
VERTEX
8
Layer 1
10
62.344714
20
46.765170
70
0
0
VERTEX
8
Layer 1
10
62.352791
20
45.588130
70
0
0
VERTEX
8
Layer 1
10
62.129842
20
44.503722
70
0
0
VERTEX
8
Layer 1
10
61.687411
20
43.524244
70
0
0
VERTEX
8
Layer 1
10
61.037041
20
42.661994
70
0
0
VERTEX
8
Layer 1
10
60.190277
20
41.929270
70
0
0
VERTEX
8
Layer 1
10
59.158662
20
41.338371
70
0
0
VERTEX
8
Layer 1
10
57.953740
20
40.901595
70
0
0
VERTEX
8
Layer 1
10
56.587055
20
40.631240
70
0
0
VERTEX
8
Layer 1
10
54.170601
20
40.209570
70
0
0
VERTEX
8
Layer 1
10
53.651096
20
40.273888
70
0
0
VERTEX
8
Layer 1
10
52.988529
20
40.816210
70
0
0
VERTEX
8
Layer 1
10
50.500157
20
43.706754
70
0
0
VERTEX
8
Layer 1
10
48.013807
20
47.110140
70
0
0
VERTEX
8
Layer 1
10
43.626629
20
53.206020
70
0
0
VERTEX
8
Layer 1
10
40.162680
20
57.887960
70
0
0
VERTEX
8
Layer 1
10
36.599507
20
62.611338
70
0
0
VERTEX
8
Layer 1
10
33.497792
20
66.415620
70
0
0
VERTEX
8
Layer 1
10
32.418397
20
67.461746
70
0
0
VERTEX
8
Layer 1
10
32.154153
20
67.492640
70
0
0
VERTEX
8
Layer 1
10
31.924256
20
67.277160
70
0
0
VERTEX
8
Layer 1
10
31.585010
20
66.269004
70
0
0
VERTEX
8
Layer 1
10
31.340830
20
64.118633
70
0
0
VERTEX
8
Layer 1
10
31.084944
20
55.661610
70
0
0
VERTEX
8
Layer 1
10
31.013575
20
51.300260
70
0
0
VERTEX
8
Layer 1
10
30.866062
20
48.713645
70
0
0
VERTEX
8
Layer 1
10
30.561287
20
47.159015
70
0
0
VERTEX
8
Layer 1
10
30.018130
20
45.893620
70
0
0
VERTEX
8
Layer 1
10
29.372195
20
44.908636
70
0
0
VERTEX
8
Layer 1
10
28.483757
20
43.877614
70
0
0
VERTEX
8
Layer 1
10
27.606174
20
43.065042
70
0
0
VERTEX
8
Layer 1
10
26.992805
20
42.735410
70
0
0
VERTEX
8
Layer 1
10
26.726750
20
42.663342
70
0
0
VERTEX
8
Layer 1
10
26.494031
20
42.425506
70
0
0
VERTEX
8
Layer 1
10
26.098878
20
41.322729
70
0
0
VERTEX
8
Layer 1
10
25.747893
20
39.167482
70
0
0
VERTEX
8
Layer 1
10
25.381625
20
35.700170
70
0
0
VERTEX
8
Layer 1
10
24.746926
20
29.658420
70
0
0
VERTEX
8
Layer 1
10
24.517804
20
28.848855
70
0
0
VERTEX
8
Layer 1
10
24.213611
20
28.712500
70
0
0
VERTEX
8
Layer 1
10
23.817482
20
28.876062
70
0
0
VERTEX
8
Layer 1
10
23.534779
20
29.318800
70
0
0
VERTEX
8
Layer 1
10
23.393411
20
29.968793
70
0
0
VERTEX
8
Layer 1
10
23.421292
20
30.754120
70
0
0
VERTEX
8
Layer 1
10
23.793822
20
36.245750
70
0
0
VERTEX
8
Layer 1
10
23.895501
20
39.175092
70
0
0
VERTEX
8
Layer 1
10
23.832877
20
40.960974
70
0
0
VERTEX
8
Layer 1
10
23.588927
20
41.746166
70
0
0
VERTEX
8
Layer 1
10
23.393633
20
41.808120
70
0
0
VERTEX
8
Layer 1
10
23.146624
20
41.673440
70
0
0
VERTEX
8
Layer 1
10
22.869428
20
41.264880
70
0
0
VERTEX
8
Layer 1
10
22.754134
20
40.740010
70
0
0
VERTEX
8
Layer 1
10
22.377599
20
38.589600
70
0
0
VERTEX
8
Layer 1
10
22.065523
20
36.528531
70
0
0
VERTEX
8
Layer 1
10
21.843962
20
33.739580
70
0
0
VERTEX
8
Layer 1
10
21.379659
20
26.132810
70
0
0
VERTEX
8
Layer 1
10
21.072458
20
21.833330
70
0
0
VERTEX
8
Layer 1
10
20.188464
20
21.833330
70
0
0
VERTEX
8
Layer 1
10
19.476493
20
21.934219
70
0
0
VERTEX
8
Layer 1
10
19.435727
20
22.428640
70
0
0
VERTEX
8
Layer 1
10
19.435759
20
22.428640
70
0
0
SEQEND
8
Layer 1
0
POLYLINE
8
Layer 1
62
7
70
0
10
0.000000
20
0.000000
66
1
0
VERTEX
8
Layer 1
10
162.348700
20
79.377530
70
0
0
VERTEX
8
Layer 1
10
162.283864
20
79.639845
70
0
0
VERTEX
8
Layer 1
10
162.061178
20
79.766918
70
0
0
VERTEX
8
Layer 1
10
161.780797
20
79.739007
70
0
0
VERTEX
8
Layer 1
10
161.542880
20
79.536370
70
0
0
VERTEX
8
Layer 1
10
161.562380
20
78.857130
70
0
0
VERTEX
8
Layer 1
10
161.751011
20
78.633736
70
0
0
VERTEX
8
Layer 1
10
161.988834
20
78.675055
70
0
0
VERTEX
8
Layer 1
10
162.210005
20
78.937511
70
0
0
VERTEX
8
Layer 1
10
162.348680
20
79.377530
70
0
0
VERTEX
8
Layer 1
10
162.348700
20
79.377530
70
0
0
SEQEND
8
Layer 1
0
POLYLINE
8
Layer 1
62
7
70
0
10
0.000000
20
0.000000
66
1
0
VERTEX
8
Layer 1
10
166.952080
20
84.819780
70
0
0
VERTEX
8
Layer 1
10
166.877675
20
85.355554
70
0
0
VERTEX
8
Layer 1
10
166.687500
20
85.465620
70
0
0
VERTEX
8
Layer 1
10
166.500640
20
85.160431
70
0
0
VERTEX
8
Layer 1
10
166.422920
20
84.656260
70
0
0
VERTEX
8
Layer 1
10
166.500640
20
84.200133
70
0
0
VERTEX
8
Layer 1
10
166.687500
20
84.010420
70
0
0
VERTEX
8
Layer 1
10
166.874360
20
84.248169
70
0
0
VERTEX
8
Layer 1
10
166.952080
20
84.819780
70
0
0
VERTEX
8
Layer 1
10
166.952080
20
84.819780
70
0
0
SEQEND
8
Layer 1
0
POLYLINE
8
Layer 1
62
7
70
0
10
0.000000
20
0.000000
66
1
0
VERTEX
8
Layer 1
10
155.773440
20
86.722390
70
0
0
VERTEX
8
Layer 1
10
155.552193
20
87.190415
70
0
0
VERTEX
8
Layer 1
10
155.218485
20
87.398416
70
0
0
VERTEX
8
Layer 1
10
154.914207
20
87.318014
70
0
0
VERTEX
8
Layer 1
10
154.781250
20
86.920830
70
0
0
VERTEX
8
Layer 1
10
154.913543
20
86.523958
70
0
0
VERTEX
8
Layer 1
10
155.310420
20
86.391670
70
0
0
VERTEX
8
Layer 1
10
155.664713
20
86.488818
70
0
0
VERTEX
8
Layer 1
10
155.773440
20
86.722390
70
0
0
VERTEX
8
Layer 1
10
155.773440
20
86.722390
70
0
0
SEQEND
8
Layer 1
0
POLYLINE
8
Layer 1
62
7
70
0
10
0.000000
20
0.000000
66
1
0
VERTEX
8
Layer 1
10
148.666700
20
105.538850
70
0
0
VERTEX
8
Layer 1
10
148.802147
20
105.844732
70
0
0
VERTEX
8
Layer 1
10
148.672748
20
106.137384
70
0
0
VERTEX
8
Layer 1
10
147.565780
20
106.741550
70
0
0
VERTEX
8
Layer 1
10
146.941130
20
106.864221
70
0
0
VERTEX
8
Layer 1
10
146.689650
20
106.375020
70
0
0
VERTEX
8
Layer 1
10
146.702150
20
105.456700
70
0
0
VERTEX
8
Layer 1
10
147.064033
20
105.240013
70
0
0
VERTEX
8
Layer 1
10
147.644659
20
105.187014
70
0
0
VERTEX
8
Layer 1
10
148.245165
20
105.289383
70
0
0
VERTEX
8
Layer 1
10
148.666690
20
105.538800
70
0
0
VERTEX
8
Layer 1
10
148.666700
20
105.538850
70
0
0
SEQEND
8
Layer 1
0
POLYLINE
8
Layer 1
62
7
70
0
10
0.000000
20
0.000000
66
1
0
VERTEX
8
Layer 1
10
138.282910
20
109.195680
70
0
0
VERTEX
8
Layer 1
10
138.993920
20
109.906990
70
0
0
VERTEX
8
Layer 1
10
138.222480
20
110.871270
70
0
0
VERTEX
8
Layer 1
10
136.858646
20
112.902929
70
0
0
VERTEX
8
Layer 1
10
136.438544
20
113.758289
70
0
0
VERTEX
8
Layer 1
10
136.321680
20
114.276140
70
0
0
VERTEX
8
Layer 1
10
136.300642
20
114.528645
70
0
0
VERTEX
8
Layer 1
10
136.050422
20
114.653780
70
0
0
VERTEX
8
Layer 1
10
134.620910
20
114.562640
70
0
0
VERTEX
8
Layer 1
10
133.337020
20
114.539278
70
0
0
VERTEX
8
Layer 1
10
131.975070
20
114.795110
70
0
0
VERTEX
8
Layer 1
10
128.647917
20
115.360109
70
0
0
VERTEX
8
Layer 1
10
121.311460
20
116.036550
70
0
0
VERTEX
8
Layer 1
10
113.770830
20
116.836450
70
0
0
VERTEX
8
Layer 1
10
110.174980
20
117.201493
70
0
0
VERTEX
8
Layer 1
10
107.288540
20
117.348210
70
0
0
VERTEX
8
Layer 1
10
98.818289
20
117.650320
70
0
0
VERTEX
8
Layer 1
10
93.533276
20
117.838496
70
0
0
VERTEX
8
Layer 1
10
92.302646
20
117.754915
70
0
0
VERTEX
8
Layer 1
10
91.409955
20
117.544250
70
0
0
VERTEX
8
Layer 1
10
89.063975
20
116.954590
70
0
0
VERTEX
8
Layer 1
10
88.330555
20
116.753904
70
0
0
VERTEX
8
Layer 1
10
88.248920
20
116.632251
70
0
0
VERTEX
8
Layer 1
10
88.336371
20
116.482800
70
0
0
VERTEX
8
Layer 1
10
88.592886
20
116.067478
70
0
0
VERTEX
8
Layer 1
10
88.539128
20
115.580733
70
0
0
VERTEX
8
Layer 1
10
88.147635
20
114.953883
70
0
0
VERTEX
8
Layer 1
10
87.390949
20
114.118250
70
0
0
VERTEX
8
Layer 1
10
86.386434
20
112.970604
70
0
0
VERTEX
8
Layer 1
10
86.395753
20
112.700254
70
0
0
VERTEX
8
Layer 1
10
86.663345
20
112.441460
70
0
0
VERTEX
8
Layer 1
10
87.973958
20
111.670150
70
0
0
VERTEX
8
Layer 1
10
89.327805
20
111.307792
70
0
0
VERTEX
8
Layer 1
10
91.627404
20
110.921630
70
0
0
VERTEX
8
Layer 1
10
97.234375
20
110.340570
70
0
0
VERTEX
8
Layer 1
10
103.319790
20
109.800230
70
0
0
VERTEX
8
Layer 1
10
110.860420
20
109.107920
70
0
0
VERTEX
8
Layer 1
10
117.078120
20
108.609070
70
0
0
VERTEX
8
Layer 1
10
128.383340
20
108.452750
70
0
0
VERTEX
8
Layer 1
10
137.571890
20
108.484350
70
0
0
VERTEX
8
Layer 1
10
138.282910
20
109.195680
70
0
0
SEQEND
8
Layer 1
0
POLYLINE
8
Layer 1
62
7
70
0
10
0.000000
20
0.000000
66
1
0
VERTEX
8
Layer 1
10
74.908920
20
115.734030
70
0
0
VERTEX
8
Layer 1
10
75.406250
20
116.567270
70
0
0
VERTEX
8
Layer 1
10
75.015953
20
116.808947
70
0
0
VERTEX
8
Layer 1
10
73.988614
20
116.980799
70
0
0
VERTEX
8
Layer 1
10
70.884109
20
117.027390
70
0
0
VERTEX
8
Layer 1
10
69.129098
20
116.827810
70
0
0
VERTEX
8
Layer 1
10
68.680050
20
116.653375
70
0
0
VERTEX
8
Layer 1
10
68.398003
20
116.399180
70
0
0
VERTEX
8
Layer 1
10
68.006331
20
115.731480
70
0
0
VERTEX
8
Layer 1
10
68.463779
20
115.487715
70
0
0
VERTEX
8
Layer 1
10
69.620731
20
115.260496
70
0
0
VERTEX
8
Layer 1
10
72.593816
20
115.064860
70
0
0
VERTEX
8
Layer 1
10
74.172258
20
115.221189
70
0
0
VERTEX
8
Layer 1
10
74.586126
20
115.415800
70
0
0
VERTEX
8
Layer 1
10
74.908920
20
115.734030
70
0
0
VERTEX
8
Layer 1
10
74.908920
20
115.734030
70
0
0
SEQEND
8
Layer 1
0
POLYLINE
8
Layer 1
62
7
70
0
10
0.000000
20
0.000000
66
1
0
VERTEX
8
Layer 1
10
134.408330
20
117.464590
70
0
0
VERTEX
8
Layer 1
10
134.143750
20
117.744790
70
0
0
VERTEX
8
Layer 1
10
133.956890
20
117.777943
70
0
0
VERTEX
8
Layer 1
10
133.879170
20
117.628110
70
0
0
VERTEX
8
Layer 1
10
133.956890
20
117.430228
70
0
0
VERTEX
8
Layer 1
10
134.143750
20
117.347920
70
0
0
VERTEX
8
Layer 1
10
134.408330
20
117.464590
70
0
0
VERTEX
8
Layer 1
10
134.408330
20
117.464590
70
0
0
SEQEND
8
Layer 1
0
POLYLINE
8
Layer 1
62
7
70
0
10
0.000000
20
0.000000
66
1
0
VERTEX
8
Layer 1
10
128.847150
20
120.709150
70
0
0
VERTEX
8
Layer 1
10
128.956490
20
121.161920
70
0
0
VERTEX
8
Layer 1
10
128.938886
20
121.954441
70
0
0
VERTEX
8
Layer 1
10
128.824947
20
122.723377
70
0
0
VERTEX
8
Layer 1
10
128.645280
20
123.105390
70
0
0
VERTEX
8
Layer 1
10
127.620630
20
123.843500
70
0
0
VERTEX
8
Layer 1
10
126.536980
20
124.491340
70
0
0
VERTEX
8
Layer 1
10
126.303402
20
124.569293
70
0
0
VERTEX
8
Layer 1
10
126.206250
20
124.756250
70
0
0
VERTEX
8
Layer 1
10
125.868726
20
124.943110
70
0
0
VERTEX
8
Layer 1
10
125.057240
20
125.020830
70
0
0
VERTEX
8
Layer 1
10
124.047735
20
125.118643
70
0
0
VERTEX
8
Layer 1
10
123.134950
20
125.402435
70
0
0
VERTEX
8
Layer 1
10
122.331850
20
125.857740
70
0
0
VERTEX
8
Layer 1
10
121.651401
20
126.470090
70
0
0
VERTEX
8
Layer 1
10
121.106568
20
127.225017
70
0
0
VERTEX
8
Layer 1
10
120.710315
20
128.108052
70
0
0
VERTEX
8
Layer 1
10
120.475607
20
129.104729
70
0
0
VERTEX
8
Layer 1
10
120.415410
20
130.200580
70
0
0
VERTEX
8
Layer 1
10
120.303521
20
131.975985
70
0
0
VERTEX
8
Layer 1
10
120.070830
20
132.328869
70
0
0
VERTEX
8
Layer 1
10
119.686290
20
132.429170
70
0
0
VERTEX
8
Layer 1
10
119.430799
20
132.517196
70
0
0
VERTEX
8
Layer 1
10
119.382870
20
132.728830
70
0
0
VERTEX
8
Layer 1
10
119.276350
20
133.080243
70
0
0
VERTEX
8
Layer 1
10
118.793129
20
133.737795
70
0
0
VERTEX
8
Layer 1
10
116.562410
20
136.133330
70
0
0
VERTEX
8
Layer 1
10
115.307050
20
137.350620
70
0
0
VERTEX
8
Layer 1
10
114.231810
20
138.475100
70
0
0
VERTEX
8
Layer 1
10
113.407390
20
139.160358
70
0
0
VERTEX
8
Layer 1
10
112.238840
20
139.308330
70
0
0
VERTEX
8
Layer 1
10
111.295649
20
139.191651
70
0
0
VERTEX
8
Layer 1
10
110.346752
20
138.727091
70
0
0
VERTEX
8
Layer 1
10
109.136087
20
137.742866
70
0
0
VERTEX
8
Layer 1
10
107.407590
20
136.067190
70
0
0
VERTEX
8
Layer 1
10
106.397641
20
135.179594
70
0
0
VERTEX
8
Layer 1
10
105.729280
20
134.810420
70
0
0
VERTEX
8
Layer 1
10
105.429046
20
134.735581
70
0
0
VERTEX
8
Layer 1
10
105.304170
20
134.555660
70
0
0
VERTEX
8
Layer 1
10
104.179690
20
133.223790
70
0
0
VERTEX
8
Layer 1
10
103.073417
20
131.867064
70
0
0
VERTEX
8
Layer 1
10
101.992720
20
130.117660
70
0
0
VERTEX
8
Layer 1
10
101.276863
20
128.866111
70
0
0
VERTEX
8
Layer 1
10
100.479447
20
127.864778
70
0
0
VERTEX
8
Layer 1
10
99.296864
20
126.796278
70
0
0
VERTEX
8
Layer 1
10
97.425507
20
125.343230
70
0
0
VERTEX
8
Layer 1
10
96.917103
20
124.805730
70
0
0
VERTEX
8
Layer 1
10
96.755876
20
124.268173
70
0
0
VERTEX
8
Layer 1
10
96.940332
20
123.795531
70
0
0
VERTEX
8
Layer 1
10
97.468977
20
123.452780
70
0
0
VERTEX
8
Layer 1
10
98.763550
20
123.144687
70
0
0
VERTEX
8
Layer 1
10
100.945532
20
122.839934
70
0
0
VERTEX
8
Layer 1
10
107.900908
20
122.248620
70
0
0
VERTEX
8
Layer 1
10
114.013988
20
121.726790
70
0
0
VERTEX
8
Layer 1
10
118.957868
20
121.177180
70
0
0
VERTEX
8
Layer 1
10
125.147918
20
120.548970
70
0
0
VERTEX
8
Layer 1
10
127.390597
20
120.458195
70
0
0
VERTEX
8
Layer 1
10
128.332738
20
120.545961
70
0
0
VERTEX
8
Layer 1
10
128.847148
20
120.709150
70
0
0
VERTEX
8
Layer 1
10
128.847150
20
120.709150
70
0
0
SEQEND
8
Layer 1
0
POLYLINE
8
Layer 1
62
7
70
0
10
0.000000
20
0.000000
66
1
0
VERTEX
8
Layer 1
10
108.562430
20
127.244670
70
0
0
VERTEX
8
Layer 1
10
107.814923
20
127.762288
70
0
0
VERTEX
8
Layer 1
10
107.276127
20
128.534579
70
0
0
VERTEX
8
Layer 1
10
106.953666
20
129.545758
70
0
0
VERTEX
8
Layer 1
10
106.855160
20
130.780040
70
0
0
VERTEX
8
Layer 1
10
106.964654
20
131.921426
70
0
0
VERTEX
8
Layer 1
10
107.279060
20
132.793229
70
0
0
VERTEX
8
Layer 1
10
107.823611
20
133.440045
70
0
0
VERTEX
8
Layer 1
10
108.623540
20
133.906470
70
0
0
VERTEX
8
Layer 1
10
109.562725
20
134.169031
70
0
0
VERTEX
8
Layer 1
10
110.617866
20
134.263609
70
0
0
VERTEX
8
Layer 1
10
111.629952
20
134.188692
70
0
0
VERTEX
8
Layer 1
10
112.439970
20
133.942770
70
0
0
VERTEX
8
Layer 1
10
113.123040
20
133.420326
70
0
0
VERTEX
8
Layer 1
10
113.718821
20
132.652698
70
0
0
VERTEX
8
Layer 1
10
114.140184
20
131.780365
70
0
0
VERTEX
8
Layer 1
10
114.300000
20
130.943810
70
0
0
VERTEX
8
Layer 1
10
114.182422
20
130.066425
70
0
0
VERTEX
8
Layer 1
10
113.852691
20
129.190759
70
0
0
VERTEX
8
Layer 1
10
113.345310
20
128.386070
70
0
0
VERTEX
8
Layer 1
10
112.694780
20
127.721620
70
0
0
VERTEX
8
Layer 1
10
111.807471
20
127.247363
70
0
0
VERTEX
8
Layer 1
10
110.704396
20
126.996099
70
0
0
VERTEX
8
Layer 1
10
109.563425
20
126.988358
70
0
0
VERTEX
8
Layer 1
10
108.562430
20
127.244670
70
0
0
VERTEX
8
Layer 1
10
108.562430
20
127.244670
70
0
0
SEQEND
8
Layer 1
0
POLYLINE
8
Layer 1
62
7
70
0
10
0.000000
20
0.000000
66
1
0
VERTEX
8
Layer 1
10
91.479687
20
129.725890
70
0
0
VERTEX
8
Layer 1
10
91.151489
20
129.885301
70
0
0
VERTEX
8
Layer 1
10
91.012615
20
130.133460
70
0
0
VERTEX
8
Layer 1
10
90.943063
20
130.254139
70
0
0
VERTEX
8
Layer 1
10
90.765489
20
130.060560
70
0
0
VERTEX
8
Layer 1
10
90.613491
20
129.711123
70
0
0
VERTEX
8
Layer 1
10
90.667305
20
129.488075
70
0
0
VERTEX
8
Layer 1
10
90.915753
20
129.402818
70
0
0
VERTEX
8
Layer 1
10
91.347659
20
129.466750
70
0
0
VERTEX
8
Layer 1
10
91.736395
20
129.616658
70
0
0
VERTEX
8
Layer 1
10
91.479687
20
129.725900
70
0
0
VERTEX
8
Layer 1
10
91.479687
20
129.725890
70
0
0
SEQEND
8
Layer 1
0
POLYLINE
8
Layer 1
62
7
70
0
10
0.000000
20
0.000000
66
1
0
VERTEX
8
Layer 1
10
93.133333
20
129.915620
70
0
0
VERTEX
8
Layer 1
10
93.029349
20
130.312500
70
0
0
VERTEX
8
Layer 1
10
92.773069
20
129.915620
70
0
0
VERTEX
8
Layer 1
10
92.740793
20
129.635330
70
0
0
VERTEX
8
Layer 1
10
92.877054
20
129.518750
70
0
0
VERTEX
8
Layer 1
10
93.058051
20
129.635330
70
0
0
VERTEX
8
Layer 1
10
93.133333
20
129.915620
70
0
0
VERTEX
8
Layer 1
10
93.133333
20
129.915620
70
0
0
SEQEND
8
Layer 1
0
POLYLINE
8
Layer 1
62
7
70
0
10
0.000000
20
0.000000
66
1
0
VERTEX
8
Layer 1
10
61.034907
20
143.326690
70
0
0
VERTEX
8
Layer 1
10
60.928069
20
143.441503
70
0
0
VERTEX
8
Layer 1
10
60.875054
20
143.166840
70
0
0
VERTEX
8
Layer 1
10
60.907260
20
142.855648
70
0
0
VERTEX
8
Layer 1
10
61.014019
20
142.819570
70
0
0
VERTEX
8
Layer 1
10
61.034909
20
143.326690
70
0
0
VERTEX
8
Layer 1
10
61.034907
20
143.326690
70
0
0
SEQEND
8
Layer 1
0
POLYLINE
8
Layer 1
62
7
70
0
10
0.000000
20
0.000000
66
1
0
VERTEX
8
Layer 1
10
128.601590
20
146.784390
70
0
0
VERTEX
8
Layer 1
10
130.401991
20
149.224640
70
0
0
VERTEX
8
Layer 1
10
132.570919
20
152.647814
70
0
0
VERTEX
8
Layer 1
10
134.415507
20
155.901299
70
0
0
VERTEX
8
Layer 1
10
135.242890
20
157.832480
70
0
0
VERTEX
8
Layer 1
10
135.156443
20
158.635010
70
0
0
VERTEX
8
Layer 1
10
134.973213
20
158.828418
70
0
0
VERTEX
8
Layer 1
10
134.701214
20
158.883459
70
0
0
VERTEX
8
Layer 1
10
133.904605
20
158.579051
70
0
0
VERTEX
8
Layer 1
10
132.794020
20
157.723010
70
0
0
VERTEX
8
Layer 1
10
131.278600
20
156.544540
70
0
0
VERTEX
8
Layer 1
10
130.654741
20
156.446146
70
0
0
VERTEX
8
Layer 1
10
130.332870
20
155.852520
70
0
0
VERTEX
8
Layer 1
10
130.086726
20
155.357584
70
0
0
VERTEX
8
Layer 1
10
129.544100
20
155.436300
70
0
0
VERTEX
8
Layer 1
10
128.979711
20
155.508995
70
0
0
VERTEX
8
Layer 1
10
128.621160
20
155.019250
70
0
0
VERTEX
8
Layer 1
10
128.322920
20
153.878400
70
0
0
VERTEX
8
Layer 1
10
128.137194
20
153.413266
70
0
0
VERTEX
8
Layer 1
10
127.690670
20
152.977840
70
0
0
VERTEX
8
Layer 1
10
127.082741
20
152.706434
70
0
0
VERTEX
8
Layer 1
10
126.585670
20
153.085960
70
0
0
VERTEX
8
Layer 1
10
126.177766
20
153.405334
70
0
0
VERTEX
8
Layer 1
10
125.921067
20
153.207176
70
0
0
VERTEX
8
Layer 1
10
125.716170
20
150.892130
70
0
0
VERTEX
8
Layer 1
10
125.806775
20
148.890414
70
0
0
VERTEX
8
Layer 1
10
126.323110
20
147.337490
70
0
0
VERTEX
8
Layer 1
10
126.848524
20
146.380023
70
0
0
VERTEX
8
Layer 1
10
127.344139
20
145.983070
70
0
0
VERTEX
8
Layer 1
10
127.898860
20
146.125052
70
0
0
VERTEX
8
Layer 1
10
128.601590
20
146.784390
70
0
0
VERTEX
8
Layer 1
10
128.601590
20
146.784390
70
0
0
SEQEND
8
Layer 1
0
POLYLINE
8
Layer 1
62
7
70
0
10
0.000000
20
0.000000
66
1
0
VERTEX
8
Layer 1
10
104.602850
20
146.840490
70
0
0
VERTEX
8
Layer 1
10
104.633801
20
147.160734
70
0
0
VERTEX
8
Layer 1
10
104.498860
20
147.385270
70
0
0
VERTEX
8
Layer 1
10
104.320160
20
147.335670
70
0
0
VERTEX
8
Layer 1
10
104.245830
20
146.996870
70
0
0
VERTEX
8
Layer 1
10
104.345635
20
146.474009
70
0
0
VERTEX
8
Layer 1
10
104.602850
20
146.840490
70
0
0
VERTEX
8
Layer 1
10
104.602850
20
146.840490
70
0
0
SEQEND
8
Layer 1
0
POLYLINE
8
Layer 1
62
7
70
0
10
0.000000
20
0.000000
66
1
0
VERTEX
8
Layer 1
10
99.546770
20
150.868290
70
0
0
VERTEX
8
Layer 1
10
100.374915
20
152.874417
70
0
0
VERTEX
8
Layer 1
10
100.581970
20
154.421050
70
0
0
VERTEX
8
Layer 1
10
100.410953
20
155.738608
70
0
0
VERTEX
8
Layer 1
10
99.564265
20
156.769470
70
0
0
VERTEX
8
Layer 1
10
96.894948
20
159.625961
70
0
0
VERTEX
8
Layer 1
10
95.250000
20
161.692200
70
0
0
VERTEX
8
Layer 1
10
94.646523
20
162.530096
70
0
0
VERTEX
8
Layer 1
10
93.790551
20
163.120830
70
0
0
VERTEX
8
Layer 1
10
93.483524
20
163.412288
70
0
0
VERTEX
8
Layer 1
10
93.179091
20
164.113020
70
0
0
VERTEX
8
Layer 1
10
92.617194
20
165.156141
70
0
0
VERTEX
8
Layer 1
10
91.682002
20
166.272590
70
0
0
VERTEX
8
Layer 1
10
90.838385
20
167.191516
70
0
0
VERTEX
8
Layer 1
10
90.487500
20
167.761550
70
0
0
VERTEX
8
Layer 1
10
90.106509
20
168.399320
70
0
0
VERTEX
8
Layer 1
10
89.613374
20
169.291610
70
0
0
VERTEX
8
Layer 1
10
89.566987
20
169.365626
70
0
0
VERTEX
8
Layer 1
10
89.523587
20
169.141279
70
0
0
VERTEX
8
Layer 1
10
89.465198
20
167.970850
70
0
0
VERTEX
8
Layer 1
10
89.538852
20
166.311859
70
0
0
VERTEX
8
Layer 1
10
89.825738
20
164.619306
70
0
0
VERTEX
8
Layer 1
10
90.330758
20
162.871893
70
0
0
VERTEX
8
Layer 1
10
91.058818
20
161.048320
70
0
0
VERTEX
8
Layer 1
10
92.530605
20
157.300000
70
0
0
VERTEX
8
Layer 1
10
93.401922
20
155.051040
70
0
0
VERTEX
8
Layer 1
10
94.975653
20
151.611460
70
0
0
VERTEX
8
Layer 1
10
96.115921
20
149.226262
70
0
0
VERTEX
8
Layer 1
10
96.919317
20
147.950150
70
0
0
VERTEX
8
Layer 1
10
97.475535
20
147.611542
70
0
0
VERTEX
8
Layer 1
10
97.991829
20
148.082440
70
0
0
VERTEX
8
Layer 1
10
99.546770
20
150.868290
70
0
0
VERTEX
8
Layer 1
10
99.546770
20
150.868290
70
0
0
SEQEND
8
Layer 1
0
POLYLINE
8
Layer 1
62
7
70
0
10
0.000000
20
0.000000
66
1
0
VERTEX
8
Layer 1
10
115.427180
20
155.326330
70
0
0
VERTEX
8
Layer 1
10
115.961595
20
156.025962
70
0
0
VERTEX
8
Layer 1
10
116.112004
20
157.090443
70
0
0
VERTEX
8
Layer 1
10
115.863223
20
158.974812
70
0
0
VERTEX
8
Layer 1
10
115.200070
20
162.134110
70
0
0
VERTEX
8
Layer 1
10
114.049430
20
167.565540
70
0
0
VERTEX
8
Layer 1
10
113.820631
20
168.527403
70
0
0
VERTEX
8
Layer 1
10
113.548477
20
168.971050
70
0
0
VERTEX
8
Layer 1
10
113.212413
20
168.909392
70
0
0
VERTEX
8
Layer 1
10
112.791880
20
168.355340
70
0
0
VERTEX
8
Layer 1
10
112.073950
20
166.684850
70
0
0
VERTEX
8
Layer 1
10
111.512970
20
165.105210
70
0
0
VERTEX
8
Layer 1
10
110.790238
20
163.402430
70
0
0
VERTEX
8
Layer 1
10
110.339335
20
161.991580
70
0
0
VERTEX
8
Layer 1
10
110.129895
20
160.750718
70
0
0
VERTEX
8
Layer 1
10
110.131550
20
159.557900
70
0
0
VERTEX
8
Layer 1
10
110.235935
20
158.618310
70
0
0
VERTEX
8
Layer 1
10
110.440816
20
157.963180
70
0
0
VERTEX
8
Layer 1
10
110.863161
20
157.357355
70
0
0
VERTEX
8
Layer 1
10
111.619940
20
156.565680
70
0
0
VERTEX
8
Layer 1
10
112.977080
20
154.931350
70
0
0
VERTEX
8
Layer 1
10
113.052179
20
154.758509
70
0
0
VERTEX
8
Layer 1
10
113.256438
20
154.659333
70
0
0
VERTEX
8
Layer 1
10
113.926209
20
154.661624
70
0
0
VERTEX
8
Layer 1
10
114.733940
20
154.897523
70
0
0
VERTEX
8
Layer 1
10
115.427180
20
155.326330
70
0
0
VERTEX
8
Layer 1
10
115.427180
20
155.326330
70
0
0
SEQEND
8
Layer 1
0
POLYLINE
8
Layer 1
62
7
70
0
10
0.000000
20
0.000000
66
1
0
VERTEX
8
Layer 1
10
138.028660
20
164.757940
70
0
0
VERTEX
8
Layer 1
10
137.921805
20
164.872753
70
0
0
VERTEX
8
Layer 1
10
137.868800
20
164.598090
70
0
0
VERTEX
8
Layer 1
10
137.901021
20
164.286899
70
0
0
VERTEX
8
Layer 1
10
138.007770
20
164.250830
70
0
0
VERTEX
8
Layer 1
10
138.028670
20
164.757940
70
0
0
VERTEX
8
Layer 1
10
138.028660
20
164.757940
70
0
0
SEQEND
8
Layer 1
0
POLYLINE
8
Layer 1
62
7
70
0
10
0.000000
20
0.000000
66
1
0
VERTEX
8
Layer 1
10
141.574500
20
169.929200
70
0
0
VERTEX
8
Layer 1
10
141.948048
20
170.192639
70
0
0
VERTEX
8
Layer 1
10
142.081250
20
170.692320
70
0
0
VERTEX
8
Layer 1
10
142.081250
20
171.322920
70
0
0
VERTEX
8
Layer 1
10
141.552080
20
170.793750
70
0
0
VERTEX
8
Layer 1
10
140.749280
20
170.264580
70
0
0
VERTEX
8
Layer 1
10
140.590824
20
170.051459
70
0
0
VERTEX
8
Layer 1
10
140.595230
20
169.536980
70
0
0
VERTEX
8
Layer 1
10
140.784769
20
168.702916
70
0
0
VERTEX
8
Layer 1
10
140.949070
20
169.170740
70
0
0
VERTEX
8
Layer 1
10
141.181756
20
169.651741
70
0
0
VERTEX
8
Layer 1
10
141.574500
20
169.929200
70
0
0
VERTEX
8
Layer 1
10
141.574500
20
169.929200
70
0
0
SEQEND
8
Layer 1
0
POLYLINE
8
Layer 1
62
7
70
0
10
0.000000
20
0.000000
66
1
0
VERTEX
8
Layer 1
10
88.891954
20
171.785940
70
0
0
VERTEX
8
Layer 1
10
88.829981
20
172.693711
70
0
0
VERTEX
8
Layer 1
10
88.744332
20
172.746452
70
0
0
VERTEX
8
Layer 1
10
88.608568
20
172.569580
70
0
0
VERTEX
8
Layer 1
10
88.493540
20
172.072988
70
0
0
VERTEX
8
Layer 1
10
88.500768
20
171.391350
70
0
0
VERTEX
8
Layer 1
10
88.606937
20
170.788725
70
0
0
VERTEX
8
Layer 1
10
88.788730
20
170.529170
70
0
0
VERTEX
8
Layer 1
10
88.891954
20
171.785940
70
0
0
VERTEX
8
Layer 1
10
88.891954
20
171.785940
70
0
0
SEQEND
8
Layer 1
0
POLYLINE
8
Layer 1
62
7
70
0
10
0.000000
20
0.000000
66
1
0
VERTEX
8
Layer 1
10
87.212243
20
176.347760
70
0
0
VERTEX
8
Layer 1
10
87.059824
20
177.648760
70
0
0
VERTEX
8
Layer 1
10
86.875371
20
178.334380
70
0
0
VERTEX
8
Layer 1
10
86.547154
20
177.723550
70
0
0
VERTEX
8
Layer 1
10
86.372741
20
177.076930
70
0
0
VERTEX
8
Layer 1
10
86.393701
20
176.354166
70
0
0
VERTEX
8
Layer 1
10
86.572994
20
175.792781
70
0
0
VERTEX
8
Layer 1
10
86.873580
20
175.630300
70
0
0
VERTEX
8
Layer 1
10
87.099546
20
175.883145
70
0
0
VERTEX
8
Layer 1
10
87.212243
20
176.347760
70
0
0
VERTEX
8
Layer 1
10
87.212243
20
176.347760
70
0
0
SEQEND
8
Layer 1
0
POLYLINE
8
Layer 1
62
7
70
0
10
0.000000
20
0.000000
66
1
0
VERTEX
8
Layer 1
10
82.088515
20
26.132530
70
0
0
VERTEX
8
Layer 1
10
82.684155
20
33.475000
70
0
0
VERTEX
8
Layer 1
10
83.058819
20
38.048863
70
0
0
VERTEX
8
Layer 1
10
83.036271
20
39.684401
70
0
0
VERTEX
8
Layer 1
10
82.865111
20
40.546050
70
0
0
VERTEX
8
Layer 1
10
82.536390
20
40.796356
70
0
0
VERTEX
8
Layer 1
10
82.035270
20
40.942930
70
0
0
VERTEX
8
Layer 1
10
81.524445
20
40.841530
70
0
0
VERTEX
8
Layer 1
10
81.188232
20
40.017606
70
0
0
VERTEX
8
Layer 1
10
80.571850
20
33.974830
70
0
0
VERTEX
8
Layer 1
10
80.176934
20
29.888886
70
0
0
VERTEX
8
Layer 1
10
79.867938
20
28.012210
70
0
0
VERTEX
8
Layer 1
10
79.529779
20
27.840585
70
0
0
VERTEX
8
Layer 1
10
79.064749
20
27.854030
70
0
0
VERTEX
8
Layer 1
10
78.720666
20
27.989452
70
0
0
VERTEX
8
Layer 1
10
78.610002
20
28.695794
70
0
0
VERTEX
8
Layer 1
10
79.108679
20
35.062500
70
0
0
VERTEX
8
Layer 1
10
79.332547
20
38.268286
70
0
0
VERTEX
8
Layer 1
10
79.364807
20
40.647904
70
0
0
VERTEX
8
Layer 1
10
79.203191
20
42.271482
70
0
0
VERTEX
8
Layer 1
10
78.845434
20
43.209150
70
0
0
VERTEX
8
Layer 1
10
78.233437
20
44.509323
70
0
0
VERTEX
8
Layer 1
10
77.832791
20
46.370791
70
0
0
VERTEX
8
Layer 1
10
77.667863
20
48.616599
70
0
0
VERTEX
8
Layer 1
10
77.763020
20
51.069790
70
0
0
VERTEX
8
Layer 1
10
78.194274
20
56.361460
70
0
0
VERTEX
8
Layer 1
10
78.724470
20
61.653120
70
0
0
VERTEX
8
Layer 1
10
79.376558
20
71.686254
70
0
0
VERTEX
8
Layer 1
10
80.048192
20
88.699270
70
0
0
VERTEX
8
Layer 1
10
80.302013
20
93.488564
70
0
0
VERTEX
8
Layer 1
10
80.852538
20
96.372190
70
0
0
VERTEX
8
Layer 1
10
81.621961
20
98.610324
70
0
0
VERTEX
8
Layer 1
10
82.058758
20
99.418676
70
0
0
VERTEX
8
Layer 1
10
82.556632
20
100.046709
70
0
0
VERTEX
8
Layer 1
10
83.135346
20
100.514541
70
0
0
VERTEX
8
Layer 1
10
83.814667
20
100.842292
70
0
0
VERTEX
8
Layer 1
10
85.554185
20
101.158020
70
0
0
VERTEX
8
Layer 1
10
86.740070
20
101.159160
70
0
0
VERTEX
8
Layer 1
10
87.745720
20
100.956729
70
0
0
VERTEX
8
Layer 1
10
88.735370
20
100.496153
70
0
0
VERTEX
8
Layer 1
10
89.873257
20
99.722860
70
0
0
VERTEX
8
Layer 1
10
90.908101
20
98.487540
70
0
0
VERTEX
8
Layer 1
10
92.121612
20
96.217900
70
0
0
VERTEX
8
Layer 1
10
93.490735
20
92.963255
70
0
0
VERTEX
8
Layer 1
10
94.992417
20
88.772920
70
0
0
VERTEX
8
Layer 1
10
97.142274
20
82.697126
70
0
0
VERTEX
8
Layer 1
10
98.835080
20
78.547310
70
0
0
VERTEX
8
Layer 1
10
100.409149
20
74.599890
70
0
0
VERTEX
8
Layer 1
10
101.561699
20
71.728620
70
0
0
VERTEX
8
Layer 1
10
102.391369
20
69.722910
70
0
0
VERTEX
8
Layer 1
10
103.614831
20
66.908374
70
0
0
VERTEX
8
Layer 1
10
104.190399
20
65.889634
70
0
0
VERTEX
8
Layer 1
10
104.557659
20
65.489850
70
0
0
VERTEX
8
Layer 1
10
104.961675
20
65.671483
70
0
0
VERTEX
8
Layer 1
10
105.288989
20
66.211526
70
0
0
VERTEX
8
Layer 1
10
105.698629
20
68.329800
70
0
0
VERTEX
8
Layer 1
10
106.249309
20
72.819970
70
0
0
VERTEX
8
Layer 1
10
107.823119
20
86.513750
70
0
0
VERTEX
8
Layer 1
10
108.264559
20
89.291870
70
0
0
VERTEX
8
Layer 1
10
108.776829
20
91.516850
70
0
0
VERTEX
8
Layer 1
10
109.226902
20
93.289323
70
0
0
VERTEX
8
Layer 1
10
109.938476
20
94.820655
70
0
0
VERTEX
8
Layer 1
10
110.867959
20
96.037834
70
0
0
VERTEX
8
Layer 1
10
111.971759
20
96.867850
70
0
0
VERTEX
8
Layer 1
10
112.938083
20
97.168778
70
0
0
VERTEX
8
Layer 1
10
114.110426
20
97.219031
70
0
0
VERTEX
8
Layer 1
10
115.370089
20
97.025596
70
0
0
VERTEX
8
Layer 1
10
116.598369
20
96.595460
70
0
0
VERTEX
8
Layer 1
10
117.859343
20
95.804561
70
0
0
VERTEX
8
Layer 1
10
118.778699
20
94.547530
70
0
0
VERTEX
8
Layer 1
10
119.447905
20
93.033733
70
0
0
VERTEX
8
Layer 1
10
119.589179
20
91.121280
70
0
0
VERTEX
8
Layer 1
10
119.480615
20
89.384303
70
0
0
VERTEX
8
Layer 1
10
119.216569
20
88.040910
70
0
0
VERTEX
8
Layer 1
10
118.399179
20
84.501910
70
0
0
VERTEX
8
Layer 1
10
117.590619
20
80.041670
70
0
0
VERTEX
8
Layer 1
10
116.947949
20
75.411460
70
0
0
VERTEX
8
Layer 1
10
116.276239
20
70.384370
70
0
0
VERTEX
8
Layer 1
10
115.636103
20
64.425734
70
0
0
VERTEX
8
Layer 1
10
115.097389
20
54.509370
70
0
0
VERTEX
8
Layer 1
10
114.690323
20
47.352066
70
0
0
VERTEX
8
Layer 1
10
114.414797
20
45.625370
70
0
0
VERTEX
8
Layer 1
10
113.990119
20
44.190620
70
0
0
VERTEX
8
Layer 1
10
113.381769
20
42.896776
70
0
0
VERTEX
8
Layer 1
10
112.513540
20
41.746209
70
0
0
VERTEX
8
Layer 1
10
111.426366
20
40.783162
70
0
0
VERTEX
8
Layer 1
10
110.161179
20
40.051880
70
0
0
VERTEX
8
Layer 1
10
109.413281
20
39.674840
70
0
0
VERTEX
8
Layer 1
10
108.996894
20
39.224409
70
0
0
VERTEX
8
Layer 1
10
108.773542
20
38.431451
70
0
0
VERTEX
8
Layer 1
10
108.604749
20
37.026830
70
0
0
VERTEX
8
Layer 1
10
108.172569
20
34.731770
70
0
0
VERTEX
8
Layer 1
10
107.819194
20
34.353741
70
0
0
VERTEX
8
Layer 1
10
107.387864
20
34.275100
70
0
0
VERTEX
8
Layer 1
10
106.988461
20
34.479247
70
0
0
VERTEX
8
Layer 1
10
106.730869
20
34.949580
70
0
0
VERTEX
8
Layer 1
10
106.486510
20
35.481939
70
0
0
VERTEX
8
Layer 1
10
106.253484
20
35.097230
70
0
0
VERTEX
8
Layer 1
10
105.829679
20
31.607200
70
0
0
VERTEX
8
Layer 1
10
105.419119
20
27.345540
70
0
0
VERTEX
8
Layer 1
10
105.213982
20
26.844434
70
0
0
VERTEX
8
Layer 1
10
104.887315
20
26.516939
70
0
0
VERTEX
8
Layer 1
10
104.513701
20
26.409387
70
0
0
VERTEX
8
Layer 1
10
104.167719
20
26.568110
70
0
0
VERTEX
8
Layer 1
10
103.985005
20
27.317762
70
0
0
VERTEX
8
Layer 1
10
103.966390
20
28.815589
70
0
0
VERTEX
8
Layer 1
10
104.377879
20
32.769730
70
0
0
VERTEX
8
Layer 1
10
104.661235
20
35.042671
70
0
0
VERTEX
8
Layer 1
10
104.797869
20
37.384290
70
0
0
VERTEX
8
Layer 1
10
104.830069
20
39.774820
70
0
0
VERTEX
8
Layer 1
10
103.772969
20
41.188970
70
0
0
VERTEX
8
Layer 1
10
102.143348
20
43.914023
70
0
0
VERTEX
8
Layer 1
10
100.163359
20
47.944379
70
0
0
VERTEX
8
Layer 1
10
98.288201
20
52.290933
70
0
0
VERTEX
8
Layer 1
10
96.973070
20
55.964580
70
0
0
VERTEX
8
Layer 1
10
95.826133
20
59.063751
70
0
0
VERTEX
8
Layer 1
10
92.774501
20
66.547910
70
0
0
VERTEX
8
Layer 1
10
91.017238
20
70.639966
70
0
0
VERTEX
8
Layer 1
10
90.610728
20
71.352131
70
0
0
VERTEX
8
Layer 1
10
90.364307
20
71.492330
70
0
0
VERTEX
8
Layer 1
10
89.920134
20
71.063755
70
0
0
VERTEX
8
Layer 1
10
89.617158
20
69.963189
70
0
0
VERTEX
8
Layer 1
10
89.282614
20
64.805300
70
0
0
VERTEX
8
Layer 1
10
88.987796
20
59.152035
70
0
0
VERTEX
8
Layer 1
10
88.486134
20
53.041139
70
0
0
VERTEX
8
Layer 1
10
87.898099
20
47.734841
70
0
0
VERTEX
8
Layer 1
10
87.344162
20
44.495370
70
0
0
VERTEX
8
Layer 1
10
86.742124
20
42.882846
70
0
0
VERTEX
8
Layer 1
10
85.920646
20
41.717240
70
0
0
VERTEX
8
Layer 1
10
85.220863
20
40.840556
70
0
0
VERTEX
8
Layer 1
10
84.829454
20
40.089580
70
0
0
VERTEX
8
Layer 1
10
84.274282
20
32.284370
70
0
0
VERTEX
8
Layer 1
10
83.718826
20
23.486980
70
0
0
VERTEX
8
Layer 1
10
83.462573
20
22.045135
70
0
0
VERTEX
8
Layer 1
10
83.196965
20
21.860975
70
0
0
VERTEX
8
Layer 1
10
82.717663
20
21.833050
70
0
0
VERTEX
8
Layer 1
10
81.888590
20
21.832760
70
0
0
VERTEX
8
Layer 1
10
82.088515
20
26.132530
70
0
0
SEQEND
8
Layer 1
0
POLYLINE
8
Layer 1
62
7
70
0
10
0.000000
20
0.000000
66
1
0
VERTEX
8
Layer 1
10
147.052200
20
121.091680
70
0
0
VERTEX
8
Layer 1
10
146.353570
20
121.494021
70
0
0
VERTEX
8
Layer 1
10
145.826793
20
122.096142
70
0
0
VERTEX
8
Layer 1
10
145.476121
20
122.849817
70
0
0
VERTEX
8
Layer 1
10
145.305809
20
123.706823
70
0
0
VERTEX
8
Layer 1
10
145.320108
20
124.618933
70
0
0
VERTEX
8
Layer 1
10
145.523273
20
125.537925
70
0
0
VERTEX
8
Layer 1
10
145.919556
20
126.415572
70
0
0
VERTEX
8
Layer 1
10
146.513210
20
127.203650
70
0
0
VERTEX
8
Layer 1
10
147.302787
20
127.784560
70
0
0
VERTEX
8
Layer 1
10
148.374920
20
127.931250
70
0
0
VERTEX
8
Layer 1
10
149.492429
20
127.763179
70
0
0
VERTEX
8
Layer 1
10
150.442080
20
127.031670
70
0
0
VERTEX
8
Layer 1
10
150.985165
20
126.398123
70
0
0
VERTEX
8
Layer 1
10
151.287551
20
125.743118
70
0
0
VERTEX
8
Layer 1
10
151.395097
20
124.898951
70
0
0
VERTEX
8
Layer 1
10
151.353660
20
123.697920
70
0
0
VERTEX
8
Layer 1
10
151.215459
20
122.892197
70
0
0
VERTEX
8
Layer 1
10
150.932056
20
122.204780
70
0
0
VERTEX
8
Layer 1
10
150.518985
20
121.645079
70
0
0
VERTEX
8
Layer 1
10
149.991776
20
121.222505
70
0
0
VERTEX
8
Layer 1
10
149.365962
20
120.946467
70
0
0
VERTEX
8
Layer 1
10
148.657073
20
120.826377
70
0
0
VERTEX
8
Layer 1
10
147.880642
20
120.871645
70
0
0
VERTEX
8
Layer 1
10
147.052200
20
121.091680
70
0
0
VERTEX
8
Layer 1
10
147.052200
20
121.091680
70
0
0
SEQEND
8
Layer 1
0
POLYLINE
8
Layer 1
62
7
70
0
10
0.000000
20
0.000000
66
1
0
VERTEX
8
Layer 1
10
70.555761
20
127.035700
70
0
0
VERTEX
8
Layer 1
10
69.823467
20
127.657283
70
0
0
VERTEX
8
Layer 1
10
69.302325
20
128.548140
70
0
0
VERTEX
8
Layer 1
10
69.043506
20
129.582000
70
0
0
VERTEX
8
Layer 1
10
69.098178
20
130.632590
70
0
0
VERTEX
8
Layer 1
10
69.660176
20
132.248050
70
0
0
VERTEX
8
Layer 1
10
70.069163
20
132.720103
70
0
0
VERTEX
8
Layer 1
10
70.638454
20
133.087890
70
0
0
VERTEX
8
Layer 1
10
71.834672
20
133.478607
70
0
0
VERTEX
8
Layer 1
10
72.986852
20
133.456258
70
0
0
VERTEX
8
Layer 1
10
74.030807
20
133.085825
70
0
0
VERTEX
8
Layer 1
10
74.902352
20
132.432290
70
0
0
VERTEX
8
Layer 1
10
75.537300
20
131.560637
70
0
0
VERTEX
8
Layer 1
10
75.871466
20
130.535847
70
0
0
VERTEX
8
Layer 1
10
75.840663
20
129.422904
70
0
0
VERTEX
8
Layer 1
10
75.380706
20
128.286790
70
0
0
VERTEX
8
Layer 1
10
74.445771
20
127.289972
70
0
0
VERTEX
8
Layer 1
10
73.225756
20
126.722162
70
0
0
VERTEX
8
Layer 1
10
71.876979
20
126.623894
70
0
0
VERTEX
8
Layer 1
10
70.555761
20
127.035700
70
0
0
VERTEX
8
Layer 1
10
70.555761
20
127.035700
70
0
0
SEQEND
8
Layer 1
0
POLYLINE
8
Layer 1
62
7
70
0
10
0.000000
20
0.000000
66
1
0
VERTEX
8
Layer 1
10
130.618970
20
184.235460
70
0
0
VERTEX
8
Layer 1
10
130.365402
20
184.641356
70
0
0
VERTEX
8
Layer 1
10
130.274121
20
185.416604
70
0
0
VERTEX
8
Layer 1
10
130.559370
20
189.879830
70
0
0
VERTEX
8
Layer 1
10
131.141940
20
196.686740
70
0
0
VERTEX
8
Layer 1
10
131.312590
20
198.370349
70
0
0
VERTEX
8
Layer 1
10
130.203960
20
197.636694
70
0
0
VERTEX
8
Layer 1
10
129.323805
20
197.161074
70
0
0
VERTEX
8
Layer 1
10
129.026590
20
197.125395
70
0
0
VERTEX
8
Layer 1
10
128.810589
20
197.239597
70
0
0
VERTEX
8
Layer 1
10
128.580150
20
197.963017
70
0
0
VERTEX
8
Layer 1
10
128.548330
20
199.422089
70
0
0
VERTEX
8
Layer 1
10
128.536875
20
201.113230
70
0
0
VERTEX
8
Layer 1
10
128.348689
20
202.206391
70
0
0
VERTEX
8
Layer 1
10
127.885791
20
202.982920
70
0
0
VERTEX
8
Layer 1
10
127.050200
20
203.724163
70
0
0
VERTEX
8
Layer 1
10
124.626021
20
205.811427
70
0
0
VERTEX
8
Layer 1
10
122.688984
20
207.983681
70
0
0
VERTEX
8
Layer 1
10
121.109822
20
210.409980
70
0
0
VERTEX
8
Layer 1
10
119.759270
20
213.259377
70
0
0
VERTEX
8
Layer 1
10
118.673430
20
215.905211
70
0
0
VERTEX
8
Layer 1
10
118.669430
20
221.461461
70
0
0
VERTEX
8
Layer 1
10
118.761116
20
226.261027
70
0
0
VERTEX
8
Layer 1
10
119.112820
20
229.002086
70
0
0
VERTEX
8
Layer 1
10
119.737160
20
232.145046
70
0
0
VERTEX
8
Layer 1
10
120.433377
20
234.934482
70
0
0
VERTEX
8
Layer 1
10
121.657596
20
238.234442
70
0
0
VERTEX
8
Layer 1
10
123.197403
20
241.537488
70
0
0
VERTEX
8
Layer 1
10
124.840380
20
244.336182
70
0
0
VERTEX
8
Layer 1
10
126.110171
20
246.086371
70
0
0
VERTEX
8
Layer 1
10
127.368057
20
247.562362
70
0
0
VERTEX
8
Layer 1
10
128.761885
20
248.922270
70
0
0
VERTEX
8
Layer 1
10
130.439500
20
250.324213
70
0
0
VERTEX
8
Layer 1
10
132.075986
20
251.533982
70
0
0
VERTEX
8
Layer 1
10
133.640636
20
252.477995
70
0
0
VERTEX
8
Layer 1
10
135.388933
20
253.291809
70
0
0
VERTEX
8
Layer 1
10
137.576360
20
254.110981
70
0
0
VERTEX
8
Layer 1
10
139.284611
20
254.845825
70
0
0
VERTEX
8
Layer 1
10
139.776215
20
255.235205
70
0
0
VERTEX
8
Layer 1
10
140.163640
20
255.725003
70
0
0
VERTEX
8
Layer 1
10
140.953504
20
256.627145
70
0
0
VERTEX
8
Layer 1
10
141.963407
20
257.291259
70
0
0
VERTEX
8
Layer 1
10
143.160612
20
257.701412
70
0
0
VERTEX
8
Layer 1
10
144.512380
20
257.841670
70
0
0
VERTEX
8
Layer 1
10
146.351075
20
257.614621
70
0
0
VERTEX
8
Layer 1
10
148.490125
20
256.989070
70
0
0
VERTEX
8
Layer 1
10
150.780930
20
256.048409
70
0
0
VERTEX
8
Layer 1
10
153.074894
20
254.876028
70
0
0
VERTEX
8
Layer 1
10
155.223419
20
253.555320
70
0
0
VERTEX
8
Layer 1
10
157.077909
20
252.169676
70
0
0
VERTEX
8
Layer 1
10
158.489765
20
250.802489
70
0
0
VERTEX
8
Layer 1
10
159.310390
20
249.537150
70
0
0
VERTEX
8
Layer 1
10
160.270770
20
247.945112
70
0
0
VERTEX
8
Layer 1
10
161.195361
20
246.468317
70
0
0
VERTEX
8
Layer 1
10
162.294884
20
244.257756
70
0
0
VERTEX
8
Layer 1
10
163.287642
20
241.925103
70
0
0
VERTEX
8
Layer 1
10
163.891940
20
240.082030
70
0
0
VERTEX
8
Layer 1
10
164.689440
20
236.542711
70
0
0
VERTEX
8
Layer 1
10
164.968325
20
234.454204
70
0
0
VERTEX
8
Layer 1
10
165.093633
20
231.745235
70
0
0
VERTEX
8
Layer 1
10
165.055459
20
229.031976
70
0
0
VERTEX
8
Layer 1
10
164.843900
20
226.930597
70
0
0
VERTEX
8
Layer 1
10
164.303570
20
223.292602
70
0
0
VERTEX
8
Layer 1
10
163.741412
20
219.879479
70
0
0
VERTEX
8
Layer 1
10
162.980490
20
217.033265
70
0
0
VERTEX
8
Layer 1
10
162.037100
20
214.802504
70
0
0
VERTEX
8
Layer 1
10
160.927540
20
213.235743
70
0
0
VERTEX
8
Layer 1
10
160.045555
20
212.181807
70
0
0
VERTEX
8
Layer 1
10
159.405280
20
211.167235
70
0
0
VERTEX
8
Layer 1
10
158.307398
20
209.572164
70
0
0
VERTEX
8
Layer 1
10
156.432644
20
207.413175
70
0
0
VERTEX
8
Layer 1
10
154.311543
20
205.262461
70
0
0
VERTEX
8
Layer 1
10
152.474620
20
203.692218
70
0
0
VERTEX
8
Layer 1
10
151.095039
20
202.785961
70
0
0
VERTEX
8
Layer 1
10
149.652572
20
202.036707
70
0
0
VERTEX
8
Layer 1
10
145.785340
20
200.648032
70
0
0
VERTEX
8
Layer 1
10
143.948455
20
200.263880
70
0
0
VERTEX
8
Layer 1
10
141.580486
20
200.052089
70
0
0
VERTEX
8
Layer 1
10
138.770050
20
200.016888
70
0
0
VERTEX
8
Layer 1
10
135.605760
20
200.162502
70
0
0
VERTEX
8
Layer 1
10
133.948450
20
200.178629
70
0
0
VERTEX
8
Layer 1
10
133.631767
20
199.962563
70
0
0
VERTEX
8
Layer 1
10
133.385120
20
199.518391
70
0
0
VERTEX
8
Layer 1
10
133.087107
20
197.699456
70
0
0
VERTEX
8
Layer 1
10
132.742884
20
194.050285
70
0
0
VERTEX
8
Layer 1
10
132.304280
20
186.088190
70
0
0
VERTEX
8
Layer 1
10
132.137665
20
185.183885
70
0
0
VERTEX
8
Layer 1
10
131.691030
20
184.412570
70
0
0
VERTEX
8
Layer 1
10
131.107065
20
183.871263
70
0
0
VERTEX
8
Layer 1
10
130.618890
20
184.235460
70
0
0
VERTEX
8
Layer 1
10
130.618970
20
184.235460
70
0
0
SEQEND
8
Layer 1
0
POLYLINE
8
Layer 1
62
7
70
0
10
0.000000
20
0.000000
66
1
0
VERTEX
8
Layer 1
10
143.758520
20
211.834054
70
0
0
VERTEX
8
Layer 1
10
144.994886
20
212.426287
70
0
0
VERTEX
8
Layer 1
10
146.050000
20
213.102115
70
0
0
VERTEX
8
Layer 1
10
147.013009
20
213.723244
70
0
0
VERTEX
8
Layer 1
10
148.027940
20
214.183963
70
0
0
VERTEX
8
Layer 1
10
148.844494
20
214.552408
70
0
0
VERTEX
8
Layer 1
10
149.539360
20
215.149574
70
0
0
VERTEX
8
Layer 1
10
150.244696
20
216.123774
70
0
0
VERTEX
8
Layer 1
10
151.092660
20
217.623318
70
0
0
VERTEX
8
Layer 1
10
151.949279
20
219.376958
70
0
0
VERTEX
8
Layer 1
10
152.633466
20
221.129629
70
0
0
VERTEX
8
Layer 1
10
153.701780
20
225.268615
70
0
0
VERTEX
8
Layer 1
10
154.058473
20
227.528236
70
0
0
VERTEX
8
Layer 1
10
154.213819
20
229.722182
70
0
0
VERTEX
8
Layer 1
10
154.170000
20
231.837737
70
0
0
VERTEX
8
Layer 1
10
153.929196
20
233.862184
70
0
0
VERTEX
8
Layer 1
10
153.493588
20
235.782806
70
0
0
VERTEX
8
Layer 1
10
152.865355
20
237.586885
70
0
0
VERTEX
8
Layer 1
10
152.046679
20
239.261705
70
0
0
VERTEX
8
Layer 1
10
151.039740
20
240.794548
70
0
0
VERTEX
8
Layer 1
10
149.349907
20
242.640745
70
0
0
VERTEX
8
Layer 1
10
147.517449
20
243.978596
70
0
0
VERTEX
8
Layer 1
10
145.715791
20
244.709382
70
0
0
VERTEX
8
Layer 1
10
144.880708
20
244.816277
70
0
0
VERTEX
8
Layer 1
10
144.118360
20
244.734387
70
0
0
VERTEX
8
Layer 1
10
143.471343
20
244.349639
70
0
0
VERTEX
8
Layer 1
10
143.004954
20
243.509470
70
0
0
VERTEX
8
Layer 1
10
142.686717
20
242.121671
70
0
0
VERTEX
8
Layer 1
10
142.484160
20
240.094033
70
0
0
VERTEX
8
Layer 1
10
142.327025
20
238.159355
70
0
0
VERTEX
8
Layer 1
10
142.125846
20
237.120958
70
0
0
VERTEX
8
Layer 1
10
141.805457
20
236.780060
70
0
0
VERTEX
8
Layer 1
10
141.290690
20
236.937881
70
0
0
VERTEX
8
Layer 1
10
140.834624
20
237.372945
70
0
0
VERTEX
8
Layer 1
10
140.861760
20
238.221969
70
0
0
VERTEX
8
Layer 1
10
141.190530
20
241.046392
70
0
0
VERTEX
8
Layer 1
10
141.241240
20
242.616382
70
0
0
VERTEX
8
Layer 1
10
141.135180
20
243.005619
70
0
0
VERTEX
8
Layer 1
10
140.926070
20
243.260170
70
0
0
VERTEX
8
Layer 1
10
140.528423
20
243.425251
70
0
0
VERTEX
8
Layer 1
10
140.018204
20
243.358777
70
0
0
VERTEX
8
Layer 1
10
138.677879
20
242.545700
70
0
0
VERTEX
8
Layer 1
10
136.940765
20
240.850015
70
0
0
VERTEX
8
Layer 1
10
134.842530
20
238.300800
70
0
0
VERTEX
8
Layer 1
10
133.468335
20
236.348057
70
0
0
VERTEX
8
Layer 1
10
132.382552
20
234.389811
70
0
0
VERTEX
8
Layer 1
10
131.442319
20
232.128527
70
0
0
VERTEX
8
Layer 1
10
130.504770
20
229.266669
70
0
0
VERTEX
8
Layer 1
10
129.938054
20
226.730526
70
0
0
VERTEX
8
Layer 1
10
129.713990
20
223.313544
70
0
0
VERTEX
8
Layer 1
10
129.712937
20
220.278946
70
0
0
VERTEX
8
Layer 1
10
129.906570
20
218.418752
70
0
0
VERTEX
8
Layer 1
10
130.360300
20
216.566669
70
0
0
VERTEX
8
Layer 1
10
130.946040
20
215.681187
70
0
0
VERTEX
8
Layer 1
10
132.158965
20
214.374587
70
0
0
VERTEX
8
Layer 1
10
133.534175
20
213.108917
70
0
0
VERTEX
8
Layer 1
10
134.606770
20
212.346228
70
0
0
VERTEX
8
Layer 1
10
136.180877
20
211.661260
70
0
0
VERTEX
8
Layer 1
10
137.451040
20
211.287318
70
0
0
VERTEX
8
Layer 1
10
138.840477
20
211.132695
70
0
0
VERTEX
8
Layer 1
10
140.560939
20
211.190139
70
0
0
VERTEX
8
Layer 1
10
142.303321
20
211.432856
70
0
0
VERTEX
8
Layer 1
10
143.758520
20
211.834054
70
0
0
VERTEX
8
Layer 1
10
143.758520
20
211.834054
70
0
0
SEQEND
8
Layer 1
0
POLYLINE
8
Layer 1
62
7
70
0
10
0.000000
20
0.000000
66
1
0
VERTEX
8
Layer 1
10
79.826319
20
195.333860
70
0
0
VERTEX
8
Layer 1
10
79.984507
20
199.355455
70
0
0
VERTEX
8
Layer 1
10
80.139620
20
202.639522
70
0
0
VERTEX
8
Layer 1
10
80.032164
20
203.205775
70
0
0
VERTEX
8
Layer 1
10
79.781482
20
203.456497
70
0
0
VERTEX
8
Layer 1
10
78.011291
20
204.677714
70
0
0
VERTEX
8
Layer 1
10
76.946450
20
205.988326
70
0
0
VERTEX
8
Layer 1
10
76.554903
20
206.729840
70
0
0
VERTEX
8
Layer 1
10
76.294147
20
207.582068
70
0
0
VERTEX
8
Layer 1
10
75.922378
20
210.745835
70
0
0
VERTEX
8
Layer 1
10
75.553217
20
214.979169
70
0
0
VERTEX
8
Layer 1
10
75.608881
20
215.599630
70
0
0
VERTEX
8
Layer 1
10
75.841451
20
216.162520
70
0
0
VERTEX
8
Layer 1
10
76.094676
20
216.807405
70
0
0
VERTEX
8
Layer 1
10
76.200000
20
217.625002
70
0
0
VERTEX
8
Layer 1
10
76.303811
20
218.442600
70
0
0
VERTEX
8
Layer 1
10
76.553399
20
219.087485
70
0
0
VERTEX
8
Layer 1
10
76.776435
20
219.799294
70
0
0
VERTEX
8
Layer 1
10
76.619549
20
221.064586
70
0
0
VERTEX
8
Layer 1
10
76.468166
20
222.715869
70
0
0
VERTEX
8
Layer 1
10
76.550315
20
224.620406
70
0
0
VERTEX
8
Layer 1
10
76.833353
20
226.444875
70
0
0
VERTEX
8
Layer 1
10
77.284637
20
227.855955
70
0
0
VERTEX
8
Layer 1
10
77.958734
20
229.852242
70
0
0
VERTEX
8
Layer 1
10
77.957726
20
230.643904
70
0
0
VERTEX
8
Layer 1
10
77.416447
20
231.058847
70
0
0
VERTEX
8
Layer 1
10
76.900747
20
231.450507
70
0
0
VERTEX
8
Layer 1
10
76.729170
20
231.999640
70
0
0
VERTEX
8
Layer 1
10
76.479517
20
233.394375
70
0
0
VERTEX
8
Layer 1
10
75.955332
20
238.940796
70
0
0
VERTEX
8
Layer 1
10
75.367616
20
245.167168
70
0
0
VERTEX
8
Layer 1
10
74.995163
20
247.182967
70
0
0
VERTEX
8
Layer 1
10
74.615748
20
248.154676
70
0
0
VERTEX
8
Layer 1
10
74.347920
20
248.875233
70
0
0
VERTEX
8
Layer 1
10
74.095326
20
249.393348
70
0
0
VERTEX
8
Layer 1
10
73.488024
20
250.003280
70
0
0
VERTEX
8
Layer 1
10
72.511934
20
250.801216
70
0
0
VERTEX
8
Layer 1
10
71.980462
20
251.411252
70
0
0
VERTEX
8
Layer 1
10
71.726385
20
252.112538
70
0
0
VERTEX
8
Layer 1
10
71.582476
20
253.184222
70
0
0
VERTEX
8
Layer 1
10
71.526001
20
254.812711
70
0
0
VERTEX
8
Layer 1
10
71.976446
20
255.930721
70
0
0
VERTEX
8
Layer 1
10
73.150159
20
258.623610
70
0
0
VERTEX
8
Layer 1
10
73.992747
20
261.418551
70
0
0
VERTEX
8
Layer 1
10
74.322885
20
262.169464
70
0
0
VERTEX
8
Layer 1
10
75.051181
20
262.823152
70
0
0
VERTEX
8
Layer 1
10
75.823424
20
263.537874
70
0
0
VERTEX
8
Layer 1
10
76.382025
20
264.405646
70
0
0
VERTEX
8
Layer 1
10
76.732342
20
265.132393
70
0
0
VERTEX
8
Layer 1
10
77.113047
20
265.544914
70
0
0
VERTEX
8
Layer 1
10
77.658935
20
265.730169
70
0
0
VERTEX
8
Layer 1
10
78.504801
20
265.775119
70
0
0
VERTEX
8
Layer 1
10
79.472326
20
265.906641
70
0
0
VERTEX
8
Layer 1
10
80.119619
20
266.316551
70
0
0
VERTEX
8
Layer 1
10
80.649331
20
266.695254
70
0
0
VERTEX
8
Layer 1
10
81.264195
20
266.609109
70
0
0
VERTEX
8
Layer 1
10
83.750419
20
266.270166
70
0
0
VERTEX
8
Layer 1
10
84.932092
20
266.150636
70
0
0
VERTEX
8
Layer 1
10
85.697531
20
265.912670
70
0
0
VERTEX
8
Layer 1
10
86.113249
20
265.520805
70
0
0
VERTEX
8
Layer 1
10
86.245756
20
264.939575
70
0
0
VERTEX
8
Layer 1
10
86.433913
20
264.407206
70
0
0
VERTEX
8
Layer 1
10
86.874509
20
263.748950
70
0
0
VERTEX
8
Layer 1
10
87.451475
20
262.832135
70
0
0
VERTEX
8
Layer 1
10
87.967534
20
261.678129
70
0
0
VERTEX
8
Layer 1
10
88.516420
20
260.549515
70
0
0
VERTEX
8
Layer 1
10
89.172308
20
259.693754
70
0
0
VERTEX
8
Layer 1
10
89.888662
20
258.678453
70
0
0
VERTEX
8
Layer 1
10
90.576617
20
257.024485
70
0
0
VERTEX
8
Layer 1
10
92.503012
20
252.624705
70
0
0
VERTEX
8
Layer 1
10
94.687101
20
248.616356
70
0
0
VERTEX
8
Layer 1
10
95.840325
20
246.729170
70
0
0
VERTEX
8
Layer 1
10
97.592249
20
243.818753
70
0
0
VERTEX
8
Layer 1
10
99.645114
20
240.379170
70
0
0
VERTEX
8
Layer 1
10
103.967399
20
232.972118
70
0
0
VERTEX
8
Layer 1
10
105.235740
20
231.063978
70
0
0
VERTEX
8
Layer 1
10
105.893014
20
230.378160
70
0
0
VERTEX
8
Layer 1
10
106.230269
20
230.459611
70
0
0
VERTEX
8
Layer 1
10
106.475334
20
230.766561
70
0
0
VERTEX
8
Layer 1
10
106.892244
20
237.857155
70
0
0
VERTEX
8
Layer 1
10
107.504225
20
251.118022
70
0
0
VERTEX
8
Layer 1
10
107.814166
20
254.990395
70
0
0
VERTEX
8
Layer 1
10
108.127764
20
257.039957
70
0
0
VERTEX
8
Layer 1
10
109.053883
20
259.453386
70
0
0
VERTEX
8
Layer 1
10
109.639881
20
260.408863
70
0
0
VERTEX
8
Layer 1
10
110.305499
20
261.194526
70
0
0
VERTEX
8
Layer 1
10
111.048982
20
261.808631
70
0
0
VERTEX
8
Layer 1
10
111.868575
20
262.249435
70
0
0
VERTEX
8
Layer 1
10
112.762524
20
262.515196
70
0
0
VERTEX
8
Layer 1
10
113.729074
20
262.604170
70
0
0
VERTEX
8
Layer 1
10
114.793328
20
262.491358
70
0
0
VERTEX
8
Layer 1
10
115.904725
20
262.186837
70
0
0
VERTEX
8
Layer 1
10
116.919052
20
261.741482
70
0
0
VERTEX
8
Layer 1
10
117.692094
20
261.206165
70
0
0
VERTEX
8
Layer 1
10
118.731927
20
259.795387
70
0
0
VERTEX
8
Layer 1
10
119.439213
20
257.927851
70
0
0
VERTEX
8
Layer 1
10
119.754704
20
255.833088
70
0
0
VERTEX
8
Layer 1
10
119.619154
20
253.740628
70
0
0
VERTEX
8
Layer 1
10
118.807704
20
249.507295
70
0
0
VERTEX
8
Layer 1
10
118.039409
20
244.158876
70
0
0
VERTEX
8
Layer 1
10
117.214744
20
235.484378
70
0
0
VERTEX
8
Layer 1
10
116.805794
20
226.620836
70
0
0
VERTEX
8
Layer 1
10
116.382644
20
218.551044
70
0
0
VERTEX
8
Layer 1
10
115.893754
20
212.376262
70
0
0
VERTEX
8
Layer 1
10
115.583195
20
208.764338
70
0
0
VERTEX
8
Layer 1
10
115.340340
20
207.776009
70
0
0
VERTEX
8
Layer 1
10
114.964334
20
206.891558
70
0
0
VERTEX
8
Layer 1
10
113.831546
20
205.187424
70
0
0
VERTEX
8
Layer 1
10
113.157119
20
204.572841
70
0
0
VERTEX
8
Layer 1
10
112.410730
20
204.116610
70
0
0
VERTEX
8
Layer 1
10
111.592422
20
203.818751
70
0
0
VERTEX
8
Layer 1
10
110.702239
20
203.679286
70
0
0
VERTEX
8
Layer 1
10
109.740225
20
203.698236
70
0
0
VERTEX
8
Layer 1
10
108.706424
20
203.875623
70
0
0
VERTEX
8
Layer 1
10
107.260966
20
204.429299
70
0
0
VERTEX
8
Layer 1
10
106.015245
20
205.438445
70
0
0
VERTEX
8
Layer 1
10
104.809254
20
207.075778
70
0
0
VERTEX
8
Layer 1
10
103.482984
20
209.514018
70
0
0
VERTEX
8
Layer 1
10
101.864584
20
212.961506
70
0
0
VERTEX
8
Layer 1
10
101.223113
20
214.519303
70
0
0
VERTEX
8
Layer 1
10
99.627503
20
217.591991
70
0
0
VERTEX
8
Layer 1
10
95.546668
20
224.636461
70
0
0
VERTEX
8
Layer 1
10
91.125472
20
232.189603
70
0
0
VERTEX
8
Layer 1
10
90.397868
20
233.188285
70
0
0
VERTEX
8
Layer 1
10
89.947584
20
233.917711
70
0
0
VERTEX
8
Layer 1
10
89.714812
20
234.371629
70
0
0
VERTEX
8
Layer 1
10
89.180743
20
235.012445
70
0
0
VERTEX
8
Layer 1
10
88.042805
20
235.960319
70
0
0
VERTEX
8
Layer 1
10
87.637237
20
235.907736
70
0
0
VERTEX
8
Layer 1
10
87.406169
20
235.340159
70
0
0
VERTEX
8
Layer 1
10
87.336668
20
234.183383
70
0
0
VERTEX
8
Layer 1
10
87.415798
20
232.363205
70
0
0
VERTEX
8
Layer 1
10
87.936910
20
223.334907
70
0
0
VERTEX
8
Layer 1
10
88.086738
20
215.584276
70
0
0
VERTEX
8
Layer 1
10
88.037007
20
211.106714
70
0
0
VERTEX
8
Layer 1
10
87.753811
20
208.370321
70
0
0
VERTEX
8
Layer 1
10
87.477790
20
207.436379
70
0
0
VERTEX
8
Layer 1
10
87.087153
20
206.675306
70
0
0
VERTEX
8
Layer 1
10
85.887034
20
205.321877
70
0
0
VERTEX
8
Layer 1
10
85.254334
20
204.691846
70
0
0
VERTEX
8
Layer 1
10
84.893887
20
204.149792
70
0
0
VERTEX
8
Layer 1
10
84.703957
20
203.469824
70
0
0
VERTEX
8
Layer 1
10
84.582807
20
202.426050
70
0
0
VERTEX
8
Layer 1
10
84.387593
20
201.125634
70
0
0
VERTEX
8
Layer 1
10
84.091600
20
200.305400
70
0
0
VERTEX
8
Layer 1
10
83.701693
20
199.976849
70
0
0
VERTEX
8
Layer 1
10
83.224741
20
200.151481
70
0
0
VERTEX
8
Layer 1
10
82.931958
20
200.518383
70
0
0
VERTEX
8
Layer 1
10
82.803994
20
200.922503
70
0
0
VERTEX
8
Layer 1
10
82.763635
20
201.201288
70
0
0
VERTEX
8
Layer 1
10
82.673350
20
201.206876
70
0
0
VERTEX
8
Layer 1
10
82.400671
20
200.580074
70
0
0
VERTEX
8
Layer 1
10
81.890550
20
198.045835
70
0
0
VERTEX
8
Layer 1
10
81.638836
20
196.484819
70
0
0
VERTEX
8
Layer 1
10
81.290103
20
195.598440
70
0
0
VERTEX
8
Layer 1
10
80.913372
20
195.307691
70
0
0
VERTEX
8
Layer 1
10
80.476123
20
195.154439
70
0
0
VERTEX
8
Layer 1
10
80.079918
20
195.157042
70
0
0
VERTEX
8
Layer 1
10
79.826323
20
195.333860
70
0
0
VERTEX
8
Layer 1
10
79.826319
20
195.333860
70
0
0
SEQEND
8
Layer 1
0
POLYLINE
8
Layer 1
62
7
70
0
10
0.000000
20
0.000000
66
1
0
VERTEX
8
Layer 1
10
9.525000
20
273.407990
70
0
0
VERTEX
8
Layer 1
10
9.600632
20
274.776824
70
0
0
VERTEX
8
Layer 1
10
9.796951
20
275.304171
70
0
0
VERTEX
8
Layer 1
10
9.954128
20
274.846406
70
0
0
VERTEX
8
Layer 1
10
9.893066
20
273.518233
70
0
0
VERTEX
8
Layer 1
10
9.621092
20
271.703059
70
0
0
VERTEX
8
Layer 1
10
9.524999
20
273.407990
70
0
0
VERTEX
8
Layer 1
10
9.525000
20
273.407990
70
0
0
SEQEND
8
Layer 1
 0 
ENDSEC
 0 
EOF