999
"DXF R12 Output" (www.mydxf.blogspot.com)
 0 
SECTION
 2 
HEADER
 9 
$ACADVER
 1 
AC1009
 9 
$EXTMIN
 10 
 0 
 20 
 0 
 9 
$EXTMAX
 10 
 8.5 
 20 
 11 
 0 
ENDSEC
 0 
SECTION
 2 
ENTITIES
0
POLYLINE
8
Layer 1
62
7
70
0
10
0.000000
20
0.000000
66
1
0
VERTEX
8
Layer 1
10
147.747187
20
44.212493
70
0
0
VERTEX
8
Layer 1
10
147.747187
20
43.333835
70
0
0
VERTEX
8
Layer 1
10
146.353688
20
44.185036
70
0
0
VERTEX
8
Layer 1
10
145.392659
20
44.397837
70
0
0
VERTEX
8
Layer 1
10
144.716504
20
44.270843
70
0
0
VERTEX
8
Layer 1
10
144.060944
20
43.889860
70
0
0
VERTEX
8
Layer 1
10
143.731448
20
43.543204
70
0
0
VERTEX
8
Layer 1
10
143.621615
20
43.189683
70
0
0
VERTEX
8
Layer 1
10
143.834416
20
42.674842
70
0
0
VERTEX
8
Layer 1
10
144.335525
20
42.468909
70
0
0
VERTEX
8
Layer 1
10
144.884686
20
42.729758
70
0
0
VERTEX
8
Layer 1
10
145.399523
20
42.990611
70
0
0
VERTEX
8
Layer 1
10
146.285044
20
42.619926
70
0
0
VERTEX
8
Layer 1
10
147.747187
20
41.507876
70
0
0
VERTEX
8
Layer 1
10
147.747187
20
39.386741
70
0
0
VERTEX
8
Layer 1
10
145.742747
20
39.386741
70
0
0
VERTEX
8
Layer 1
10
145.021974
20
39.187672
70
0
0
VERTEX
8
Layer 1
10
144.802310
20
38.679699
70
0
0
VERTEX
8
Layer 1
10
145.021974
20
38.171722
70
0
0
VERTEX
8
Layer 1
10
145.742747
20
37.979518
70
0
0
VERTEX
8
Layer 1
10
149.991882
20
37.979518
70
0
0
VERTEX
8
Layer 1
10
150.719520
20
38.171722
70
0
0
VERTEX
8
Layer 1
10
150.932320
20
38.686563
70
0
0
VERTEX
8
Layer 1
10
150.719520
20
39.187672
70
0
0
VERTEX
8
Layer 1
10
149.991882
20
39.386741
70
0
0
VERTEX
8
Layer 1
10
149.154409
20
39.386741
70
0
0
VERTEX
8
Layer 1
10
149.154409
20
42.805270
70
0
0
VERTEX
8
Layer 1
10
149.662386
20
42.805270
70
0
0
VERTEX
8
Layer 1
10
150.390023
20
42.997475
70
0
0
VERTEX
8
Layer 1
10
150.602823
20
43.512315
70
0
0
VERTEX
8
Layer 1
10
150.390023
20
44.013424
70
0
0
VERTEX
8
Layer 1
10
149.662386
20
44.212493
70
0
0
VERTEX
8
Layer 1
10
147.747187
20
44.212493
70
0
0
SEQEND
8
Layer 1
0
POLYLINE
8
Layer 1
62
7
70
0
10
0.000000
20
0.000000
66
1
0
VERTEX
8
Layer 1
10
135.494034
20
40.382098
70
0
0
VERTEX
8
Layer 1
10
141.267087
20
40.382098
70
0
0
VERTEX
8
Layer 1
10
140.963333
20
39.886136
70
0
0
VERTEX
8
Layer 1
10
140.491398
20
39.496573
70
0
0
VERTEX
8
Layer 1
10
139.830687
20
39.244302
70
0
0
VERTEX
8
Layer 1
10
138.974340
20
39.160212
70
0
0
VERTEX
8
Layer 1
10
136.894392
20
39.496573
70
0
0
VERTEX
8
Layer 1
10
136.153027
20
39.633865
70
0
0
VERTEX
8
Layer 1
10
135.679374
20
39.434793
70
0
0
VERTEX
8
Layer 1
10
135.487169
20
38.933684
70
0
0
VERTEX
8
Layer 1
10
135.693102
20
38.466899
70
0
0
VERTEX
8
Layer 1
10
137.031684
20
37.979518
70
0
0
VERTEX
8
Layer 1
10
139.077308
20
37.752989
70
0
0
VERTEX
8
Layer 1
10
140.597797
20
37.991531
70
0
0
VERTEX
8
Layer 1
10
141.781925
20
38.707155
70
0
0
VERTEX
8
Layer 1
10
142.538739
20
39.771154
70
0
0
VERTEX
8
Layer 1
10
142.791010
20
41.054819
70
0
0
VERTEX
8
Layer 1
10
142.518146
20
42.398547
70
0
0
VERTEX
8
Layer 1
10
142.177065
20
42.966157
70
0
0
VERTEX
8
Layer 1
10
141.699552
20
43.464263
70
0
0
VERTEX
8
Layer 1
10
140.518856
20
44.164443
70
0
0
VERTEX
8
Layer 1
10
139.173412
20
44.397837
70
0
0
VERTEX
8
Layer 1
10
138.351386
20
44.322327
70
0
0
VERTEX
8
Layer 1
10
137.601437
20
44.095797
70
0
0
VERTEX
8
Layer 1
10
136.530575
20
43.443667
70
0
0
VERTEX
8
Layer 1
10
135.713698
20
42.187461
70
0
0
VERTEX
8
Layer 1
10
135.494034
20
40.979307
70
0
0
VERTEX
8
Layer 1
10
135.494034
20
40.382098
70
0
0
SEQEND
8
Layer 1
0
POLYLINE
8
Layer 1
62
7
70
0
10
0.000000
20
0.000000
66
1
0
VERTEX
8
Layer 1
10
137.052276
20
41.789321
70
0
0
VERTEX
8
Layer 1
10
137.424676
20
42.316172
70
0
0
VERTEX
8
Layer 1
10
137.896610
20
42.688574
70
0
0
VERTEX
8
Layer 1
10
138.468082
20
42.915101
70
0
0
VERTEX
8
Layer 1
10
139.139088
20
42.990611
70
0
0
VERTEX
8
Layer 1
10
139.804946
20
42.915101
70
0
0
VERTEX
8
Layer 1
10
140.374702
20
42.688574
70
0
0
VERTEX
8
Layer 1
10
140.848352
20
42.316172
70
0
0
VERTEX
8
Layer 1
10
141.225900
20
41.789321
70
0
0
VERTEX
8
Layer 1
10
137.052276
20
41.789321
70
0
0
SEQEND
8
Layer 1
0
POLYLINE
8
Layer 1
62
7
70
0
10
0.000000
20
0.000000
66
1
0
VERTEX
8
Layer 1
10
128.402993
20
43.958508
70
0
0
VERTEX
8
Layer 1
10
127.881289
20
44.198765
70
0
0
VERTEX
8
Layer 1
10
127.387044
20
43.979100
70
0
0
VERTEX
8
Layer 1
10
127.187972
20
43.265191
70
0
0
VERTEX
8
Layer 1
10
127.187972
20
42.359077
70
0
0
VERTEX
8
Layer 1
10
127.387044
20
41.638300
70
0
0
VERTEX
8
Layer 1
10
127.895017
20
41.425504
70
0
0
VERTEX
8
Layer 1
10
128.382398
20
41.590252
70
0
0
VERTEX
8
Layer 1
10
128.608926
20
42.091361
70
0
0
VERTEX
8
Layer 1
10
128.749650
20
42.426005
70
0
0
VERTEX
8
Layer 1
10
129.007070
20
42.661114
70
0
0
VERTEX
8
Layer 1
10
129.640321
20
42.908236
70
0
0
VERTEX
8
Layer 1
10
130.428021
20
42.990611
70
0
0
VERTEX
8
Layer 1
10
131.325558
20
42.844739
70
0
0
VERTEX
8
Layer 1
10
132.027456
20
42.407126
70
0
0
VERTEX
8
Layer 1
10
132.475363
20
41.746418
70
0
0
VERTEX
8
Layer 1
10
132.624665
20
40.931259
70
0
0
VERTEX
8
Layer 1
10
132.480511
20
40.193324
70
0
0
VERTEX
8
Layer 1
10
132.048048
20
39.627001
70
0
0
VERTEX
8
Layer 1
10
131.280938
20
39.271761
70
0
0
VERTEX
8
Layer 1
10
130.132849
20
39.153348
70
0
0
VERTEX
8
Layer 1
10
128.698166
20
39.331825
70
0
0
VERTEX
8
Layer 1
10
128.073497
20
39.702509
70
0
0
VERTEX
8
Layer 1
10
127.538064
20
39.970225
70
0
0
VERTEX
8
Layer 1
10
127.043819
20
39.757425
70
0
0
VERTEX
8
Layer 1
10
126.831019
20
39.256316
70
0
0
VERTEX
8
Layer 1
10
126.990619
20
38.801543
70
0
0
VERTEX
8
Layer 1
10
127.469420
20
38.370795
70
0
0
VERTEX
8
Layer 1
10
128.636386
20
37.902293
70
0
0
VERTEX
8
Layer 1
10
130.242681
20
37.746125
70
0
0
VERTEX
8
Layer 1
10
131.701390
20
37.916022
70
0
0
VERTEX
8
Layer 1
10
132.796281
20
38.425711
70
0
0
VERTEX
8
Layer 1
10
133.336860
20
38.924246
70
0
0
VERTEX
8
Layer 1
10
133.722989
20
39.506872
70
0
0
VERTEX
8
Layer 1
10
133.954666
20
40.173587
70
0
0
VERTEX
8
Layer 1
10
134.031891
20
40.924391
70
0
0
VERTEX
8
Layer 1
10
133.781337
20
42.297295
70
0
0
VERTEX
8
Layer 1
10
133.029673
20
43.409347
70
0
0
VERTEX
8
Layer 1
10
131.874719
20
44.150714
70
0
0
VERTEX
8
Layer 1
10
130.414293
20
44.397837
70
0
0
VERTEX
8
Layer 1
10
129.329699
20
44.288005
70
0
0
VERTEX
8
Layer 1
10
128.402993
20
43.958508
70
0
0
VERTEX
8
Layer 1
10
128.402993
20
43.958508
70
0
0
SEQEND
8
Layer 1
0
POLYLINE
8
Layer 1
62
7
70
0
10
0.000000
20
0.000000
66
1
0
VERTEX
8
Layer 1
10
123.618426
20
46.882789
70
0
0
VERTEX
8
Layer 1
10
123.618426
20
43.882996
70
0
0
VERTEX
8
Layer 1
10
122.732904
20
44.267409
70
0
0
VERTEX
8
Layer 1
10
121.819926
20
44.397837
70
0
0
VERTEX
8
Layer 1
10
120.522532
20
44.150713
70
0
0
VERTEX
8
Layer 1
10
120.002546
20
43.831514
70
0
0
VERTEX
8
Layer 1
10
119.582095
20
43.368159
70
0
0
VERTEX
8
Layer 1
10
119.298933
20
42.769230
70
0
0
VERTEX
8
Layer 1
10
119.204546
20
42.029581
70
0
0
VERTEX
8
Layer 1
10
119.204546
20
39.386741
70
0
0
VERTEX
8
Layer 1
10
118.504365
20
39.283776
70
0
0
VERTEX
8
Layer 1
10
118.257242
20
39.026357
70
0
0
VERTEX
8
Layer 1
10
118.174868
20
38.679699
70
0
0
VERTEX
8
Layer 1
10
118.387669
20
38.171722
70
0
0
VERTEX
8
Layer 1
10
119.108442
20
37.979518
70
0
0
VERTEX
8
Layer 1
10
120.714740
20
37.979518
70
0
0
VERTEX
8
Layer 1
10
121.435514
20
38.171722
70
0
0
VERTEX
8
Layer 1
10
121.648314
20
38.686563
70
0
0
VERTEX
8
Layer 1
10
121.565940
20
39.028073
70
0
0
VERTEX
8
Layer 1
10
121.318817
20
39.283776
70
0
0
VERTEX
8
Layer 1
10
120.618636
20
39.386741
70
0
0
VERTEX
8
Layer 1
10
120.618636
20
41.933477
70
0
0
VERTEX
8
Layer 1
10
120.680416
20
42.395115
70
0
0
VERTEX
8
Layer 1
10
120.865757
20
42.695438
70
0
0
VERTEX
8
Layer 1
10
121.265615
20
42.916817
70
0
0
VERTEX
8
Layer 1
10
121.819926
20
42.990611
70
0
0
VERTEX
8
Layer 1
10
122.650532
20
42.805270
70
0
0
VERTEX
8
Layer 1
10
123.618426
20
42.022713
70
0
0
VERTEX
8
Layer 1
10
123.618426
20
39.386741
70
0
0
VERTEX
8
Layer 1
10
122.918248
20
39.283776
70
0
0
VERTEX
8
Layer 1
10
122.665978
20
39.026357
70
0
0
VERTEX
8
Layer 1
10
122.581887
20
38.679699
70
0
0
VERTEX
8
Layer 1
10
122.801552
20
38.171722
70
0
0
VERTEX
8
Layer 1
10
123.522325
20
37.979518
70
0
0
VERTEX
8
Layer 1
10
125.121756
20
37.979518
70
0
0
VERTEX
8
Layer 1
10
125.849393
20
38.171722
70
0
0
VERTEX
8
Layer 1
10
126.062194
20
38.686563
70
0
0
VERTEX
8
Layer 1
10
125.978103
20
39.028073
70
0
0
VERTEX
8
Layer 1
10
125.725833
20
39.283776
70
0
0
VERTEX
8
Layer 1
10
125.025652
20
39.386741
70
0
0
VERTEX
8
Layer 1
10
125.025652
20
45.475563
70
0
0
VERTEX
8
Layer 1
10
125.265908
20
45.475563
70
0
0
VERTEX
8
Layer 1
10
125.993549
20
45.667771
70
0
0
VERTEX
8
Layer 1
10
126.206350
20
46.182608
70
0
0
VERTEX
8
Layer 1
10
125.993549
20
46.683717
70
0
0
VERTEX
8
Layer 1
10
125.265908
20
46.882789
70
0
0
VERTEX
8
Layer 1
10
123.618426
20
46.882789
70
0
0
SEQEND
8
Layer 1
0
POLYLINE
8
Layer 1
62
7
70
0
10
0.000000
20
0.000000
66
1
0
VERTEX
8
Layer 1
10
114.083621
20
42.805270
70
0
0
VERTEX
8
Layer 1
10
114.083621
20
39.983954
70
0
0
VERTEX
8
Layer 1
10
113.898277
20
39.386741
70
0
0
VERTEX
8
Layer 1
10
113.496704
20
39.216844
70
0
0
VERTEX
8
Layer 1
10
112.868603
20
39.160212
70
0
0
VERTEX
8
Layer 1
10
111.832060
20
39.275193
70
0
0
VERTEX
8
Layer 1
10
110.877892
20
39.620137
70
0
0
VERTEX
8
Layer 1
10
110.328731
20
39.798613
70
0
0
VERTEX
8
Layer 1
10
109.855082
20
39.592677
70
0
0
VERTEX
8
Layer 1
10
109.649146
20
39.091568
70
0
0
VERTEX
8
Layer 1
10
109.868810
20
38.617915
70
0
0
VERTEX
8
Layer 1
10
110.369919
20
38.307298
70
0
0
VERTEX
8
Layer 1
10
111.200524
20
38.020706
70
0
0
VERTEX
8
Layer 1
10
112.868603
20
37.752989
70
0
0
VERTEX
8
Layer 1
10
114.016693
20
37.893712
70
0
0
VERTEX
8
Layer 1
10
114.838718
20
38.315879
70
0
0
VERTEX
8
Layer 1
10
115.327812
20
38.949129
70
0
0
VERTEX
8
Layer 1
10
115.490844
20
39.709373
70
0
0
VERTEX
8
Layer 1
10
115.490844
20
42.805270
70
0
0
VERTEX
8
Layer 1
10
115.998820
20
42.805270
70
0
0
VERTEX
8
Layer 1
10
116.726458
20
42.997475
70
0
0
VERTEX
8
Layer 1
10
116.939258
20
43.512315
70
0
0
VERTEX
8
Layer 1
10
116.726458
20
44.013424
70
0
0
VERTEX
8
Layer 1
10
115.998820
20
44.212493
70
0
0
VERTEX
8
Layer 1
10
115.490844
20
44.212493
70
0
0
VERTEX
8
Layer 1
10
115.490844
20
45.482427
70
0
0
VERTEX
8
Layer 1
10
115.298639
20
46.203204
70
0
0
VERTEX
8
Layer 1
10
114.783802
20
46.422868
70
0
0
VERTEX
8
Layer 1
10
114.282690
20
46.203204
70
0
0
VERTEX
8
Layer 1
10
114.083621
20
45.482427
70
0
0
VERTEX
8
Layer 1
10
114.083621
20
44.212493
70
0
0
VERTEX
8
Layer 1
10
111.481969
20
44.212493
70
0
0
VERTEX
8
Layer 1
10
110.761196
20
44.013424
70
0
0
VERTEX
8
Layer 1
10
110.541531
20
43.505448
70
0
0
VERTEX
8
Layer 1
10
110.761196
20
42.997475
70
0
0
VERTEX
8
Layer 1
10
111.481969
20
42.805270
70
0
0
VERTEX
8
Layer 1
10
114.083621
20
42.805270
70
0
0
SEQEND
8
Layer 1
0
POLYLINE
8
Layer 1
62
7
70
0
10
0.000000
20
0.000000
66
1
0
VERTEX
8
Layer 1
10
95.611218
20
37.979518
70
0
0
VERTEX
8
Layer 1
10
95.611218
20
38.309014
70
0
0
VERTEX
8
Layer 1
10
96.778187
20
37.890278
70
0
0
VERTEX
8
Layer 1
10
97.938290
20
37.746125
70
0
0
VERTEX
8
Layer 1
10
98.964532
20
37.895428
70
0
0
VERTEX
8
Layer 1
10
99.777977
20
38.343335
70
0
0
VERTEX
8
Layer 1
10
100.308261
20
38.978303
70
0
0
VERTEX
8
Layer 1
10
100.485022
20
39.675053
70
0
0
VERTEX
8
Layer 1
10
100.260210
20
40.527968
70
0
0
VERTEX
8
Layer 1
10
99.585772
20
41.315671
70
0
0
VERTEX
8
Layer 1
10
98.508043
20
41.887140
70
0
0
VERTEX
8
Layer 1
10
97.087088
20
42.077629
70
0
0
VERTEX
8
Layer 1
10
95.611218
20
41.940341
70
0
0
VERTEX
8
Layer 1
10
95.611218
20
42.276701
70
0
0
VERTEX
8
Layer 1
10
95.885798
20
42.791538
70
0
0
VERTEX
8
Layer 1
10
96.915476
20
42.990611
70
0
0
VERTEX
8
Layer 1
10
98.535502
20
42.743490
70
0
0
VERTEX
8
Layer 1
10
99.112120
20
42.654250
70
0
0
VERTEX
8
Layer 1
10
99.592636
20
42.853322
70
0
0
VERTEX
8
Layer 1
10
99.784841
20
43.375023
70
0
0
VERTEX
8
Layer 1
10
99.716197
20
43.683928
70
0
0
VERTEX
8
Layer 1
10
99.523992
20
43.889860
70
0
0
VERTEX
8
Layer 1
10
99.009152
20
44.082068
70
0
0
VERTEX
8
Layer 1
10
97.945154
20
44.308597
70
0
0
VERTEX
8
Layer 1
10
96.963528
20
44.397837
70
0
0
VERTEX
8
Layer 1
10
95.799993
20
44.255398
70
0
0
VERTEX
8
Layer 1
10
94.931632
20
43.828080
70
0
0
VERTEX
8
Layer 1
10
94.385904
20
43.160507
70
0
0
VERTEX
8
Layer 1
10
94.203995
20
42.283565
70
0
0
VERTEX
8
Layer 1
10
94.203995
20
39.386741
70
0
0
VERTEX
8
Layer 1
10
93.963735
20
39.386741
70
0
0
VERTEX
8
Layer 1
10
93.242962
20
39.187672
70
0
0
VERTEX
8
Layer 1
10
93.023297
20
38.679699
70
0
0
VERTEX
8
Layer 1
10
93.242962
20
38.171722
70
0
0
VERTEX
8
Layer 1
10
93.963735
20
37.979518
70
0
0
VERTEX
8
Layer 1
10
95.611218
20
37.979518
70
0
0
SEQEND
8
Layer 1
0
POLYLINE
8
Layer 1
62
7
70
0
10
0.000000
20
0.000000
66
1
0
VERTEX
8
Layer 1
10
95.611218
20
40.498794
70
0
0
VERTEX
8
Layer 1
10
97.169464
20
40.663542
70
0
0
VERTEX
8
Layer 1
10
97.967463
20
40.558858
70
0
0
VERTEX
8
Layer 1
10
98.645335
20
40.244806
70
0
0
VERTEX
8
Layer 1
10
98.933644
20
39.975373
70
0
0
VERTEX
8
Layer 1
10
99.029747
20
39.702509
70
0
0
VERTEX
8
Layer 1
10
98.844403
20
39.379877
70
0
0
VERTEX
8
Layer 1
10
97.903966
20
39.153348
70
0
0
VERTEX
8
Layer 1
10
96.757592
20
39.352420
70
0
0
VERTEX
8
Layer 1
10
95.611218
20
39.894717
70
0
0
VERTEX
8
Layer 1
10
95.611218
20
40.498794
70
0
0
SEQEND
8
Layer 1
0
POLYLINE
8
Layer 1
62
7
70
0
10
0.000000
20
0.000000
66
1
0
VERTEX
8
Layer 1
10
85.458608
20
44.212493
70
0
0
VERTEX
8
Layer 1
10
85.458608
20
39.386741
70
0
0
VERTEX
8
Layer 1
10
84.799615
20
39.187672
70
0
0
VERTEX
8
Layer 1
10
84.586815
20
38.679699
70
0
0
VERTEX
8
Layer 1
10
84.806479
20
38.171722
70
0
0
VERTEX
8
Layer 1
10
85.527252
20
37.979518
70
0
0
VERTEX
8
Layer 1
10
86.865831
20
37.979518
70
0
0
VERTEX
8
Layer 1
10
86.865831
20
38.302150
70
0
0
VERTEX
8
Layer 1
10
88.019069
20
37.890278
70
0
0
VERTEX
8
Layer 1
10
89.062475
20
37.752989
70
0
0
VERTEX
8
Layer 1
10
89.709456
20
37.825067
70
0
0
VERTEX
8
Layer 1
10
90.263765
20
38.041298
70
0
0
VERTEX
8
Layer 1
10
90.718538
20
38.391388
70
0
0
VERTEX
8
Layer 1
10
91.066914
20
38.851311
70
0
0
VERTEX
8
Layer 1
10
91.279714
20
39.778021
70
0
0
VERTEX
8
Layer 1
10
91.279714
20
42.805270
70
0
0
VERTEX
8
Layer 1
10
91.519971
20
42.805270
70
0
0
VERTEX
8
Layer 1
10
92.247608
20
42.997475
70
0
0
VERTEX
8
Layer 1
10
92.460408
20
43.512315
70
0
0
VERTEX
8
Layer 1
10
92.247608
20
44.013424
70
0
0
VERTEX
8
Layer 1
10
91.519971
20
44.212493
70
0
0
VERTEX
8
Layer 1
10
89.872488
20
44.212493
70
0
0
VERTEX
8
Layer 1
10
89.872488
20
40.025142
70
0
0
VERTEX
8
Layer 1
10
89.659687
20
39.366148
70
0
0
VERTEX
8
Layer 1
10
88.993830
20
39.160212
70
0
0
VERTEX
8
Layer 1
10
88.080849
20
39.324960
70
0
0
VERTEX
8
Layer 1
10
86.865831
20
39.935902
70
0
0
VERTEX
8
Layer 1
10
86.865831
20
42.805270
70
0
0
VERTEX
8
Layer 1
10
87.373804
20
42.805270
70
0
0
VERTEX
8
Layer 1
10
88.101445
20
42.997475
70
0
0
VERTEX
8
Layer 1
10
88.314245
20
43.512315
70
0
0
VERTEX
8
Layer 1
10
88.101445
20
44.013424
70
0
0
VERTEX
8
Layer 1
10
87.373804
20
44.212493
70
0
0
VERTEX
8
Layer 1
10
85.458608
20
44.212493
70
0
0
SEQEND
8
Layer 1
0
POLYLINE
8
Layer 1
62
7
70
0
10
0.000000
20
0.000000
66
1
0
VERTEX
8
Layer 1
10
80.028779
20
42.805270
70
0
0
VERTEX
8
Layer 1
10
80.028779
20
39.386741
70
0
0
VERTEX
8
Layer 1
10
78.024340
20
39.386741
70
0
0
VERTEX
8
Layer 1
10
77.303566
20
39.187672
70
0
0
VERTEX
8
Layer 1
10
77.083902
20
38.679699
70
0
0
VERTEX
8
Layer 1
10
77.303566
20
38.171722
70
0
0
VERTEX
8
Layer 1
10
78.024340
20
37.979518
70
0
0
VERTEX
8
Layer 1
10
82.273475
20
37.979518
70
0
0
VERTEX
8
Layer 1
10
83.001112
20
38.171722
70
0
0
VERTEX
8
Layer 1
10
83.213912
20
38.686563
70
0
0
VERTEX
8
Layer 1
10
83.001112
20
39.187672
70
0
0
VERTEX
8
Layer 1
10
82.273475
20
39.386741
70
0
0
VERTEX
8
Layer 1
10
81.436002
20
39.386741
70
0
0
VERTEX
8
Layer 1
10
81.436002
20
42.805270
70
0
0
VERTEX
8
Layer 1
10
82.108726
20
42.805270
70
0
0
VERTEX
8
Layer 1
10
82.836364
20
42.997475
70
0
0
VERTEX
8
Layer 1
10
83.049164
20
43.512315
70
0
0
VERTEX
8
Layer 1
10
82.836364
20
44.013424
70
0
0
VERTEX
8
Layer 1
10
82.108726
20
44.212493
70
0
0
VERTEX
8
Layer 1
10
81.436002
20
44.212493
70
0
0
VERTEX
8
Layer 1
10
81.436002
20
44.747926
70
0
0
VERTEX
8
Layer 1
10
81.264389
20
45.588829
70
0
0
VERTEX
8
Layer 1
10
80.749552
20
46.271848
70
0
0
VERTEX
8
Layer 1
10
79.901784
20
46.730054
70
0
0
VERTEX
8
Layer 1
10
78.745113
20
46.882789
70
0
0
VERTEX
8
Layer 1
10
77.399670
20
46.772957
70
0
0
VERTEX
8
Layer 1
10
76.418045
20
46.477784
70
0
0
VERTEX
8
Layer 1
10
76.198380
20
45.983539
70
0
0
VERTEX
8
Layer 1
10
76.390585
20
45.454971
70
0
0
VERTEX
8
Layer 1
10
76.864238
20
45.255899
70
0
0
VERTEX
8
Layer 1
10
77.255514
20
45.303951
70
0
0
VERTEX
8
Layer 1
10
78.800029
20
45.475563
70
0
0
VERTEX
8
Layer 1
10
79.392094
20
45.422363
70
0
0
VERTEX
8
Layer 1
10
79.767927
20
45.262763
70
0
0
VERTEX
8
Layer 1
10
80.028779
20
44.747926
70
0
0
VERTEX
8
Layer 1
10
80.028779
20
44.212493
70
0
0
VERTEX
8
Layer 1
10
77.859591
20
44.212493
70
0
0
VERTEX
8
Layer 1
10
77.138818
20
44.013424
70
0
0
VERTEX
8
Layer 1
10
76.919154
20
43.505448
70
0
0
VERTEX
8
Layer 1
10
77.138818
20
42.997475
70
0
0
VERTEX
8
Layer 1
10
77.859591
20
42.805270
70
0
0
VERTEX
8
Layer 1
10
80.028779
20
42.805270
70
0
0
SEQEND
8
Layer 1
0
POLYLINE
8
Layer 1
62
7
70
0
10
0.000000
20
0.000000
66
1
0
VERTEX
8
Layer 1
10
61.638752
20
42.565010
70
0
0
VERTEX
8
Layer 1
10
62.359525
20
42.880778
70
0
0
VERTEX
8
Layer 1
10
63.148942
20
42.990611
70
0
0
VERTEX
8
Layer 1
10
63.881730
20
42.923681
70
0
0
VERTEX
8
Layer 1
10
64.446336
20
42.722894
70
0
0
VERTEX
8
Layer 1
10
64.659137
20
42.468909
70
0
0
VERTEX
8
Layer 1
10
64.370828
20
42.160005
70
0
0
VERTEX
8
Layer 1
10
63.389202
20
41.947205
70
0
0
VERTEX
8
Layer 1
10
61.439679
20
41.562792
70
0
0
VERTEX
8
Layer 1
10
60.801280
20
41.247024
70
0
0
VERTEX
8
Layer 1
10
60.327629
20
40.807695
70
0
0
VERTEX
8
Layer 1
10
60.034172
20
40.292857
70
0
0
VERTEX
8
Layer 1
10
59.936353
20
39.750561
70
0
0
VERTEX
8
Layer 1
10
60.102817
20
39.057245
70
0
0
VERTEX
8
Layer 1
10
60.602210
20
38.487491
70
0
0
VERTEX
8
Layer 1
10
61.698815
20
37.936615
70
0
0
VERTEX
8
Layer 1
10
63.080298
20
37.752989
70
0
0
VERTEX
8
Layer 1
10
64.212944
20
37.862822
70
0
0
VERTEX
8
Layer 1
10
65.160246
20
38.171722
70
0
0
VERTEX
8
Layer 1
10
65.379910
20
38.034434
70
0
0
VERTEX
8
Layer 1
10
65.620167
20
37.986382
70
0
0
VERTEX
8
Layer 1
10
66.148735
20
38.199182
70
0
0
VERTEX
8
Layer 1
10
66.340940
20
38.926820
70
0
0
VERTEX
8
Layer 1
10
66.340940
20
39.400472
70
0
0
VERTEX
8
Layer 1
10
66.148735
20
40.121246
70
0
0
VERTEX
8
Layer 1
10
65.633898
20
40.340910
70
0
0
VERTEX
8
Layer 1
10
65.208298
20
40.196754
70
0
0
VERTEX
8
Layer 1
10
64.940581
20
39.716237
70
0
0
VERTEX
8
Layer 1
10
64.164892
20
39.297504
70
0
0
VERTEX
8
Layer 1
10
63.121486
20
39.160212
70
0
0
VERTEX
8
Layer 1
10
62.261705
20
39.235722
70
0
0
VERTEX
8
Layer 1
10
61.618156
20
39.462252
70
0
0
VERTEX
8
Layer 1
10
61.364171
20
39.778021
70
0
0
VERTEX
8
Layer 1
10
61.455125
20
40.028575
70
0
0
VERTEX
8
Layer 1
10
61.727988
20
40.231078
70
0
0
VERTEX
8
Layer 1
10
63.231318
20
40.533115
70
0
0
VERTEX
8
Layer 1
10
64.645408
20
40.793968
70
0
0
VERTEX
8
Layer 1
10
65.496606
20
41.219567
70
0
0
VERTEX
8
Layer 1
10
65.923921
20
41.779024
70
0
0
VERTEX
8
Layer 1
10
66.066359
20
42.455178
70
0
0
VERTEX
8
Layer 1
10
65.906760
20
43.146778
70
0
0
VERTEX
8
Layer 1
10
65.427962
20
43.711384
70
0
0
VERTEX
8
Layer 1
10
64.429175
20
44.226224
70
0
0
VERTEX
8
Layer 1
10
63.162674
20
44.397837
70
0
0
VERTEX
8
Layer 1
10
62.229100
20
44.301733
70
0
0
VERTEX
8
Layer 1
10
61.364171
20
44.020288
70
0
0
VERTEX
8
Layer 1
10
61.123911
20
44.164441
70
0
0
VERTEX
8
Layer 1
10
60.911114
20
44.212493
70
0
0
VERTEX
8
Layer 1
10
60.430597
20
43.992828
70
0
0
VERTEX
8
Layer 1
10
60.238389
20
43.272055
70
0
0
VERTEX
8
Layer 1
10
60.238389
20
42.928830
70
0
0
VERTEX
8
Layer 1
10
60.348222
20
42.304161
70
0
0
VERTEX
8
Layer 1
10
60.607357
20
42.067335
70
0
0
VERTEX
8
Layer 1
10
60.945435
20
41.988393
70
0
0
VERTEX
8
Layer 1
10
61.391627
20
42.146277
70
0
0
VERTEX
8
Layer 1
10
61.638752
20
42.565010
70
0
0
VERTEX
8
Layer 1
10
61.638752
20
42.565010
70
0
0
SEQEND
8
Layer 1
0
POLYLINE
8
Layer 1
62
7
70
0
10
0.000000
20
0.000000
66
1
0
VERTEX
8
Layer 1
10
55.076277
20
42.805270
70
0
0
VERTEX
8
Layer 1
10
55.076277
20
39.983954
70
0
0
VERTEX
8
Layer 1
10
54.890936
20
39.386741
70
0
0
VERTEX
8
Layer 1
10
54.489362
20
39.216844
70
0
0
VERTEX
8
Layer 1
10
53.861258
20
39.160212
70
0
0
VERTEX
8
Layer 1
10
52.824718
20
39.275193
70
0
0
VERTEX
8
Layer 1
10
51.870551
20
39.620137
70
0
0
VERTEX
8
Layer 1
10
51.321390
20
39.798613
70
0
0
VERTEX
8
Layer 1
10
50.847737
20
39.592677
70
0
0
VERTEX
8
Layer 1
10
50.641805
20
39.091568
70
0
0
VERTEX
8
Layer 1
10
50.861469
20
38.617915
70
0
0
VERTEX
8
Layer 1
10
51.362578
20
38.307298
70
0
0
VERTEX
8
Layer 1
10
52.193183
20
38.020706
70
0
0
VERTEX
8
Layer 1
10
53.861258
20
37.752989
70
0
0
VERTEX
8
Layer 1
10
55.009348
20
37.893712
70
0
0
VERTEX
8
Layer 1
10
55.831374
20
38.315879
70
0
0
VERTEX
8
Layer 1
10
56.320471
20
38.949129
70
0
0
VERTEX
8
Layer 1
10
56.483503
20
39.709373
70
0
0
VERTEX
8
Layer 1
10
56.483503
20
42.805270
70
0
0
VERTEX
8
Layer 1
10
56.991476
20
42.805270
70
0
0
VERTEX
8
Layer 1
10
57.719113
20
42.997475
70
0
0
VERTEX
8
Layer 1
10
57.931913
20
43.512315
70
0
0
VERTEX
8
Layer 1
10
57.719113
20
44.013424
70
0
0
VERTEX
8
Layer 1
10
56.991476
20
44.212493
70
0
0
VERTEX
8
Layer 1
10
56.483503
20
44.212493
70
0
0
VERTEX
8
Layer 1
10
56.483503
20
45.482427
70
0
0
VERTEX
8
Layer 1
10
56.291295
20
46.203204
70
0
0
VERTEX
8
Layer 1
10
55.776458
20
46.422868
70
0
0
VERTEX
8
Layer 1
10
55.275349
20
46.203204
70
0
0
VERTEX
8
Layer 1
10
55.076277
20
45.482427
70
0
0
VERTEX
8
Layer 1
10
55.076277
20
44.212493
70
0
0
VERTEX
8
Layer 1
10
52.474628
20
44.212493
70
0
0
VERTEX
8
Layer 1
10
51.753855
20
44.013424
70
0
0
VERTEX
8
Layer 1
10
51.534190
20
43.505448
70
0
0
VERTEX
8
Layer 1
10
51.753855
20
42.997475
70
0
0
VERTEX
8
Layer 1
10
52.474628
20
42.805270
70
0
0
VERTEX
8
Layer 1
10
55.076277
20
42.805270
70
0
0
SEQEND
8
Layer 1
0
POLYLINE
8
Layer 1
62
7
70
0
10
0.000000
20
0.000000
66
1
0
VERTEX
8
Layer 1
10
45.033495
20
37.979518
70
0
0
VERTEX
8
Layer 1
10
45.033495
20
38.309014
70
0
0
VERTEX
8
Layer 1
10
46.200465
20
37.890278
70
0
0
VERTEX
8
Layer 1
10
47.360567
20
37.746125
70
0
0
VERTEX
8
Layer 1
10
48.386810
20
37.895428
70
0
0
VERTEX
8
Layer 1
10
49.200255
20
38.343335
70
0
0
VERTEX
8
Layer 1
10
49.730538
20
38.978303
70
0
0
VERTEX
8
Layer 1
10
49.907300
20
39.675053
70
0
0
VERTEX
8
Layer 1
10
49.682487
20
40.527968
70
0
0
VERTEX
8
Layer 1
10
49.008050
20
41.315671
70
0
0
VERTEX
8
Layer 1
10
47.930320
20
41.887140
70
0
0
VERTEX
8
Layer 1
10
46.509366
20
42.077629
70
0
0
VERTEX
8
Layer 1
10
45.033495
20
41.940341
70
0
0
VERTEX
8
Layer 1
10
45.033495
20
42.276701
70
0
0
VERTEX
8
Layer 1
10
45.308076
20
42.791538
70
0
0
VERTEX
8
Layer 1
10
46.337754
20
42.990611
70
0
0
VERTEX
8
Layer 1
10
47.957780
20
42.743490
70
0
0
VERTEX
8
Layer 1
10
48.534397
20
42.654250
70
0
0
VERTEX
8
Layer 1
10
49.014914
20
42.853322
70
0
0
VERTEX
8
Layer 1
10
49.207119
20
43.375023
70
0
0
VERTEX
8
Layer 1
10
49.138474
20
43.683928
70
0
0
VERTEX
8
Layer 1
10
48.946270
20
43.889860
70
0
0
VERTEX
8
Layer 1
10
48.431429
20
44.082068
70
0
0
VERTEX
8
Layer 1
10
47.367431
20
44.308597
70
0
0
VERTEX
8
Layer 1
10
46.385806
20
44.397837
70
0
0
VERTEX
8
Layer 1
10
45.222271
20
44.255398
70
0
0
VERTEX
8
Layer 1
10
44.353910
20
43.828080
70
0
0
VERTEX
8
Layer 1
10
43.808182
20
43.160507
70
0
0
VERTEX
8
Layer 1
10
43.626273
20
42.283565
70
0
0
VERTEX
8
Layer 1
10
43.626273
20
39.386741
70
0
0
VERTEX
8
Layer 1
10
43.386013
20
39.386741
70
0
0
VERTEX
8
Layer 1
10
42.665239
20
39.187672
70
0
0
VERTEX
8
Layer 1
10
42.445575
20
38.679699
70
0
0
VERTEX
8
Layer 1
10
42.665239
20
38.171722
70
0
0
VERTEX
8
Layer 1
10
43.386013
20
37.979518
70
0
0
VERTEX
8
Layer 1
10
45.033495
20
37.979518
70
0
0
SEQEND
8
Layer 1
0
POLYLINE
8
Layer 1
62
7
70
0
10
0.000000
20
0.000000
66
1
0
VERTEX
8
Layer 1
10
45.033495
20
40.498794
70
0
0
VERTEX
8
Layer 1
10
46.591742
20
40.663542
70
0
0
VERTEX
8
Layer 1
10
47.389740
20
40.558858
70
0
0
VERTEX
8
Layer 1
10
48.067612
20
40.244806
70
0
0
VERTEX
8
Layer 1
10
48.355922
20
39.975373
70
0
0
VERTEX
8
Layer 1
10
48.452025
20
39.702509
70
0
0
VERTEX
8
Layer 1
10
48.266681
20
39.379877
70
0
0
VERTEX
8
Layer 1
10
47.326243
20
39.153348
70
0
0
VERTEX
8
Layer 1
10
46.179869
20
39.352420
70
0
0
VERTEX
8
Layer 1
10
45.033495
20
39.894717
70
0
0
VERTEX
8
Layer 1
10
45.033495
20
40.498794
70
0
0
SEQEND
8
Layer 1
0
POLYLINE
8
Layer 1
62
7
70
0
10
0.000000
20
0.000000
66
1
0
VERTEX
8
Layer 1
10
34.640626
20
46.882789
70
0
0
VERTEX
8
Layer 1
10
34.640626
20
39.386741
70
0
0
VERTEX
8
Layer 1
10
34.400369
20
39.386741
70
0
0
VERTEX
8
Layer 1
10
33.679596
20
39.187672
70
0
0
VERTEX
8
Layer 1
10
33.459931
20
38.679699
70
0
0
VERTEX
8
Layer 1
10
33.679596
20
38.171722
70
0
0
VERTEX
8
Layer 1
10
34.400369
20
37.979518
70
0
0
VERTEX
8
Layer 1
10
36.047852
20
37.979518
70
0
0
VERTEX
8
Layer 1
10
36.047852
20
38.322743
70
0
0
VERTEX
8
Layer 1
10
37.056934
20
37.897142
70
0
0
VERTEX
8
Layer 1
10
38.141527
20
37.752989
70
0
0
VERTEX
8
Layer 1
10
39.572778
20
37.981234
70
0
0
VERTEX
8
Layer 1
10
40.695124
20
38.665967
70
0
0
VERTEX
8
Layer 1
10
41.421047
20
39.697361
70
0
0
VERTEX
8
Layer 1
10
41.663022
20
40.951851
70
0
0
VERTEX
8
Layer 1
10
41.409035
20
42.274985
70
0
0
VERTEX
8
Layer 1
10
40.647076
20
43.388751
70
0
0
VERTEX
8
Layer 1
10
39.519578
20
44.145565
70
0
0
VERTEX
8
Layer 1
10
38.168984
20
44.397837
70
0
0
VERTEX
8
Layer 1
10
37.091258
20
44.226224
70
0
0
VERTEX
8
Layer 1
10
36.047852
20
43.725112
70
0
0
VERTEX
8
Layer 1
10
36.047852
20
45.475563
70
0
0
VERTEX
8
Layer 1
10
36.288108
20
45.475563
70
0
0
VERTEX
8
Layer 1
10
37.015746
20
45.667771
70
0
0
VERTEX
8
Layer 1
10
37.228546
20
46.175744
70
0
0
VERTEX
8
Layer 1
10
37.015746
20
46.683717
70
0
0
VERTEX
8
Layer 1
10
36.288108
20
46.882789
70
0
0
VERTEX
8
Layer 1
10
34.640626
20
46.882789
70
0
0
SEQEND
8
Layer 1
0
POLYLINE
8
Layer 1
62
7
70
0
10
0.000000
20
0.000000
66
1
0
VERTEX
8
Layer 1
10
36.047852
20
40.910663
70
0
0
VERTEX
8
Layer 1
10
36.200587
20
41.715527
70
0
0
VERTEX
8
Layer 1
10
36.658793
20
42.386534
70
0
0
VERTEX
8
Layer 1
10
37.338379
20
42.839591
70
0
0
VERTEX
8
Layer 1
10
38.155256
20
42.990611
70
0
0
VERTEX
8
Layer 1
10
38.966984
20
42.839591
70
0
0
VERTEX
8
Layer 1
10
39.644854
20
42.386534
70
0
0
VERTEX
8
Layer 1
10
40.103060
20
41.720676
70
0
0
VERTEX
8
Layer 1
10
40.255795
20
40.931259
70
0
0
VERTEX
8
Layer 1
10
40.118505
20
40.224212
70
0
0
VERTEX
8
Layer 1
10
39.706634
20
39.654457
70
0
0
VERTEX
8
Layer 1
10
39.044209
20
39.283773
70
0
0
VERTEX
8
Layer 1
10
38.155256
20
39.160212
70
0
0
VERTEX
8
Layer 1
10
37.269734
20
39.283773
70
0
0
VERTEX
8
Layer 1
10
36.603877
20
39.654457
70
0
0
VERTEX
8
Layer 1
10
36.186858
20
40.219063
70
0
0
VERTEX
8
Layer 1
10
36.047852
20
40.910663
70
0
0
VERTEX
8
Layer 1
10
36.047852
20
40.910663
70
0
0
SEQEND
8
Layer 1
0
POLYLINE
8
Layer 1
62
7
70
0
10
0.000000
20
0.000000
66
1
0
VERTEX
8
Layer 1
10
29.787417
20
42.805270
70
0
0
VERTEX
8
Layer 1
10
29.787417
20
39.983954
70
0
0
VERTEX
8
Layer 1
10
29.602073
20
39.386741
70
0
0
VERTEX
8
Layer 1
10
29.200500
20
39.216844
70
0
0
VERTEX
8
Layer 1
10
28.572399
20
39.160212
70
0
0
VERTEX
8
Layer 1
10
27.535856
20
39.275193
70
0
0
VERTEX
8
Layer 1
10
26.581688
20
39.620137
70
0
0
VERTEX
8
Layer 1
10
26.032527
20
39.798613
70
0
0
VERTEX
8
Layer 1
10
25.558878
20
39.592677
70
0
0
VERTEX
8
Layer 1
10
25.352942
20
39.091568
70
0
0
VERTEX
8
Layer 1
10
25.572606
20
38.617915
70
0
0
VERTEX
8
Layer 1
10
26.073715
20
38.307298
70
0
0
VERTEX
8
Layer 1
10
26.904320
20
38.020706
70
0
0
VERTEX
8
Layer 1
10
28.572399
20
37.752989
70
0
0
VERTEX
8
Layer 1
10
29.720489
20
37.893712
70
0
0
VERTEX
8
Layer 1
10
30.542514
20
38.315879
70
0
0
VERTEX
8
Layer 1
10
31.031608
20
38.949129
70
0
0
VERTEX
8
Layer 1
10
31.194640
20
39.709373
70
0
0
VERTEX
8
Layer 1
10
31.194640
20
42.805270
70
0
0
VERTEX
8
Layer 1
10
31.702616
20
42.805270
70
0
0
VERTEX
8
Layer 1
10
32.430254
20
42.997475
70
0
0
VERTEX
8
Layer 1
10
32.643054
20
43.512315
70
0
0
VERTEX
8
Layer 1
10
32.430254
20
44.013424
70
0
0
VERTEX
8
Layer 1
10
31.702616
20
44.212493
70
0
0
VERTEX
8
Layer 1
10
31.194640
20
44.212493
70
0
0
VERTEX
8
Layer 1
10
31.194640
20
45.482427
70
0
0
VERTEX
8
Layer 1
10
31.002435
20
46.203204
70
0
0
VERTEX
8
Layer 1
10
30.487598
20
46.422868
70
0
0
VERTEX
8
Layer 1
10
29.986486
20
46.203204
70
0
0
VERTEX
8
Layer 1
10
29.787417
20
45.482427
70
0
0
VERTEX
8
Layer 1
10
29.787417
20
44.212493
70
0
0
VERTEX
8
Layer 1
10
27.185765
20
44.212493
70
0
0
VERTEX
8
Layer 1
10
26.464992
20
44.013424
70
0
0
VERTEX
8
Layer 1
10
26.245327
20
43.505448
70
0
0
VERTEX
8
Layer 1
10
26.464992
20
42.997475
70
0
0
VERTEX
8
Layer 1
10
27.185765
20
42.805270
70
0
0
VERTEX
8
Layer 1
10
29.787417
20
42.805270
70
0
0
SEQEND
8
Layer 1
0
POLYLINE
8
Layer 1
62
7
70
0
10
0.000000
20
0.000000
66
1
0
VERTEX
8
Layer 1
10
165.471357
20
22.747164
70
0
0
VERTEX
8
Layer 1
10
165.471357
20
20.406368
70
0
0
VERTEX
8
Layer 1
10
167.118839
20
20.406368
70
0
0
VERTEX
8
Layer 1
10
167.846477
20
20.598572
70
0
0
VERTEX
8
Layer 1
10
168.059277
20
21.113413
70
0
0
VERTEX
8
Layer 1
10
167.839613
20
21.614522
70
0
0
VERTEX
8
Layer 1
10
167.118839
20
21.813591
70
0
0
VERTEX
8
Layer 1
10
166.878579
20
21.813591
70
0
0
VERTEX
8
Layer 1
10
166.878579
20
27.902413
70
0
0
VERTEX
8
Layer 1
10
167.118839
20
27.902413
70
0
0
VERTEX
8
Layer 1
10
167.846477
20
28.094621
70
0
0
VERTEX
8
Layer 1
10
168.059277
20
28.609458
70
0
0
VERTEX
8
Layer 1
10
167.846477
20
29.110567
70
0
0
VERTEX
8
Layer 1
10
167.118839
20
29.309639
70
0
0
VERTEX
8
Layer 1
10
165.471357
20
29.309639
70
0
0
VERTEX
8
Layer 1
10
165.471357
20
24.566263
70
0
0
VERTEX
8
Layer 1
10
164.373035
20
25.451784
70
0
0
VERTEX
8
Layer 1
10
164.544647
20
25.932298
70
0
0
VERTEX
8
Layer 1
10
164.331847
20
26.440274
70
0
0
VERTEX
8
Layer 1
10
163.611074
20
26.639343
70
0
0
VERTEX
8
Layer 1
10
162.004775
20
26.639343
70
0
0
VERTEX
8
Layer 1
10
161.284002
20
26.440274
70
0
0
VERTEX
8
Layer 1
10
161.064338
20
25.932298
70
0
0
VERTEX
8
Layer 1
10
161.284002
20
25.424325
70
0
0
VERTEX
8
Layer 1
10
162.004775
20
25.232120
70
0
0
VERTEX
8
Layer 1
10
162.396055
20
25.232120
70
0
0
VERTEX
8
Layer 1
10
164.105318
20
23.845486
70
0
0
VERTEX
8
Layer 1
10
161.805707
20
21.813591
70
0
0
VERTEX
8
Layer 1
10
161.393834
20
21.813591
70
0
0
VERTEX
8
Layer 1
10
160.673061
20
21.614522
70
0
0
VERTEX
8
Layer 1
10
160.453396
20
21.106549
70
0
0
VERTEX
8
Layer 1
10
160.673061
20
20.598572
70
0
0
VERTEX
8
Layer 1
10
161.393834
20
20.406368
70
0
0
VERTEX
8
Layer 1
10
163.013861
20
20.406368
70
0
0
VERTEX
8
Layer 1
10
163.741498
20
20.598572
70
0
0
VERTEX
8
Layer 1
10
163.954298
20
21.113413
70
0
0
VERTEX
8
Layer 1
10
163.720906
20
21.641978
70
0
0
VERTEX
8
Layer 1
10
165.210504
20
22.959965
70
0
0
VERTEX
8
Layer 1
10
165.471357
20
22.747164
70
0
0
SEQEND
8
Layer 1
0
POLYLINE
8
Layer 1
62
7
70
0
10
0.000000
20
0.000000
66
1
0
VERTEX
8
Layer 1
10
152.353274
20
22.808948
70
0
0
VERTEX
8
Layer 1
10
158.126328
20
22.808948
70
0
0
VERTEX
8
Layer 1
10
157.822574
20
22.312986
70
0
0
VERTEX
8
Layer 1
10
157.350639
20
21.923423
70
0
0
VERTEX
8
Layer 1
10
156.689928
20
21.671152
70
0
0
VERTEX
8
Layer 1
10
155.833580
20
21.587062
70
0
0
VERTEX
8
Layer 1
10
153.753633
20
21.923423
70
0
0
VERTEX
8
Layer 1
10
153.012267
20
22.060715
70
0
0
VERTEX
8
Layer 1
10
152.538615
20
21.861643
70
0
0
VERTEX
8
Layer 1
10
152.346410
20
21.360534
70
0
0
VERTEX
8
Layer 1
10
152.552343
20
20.893749
70
0
0
VERTEX
8
Layer 1
10
153.890925
20
20.406368
70
0
0
VERTEX
8
Layer 1
10
155.936549
20
20.179839
70
0
0
VERTEX
8
Layer 1
10
157.457038
20
20.418381
70
0
0
VERTEX
8
Layer 1
10
158.641165
20
21.134005
70
0
0
VERTEX
8
Layer 1
10
159.397979
20
22.198004
70
0
0
VERTEX
8
Layer 1
10
159.650251
20
23.481669
70
0
0
VERTEX
8
Layer 1
10
159.377386
20
24.825397
70
0
0
VERTEX
8
Layer 1
10
159.036306
20
25.393007
70
0
0
VERTEX
8
Layer 1
10
158.558793
20
25.891113
70
0
0
VERTEX
8
Layer 1
10
157.378097
20
26.591293
70
0
0
VERTEX
8
Layer 1
10
156.032653
20
26.824687
70
0
0
VERTEX
8
Layer 1
10
155.210626
20
26.749177
70
0
0
VERTEX
8
Layer 1
10
154.460678
20
26.522647
70
0
0
VERTEX
8
Layer 1
10
153.389816
20
25.870517
70
0
0
VERTEX
8
Layer 1
10
152.572939
20
24.614311
70
0
0
VERTEX
8
Layer 1
10
152.353274
20
23.406157
70
0
0
VERTEX
8
Layer 1
10
152.353274
20
22.808948
70
0
0
SEQEND
8
Layer 1
0
POLYLINE
8
Layer 1
62
7
70
0
10
0.000000
20
0.000000
66
1
0
VERTEX
8
Layer 1
10
153.911517
20
24.216171
70
0
0
VERTEX
8
Layer 1
10
154.283917
20
24.743022
70
0
0
VERTEX
8
Layer 1
10
154.755851
20
25.115424
70
0
0
VERTEX
8
Layer 1
10
155.327323
20
25.341951
70
0
0
VERTEX
8
Layer 1
10
155.998329
20
25.417461
70
0
0
VERTEX
8
Layer 1
10
156.664187
20
25.341951
70
0
0
VERTEX
8
Layer 1
10
157.233943
20
25.115424
70
0
0
VERTEX
8
Layer 1
10
157.707593
20
24.743022
70
0
0
VERTEX
8
Layer 1
10
158.085140
20
24.216171
70
0
0
VERTEX
8
Layer 1
10
153.911517
20
24.216171
70
0
0
SEQEND
8
Layer 1
0
POLYLINE
8
Layer 1
62
7
70
0
10
0.000000
20
0.000000
66
1
0
VERTEX
8
Layer 1
10
148.879829
20
26.639343
70
0
0
VERTEX
8
Layer 1
10
148.879829
20
26.165694
70
0
0
VERTEX
8
Layer 1
10
148.035495
20
26.659939
70
0
0
VERTEX
8
Layer 1
10
147.026413
20
26.824687
70
0
0
VERTEX
8
Layer 1
10
145.907497
20
26.630764
70
0
0
VERTEX
8
Layer 1
10
145.049434
20
26.048997
70
0
0
VERTEX
8
Layer 1
10
144.616968
20
25.335086
70
0
0
VERTEX
8
Layer 1
10
144.472813
20
24.428971
70
0
0
VERTEX
8
Layer 1
10
144.472813
20
21.813591
70
0
0
VERTEX
8
Layer 1
10
143.813820
20
21.614522
70
0
0
VERTEX
8
Layer 1
10
143.601020
20
21.106549
70
0
0
VERTEX
8
Layer 1
10
143.820684
20
20.598572
70
0
0
VERTEX
8
Layer 1
10
144.541457
20
20.406368
70
0
0
VERTEX
8
Layer 1
10
145.811395
20
20.406368
70
0
0
VERTEX
8
Layer 1
10
146.539032
20
20.598572
70
0
0
VERTEX
8
Layer 1
10
146.751833
20
21.113413
70
0
0
VERTEX
8
Layer 1
10
146.539032
20
21.614522
70
0
0
VERTEX
8
Layer 1
10
145.880039
20
21.813591
70
0
0
VERTEX
8
Layer 1
10
145.880039
20
24.470159
70
0
0
VERTEX
8
Layer 1
10
145.941820
20
24.868300
70
0
0
VERTEX
8
Layer 1
10
146.127160
20
25.142880
70
0
0
VERTEX
8
Layer 1
10
146.530451
20
25.348815
70
0
0
VERTEX
8
Layer 1
10
147.095057
20
25.417461
70
0
0
VERTEX
8
Layer 1
10
147.953123
20
25.225256
70
0
0
VERTEX
8
Layer 1
10
148.879829
20
24.428971
70
0
0
VERTEX
8
Layer 1
10
148.879829
20
21.813591
70
0
0
VERTEX
8
Layer 1
10
148.179651
20
21.710626
70
0
0
VERTEX
8
Layer 1
10
147.927381
20
21.456639
70
0
0
VERTEX
8
Layer 1
10
147.843291
20
21.106549
70
0
0
VERTEX
8
Layer 1
10
148.062955
20
20.598572
70
0
0
VERTEX
8
Layer 1
10
148.783728
20
20.406368
70
0
0
VERTEX
8
Layer 1
10
150.383159
20
20.406368
70
0
0
VERTEX
8
Layer 1
10
151.110796
20
20.598572
70
0
0
VERTEX
8
Layer 1
10
151.323597
20
21.113413
70
0
0
VERTEX
8
Layer 1
10
151.241223
20
21.454923
70
0
0
VERTEX
8
Layer 1
10
150.994100
20
21.710626
70
0
0
VERTEX
8
Layer 1
10
150.287055
20
21.813591
70
0
0
VERTEX
8
Layer 1
10
150.287055
20
25.232120
70
0
0
VERTEX
8
Layer 1
10
150.946048
20
25.431189
70
0
0
VERTEX
8
Layer 1
10
151.158848
20
25.939165
70
0
0
VERTEX
8
Layer 1
10
150.946048
20
26.440274
70
0
0
VERTEX
8
Layer 1
10
150.218411
20
26.639343
70
0
0
VERTEX
8
Layer 1
10
148.879829
20
26.639343
70
0
0
SEQEND
8
Layer 1
0
POLYLINE
8
Layer 1
62
7
70
0
10
0.000000
20
0.000000
66
1
0
VERTEX
8
Layer 1
10
140.450210
20
26.639343
70
0
0
VERTEX
8
Layer 1
10
140.450210
20
26.165694
70
0
0
VERTEX
8
Layer 1
10
139.605877
20
26.659939
70
0
0
VERTEX
8
Layer 1
10
138.596791
20
26.824687
70
0
0
VERTEX
8
Layer 1
10
137.477875
20
26.630764
70
0
0
VERTEX
8
Layer 1
10
136.619812
20
26.048997
70
0
0
VERTEX
8
Layer 1
10
136.187349
20
25.335086
70
0
0
VERTEX
8
Layer 1
10
136.043194
20
24.428971
70
0
0
VERTEX
8
Layer 1
10
136.043194
20
21.813591
70
0
0
VERTEX
8
Layer 1
10
135.384201
20
21.614522
70
0
0
VERTEX
8
Layer 1
10
135.171401
20
21.106549
70
0
0
VERTEX
8
Layer 1
10
135.391065
20
20.598572
70
0
0
VERTEX
8
Layer 1
10
136.111839
20
20.406368
70
0
0
VERTEX
8
Layer 1
10
137.381773
20
20.406368
70
0
0
VERTEX
8
Layer 1
10
138.109410
20
20.598572
70
0
0
VERTEX
8
Layer 1
10
138.322211
20
21.113413
70
0
0
VERTEX
8
Layer 1
10
138.109410
20
21.614522
70
0
0
VERTEX
8
Layer 1
10
137.450417
20
21.813591
70
0
0
VERTEX
8
Layer 1
10
137.450417
20
24.470159
70
0
0
VERTEX
8
Layer 1
10
137.512198
20
24.868300
70
0
0
VERTEX
8
Layer 1
10
137.697541
20
25.142880
70
0
0
VERTEX
8
Layer 1
10
138.100831
20
25.348815
70
0
0
VERTEX
8
Layer 1
10
138.665435
20
25.417461
70
0
0
VERTEX
8
Layer 1
10
139.523501
20
25.225256
70
0
0
VERTEX
8
Layer 1
10
140.450210
20
24.428971
70
0
0
VERTEX
8
Layer 1
10
140.450210
20
21.813591
70
0
0
VERTEX
8
Layer 1
10
139.750029
20
21.710626
70
0
0
VERTEX
8
Layer 1
10
139.497759
20
21.456639
70
0
0
VERTEX
8
Layer 1
10
139.413668
20
21.106549
70
0
0
VERTEX
8
Layer 1
10
139.633333
20
20.598572
70
0
0
VERTEX
8
Layer 1
10
140.354106
20
20.406368
70
0
0
VERTEX
8
Layer 1
10
141.953537
20
20.406368
70
0
0
VERTEX
8
Layer 1
10
142.681178
20
20.598572
70
0
0
VERTEX
8
Layer 1
10
142.893975
20
21.113413
70
0
0
VERTEX
8
Layer 1
10
142.811600
20
21.454923
70
0
0
VERTEX
8
Layer 1
10
142.564478
20
21.710626
70
0
0
VERTEX
8
Layer 1
10
141.857436
20
21.813591
70
0
0
VERTEX
8
Layer 1
10
141.857436
20
25.232120
70
0
0
VERTEX
8
Layer 1
10
142.516429
20
25.431189
70
0
0
VERTEX
8
Layer 1
10
142.729226
20
25.939165
70
0
0
VERTEX
8
Layer 1
10
142.516429
20
26.440274
70
0
0
VERTEX
8
Layer 1
10
141.788789
20
26.639343
70
0
0
VERTEX
8
Layer 1
10
140.450210
20
26.639343
70
0
0
SEQEND
8
Layer 1
0
POLYLINE
8
Layer 1
62
7
70
0
10
0.000000
20
0.000000
66
1
0
VERTEX
8
Layer 1
10
130.942862
20
25.232120
70
0
0
VERTEX
8
Layer 1
10
130.942862
20
22.410804
70
0
0
VERTEX
8
Layer 1
10
130.757518
20
21.813591
70
0
0
VERTEX
8
Layer 1
10
130.355945
20
21.643694
70
0
0
VERTEX
8
Layer 1
10
129.727844
20
21.587062
70
0
0
VERTEX
8
Layer 1
10
128.691301
20
21.702043
70
0
0
VERTEX
8
Layer 1
10
127.737133
20
22.046987
70
0
0
VERTEX
8
Layer 1
10
127.187972
20
22.225463
70
0
0
VERTEX
8
Layer 1
10
126.714323
20
22.019527
70
0
0
VERTEX
8
Layer 1
10
126.508386
20
21.518418
70
0
0
VERTEX
8
Layer 1
10
126.728051
20
21.044765
70
0
0
VERTEX
8
Layer 1
10
127.229160
20
20.734148
70
0
0
VERTEX
8
Layer 1
10
128.059765
20
20.447556
70
0
0
VERTEX
8
Layer 1
10
129.727844
20
20.179839
70
0
0
VERTEX
8
Layer 1
10
130.875934
20
20.320562
70
0
0
VERTEX
8
Layer 1
10
131.697959
20
20.742729
70
0
0
VERTEX
8
Layer 1
10
132.187053
20
21.375979
70
0
0
VERTEX
8
Layer 1
10
132.350085
20
22.136223
70
0
0
VERTEX
8
Layer 1
10
132.350085
20
25.232120
70
0
0
VERTEX
8
Layer 1
10
132.858061
20
25.232120
70
0
0
VERTEX
8
Layer 1
10
133.585698
20
25.424325
70
0
0
VERTEX
8
Layer 1
10
133.798499
20
25.939165
70
0
0
VERTEX
8
Layer 1
10
133.585698
20
26.440274
70
0
0
VERTEX
8
Layer 1
10
132.858061
20
26.639343
70
0
0
VERTEX
8
Layer 1
10
132.350085
20
26.639343
70
0
0
VERTEX
8
Layer 1
10
132.350085
20
27.909277
70
0
0
VERTEX
8
Layer 1
10
132.157880
20
28.630054
70
0
0
VERTEX
8
Layer 1
10
131.643043
20
28.849718
70
0
0
VERTEX
8
Layer 1
10
131.141930
20
28.630054
70
0
0
VERTEX
8
Layer 1
10
130.942862
20
27.909277
70
0
0
VERTEX
8
Layer 1
10
130.942862
20
26.639343
70
0
0
VERTEX
8
Layer 1
10
128.341210
20
26.639343
70
0
0
VERTEX
8
Layer 1
10
127.620436
20
26.440274
70
0
0
VERTEX
8
Layer 1
10
127.400772
20
25.932298
70
0
0
VERTEX
8
Layer 1
10
127.620436
20
25.424325
70
0
0
VERTEX
8
Layer 1
10
128.341210
20
25.232120
70
0
0
VERTEX
8
Layer 1
10
130.942862
20
25.232120
70
0
0
SEQEND
8
Layer 1
0
POLYLINE
8
Layer 1
62
7
70
0
10
0.000000
20
0.000000
66
1
0
VERTEX
8
Layer 1
10
114.893634
20
22.747164
70
0
0
VERTEX
8
Layer 1
10
114.893634
20
20.406368
70
0
0
VERTEX
8
Layer 1
10
116.541117
20
20.406368
70
0
0
VERTEX
8
Layer 1
10
117.268755
20
20.598572
70
0
0
VERTEX
8
Layer 1
10
117.481555
20
21.113413
70
0
0
VERTEX
8
Layer 1
10
117.261890
20
21.614522
70
0
0
VERTEX
8
Layer 1
10
116.541117
20
21.813591
70
0
0
VERTEX
8
Layer 1
10
116.300857
20
21.813591
70
0
0
VERTEX
8
Layer 1
10
116.300857
20
27.902413
70
0
0
VERTEX
8
Layer 1
10
116.541117
20
27.902413
70
0
0
VERTEX
8
Layer 1
10
117.268755
20
28.094621
70
0
0
VERTEX
8
Layer 1
10
117.481555
20
28.609458
70
0
0
VERTEX
8
Layer 1
10
117.268755
20
29.110567
70
0
0
VERTEX
8
Layer 1
10
116.541117
20
29.309639
70
0
0
VERTEX
8
Layer 1
10
114.893634
20
29.309639
70
0
0
VERTEX
8
Layer 1
10
114.893634
20
24.566263
70
0
0
VERTEX
8
Layer 1
10
113.795312
20
25.451784
70
0
0
VERTEX
8
Layer 1
10
113.966925
20
25.932298
70
0
0
VERTEX
8
Layer 1
10
113.754125
20
26.440274
70
0
0
VERTEX
8
Layer 1
10
113.033351
20
26.639343
70
0
0
VERTEX
8
Layer 1
10
111.427053
20
26.639343
70
0
0
VERTEX
8
Layer 1
10
110.706280
20
26.440274
70
0
0
VERTEX
8
Layer 1
10
110.486615
20
25.932298
70
0
0
VERTEX
8
Layer 1
10
110.706280
20
25.424325
70
0
0
VERTEX
8
Layer 1
10
111.427053
20
25.232120
70
0
0
VERTEX
8
Layer 1
10
111.818333
20
25.232120
70
0
0
VERTEX
8
Layer 1
10
113.527596
20
23.845486
70
0
0
VERTEX
8
Layer 1
10
111.227984
20
21.813591
70
0
0
VERTEX
8
Layer 1
10
110.816112
20
21.813591
70
0
0
VERTEX
8
Layer 1
10
110.095338
20
21.614522
70
0
0
VERTEX
8
Layer 1
10
109.875674
20
21.106549
70
0
0
VERTEX
8
Layer 1
10
110.095338
20
20.598572
70
0
0
VERTEX
8
Layer 1
10
110.816112
20
20.406368
70
0
0
VERTEX
8
Layer 1
10
112.436138
20
20.406368
70
0
0
VERTEX
8
Layer 1
10
113.163776
20
20.598572
70
0
0
VERTEX
8
Layer 1
10
113.376576
20
21.113413
70
0
0
VERTEX
8
Layer 1
10
113.143183
20
21.641978
70
0
0
VERTEX
8
Layer 1
10
114.632782
20
22.959965
70
0
0
VERTEX
8
Layer 1
10
114.893634
20
22.747164
70
0
0
SEQEND
8
Layer 1
0
POLYLINE
8
Layer 1
62
7
70
0
10
0.000000
20
0.000000
66
1
0
VERTEX
8
Layer 1
10
101.775552
20
22.808948
70
0
0
VERTEX
8
Layer 1
10
107.548606
20
22.808948
70
0
0
VERTEX
8
Layer 1
10
107.244851
20
22.312986
70
0
0
VERTEX
8
Layer 1
10
106.772917
20
21.923423
70
0
0
VERTEX
8
Layer 1
10
106.112206
20
21.671152
70
0
0
VERTEX
8
Layer 1
10
105.255858
20
21.587062
70
0
0
VERTEX
8
Layer 1
10
103.175911
20
21.923423
70
0
0
VERTEX
8
Layer 1
10
102.434545
20
22.060715
70
0
0
VERTEX
8
Layer 1
10
101.960892
20
21.861643
70
0
0
VERTEX
8
Layer 1
10
101.768688
20
21.360534
70
0
0
VERTEX
8
Layer 1
10
101.974621
20
20.893749
70
0
0
VERTEX
8
Layer 1
10
103.313203
20
20.406368
70
0
0
VERTEX
8
Layer 1
10
105.358826
20
20.179839
70
0
0
VERTEX
8
Layer 1
10
106.879316
20
20.418381
70
0
0
VERTEX
8
Layer 1
10
108.063443
20
21.134005
70
0
0
VERTEX
8
Layer 1
10
108.820257
20
22.198004
70
0
0
VERTEX
8
Layer 1
10
109.072528
20
23.481669
70
0
0
VERTEX
8
Layer 1
10
108.799664
20
24.825397
70
0
0
VERTEX
8
Layer 1
10
108.458583
20
25.393007
70
0
0
VERTEX
8
Layer 1
10
107.981071
20
25.891113
70
0
0
VERTEX
8
Layer 1
10
106.800375
20
26.591293
70
0
0
VERTEX
8
Layer 1
10
105.454930
20
26.824687
70
0
0
VERTEX
8
Layer 1
10
104.632904
20
26.749177
70
0
0
VERTEX
8
Layer 1
10
103.882956
20
26.522647
70
0
0
VERTEX
8
Layer 1
10
102.812094
20
25.870517
70
0
0
VERTEX
8
Layer 1
10
101.995216
20
24.614311
70
0
0
VERTEX
8
Layer 1
10
101.775552
20
23.406157
70
0
0
VERTEX
8
Layer 1
10
101.775552
20
22.808948
70
0
0
SEQEND
8
Layer 1
0
POLYLINE
8
Layer 1
62
7
70
0
10
0.000000
20
0.000000
66
1
0
VERTEX
8
Layer 1
10
103.333795
20
24.216171
70
0
0
VERTEX
8
Layer 1
10
103.706194
20
24.743022
70
0
0
VERTEX
8
Layer 1
10
104.178128
20
25.115424
70
0
0
VERTEX
8
Layer 1
10
104.749600
20
25.341951
70
0
0
VERTEX
8
Layer 1
10
105.420606
20
25.417461
70
0
0
VERTEX
8
Layer 1
10
106.086464
20
25.341951
70
0
0
VERTEX
8
Layer 1
10
106.656220
20
25.115424
70
0
0
VERTEX
8
Layer 1
10
107.129870
20
24.743022
70
0
0
VERTEX
8
Layer 1
10
107.507418
20
24.216171
70
0
0
VERTEX
8
Layer 1
10
103.333795
20
24.216171
70
0
0
SEQEND
8
Layer 1
0
POLYLINE
8
Layer 1
62
7
70
0
10
0.000000
20
0.000000
66
1
0
VERTEX
8
Layer 1
10
96.373179
20
29.309639
70
0
0
VERTEX
8
Layer 1
10
96.373179
20
27.820041
70
0
0
VERTEX
8
Layer 1
10
98.048122
20
27.820041
70
0
0
VERTEX
8
Layer 1
10
98.048122
20
29.309639
70
0
0
VERTEX
8
Layer 1
10
96.373179
20
29.309639
70
0
0
SEQEND
8
Layer 1
0
POLYLINE
8
Layer 1
62
7
70
0
10
0.000000
20
0.000000
66
1
0
VERTEX
8
Layer 1
10
96.180975
20
26.639343
70
0
0
VERTEX
8
Layer 1
10
96.180975
20
21.813591
70
0
0
VERTEX
8
Layer 1
10
94.492304
20
21.813591
70
0
0
VERTEX
8
Layer 1
10
93.771530
20
21.614522
70
0
0
VERTEX
8
Layer 1
10
93.551866
20
21.106549
70
0
0
VERTEX
8
Layer 1
10
93.771530
20
20.598572
70
0
0
VERTEX
8
Layer 1
10
94.492304
20
20.406368
70
0
0
VERTEX
8
Layer 1
10
99.276868
20
20.406368
70
0
0
VERTEX
8
Layer 1
10
100.004505
20
20.598572
70
0
0
VERTEX
8
Layer 1
10
100.217306
20
21.113413
70
0
0
VERTEX
8
Layer 1
10
100.004505
20
21.614522
70
0
0
VERTEX
8
Layer 1
10
99.276868
20
21.813591
70
0
0
VERTEX
8
Layer 1
10
97.588197
20
21.813591
70
0
0
VERTEX
8
Layer 1
10
97.588197
20
25.232120
70
0
0
VERTEX
8
Layer 1
10
98.720843
20
25.232120
70
0
0
VERTEX
8
Layer 1
10
99.441616
20
25.424325
70
0
0
VERTEX
8
Layer 1
10
99.661281
20
25.939165
70
0
0
VERTEX
8
Layer 1
10
99.448480
20
26.440274
70
0
0
VERTEX
8
Layer 1
10
98.720843
20
26.639343
70
0
0
VERTEX
8
Layer 1
10
96.180975
20
26.639343
70
0
0
SEQEND
8
Layer 1
0
POLYLINE
8
Layer 1
62
7
70
0
10
0.000000
20
0.000000
66
1
0
VERTEX
8
Layer 1
10
89.872488
20
26.639343
70
0
0
VERTEX
8
Layer 1
10
89.872488
20
26.165694
70
0
0
VERTEX
8
Layer 1
10
89.028154
20
26.659939
70
0
0
VERTEX
8
Layer 1
10
88.019069
20
26.824687
70
0
0
VERTEX
8
Layer 1
10
86.900153
20
26.630764
70
0
0
VERTEX
8
Layer 1
10
86.042089
20
26.048997
70
0
0
VERTEX
8
Layer 1
10
85.609626
20
25.335086
70
0
0
VERTEX
8
Layer 1
10
85.465472
20
24.428971
70
0
0
VERTEX
8
Layer 1
10
85.465472
20
21.813591
70
0
0
VERTEX
8
Layer 1
10
84.806479
20
21.614522
70
0
0
VERTEX
8
Layer 1
10
84.593679
20
21.106549
70
0
0
VERTEX
8
Layer 1
10
84.813343
20
20.598572
70
0
0
VERTEX
8
Layer 1
10
85.534116
20
20.406368
70
0
0
VERTEX
8
Layer 1
10
86.804051
20
20.406368
70
0
0
VERTEX
8
Layer 1
10
87.531688
20
20.598572
70
0
0
VERTEX
8
Layer 1
10
87.744488
20
21.113413
70
0
0
VERTEX
8
Layer 1
10
87.531688
20
21.614522
70
0
0
VERTEX
8
Layer 1
10
86.872695
20
21.813591
70
0
0
VERTEX
8
Layer 1
10
86.872695
20
24.470159
70
0
0
VERTEX
8
Layer 1
10
86.934476
20
24.868300
70
0
0
VERTEX
8
Layer 1
10
87.119819
20
25.142880
70
0
0
VERTEX
8
Layer 1
10
87.523109
20
25.348815
70
0
0
VERTEX
8
Layer 1
10
88.087713
20
25.417461
70
0
0
VERTEX
8
Layer 1
10
88.945778
20
25.225256
70
0
0
VERTEX
8
Layer 1
10
89.872488
20
24.428971
70
0
0
VERTEX
8
Layer 1
10
89.872488
20
21.813591
70
0
0
VERTEX
8
Layer 1
10
89.172307
20
21.710626
70
0
0
VERTEX
8
Layer 1
10
88.920036
20
21.456639
70
0
0
VERTEX
8
Layer 1
10
88.835946
20
21.106549
70
0
0
VERTEX
8
Layer 1
10
89.055610
20
20.598572
70
0
0
VERTEX
8
Layer 1
10
89.776384
20
20.406368
70
0
0
VERTEX
8
Layer 1
10
91.375815
20
20.406368
70
0
0
VERTEX
8
Layer 1
10
92.103455
20
20.598572
70
0
0
VERTEX
8
Layer 1
10
92.316252
20
21.113413
70
0
0
VERTEX
8
Layer 1
10
92.233878
20
21.454923
70
0
0
VERTEX
8
Layer 1
10
91.986756
20
21.710626
70
0
0
VERTEX
8
Layer 1
10
91.279714
20
21.813591
70
0
0
VERTEX
8
Layer 1
10
91.279714
20
25.232120
70
0
0
VERTEX
8
Layer 1
10
91.938707
20
25.431189
70
0
0
VERTEX
8
Layer 1
10
92.151504
20
25.939165
70
0
0
VERTEX
8
Layer 1
10
91.938707
20
26.440274
70
0
0
VERTEX
8
Layer 1
10
91.211066
20
26.639343
70
0
0
VERTEX
8
Layer 1
10
89.872488
20
26.639343
70
0
0
SEQEND
8
Layer 1
0
POLYLINE
8
Layer 1
62
7
70
0
10
0.000000
20
0.000000
66
1
0
VERTEX
8
Layer 1
10
76.486689
20
22.808948
70
0
0
VERTEX
8
Layer 1
10
82.259743
20
22.808948
70
0
0
VERTEX
8
Layer 1
10
81.955988
20
22.312986
70
0
0
VERTEX
8
Layer 1
10
81.484054
20
21.923423
70
0
0
VERTEX
8
Layer 1
10
80.823345
20
21.671152
70
0
0
VERTEX
8
Layer 1
10
79.966999
20
21.587062
70
0
0
VERTEX
8
Layer 1
10
77.887051
20
21.923423
70
0
0
VERTEX
8
Layer 1
10
77.145682
20
22.060715
70
0
0
VERTEX
8
Layer 1
10
76.672033
20
21.861643
70
0
0
VERTEX
8
Layer 1
10
76.479825
20
21.360534
70
0
0
VERTEX
8
Layer 1
10
76.685761
20
20.893749
70
0
0
VERTEX
8
Layer 1
10
78.024340
20
20.406368
70
0
0
VERTEX
8
Layer 1
10
80.069963
20
20.179839
70
0
0
VERTEX
8
Layer 1
10
81.590454
20
20.418381
70
0
0
VERTEX
8
Layer 1
10
82.774584
20
21.134005
70
0
0
VERTEX
8
Layer 1
10
83.531395
20
22.198004
70
0
0
VERTEX
8
Layer 1
10
83.783665
20
23.481669
70
0
0
VERTEX
8
Layer 1
10
83.510801
20
24.825397
70
0
0
VERTEX
8
Layer 1
10
83.169720
20
25.393007
70
0
0
VERTEX
8
Layer 1
10
82.692208
20
25.891113
70
0
0
VERTEX
8
Layer 1
10
81.511512
20
26.591293
70
0
0
VERTEX
8
Layer 1
10
80.166067
20
26.824687
70
0
0
VERTEX
8
Layer 1
10
79.344044
20
26.749177
70
0
0
VERTEX
8
Layer 1
10
78.594096
20
26.522647
70
0
0
VERTEX
8
Layer 1
10
77.523231
20
25.870517
70
0
0
VERTEX
8
Layer 1
10
76.706353
20
24.614311
70
0
0
VERTEX
8
Layer 1
10
76.486689
20
23.406157
70
0
0
VERTEX
8
Layer 1
10
76.486689
20
22.808948
70
0
0
SEQEND
8
Layer 1
0
POLYLINE
8
Layer 1
62
7
70
0
10
0.000000
20
0.000000
66
1
0
VERTEX
8
Layer 1
10
78.044935
20
24.216171
70
0
0
VERTEX
8
Layer 1
10
78.417333
20
24.743022
70
0
0
VERTEX
8
Layer 1
10
78.889269
20
25.115424
70
0
0
VERTEX
8
Layer 1
10
79.460739
20
25.341951
70
0
0
VERTEX
8
Layer 1
10
80.131747
20
25.417461
70
0
0
VERTEX
8
Layer 1
10
80.797604
20
25.341951
70
0
0
VERTEX
8
Layer 1
10
81.367357
20
25.115424
70
0
0
VERTEX
8
Layer 1
10
81.841010
20
24.743022
70
0
0
VERTEX
8
Layer 1
10
82.218559
20
24.216171
70
0
0
VERTEX
8
Layer 1
10
78.044935
20
24.216171
70
0
0
SEQEND
8
Layer 1
0
POLYLINE
8
Layer 1
62
7
70
0
10
0.000000
20
0.000000
66
1
0
VERTEX
8
Layer 1
10
61.611292
20
26.220610
70
0
0
VERTEX
8
Layer 1
10
61.611292
20
26.639343
70
0
0
VERTEX
8
Layer 1
10
59.963809
20
26.639343
70
0
0
VERTEX
8
Layer 1
10
59.243036
20
26.440274
70
0
0
VERTEX
8
Layer 1
10
59.023371
20
25.932298
70
0
0
VERTEX
8
Layer 1
10
59.243036
20
25.424325
70
0
0
VERTEX
8
Layer 1
10
59.963809
20
25.232120
70
0
0
VERTEX
8
Layer 1
10
60.204069
20
25.232120
70
0
0
VERTEX
8
Layer 1
10
60.204069
20
20.111192
70
0
0
VERTEX
8
Layer 1
10
60.283010
20
19.417877
70
0
0
VERTEX
8
Layer 1
10
60.519834
20
18.820665
70
0
0
VERTEX
8
Layer 1
10
60.912828
20
18.304111
70
0
0
VERTEX
8
Layer 1
10
61.474003
20
17.866499
70
0
0
VERTEX
8
Layer 1
10
62.160454
20
17.567891
70
0
0
VERTEX
8
Layer 1
10
62.929278
20
17.468355
70
0
0
VERTEX
8
Layer 1
10
64.521845
20
17.468355
70
0
0
VERTEX
8
Layer 1
10
65.249486
20
17.667427
70
0
0
VERTEX
8
Layer 1
10
65.462282
20
18.168536
70
0
0
VERTEX
8
Layer 1
10
65.249486
20
18.683373
70
0
0
VERTEX
8
Layer 1
10
64.521845
20
18.875581
70
0
0
VERTEX
8
Layer 1
10
62.970466
20
18.875581
70
0
0
VERTEX
8
Layer 1
10
62.397279
20
18.963104
70
0
0
VERTEX
8
Layer 1
10
61.968248
20
19.225670
70
0
0
VERTEX
8
Layer 1
10
61.700531
20
19.622097
70
0
0
VERTEX
8
Layer 1
10
61.611292
20
20.111192
70
0
0
VERTEX
8
Layer 1
10
61.611292
20
20.797645
70
0
0
VERTEX
8
Layer 1
10
62.565461
20
20.344588
70
0
0
VERTEX
8
Layer 1
10
63.553951
20
20.193568
70
0
0
VERTEX
8
Layer 1
10
64.871936
20
20.432109
70
0
0
VERTEX
8
Layer 1
10
65.956527
20
21.147733
70
0
0
VERTEX
8
Layer 1
10
66.682450
20
22.220314
70
0
0
VERTEX
8
Layer 1
10
66.924425
20
23.515990
70
0
0
VERTEX
8
Layer 1
10
66.682450
20
24.815100
70
0
0
VERTEX
8
Layer 1
10
65.956527
20
25.884249
70
0
0
VERTEX
8
Layer 1
10
64.871936
20
26.605022
70
0
0
VERTEX
8
Layer 1
10
63.553951
20
26.845279
70
0
0
VERTEX
8
Layer 1
10
62.538001
20
26.687395
70
0
0
VERTEX
8
Layer 1
10
61.611292
20
26.220610
70
0
0
VERTEX
8
Layer 1
10
61.611292
20
26.220610
70
0
0
SEQEND
8
Layer 1
0
POLYLINE
8
Layer 1
62
7
70
0
10
0.000000
20
0.000000
66
1
0
VERTEX
8
Layer 1
10
61.618145
20
23.522857
70
0
0
VERTEX
8
Layer 1
10
61.762300
20
24.247062
70
0
0
VERTEX
8
Layer 1
10
62.194766
20
24.868300
70
0
0
VERTEX
8
Layer 1
10
62.822868
20
25.295615
70
0
0
VERTEX
8
Layer 1
10
63.567668
20
25.438053
70
0
0
VERTEX
8
Layer 1
10
64.314185
20
25.295615
70
0
0
VERTEX
8
Layer 1
10
64.947435
20
24.868300
70
0
0
VERTEX
8
Layer 1
10
65.374750
20
24.247062
70
0
0
VERTEX
8
Layer 1
10
65.517188
20
23.522857
70
0
0
VERTEX
8
Layer 1
10
65.374750
20
22.793501
70
0
0
VERTEX
8
Layer 1
10
64.947435
20
22.170547
70
0
0
VERTEX
8
Layer 1
10
64.314185
20
21.748380
70
0
0
VERTEX
8
Layer 1
10
63.567668
20
21.607658
70
0
0
VERTEX
8
Layer 1
10
62.822868
20
21.748380
70
0
0
VERTEX
8
Layer 1
10
62.194766
20
22.170547
70
0
0
VERTEX
8
Layer 1
10
61.762300
20
22.793501
70
0
0
VERTEX
8
Layer 1
10
61.618145
20
23.522857
70
0
0
VERTEX
8
Layer 1
10
61.618145
20
23.522857
70
0
0
SEQEND
8
Layer 1
0
POLYLINE
8
Layer 1
62
7
70
0
10
0.000000
20
0.000000
66
1
0
VERTEX
8
Layer 1
10
55.021360
20
26.639343
70
0
0
VERTEX
8
Layer 1
10
55.021360
20
25.760685
70
0
0
VERTEX
8
Layer 1
10
53.627866
20
26.611886
70
0
0
VERTEX
8
Layer 1
10
52.666833
20
26.824687
70
0
0
VERTEX
8
Layer 1
10
51.990679
20
26.697693
70
0
0
VERTEX
8
Layer 1
10
51.335118
20
26.316710
70
0
0
VERTEX
8
Layer 1
10
51.005622
20
25.970054
70
0
0
VERTEX
8
Layer 1
10
50.895789
20
25.616533
70
0
0
VERTEX
8
Layer 1
10
51.108590
20
25.101692
70
0
0
VERTEX
8
Layer 1
10
51.609699
20
24.895759
70
0
0
VERTEX
8
Layer 1
10
52.158860
20
25.156608
70
0
0
VERTEX
8
Layer 1
10
52.673700
20
25.417461
70
0
0
VERTEX
8
Layer 1
10
53.559222
20
25.046776
70
0
0
VERTEX
8
Layer 1
10
55.021360
20
23.934726
70
0
0
VERTEX
8
Layer 1
10
55.021360
20
21.813591
70
0
0
VERTEX
8
Layer 1
10
53.016925
20
21.813591
70
0
0
VERTEX
8
Layer 1
10
52.296152
20
21.614522
70
0
0
VERTEX
8
Layer 1
10
52.076487
20
21.106549
70
0
0
VERTEX
8
Layer 1
10
52.296152
20
20.598572
70
0
0
VERTEX
8
Layer 1
10
53.016925
20
20.406368
70
0
0
VERTEX
8
Layer 1
10
57.266056
20
20.406368
70
0
0
VERTEX
8
Layer 1
10
57.993694
20
20.598572
70
0
0
VERTEX
8
Layer 1
10
58.206494
20
21.113413
70
0
0
VERTEX
8
Layer 1
10
57.993694
20
21.614522
70
0
0
VERTEX
8
Layer 1
10
57.266056
20
21.813591
70
0
0
VERTEX
8
Layer 1
10
56.428587
20
21.813591
70
0
0
VERTEX
8
Layer 1
10
56.428587
20
25.232120
70
0
0
VERTEX
8
Layer 1
10
56.936560
20
25.232120
70
0
0
VERTEX
8
Layer 1
10
57.664197
20
25.424325
70
0
0
VERTEX
8
Layer 1
10
57.876997
20
25.939165
70
0
0
VERTEX
8
Layer 1
10
57.664197
20
26.440274
70
0
0
VERTEX
8
Layer 1
10
56.936560
20
26.639343
70
0
0
VERTEX
8
Layer 1
10
55.021360
20
26.639343
70
0
0
SEQEND
8
Layer 1
0
POLYLINE
8
Layer 1
62
7
70
0
10
0.000000
20
0.000000
66
1
0
VERTEX
8
Layer 1
10
42.768208
20
22.808948
70
0
0
VERTEX
8
Layer 1
10
48.541261
20
22.808948
70
0
0
VERTEX
8
Layer 1
10
48.237507
20
22.312986
70
0
0
VERTEX
8
Layer 1
10
47.765572
20
21.923423
70
0
0
VERTEX
8
Layer 1
10
47.104864
20
21.671152
70
0
0
VERTEX
8
Layer 1
10
46.248517
20
21.587062
70
0
0
VERTEX
8
Layer 1
10
44.168570
20
21.923423
70
0
0
VERTEX
8
Layer 1
10
43.427201
20
22.060715
70
0
0
VERTEX
8
Layer 1
10
42.953552
20
21.861643
70
0
0
VERTEX
8
Layer 1
10
42.761343
20
21.360534
70
0
0
VERTEX
8
Layer 1
10
42.967280
20
20.893749
70
0
0
VERTEX
8
Layer 1
10
44.305858
20
20.406368
70
0
0
VERTEX
8
Layer 1
10
46.351482
20
20.179839
70
0
0
VERTEX
8
Layer 1
10
47.871972
20
20.418381
70
0
0
VERTEX
8
Layer 1
10
49.056102
20
21.134005
70
0
0
VERTEX
8
Layer 1
10
49.812913
20
22.198004
70
0
0
VERTEX
8
Layer 1
10
50.065184
20
23.481669
70
0
0
VERTEX
8
Layer 1
10
49.792319
20
24.825397
70
0
0
VERTEX
8
Layer 1
10
49.451239
20
25.393007
70
0
0
VERTEX
8
Layer 1
10
48.973726
20
25.891113
70
0
0
VERTEX
8
Layer 1
10
47.793030
20
26.591293
70
0
0
VERTEX
8
Layer 1
10
46.447586
20
26.824687
70
0
0
VERTEX
8
Layer 1
10
45.625562
20
26.749177
70
0
0
VERTEX
8
Layer 1
10
44.875615
20
26.522647
70
0
0
VERTEX
8
Layer 1
10
43.804749
20
25.870517
70
0
0
VERTEX
8
Layer 1
10
42.987872
20
24.614311
70
0
0
VERTEX
8
Layer 1
10
42.768208
20
23.406157
70
0
0
VERTEX
8
Layer 1
10
42.768208
20
22.808948
70
0
0
SEQEND
8
Layer 1
0
POLYLINE
8
Layer 1
62
7
70
0
10
0.000000
20
0.000000
66
1
0
VERTEX
8
Layer 1
10
44.326454
20
24.216171
70
0
0
VERTEX
8
Layer 1
10
44.698852
20
24.743022
70
0
0
VERTEX
8
Layer 1
10
45.170787
20
25.115424
70
0
0
VERTEX
8
Layer 1
10
45.742258
20
25.341951
70
0
0
VERTEX
8
Layer 1
10
46.413265
20
25.417461
70
0
0
VERTEX
8
Layer 1
10
47.079123
20
25.341951
70
0
0
VERTEX
8
Layer 1
10
47.648876
20
25.115424
70
0
0
VERTEX
8
Layer 1
10
48.122528
20
24.743022
70
0
0
VERTEX
8
Layer 1
10
48.500077
20
24.216171
70
0
0
VERTEX
8
Layer 1
10
44.326454
20
24.216171
70
0
0
SEQEND
8
Layer 1
0
POLYLINE
8
Layer 1
62
7
70
0
10
0.000000
20
0.000000
66
1
0
VERTEX
8
Layer 1
10
39.294765
20
26.639343
70
0
0
VERTEX
8
Layer 1
10
39.294765
20
26.165694
70
0
0
VERTEX
8
Layer 1
10
38.450432
20
26.659939
70
0
0
VERTEX
8
Layer 1
10
37.441346
20
26.824687
70
0
0
VERTEX
8
Layer 1
10
36.322431
20
26.630764
70
0
0
VERTEX
8
Layer 1
10
35.464367
20
26.048997
70
0
0
VERTEX
8
Layer 1
10
35.031904
20
25.335086
70
0
0
VERTEX
8
Layer 1
10
34.887750
20
24.428971
70
0
0
VERTEX
8
Layer 1
10
34.887750
20
21.813591
70
0
0
VERTEX
8
Layer 1
10
34.228757
20
21.614522
70
0
0
VERTEX
8
Layer 1
10
34.015956
20
21.106549
70
0
0
VERTEX
8
Layer 1
10
34.235621
20
20.598572
70
0
0
VERTEX
8
Layer 1
10
34.956394
20
20.406368
70
0
0
VERTEX
8
Layer 1
10
36.226328
20
20.406368
70
0
0
VERTEX
8
Layer 1
10
36.953966
20
20.598572
70
0
0
VERTEX
8
Layer 1
10
37.166766
20
21.113413
70
0
0
VERTEX
8
Layer 1
10
36.953966
20
21.614522
70
0
0
VERTEX
8
Layer 1
10
36.294973
20
21.813591
70
0
0
VERTEX
8
Layer 1
10
36.294973
20
24.470159
70
0
0
VERTEX
8
Layer 1
10
36.356754
20
24.868300
70
0
0
VERTEX
8
Layer 1
10
36.542097
20
25.142880
70
0
0
VERTEX
8
Layer 1
10
36.945386
20
25.348815
70
0
0
VERTEX
8
Layer 1
10
37.509991
20
25.417461
70
0
0
VERTEX
8
Layer 1
10
38.368056
20
25.225256
70
0
0
VERTEX
8
Layer 1
10
39.294765
20
24.428971
70
0
0
VERTEX
8
Layer 1
10
39.294765
20
21.813591
70
0
0
VERTEX
8
Layer 1
10
38.594584
20
21.710626
70
0
0
VERTEX
8
Layer 1
10
38.342314
20
21.456639
70
0
0
VERTEX
8
Layer 1
10
38.258224
20
21.106549
70
0
0
VERTEX
8
Layer 1
10
38.477888
20
20.598572
70
0
0
VERTEX
8
Layer 1
10
39.198661
20
20.406368
70
0
0
VERTEX
8
Layer 1
10
40.798092
20
20.406368
70
0
0
VERTEX
8
Layer 1
10
41.525733
20
20.598572
70
0
0
VERTEX
8
Layer 1
10
41.738530
20
21.113413
70
0
0
VERTEX
8
Layer 1
10
41.656156
20
21.454923
70
0
0
VERTEX
8
Layer 1
10
41.409033
20
21.710626
70
0
0
VERTEX
8
Layer 1
10
40.701992
20
21.813591
70
0
0
VERTEX
8
Layer 1
10
40.701992
20
25.232120
70
0
0
VERTEX
8
Layer 1
10
41.360985
20
25.431189
70
0
0
VERTEX
8
Layer 1
10
41.573782
20
25.939165
70
0
0
VERTEX
8
Layer 1
10
41.360985
20
26.440274
70
0
0
VERTEX
8
Layer 1
10
40.633344
20
26.639343
70
0
0
VERTEX
8
Layer 1
10
39.294765
20
26.639343
70
0
0
SEQEND
8
Layer 1
0
POLYLINE
8
Layer 1
62
7
70
0
10
0.000000
20
0.000000
66
1
0
VERTEX
8
Layer 1
10
30.199286
20
21.813591
70
0
0
VERTEX
8
Layer 1
10
27.728062
20
21.813591
70
0
0
VERTEX
8
Layer 1
10
27.515262
20
22.397075
70
0
0
VERTEX
8
Layer 1
10
27.027884
20
22.596148
70
0
0
VERTEX
8
Layer 1
10
26.519908
20
22.376483
70
0
0
VERTEX
8
Layer 1
10
26.320839
20
21.655710
70
0
0
VERTEX
8
Layer 1
10
26.320839
20
20.406368
70
0
0
VERTEX
8
Layer 1
10
32.443982
20
20.406368
70
0
0
VERTEX
8
Layer 1
10
32.443982
20
21.573334
70
0
0
VERTEX
8
Layer 1
10
28.737147
20
25.232120
70
0
0
VERTEX
8
Layer 1
10
30.892603
20
25.232120
70
0
0
VERTEX
8
Layer 1
10
30.892603
20
25.094828
70
0
0
VERTEX
8
Layer 1
10
31.091675
20
24.374055
70
0
0
VERTEX
8
Layer 1
10
31.599648
20
24.161254
70
0
0
VERTEX
8
Layer 1
10
32.114485
20
24.374055
70
0
0
VERTEX
8
Layer 1
10
32.306693
20
25.094828
70
0
0
VERTEX
8
Layer 1
10
32.299840
20
26.639343
70
0
0
VERTEX
8
Layer 1
10
26.478734
20
26.639343
70
0
0
VERTEX
8
Layer 1
10
26.478734
20
25.486105
70
0
0
VERTEX
8
Layer 1
10
30.199297
20
21.813591
70
0
0
VERTEX
8
Layer 1
10
30.199286
20
21.813591
70
0
0
SEQEND
8
Layer 1
0
POLYLINE
8
Layer 1
62
7
70
0
10
0.000000
20
0.000000
66
1
0
VERTEX
8
Layer 1
10
17.479348
20
22.808948
70
0
0
VERTEX
8
Layer 1
10
23.252402
20
22.808948
70
0
0
VERTEX
8
Layer 1
10
22.948647
20
22.312986
70
0
0
VERTEX
8
Layer 1
10
22.476713
20
21.923423
70
0
0
VERTEX
8
Layer 1
10
21.816002
20
21.671152
70
0
0
VERTEX
8
Layer 1
10
20.959654
20
21.587062
70
0
0
VERTEX
8
Layer 1
10
18.879707
20
21.923423
70
0
0
VERTEX
8
Layer 1
10
18.138341
20
22.060715
70
0
0
VERTEX
8
Layer 1
10
17.664689
20
21.861643
70
0
0
VERTEX
8
Layer 1
10
17.472484
20
21.360534
70
0
0
VERTEX
8
Layer 1
10
17.678417
20
20.893749
70
0
0
VERTEX
8
Layer 1
10
19.016999
20
20.406368
70
0
0
VERTEX
8
Layer 1
10
21.062622
20
20.179839
70
0
0
VERTEX
8
Layer 1
10
22.583112
20
20.418381
70
0
0
VERTEX
8
Layer 1
10
23.767239
20
21.134005
70
0
0
VERTEX
8
Layer 1
10
24.524053
20
22.198004
70
0
0
VERTEX
8
Layer 1
10
24.776324
20
23.481669
70
0
0
VERTEX
8
Layer 1
10
24.503460
20
24.825397
70
0
0
VERTEX
8
Layer 1
10
24.162379
20
25.393007
70
0
0
VERTEX
8
Layer 1
10
23.684867
20
25.891113
70
0
0
VERTEX
8
Layer 1
10
22.504171
20
26.591293
70
0
0
VERTEX
8
Layer 1
10
21.158726
20
26.824687
70
0
0
VERTEX
8
Layer 1
10
20.336700
20
26.749177
70
0
0
VERTEX
8
Layer 1
10
19.586752
20
26.522647
70
0
0
VERTEX
8
Layer 1
10
18.515890
20
25.870517
70
0
0
VERTEX
8
Layer 1
10
17.699012
20
24.614311
70
0
0
VERTEX
8
Layer 1
10
17.479348
20
23.406157
70
0
0
VERTEX
8
Layer 1
10
17.479348
20
22.808948
70
0
0
SEQEND
8
Layer 1
0
POLYLINE
8
Layer 1
62
7
70
0
10
0.000000
20
0.000000
66
1
0
VERTEX
8
Layer 1
10
19.037591
20
24.216171
70
0
0
VERTEX
8
Layer 1
10
19.409991
20
24.743022
70
0
0
VERTEX
8
Layer 1
10
19.881925
20
25.115424
70
0
0
VERTEX
8
Layer 1
10
20.453396
20
25.341951
70
0
0
VERTEX
8
Layer 1
10
21.124402
20
25.417461
70
0
0
VERTEX
8
Layer 1
10
21.790261
20
25.341951
70
0
0
VERTEX
8
Layer 1
10
22.360016
20
25.115424
70
0
0
VERTEX
8
Layer 1
10
22.833666
20
24.743022
70
0
0
VERTEX
8
Layer 1
10
23.211214
20
24.216171
70
0
0
VERTEX
8
Layer 1
10
19.037591
20
24.216171
70
0
0
SEQEND
8
Layer 1
0
POLYLINE
8
Layer 1
62
7
70
0
10
0.000000
20
0.000000
66
1
0
VERTEX
8
Layer 1
10
14.005903
20
26.639343
70
0
0
VERTEX
8
Layer 1
10
14.005903
20
26.165694
70
0
0
VERTEX
8
Layer 1
10
13.161569
20
26.659939
70
0
0
VERTEX
8
Layer 1
10
12.152487
20
26.824687
70
0
0
VERTEX
8
Layer 1
10
11.033571
20
26.630764
70
0
0
VERTEX
8
Layer 1
10
10.175508
20
26.048997
70
0
0
VERTEX
8
Layer 1
10
9.743042
20
25.335086
70
0
0
VERTEX
8
Layer 1
10
9.598887
20
24.428971
70
0
0
VERTEX
8
Layer 1
10
9.598887
20
21.813591
70
0
0
VERTEX
8
Layer 1
10
8.939894
20
21.614522
70
0
0
VERTEX
8
Layer 1
10
8.727093
20
21.106549
70
0
0
VERTEX
8
Layer 1
10
8.946758
20
20.598572
70
0
0
VERTEX
8
Layer 1
10
9.667531
20
20.406368
70
0
0
VERTEX
8
Layer 1
10
10.937469
20
20.406368
70
0
0
VERTEX
8
Layer 1
10
11.665106
20
20.598572
70
0
0
VERTEX
8
Layer 1
10
11.877907
20
21.113413
70
0
0
VERTEX
8
Layer 1
10
11.665106
20
21.614522
70
0
0
VERTEX
8
Layer 1
10
11.006113
20
21.813591
70
0
0
VERTEX
8
Layer 1
10
11.006113
20
24.470159
70
0
0
VERTEX
8
Layer 1
10
11.067893
20
24.868300
70
0
0
VERTEX
8
Layer 1
10
11.253234
20
25.142880
70
0
0
VERTEX
8
Layer 1
10
11.656524
20
25.348815
70
0
0
VERTEX
8
Layer 1
10
12.221131
20
25.417461
70
0
0
VERTEX
8
Layer 1
10
13.079197
20
25.225256
70
0
0
VERTEX
8
Layer 1
10
14.005903
20
24.428971
70
0
0
VERTEX
8
Layer 1
10
14.005903
20
21.813591
70
0
0
VERTEX
8
Layer 1
10
13.305725
20
21.710626
70
0
0
VERTEX
8
Layer 1
10
13.053454
20
21.456639
70
0
0
VERTEX
8
Layer 1
10
12.969364
20
21.106549
70
0
0
VERTEX
8
Layer 1
10
13.189029
20
20.598572
70
0
0
VERTEX
8
Layer 1
10
13.909802
20
20.406368
70
0
0
VERTEX
8
Layer 1
10
15.509233
20
20.406368
70
0
0
VERTEX
8
Layer 1
10
16.236870
20
20.598572
70
0
0
VERTEX
8
Layer 1
10
16.449670
20
21.113413
70
0
0
VERTEX
8
Layer 1
10
16.367296
20
21.454923
70
0
0
VERTEX
8
Layer 1
10
16.120174
20
21.710626
70
0
0
VERTEX
8
Layer 1
10
15.413129
20
21.813591
70
0
0
VERTEX
8
Layer 1
10
15.413129
20
25.232120
70
0
0
VERTEX
8
Layer 1
10
16.072122
20
25.431189
70
0
0
VERTEX
8
Layer 1
10
16.284922
20
25.939165
70
0
0
VERTEX
8
Layer 1
10
16.072122
20
26.440274
70
0
0
VERTEX
8
Layer 1
10
15.344485
20
26.639343
70
0
0
VERTEX
8
Layer 1
10
14.005903
20
26.639343
70
0
0
SEQEND
8
Layer 1
 0 
ENDSEC
 0 
EOF