999
"DXF R12 Output" (www.mydxf.blogspot.com)
 0 
SECTION
 2 
HEADER
 9 
$ACADVER
 1 
AC1009
 9 
$EXTMIN
 10 
 0 
 20 
 0 
 9 
$EXTMAX
 10 
 8.5 
 20 
 11 
 0 
ENDSEC
 0 
SECTION
 2 
ENTITIES
0
POLYLINE
8
Layer 1
62
7
70
0
10
0.000000
20
0.000000
66
1
0
VERTEX
8
Layer 1
10
18.558962
20
277.266830
70
0
0
VERTEX
8
Layer 1
10
18.558962
20
281.675655
70
0
0
VERTEX
8
Layer 1
10
21.504057
20
281.675655
70
0
0
VERTEX
8
Layer 1
10
21.504057
20
277.266830
70
0
0
VERTEX
8
Layer 1
10
18.558962
20
277.266830
70
0
0
SEQEND
8
Layer 1
0
POLYLINE
8
Layer 1
62
7
70
1
10
0.000000
20
0.000000
66
1
0
VERTEX
8
Layer 1
10
15.631503
20
269.895275
70
0
0
VERTEX
8
Layer 1
10
18.558962
20
269.895275
70
0
0
VERTEX
8
Layer 1
10
18.558962
20
275.767830
70
0
0
VERTEX
8
Layer 1
10
21.504057
20
275.767830
70
0
0
VERTEX
8
Layer 1
10
21.504057
20
269.895275
70
0
0
VERTEX
8
Layer 1
10
24.431517
20
269.895275
70
0
0
VERTEX
8
Layer 1
10
24.431517
20
273.986665
70
0
0
VERTEX
8
Layer 1
10
24.184623
20
275.221136
70
0
0
VERTEX
8
Layer 1
10
23.637929
20
275.997089
70
0
0
VERTEX
8
Layer 1
10
23.108870
20
276.402701
70
0
0
VERTEX
8
Layer 1
10
22.861975
20
276.526148
70
0
0
VERTEX
8
Layer 1
10
23.108870
20
276.614328
70
0
0
VERTEX
8
Layer 1
10
23.637929
20
276.949399
70
0
0
VERTEX
8
Layer 1
10
24.184623
20
277.672446
70
0
0
VERTEX
8
Layer 1
10
24.431517
20
278.906917
70
0
0
VERTEX
8
Layer 1
10
24.431517
20
280.176659
70
0
0
VERTEX
8
Layer 1
10
24.219894
20
281.375859
70
0
0
VERTEX
8
Layer 1
10
23.637929
20
282.310530
70
0
0
VERTEX
8
Layer 1
10
22.703258
20
282.910130
70
0
0
VERTEX
8
Layer 1
10
21.504057
20
283.121750
70
0
0
VERTEX
8
Layer 1
10
15.631503
20
283.121750
70
0
0
VERTEX
8
Layer 1
10
15.631503
20
269.895275
70
0
0
SEQEND
8
Layer 1
0
POLYLINE
8
Layer 1
62
7
70
0
10
0.000000
20
0.000000
66
1
0
VERTEX
8
Layer 1
10
33.266799
20
275.767830
70
0
0
VERTEX
8
Layer 1
10
33.266799
20
277.266830
70
0
0
VERTEX
8
Layer 1
10
30.321704
20
277.266830
70
0
0
VERTEX
8
Layer 1
10
30.321704
20
281.658020
70
0
0
VERTEX
8
Layer 1
10
34.730529
20
281.658020
70
0
0
VERTEX
8
Layer 1
10
34.730529
20
283.121750
70
0
0
VERTEX
8
Layer 1
10
27.394245
20
283.121750
70
0
0
VERTEX
8
Layer 1
10
27.394245
20
269.895275
70
0
0
VERTEX
8
Layer 1
10
34.730529
20
269.895275
70
0
0
VERTEX
8
Layer 1
10
34.730529
20
271.376640
70
0
0
VERTEX
8
Layer 1
10
30.321704
20
271.376640
70
0
0
VERTEX
8
Layer 1
10
30.321704
20
275.767830
70
0
0
VERTEX
8
Layer 1
10
33.266799
20
275.767830
70
0
0
SEQEND
8
Layer 1
0
POLYLINE
8
Layer 1
62
7
70
0
10
0.000000
20
0.000000
66
1
0
VERTEX
8
Layer 1
10
43.759771
20
283.121750
70
0
0
VERTEX
8
Layer 1
10
40.973394
20
283.121750
70
0
0
VERTEX
8
Layer 1
10
39.738923
20
282.874856
70
0
0
VERTEX
8
Layer 1
10
38.768981
20
282.204714
70
0
0
VERTEX
8
Layer 1
10
38.151746
20
281.234773
70
0
0
VERTEX
8
Layer 1
10
37.940122
20
280.088478
70
0
0
VERTEX
8
Layer 1
10
37.940122
20
272.946182
70
0
0
VERTEX
8
Layer 1
10
38.151746
20
271.711711
70
0
0
VERTEX
8
Layer 1
10
38.768981
20
270.741770
70
0
0
VERTEX
8
Layer 1
10
39.738923
20
270.106899
70
0
0
VERTEX
8
Layer 1
10
40.973394
20
269.895275
70
0
0
VERTEX
8
Layer 1
10
43.759771
20
269.895275
70
0
0
VERTEX
8
Layer 1
10
44.923701
20
270.106899
70
0
0
VERTEX
8
Layer 1
10
45.876007
20
270.724134
70
0
0
VERTEX
8
Layer 1
10
46.510878
20
271.676440
70
0
0
VERTEX
8
Layer 1
10
46.740137
20
272.875641
70
0
0
VERTEX
8
Layer 1
10
45.294042
20
272.875641
70
0
0
VERTEX
8
Layer 1
10
45.170595
20
272.258405
70
0
0
VERTEX
8
Layer 1
10
44.835525
20
271.782252
70
0
0
VERTEX
8
Layer 1
10
44.341736
20
271.464817
70
0
0
VERTEX
8
Layer 1
10
43.759771
20
271.359005
70
0
0
VERTEX
8
Layer 1
10
40.867582
20
271.359005
70
0
0
VERTEX
8
Layer 1
10
40.867582
20
281.658020
70
0
0
VERTEX
8
Layer 1
10
43.759771
20
281.658020
70
0
0
VERTEX
8
Layer 1
10
44.381416
20
281.556617
70
0
0
VERTEX
8
Layer 1
10
44.870795
20
281.252408
70
0
0
VERTEX
8
Layer 1
10
45.188230
20
280.785073
70
0
0
VERTEX
8
Layer 1
10
45.294042
20
280.159020
70
0
0
VERTEX
8
Layer 1
10
46.740137
20
280.159020
70
0
0
VERTEX
8
Layer 1
10
46.510878
20
281.375855
70
0
0
VERTEX
8
Layer 1
10
45.876007
20
282.310526
70
0
0
VERTEX
8
Layer 1
10
44.923701
20
282.910126
70
0
0
VERTEX
8
Layer 1
10
43.759771
20
283.121750
70
0
0
VERTEX
8
Layer 1
10
43.759771
20
283.121750
70
0
0
SEQEND
8
Layer 1
0
POLYLINE
8
Layer 1
62
7
70
1
10
0.000000
20
0.000000
66
1
0
VERTEX
8
Layer 1
10
55.310889
20
283.121750
70
0
0
VERTEX
8
Layer 1
10
55.310889
20
277.266830
70
0
0
VERTEX
8
Layer 1
10
52.365794
20
277.266830
70
0
0
VERTEX
8
Layer 1
10
52.365794
20
283.121750
70
0
0
VERTEX
8
Layer 1
10
49.438334
20
283.121750
70
0
0
VERTEX
8
Layer 1
10
49.438334
20
269.895275
70
0
0
VERTEX
8
Layer 1
10
52.365794
20
269.895275
70
0
0
VERTEX
8
Layer 1
10
52.365794
20
275.767830
70
0
0
VERTEX
8
Layer 1
10
55.310889
20
275.767830
70
0
0
VERTEX
8
Layer 1
10
55.310889
20
269.895275
70
0
0
VERTEX
8
Layer 1
10
58.238349
20
269.895275
70
0
0
VERTEX
8
Layer 1
10
58.238349
20
283.121750
70
0
0
VERTEX
8
Layer 1
10
55.310889
20
283.121750
70
0
0
SEQEND
8
Layer 1
0
POLYLINE
8
Layer 1
62
7
70
0
10
0.000000
20
0.000000
66
1
0
VERTEX
8
Layer 1
10
68.537364
20
283.121750
70
0
0
VERTEX
8
Layer 1
10
59.719714
20
283.121750
70
0
0
VERTEX
8
Layer 1
10
59.719714
20
281.658020
70
0
0
VERTEX
8
Layer 1
10
62.664809
20
281.658020
70
0
0
VERTEX
8
Layer 1
10
62.664809
20
269.895275
70
0
0
VERTEX
8
Layer 1
10
65.592268
20
269.895275
70
0
0
VERTEX
8
Layer 1
10
65.592268
20
281.658020
70
0
0
VERTEX
8
Layer 1
10
68.537364
20
281.658020
70
0
0
VERTEX
8
Layer 1
10
68.537364
20
283.121750
70
0
0
SEQEND
8
Layer 1
0
POLYLINE
8
Layer 1
62
7
70
0
10
0.000000
20
0.000000
66
1
0
VERTEX
8
Layer 1
10
78.712893
20
283.121750
70
0
0
VERTEX
8
Layer 1
10
77.654775
20
282.874856
70
0
0
VERTEX
8
Layer 1
10
76.684833
20
282.222350
70
0
0
VERTEX
8
Layer 1
10
75.979421
20
281.270043
70
0
0
VERTEX
8
Layer 1
10
75.714892
20
280.141384
70
0
0
VERTEX
8
Layer 1
10
75.714892
20
269.895275
70
0
0
VERTEX
8
Layer 1
10
78.642351
20
269.895275
70
0
0
VERTEX
8
Layer 1
10
78.642351
20
275.767830
70
0
0
VERTEX
8
Layer 1
10
81.534541
20
275.767830
70
0
0
VERTEX
8
Layer 1
10
81.534541
20
269.895275
70
0
0
VERTEX
8
Layer 1
10
82.081235
20
269.877635
70
0
0
VERTEX
8
Layer 1
10
82.945365
20
269.877635
70
0
0
VERTEX
8
Layer 1
10
83.844765
20
269.895275
70
0
0
VERTEX
8
Layer 1
10
84.479636
20
269.895275
70
0
0
VERTEX
8
Layer 1
10
84.479636
20
280.141384
70
0
0
VERTEX
8
Layer 1
10
84.197471
20
281.252408
70
0
0
VERTEX
8
Layer 1
10
83.474424
20
282.204714
70
0
0
VERTEX
8
Layer 1
10
82.504482
20
282.874856
70
0
0
VERTEX
8
Layer 1
10
81.428729
20
283.121750
70
0
0
VERTEX
8
Layer 1
10
78.712893
20
283.121750
70
0
0
SEQEND
8
Layer 1
0
POLYLINE
8
Layer 1
62
7
70
0
10
0.000000
20
0.000000
66
1
0
VERTEX
8
Layer 1
10
78.642353
20
277.266830
70
0
0
VERTEX
8
Layer 1
10
78.642353
20
281.675655
70
0
0
VERTEX
8
Layer 1
10
81.534543
20
281.675655
70
0
0
VERTEX
8
Layer 1
10
81.534543
20
277.266830
70
0
0
VERTEX
8
Layer 1
10
78.642353
20
277.266830
70
0
0
SEQEND
8
Layer 1
0
POLYLINE
8
Layer 1
62
7
70
0
10
0.000000
20
0.000000
66
1
0
VERTEX
8
Layer 1
10
90.352193
20
283.121750
70
0
0
VERTEX
8
Layer 1
10
87.424733
20
283.121750
70
0
0
VERTEX
8
Layer 1
10
87.424733
20
272.875641
70
0
0
VERTEX
8
Layer 1
10
87.653992
20
271.764617
70
0
0
VERTEX
8
Layer 1
10
88.306498
20
270.812311
70
0
0
VERTEX
8
Layer 1
10
89.258804
20
270.142169
70
0
0
VERTEX
8
Layer 1
10
90.422734
20
269.895275
70
0
0
VERTEX
8
Layer 1
10
93.226746
20
269.895275
70
0
0
VERTEX
8
Layer 1
10
94.390676
20
270.142169
70
0
0
VERTEX
8
Layer 1
10
95.342982
20
270.812311
70
0
0
VERTEX
8
Layer 1
10
95.977853
20
271.764617
70
0
0
VERTEX
8
Layer 1
10
96.224747
20
272.875641
70
0
0
VERTEX
8
Layer 1
10
96.224747
20
283.121750
70
0
0
VERTEX
8
Layer 1
10
93.297288
20
283.121750
70
0
0
VERTEX
8
Layer 1
10
93.297288
20
271.359005
70
0
0
VERTEX
8
Layer 1
10
90.352193
20
271.359005
70
0
0
VERTEX
8
Layer 1
10
90.352193
20
283.121750
70
0
0
SEQEND
8
Layer 1
0
POLYLINE
8
Layer 1
62
7
70
1
10
0.000000
20
0.000000
66
1
0
VERTEX
8
Layer 1
10
105.060032
20
275.767830
70
0
0
VERTEX
8
Layer 1
10
105.060032
20
277.249195
70
0
0
VERTEX
8
Layer 1
10
102.114932
20
277.249195
70
0
0
VERTEX
8
Layer 1
10
102.114932
20
281.658020
70
0
0
VERTEX
8
Layer 1
10
106.523762
20
281.658020
70
0
0
VERTEX
8
Layer 1
10
106.523762
20
283.121750
70
0
0
VERTEX
8
Layer 1
10
99.187474
20
283.121750
70
0
0
VERTEX
8
Layer 1
10
99.187474
20
269.895275
70
0
0
VERTEX
8
Layer 1
10
102.114932
20
269.895275
70
0
0
VERTEX
8
Layer 1
10
102.114932
20
275.767830
70
0
0
VERTEX
8
Layer 1
10
105.060032
20
275.767830
70
0
0
SEQEND
8
Layer 1
0
POLYLINE
8
Layer 1
62
7
70
0
10
0.000000
20
0.000000
66
1
0
VERTEX
8
Layer 1
10
124.053212
20
283.121750
70
0
0
VERTEX
8
Layer 1
10
115.112112
20
283.121750
70
0
0
VERTEX
8
Layer 1
10
115.112112
20
281.658020
70
0
0
VERTEX
8
Layer 1
10
121.125752
20
281.658020
70
0
0
VERTEX
8
Layer 1
10
121.125752
20
278.906913
70
0
0
VERTEX
8
Layer 1
10
115.112112
20
273.387064
70
0
0
VERTEX
8
Layer 1
10
115.112112
20
269.895275
70
0
0
VERTEX
8
Layer 1
10
124.053212
20
269.895275
70
0
0
VERTEX
8
Layer 1
10
124.053212
20
271.376640
70
0
0
VERTEX
8
Layer 1
10
118.039572
20
271.376640
70
0
0
VERTEX
8
Layer 1
10
118.039572
20
274.198288
70
0
0
VERTEX
8
Layer 1
10
124.053212
20
279.700502
70
0
0
VERTEX
8
Layer 1
10
124.053212
20
283.121750
70
0
0
SEQEND
8
Layer 1
0
POLYLINE
8
Layer 1
62
7
70
0
10
0.000000
20
0.000000
66
1
0
VERTEX
8
Layer 1
10
129.943382
20
283.121750
70
0
0
VERTEX
8
Layer 1
10
127.015922
20
283.121750
70
0
0
VERTEX
8
Layer 1
10
127.015922
20
272.875641
70
0
0
VERTEX
8
Layer 1
10
127.245182
20
271.764617
70
0
0
VERTEX
8
Layer 1
10
127.897692
20
270.812311
70
0
0
VERTEX
8
Layer 1
10
128.850002
20
270.142169
70
0
0
VERTEX
8
Layer 1
10
130.013932
20
269.895275
70
0
0
VERTEX
8
Layer 1
10
132.817942
20
269.895275
70
0
0
VERTEX
8
Layer 1
10
133.981872
20
270.142169
70
0
0
VERTEX
8
Layer 1
10
134.934172
20
270.812311
70
0
0
VERTEX
8
Layer 1
10
135.569052
20
271.764617
70
0
0
VERTEX
8
Layer 1
10
135.815942
20
272.875641
70
0
0
VERTEX
8
Layer 1
10
135.815942
20
283.121750
70
0
0
VERTEX
8
Layer 1
10
132.888482
20
283.121750
70
0
0
VERTEX
8
Layer 1
10
132.888482
20
271.359005
70
0
0
VERTEX
8
Layer 1
10
129.943382
20
271.359005
70
0
0
VERTEX
8
Layer 1
10
129.943382
20
283.121750
70
0
0
SEQEND
8
Layer 1
0
POLYLINE
8
Layer 1
62
7
70
0
10
0.000000
20
0.000000
66
1
0
VERTEX
8
Layer 1
10
146.114952
20
283.121750
70
0
0
VERTEX
8
Layer 1
10
141.706132
20
278.677654
70
0
0
VERTEX
8
Layer 1
10
141.706132
20
283.121750
70
0
0
VERTEX
8
Layer 1
10
138.778672
20
283.121750
70
0
0
VERTEX
8
Layer 1
10
138.778672
20
269.895275
70
0
0
VERTEX
8
Layer 1
10
141.706132
20
269.895275
70
0
0
VERTEX
8
Layer 1
10
141.706132
20
274.357006
70
0
0
VERTEX
8
Layer 1
10
146.114952
20
269.895275
70
0
0
VERTEX
8
Layer 1
10
149.060052
20
269.895275
70
0
0
VERTEX
8
Layer 1
10
142.376272
20
276.790677
70
0
0
VERTEX
8
Layer 1
10
149.060052
20
283.121750
70
0
0
VERTEX
8
Layer 1
10
146.114952
20
283.121750
70
0
0
SEQEND
8
Layer 1
0
POLYLINE
8
Layer 1
62
7
70
0
10
0.000000
20
0.000000
66
1
0
VERTEX
8
Layer 1
10
154.932562
20
283.121750
70
0
0
VERTEX
8
Layer 1
10
152.005102
20
283.121750
70
0
0
VERTEX
8
Layer 1
10
152.005102
20
272.875641
70
0
0
VERTEX
8
Layer 1
10
152.234362
20
271.764617
70
0
0
VERTEX
8
Layer 1
10
152.886862
20
270.812311
70
0
0
VERTEX
8
Layer 1
10
153.839172
20
270.142169
70
0
0
VERTEX
8
Layer 1
10
155.003102
20
269.895275
70
0
0
VERTEX
8
Layer 1
10
157.807112
20
269.895275
70
0
0
VERTEX
8
Layer 1
10
158.971042
20
270.142169
70
0
0
VERTEX
8
Layer 1
10
159.923352
20
270.812311
70
0
0
VERTEX
8
Layer 1
10
160.558222
20
271.764617
70
0
0
VERTEX
8
Layer 1
10
160.805112
20
272.875641
70
0
0
VERTEX
8
Layer 1
10
160.805112
20
283.121750
70
0
0
VERTEX
8
Layer 1
10
157.877652
20
283.121750
70
0
0
VERTEX
8
Layer 1
10
157.877652
20
271.359005
70
0
0
VERTEX
8
Layer 1
10
154.932562
20
271.359005
70
0
0
VERTEX
8
Layer 1
10
154.932562
20
283.121750
70
0
0
SEQEND
8
Layer 1
0
POLYLINE
8
Layer 1
62
7
70
0
10
0.000000
20
0.000000
66
1
0
VERTEX
8
Layer 1
10
165.231592
20
277.619536
70
0
0
VERTEX
8
Layer 1
10
173.343822
20
269.895275
70
0
0
VERTEX
8
Layer 1
10
174.049232
20
269.895275
70
0
0
VERTEX
8
Layer 1
10
174.049232
20
283.121750
70
0
0
VERTEX
8
Layer 1
10
172.567872
20
283.121750
70
0
0
VERTEX
8
Layer 1
10
172.567872
20
275.468030
70
0
0
VERTEX
8
Layer 1
10
164.455632
20
283.121750
70
0
0
VERTEX
8
Layer 1
10
163.767862
20
283.121750
70
0
0
VERTEX
8
Layer 1
10
163.767862
20
269.895275
70
0
0
VERTEX
8
Layer 1
10
165.231592
20
269.895275
70
0
0
VERTEX
8
Layer 1
10
165.231592
20
277.619536
70
0
0
SEQEND
8
Layer 1
0
POLYLINE
8
Layer 1
62
7
70
1
10
0.000000
20
0.000000
66
1
0
VERTEX
8
Layer 1
10
182.866852
20
275.767830
70
0
0
VERTEX
8
Layer 1
10
182.866852
20
277.249195
70
0
0
VERTEX
8
Layer 1
10
179.921762
20
277.249195
70
0
0
VERTEX
8
Layer 1
10
179.921762
20
281.658020
70
0
0
VERTEX
8
Layer 1
10
184.330582
20
281.658020
70
0
0
VERTEX
8
Layer 1
10
184.330582
20
283.121750
70
0
0
VERTEX
8
Layer 1
10
176.994302
20
283.121750
70
0
0
VERTEX
8
Layer 1
10
176.994302
20
269.895275
70
0
0
VERTEX
8
Layer 1
10
179.921762
20
269.895275
70
0
0
VERTEX
8
Layer 1
10
179.921762
20
275.767830
70
0
0
VERTEX
8
Layer 1
10
182.866852
20
275.767830
70
0
0
SEQEND
8
Layer 1
0
POLYLINE
8
Layer 1
62
7
70
0
10
0.000000
20
0.000000
66
1
0
VERTEX
8
Layer 1
10
194.611922
20
283.121750
70
0
0
VERTEX
8
Layer 1
10
185.794272
20
283.121750
70
0
0
VERTEX
8
Layer 1
10
185.794272
20
281.658020
70
0
0
VERTEX
8
Layer 1
10
188.739372
20
281.658020
70
0
0
VERTEX
8
Layer 1
10
188.739372
20
269.895275
70
0
0
VERTEX
8
Layer 1
10
191.666832
20
269.895275
70
0
0
VERTEX
8
Layer 1
10
191.666832
20
281.658020
70
0
0
VERTEX
8
Layer 1
10
194.611922
20
281.658020
70
0
0
VERTEX
8
Layer 1
10
194.611922
20
283.121750
70
0
0
SEQEND
8
Layer 1
 0 
ENDSEC
 0 
EOF