999
"DXF R12 Output" (www.mydxf.blogspot.com)
 0 
SECTION
 2 
HEADER
 9 
$ACADVER
 1 
AC1009
 9 
$EXTMIN
 10 
 0 
 20 
 0 
 9 
$EXTMAX
 10 
 8.5 
 20 
 11 
 0 
ENDSEC
 0 
SECTION
 2 
ENTITIES
0
POLYLINE
8
Layer 1
62
10
70
0
10
0.000000
20
0.000000
66
1
0
VERTEX
8
Layer 1
10
151.048170
20
129.276700
70
0
0
VERTEX
8
Layer 1
10
152.465223
20
129.878192
70
0
0
VERTEX
8
Layer 1
10
153.449834
20
130.129082
70
0
0
VERTEX
8
Layer 1
10
154.184933
20
130.047367
70
0
0
VERTEX
8
Layer 1
10
154.853450
20
129.651040
70
0
0
VERTEX
8
Layer 1
10
155.469183
20
129.338194
70
0
0
VERTEX
8
Layer 1
10
156.309078
20
129.145988
70
0
0
VERTEX
8
Layer 1
10
158.342070
20
129.098550
70
0
0
VERTEX
8
Layer 1
10
160.313854
20
129.458842
70
0
0
VERTEX
8
Layer 1
10
161.077240
20
129.776298
70
0
0
VERTEX
8
Layer 1
10
161.585860
20
130.176980
70
0
0
VERTEX
8
Layer 1
10
161.741138
20
131.488092
70
0
0
VERTEX
8
Layer 1
10
161.841698
20
135.411800
70
0
0
VERTEX
8
Layer 1
10
161.916590
20
153.806900
70
0
0
VERTEX
8
Layer 1
10
161.924590
20
177.036720
70
0
0
VERTEX
8
Layer 1
10
161.224500
20
177.685550
70
0
0
VERTEX
8
Layer 1
10
160.701621
20
177.996877
70
0
0
VERTEX
8
Layer 1
10
159.948348
20
178.222474
70
0
0
VERTEX
8
Layer 1
10
158.059480
20
178.413857
70
0
0
VERTEX
8
Layer 1
10
156.175607
20
178.254462
70
0
0
VERTEX
8
Layer 1
10
155.428578
20
178.041586
70
0
0
VERTEX
8
Layer 1
10
154.914440
20
177.739050
70
0
0
VERTEX
8
Layer 1
10
154.277390
20
177.143740
70
0
0
VERTEX
8
Layer 1
10
154.233190
20
169.735400
70
0
0
VERTEX
8
Layer 1
10
154.177805
20
164.228823
70
0
0
VERTEX
8
Layer 1
10
154.029244
20
162.609301
70
0
0
VERTEX
8
Layer 1
10
153.700590
20
161.566213
70
0
0
VERTEX
8
Layer 1
10
153.117206
20
160.964998
70
0
0
VERTEX
8
Layer 1
10
152.204455
20
160.671101
70
0
0
VERTEX
8
Layer 1
10
149.092310
20
160.467020
70
0
0
VERTEX
8
Layer 1
10
145.498753
20
160.185032
70
0
0
VERTEX
8
Layer 1
10
143.656653
20
159.847417
70
0
0
VERTEX
8
Layer 1
10
142.812588
20
159.469367
70
0
0
VERTEX
8
Layer 1
10
142.213140
20
159.066070
70
0
0
VERTEX
8
Layer 1
10
140.632127
20
158.013348
70
0
0
VERTEX
8
Layer 1
10
139.249306
20
156.792253
70
0
0
VERTEX
8
Layer 1
10
138.059835
20
155.462175
70
0
0
VERTEX
8
Layer 1
10
137.058875
20
154.082504
70
0
0
VERTEX
8
Layer 1
10
135.603129
20
151.411940
70
0
0
VERTEX
8
Layer 1
10
134.843350
20
149.255680
70
0
0
VERTEX
8
Layer 1
10
134.698018
20
144.681997
70
0
0
VERTEX
8
Layer 1
10
134.789752
20
141.401405
70
0
0
VERTEX
8
Layer 1
10
135.044100
20
138.845300
70
0
0
VERTEX
8
Layer 1
10
135.386068
20
137.309592
70
0
0
VERTEX
8
Layer 1
10
135.863069
20
135.843015
70
0
0
VERTEX
8
Layer 1
10
136.542838
20
134.438906
70
0
0
VERTEX
8
Layer 1
10
137.493110
20
133.090600
70
0
0
VERTEX
8
Layer 1
10
138.790078
20
131.633954
70
0
0
VERTEX
8
Layer 1
10
139.828406
20
130.660960
70
0
0
VERTEX
8
Layer 1
10
142.000090
20
129.079090
70
0
0
VERTEX
8
Layer 1
10
142.703966
20
128.670536
70
0
0
VERTEX
8
Layer 1
10
143.640957
20
128.388194
70
0
0
VERTEX
8
Layer 1
10
145.992101
20
128.197298
70
0
0
VERTEX
8
Layer 1
10
148.609160
20
128.496694
70
0
0
VERTEX
8
Layer 1
10
151.047770
20
129.276680
70
0
0
VERTEX
8
Layer 1
10
151.048170
20
129.276700
70
0
0
SEQEND
8
Layer 1
0
POLYLINE
8
Layer 1
62
10
70
0
10
0.000000
20
0.000000
66
1
0
VERTEX
8
Layer 1
10
148.563540
20
132.739830
70
0
0
VERTEX
8
Layer 1
10
147.352440
20
133.318132
70
0
0
VERTEX
8
Layer 1
10
146.158541
20
134.327578
70
0
0
VERTEX
8
Layer 1
10
145.072014
20
135.630329
70
0
0
VERTEX
8
Layer 1
10
144.183030
20
137.088550
70
0
0
VERTEX
8
Layer 1
10
143.476830
20
139.267604
70
0
0
VERTEX
8
Layer 1
10
143.052911
20
142.157027
70
0
0
VERTEX
8
Layer 1
10
142.962654
20
145.167287
70
0
0
VERTEX
8
Layer 1
10
143.257440
20
147.708850
70
0
0
VERTEX
8
Layer 1
10
143.596202
20
149.134422
70
0
0
VERTEX
8
Layer 1
10
144.435291
20
151.560174
70
0
0
VERTEX
8
Layer 1
10
145.482815
20
153.895811
70
0
0
VERTEX
8
Layer 1
10
145.993523
20
154.689120
70
0
0
VERTEX
8
Layer 1
10
146.446880
20
155.051040
70
0
0
VERTEX
8
Layer 1
10
147.249939
20
155.782172
70
0
0
VERTEX
8
Layer 1
10
148.142048
20
156.341575
70
0
0
VERTEX
8
Layer 1
10
149.094759
20
156.708851
70
0
0
VERTEX
8
Layer 1
10
150.079622
20
156.863605
70
0
0
VERTEX
8
Layer 1
10
151.068190
20
156.785441
70
0
0
VERTEX
8
Layer 1
10
152.032013
20
156.453963
70
0
0
VERTEX
8
Layer 1
10
152.942642
20
155.848774
70
0
0
VERTEX
8
Layer 1
10
153.771630
20
154.949480
70
0
0
VERTEX
8
Layer 1
10
154.128229
20
153.208833
70
0
0
VERTEX
8
Layer 1
10
154.308317
20
150.387666
70
0
0
VERTEX
8
Layer 1
10
154.213954
20
143.089305
70
0
0
VERTEX
8
Layer 1
10
153.638516
20
136.225464
70
0
0
VERTEX
8
Layer 1
10
153.217262
20
133.947447
70
0
0
VERTEX
8
Layer 1
10
152.981453
20
133.270332
70
0
0
VERTEX
8
Layer 1
10
152.731980
20
132.967210
70
0
0
VERTEX
8
Layer 1
10
150.658451
20
132.696129
70
0
0
VERTEX
8
Layer 1
10
148.563540
20
132.739830
70
0
0
VERTEX
8
Layer 1
10
148.563540
20
132.739830
70
0
0
SEQEND
8
Layer 1
0
POLYLINE
8
Layer 1
62
10
70
0
10
0.000000
20
0.000000
66
1
0
VERTEX
8
Layer 1
10
112.524500
20
129.771160
70
0
0
VERTEX
8
Layer 1
10
113.207250
20
130.218520
70
0
0
VERTEX
8
Layer 1
10
113.290650
20
141.962140
70
0
0
VERTEX
8
Layer 1
10
113.314510
20
149.573155
70
0
0
VERTEX
8
Layer 1
10
113.465566
20
153.435910
70
0
0
VERTEX
8
Layer 1
10
113.692002
20
154.362239
70
0
0
VERTEX
8
Layer 1
10
114.074087
20
154.832163
70
0
0
VERTEX
8
Layer 1
10
114.653106
20
155.005900
70
0
0
VERTEX
8
Layer 1
10
115.470340
20
155.043670
70
0
0
VERTEX
8
Layer 1
10
117.697239
20
155.004963
70
0
0
VERTEX
8
Layer 1
10
119.448125
20
154.795638
70
0
0
VERTEX
8
Layer 1
10
120.782295
20
154.457841
70
0
0
VERTEX
8
Layer 1
10
121.759044
20
154.033723
70
0
0
VERTEX
8
Layer 1
10
122.437669
20
153.565430
70
0
0
VERTEX
8
Layer 1
10
122.877468
20
153.095111
70
0
0
VERTEX
8
Layer 1
10
123.277770
20
152.316990
70
0
0
VERTEX
8
Layer 1
10
123.433787
20
152.027448
70
0
0
VERTEX
8
Layer 1
10
123.545777
20
150.526663
70
0
0
VERTEX
8
Layer 1
10
123.771290
20
140.763520
70
0
0
VERTEX
8
Layer 1
10
123.932260
20
133.774231
70
0
0
VERTEX
8
Layer 1
10
124.080631
20
131.689098
70
0
0
VERTEX
8
Layer 1
10
124.340657
20
130.336204
70
0
0
VERTEX
8
Layer 1
10
124.762139
20
129.559973
70
0
0
VERTEX
8
Layer 1
10
125.394876
20
129.204830
70
0
0
VERTEX
8
Layer 1
10
126.288666
20
129.115197
70
0
0
VERTEX
8
Layer 1
10
127.493310
20
129.135500
70
0
0
VERTEX
8
Layer 1
10
128.968616
20
129.160572
70
0
0
VERTEX
8
Layer 1
10
130.060038
20
129.292290
70
0
0
VERTEX
8
Layer 1
10
130.824054
20
129.701469
70
0
0
VERTEX
8
Layer 1
10
131.317144
20
130.558923
70
0
0
VERTEX
8
Layer 1
10
131.595785
20
132.035467
70
0
0
VERTEX
8
Layer 1
10
131.716457
20
134.301916
70
0
0
VERTEX
8
Layer 1
10
131.709810
20
141.887790
70
0
0
VERTEX
8
Layer 1
10
131.628253
20
145.419752
70
0
0
VERTEX
8
Layer 1
10
131.184551
20
150.574685
70
0
0
VERTEX
8
Layer 1
10
130.721367
20
153.275370
70
0
0
VERTEX
8
Layer 1
10
130.041012
20
155.799323
70
0
0
VERTEX
8
Layer 1
10
129.101273
20
157.952386
70
0
0
VERTEX
8
Layer 1
10
128.520944
20
158.829159
70
0
0
VERTEX
8
Layer 1
10
127.859940
20
159.540400
70
0
0
VERTEX
8
Layer 1
10
126.974685
20
160.085334
70
0
0
VERTEX
8
Layer 1
10
125.775025
20
160.499128
70
0
0
VERTEX
8
Layer 1
10
122.852277
20
160.945635
70
0
0
VERTEX
8
Layer 1
10
119.931266
20
160.904589
70
0
0
VERTEX
8
Layer 1
10
118.733777
20
160.708943
70
0
0
VERTEX
8
Layer 1
10
117.851560
20
160.400660
70
0
0
VERTEX
8
Layer 1
10
116.228202
20
159.644106
70
0
0
VERTEX
8
Layer 1
10
114.908245
20
159.239970
70
0
0
VERTEX
8
Layer 1
10
113.919758
20
159.193726
70
0
0
VERTEX
8
Layer 1
10
113.290810
20
159.510850
70
0
0
VERTEX
8
Layer 1
10
112.814197
20
159.886464
70
0
0
VERTEX
8
Layer 1
10
112.137972
20
160.191351
70
0
0
VERTEX
8
Layer 1
10
110.395700
20
160.566166
70
0
0
VERTEX
8
Layer 1
10
108.482023
20
160.589743
70
0
0
VERTEX
8
Layer 1
10
106.814970
20
160.216530
70
0
0
VERTEX
8
Layer 1
10
106.334541
20
159.959235
70
0
0
VERTEX
8
Layer 1
10
105.968364
20
159.531589
70
0
0
VERTEX
8
Layer 1
10
105.700966
20
158.769665
70
0
0
VERTEX
8
Layer 1
10
105.516879
20
157.509535
70
0
0
VERTEX
8
Layer 1
10
105.336750
20
152.838946
70
0
0
VERTEX
8
Layer 1
10
105.304210
20
144.208400
70
0
0
VERTEX
8
Layer 1
10
105.304210
20
131.275180
70
0
0
VERTEX
8
Layer 1
10
105.419225
20
130.747862
70
0
0
VERTEX
8
Layer 1
10
105.678028
20
130.309212
70
0
0
VERTEX
8
Layer 1
10
106.578056
20
129.678526
70
0
0
VERTEX
8
Layer 1
10
107.906404
20
129.344355
70
0
0
VERTEX
8
Layer 1
10
109.565180
20
129.267930
70
0
0
VERTEX
8
Layer 1
10
111.651275
20
129.534395
70
0
0
VERTEX
8
Layer 1
10
112.524500
20
129.771160
70
0
0
VERTEX
8
Layer 1
10
112.524500
20
129.771160
70
0
0
SEQEND
8
Layer 1
0
POLYLINE
8
Layer 1
62
10
70
0
10
0.000000
20
0.000000
66
1
0
VERTEX
8
Layer 1
10
172.569880
20
129.946360
70
0
0
VERTEX
8
Layer 1
10
173.046706
20
130.455659
70
0
0
VERTEX
8
Layer 1
10
173.308036
20
131.122622
70
0
0
VERTEX
8
Layer 1
10
173.560716
20
132.282144
70
0
0
VERTEX
8
Layer 1
10
173.968341
20
136.731917
70
0
0
VERTEX
8
Layer 1
10
174.126010
20
145.111080
70
0
0
VERTEX
8
Layer 1
10
173.995417
20
158.095250
70
0
0
VERTEX
8
Layer 1
10
173.748963
20
159.678536
70
0
0
VERTEX
8
Layer 1
10
173.549187
20
159.928357
70
0
0
VERTEX
8
Layer 1
10
173.286470
20
160.078060
70
0
0
VERTEX
8
Layer 1
10
171.988915
20
160.574278
70
0
0
VERTEX
8
Layer 1
10
170.527465
20
160.759709
70
0
0
VERTEX
8
Layer 1
10
169.017317
20
160.639512
70
0
0
VERTEX
8
Layer 1
10
167.573670
20
160.218850
70
0
0
VERTEX
8
Layer 1
10
167.260980
20
159.896430
70
0
0
VERTEX
8
Layer 1
10
167.062937
20
159.370683
70
0
0
VERTEX
8
Layer 1
10
166.879260
20
157.156114
70
0
0
VERTEX
8
Layer 1
10
166.759581
20
152.468965
70
0
0
VERTEX
8
Layer 1
10
166.440840
20
144.203060
70
0
0
VERTEX
8
Layer 1
10
166.181150
20
140.590302
70
0
0
VERTEX
8
Layer 1
10
165.956551
20
136.455921
70
0
0
VERTEX
8
Layer 1
10
165.977560
20
134.456206
70
0
0
VERTEX
8
Layer 1
10
166.151520
20
132.641785
70
0
0
VERTEX
8
Layer 1
10
166.526490
20
131.117892
70
0
0
VERTEX
8
Layer 1
10
167.150530
20
129.989760
70
0
0
VERTEX
8
Layer 1
10
167.676284
20
129.624100
70
0
0
VERTEX
8
Layer 1
10
168.405768
20
129.433153
70
0
0
VERTEX
8
Layer 1
10
170.155135
20
129.431821
70
0
0
VERTEX
8
Layer 1
10
171.757037
20
129.698609
70
0
0
VERTEX
8
Layer 1
10
172.569880
20
129.946360
70
0
0
VERTEX
8
Layer 1
10
172.569880
20
129.946360
70
0
0
SEQEND
8
Layer 1
0
POLYLINE
8
Layer 1
62
10
70
0
10
0.000000
20
0.000000
66
1
0
VERTEX
8
Layer 1
10
185.391050
20
129.451600
70
0
0
VERTEX
8
Layer 1
10
185.879147
20
130.344457
70
0
0
VERTEX
8
Layer 1
10
186.211042
20
131.699603
70
0
0
VERTEX
8
Layer 1
10
186.517150
20
135.324330
70
0
0
VERTEX
8
Layer 1
10
186.475110
20
142.924490
70
0
0
VERTEX
8
Layer 1
10
186.493910
20
154.647550
70
0
0
VERTEX
8
Layer 1
10
187.351299
20
155.371085
70
0
0
VERTEX
8
Layer 1
10
188.152994
20
155.840522
70
0
0
VERTEX
8
Layer 1
10
189.059049
20
156.088998
70
0
0
VERTEX
8
Layer 1
10
190.229520
20
156.149650
70
0
0
VERTEX
8
Layer 1
10
192.518760
20
155.892227
70
0
0
VERTEX
8
Layer 1
10
193.373063
20
155.569479
70
0
0
VERTEX
8
Layer 1
10
194.072576
20
155.081859
70
0
0
VERTEX
8
Layer 1
10
194.646365
20
154.402733
70
0
0
VERTEX
8
Layer 1
10
195.123496
20
153.505468
70
0
0
VERTEX
8
Layer 1
10
195.904050
20
150.949980
70
0
0
VERTEX
8
Layer 1
10
196.739880
20
147.378100
70
0
0
VERTEX
8
Layer 1
10
197.405450
20
144.335400
70
0
0
VERTEX
8
Layer 1
10
199.629820
20
134.443820
70
0
0
VERTEX
8
Layer 1
10
200.026380
20
132.690010
70
0
0
VERTEX
8
Layer 1
10
200.289550
20
131.342520
70
0
0
VERTEX
8
Layer 1
10
200.359699
20
130.808346
70
0
0
VERTEX
8
Layer 1
10
200.572545
20
130.350839
70
0
0
VERTEX
8
Layer 1
10
200.931682
20
129.968323
70
0
0
VERTEX
8
Layer 1
10
201.440709
20
129.659118
70
0
0
VERTEX
8
Layer 1
10
202.922814
20
129.253929
70
0
0
VERTEX
8
Layer 1
10
205.047630
20
129.121850
70
0
0
VERTEX
8
Layer 1
10
206.976957
20
129.276564
70
0
0
VERTEX
8
Layer 1
10
207.605443
20
129.474847
70
0
0
VERTEX
8
Layer 1
10
208.037125
20
129.758096
70
0
0
VERTEX
8
Layer 1
10
208.292492
20
130.129572
70
0
0
VERTEX
8
Layer 1
10
208.392030
20
130.592536
70
0
0
VERTEX
8
Layer 1
10
208.205570
20
131.805970
70
0
0
VERTEX
8
Layer 1
10
207.162254
20
136.229789
70
0
0
VERTEX
8
Layer 1
10
206.223780
20
140.697370
70
0
0
VERTEX
8
Layer 1
10
205.705730
20
142.967470
70
0
0
VERTEX
8
Layer 1
10
204.372816
20
148.792156
70
0
0
VERTEX
8
Layer 1
10
202.804080
20
154.565010
70
0
0
VERTEX
8
Layer 1
10
202.073525
20
156.225315
70
0
0
VERTEX
8
Layer 1
10
200.920238
20
157.683765
70
0
0
VERTEX
8
Layer 1
10
199.411764
20
158.897777
70
0
0
VERTEX
8
Layer 1
10
197.615650
20
159.824768
70
0
0
VERTEX
8
Layer 1
10
195.599443
20
160.422155
70
0
0
VERTEX
8
Layer 1
10
193.430690
20
160.647356
70
0
0
VERTEX
8
Layer 1
10
191.176936
20
160.457789
70
0
0
VERTEX
8
Layer 1
10
188.905730
20
159.810870
70
0
0
VERTEX
8
Layer 1
10
187.211135
20
159.317219
70
0
0
VERTEX
8
Layer 1
10
186.748104
20
159.436851
70
0
0
VERTEX
8
Layer 1
10
186.349130
20
159.799970
70
0
0
VERTEX
8
Layer 1
10
185.754879
20
160.218243
70
0
0
VERTEX
8
Layer 1
10
184.914164
20
160.468888
70
0
0
VERTEX
8
Layer 1
10
182.873593
20
160.599474
70
0
0
VERTEX
8
Layer 1
10
180.987914
20
160.456083
70
0
0
VERTEX
8
Layer 1
10
180.017630
20
160.303070
70
0
0
VERTEX
8
Layer 1
10
179.635498
20
160.172589
70
0
0
VERTEX
8
Layer 1
10
179.348720
20
159.888394
70
0
0
VERTEX
8
Layer 1
10
179.143560
20
159.260715
70
0
0
VERTEX
8
Layer 1
10
179.006280
20
158.099784
70
0
0
VERTEX
8
Layer 1
10
178.880410
20
153.419090
70
0
0
VERTEX
8
Layer 1
10
178.861210
20
144.328160
70
0
0
VERTEX
8
Layer 1
10
178.879468
20
135.666128
70
0
0
VERTEX
8
Layer 1
10
179.038926
20
131.264558
70
0
0
VERTEX
8
Layer 1
10
179.218566
20
130.198053
70
0
0
VERTEX
8
Layer 1
10
179.489859
20
129.640593
70
0
0
VERTEX
8
Layer 1
10
179.871588
20
129.406821
70
0
0
VERTEX
8
Layer 1
10
180.382540
20
129.311380
70
0
0
VERTEX
8
Layer 1
10
183.255993
20
129.216090
70
0
0
VERTEX
8
Layer 1
10
184.656342
20
129.299247
70
0
0
VERTEX
8
Layer 1
10
185.391010
20
129.451640
70
0
0
VERTEX
8
Layer 1
10
185.391050
20
129.451600
70
0
0
SEQEND
8
Layer 1
0
POLYLINE
8
Layer 1
62
10
70
0
10
0.000000
20
0.000000
66
1
0
VERTEX
8
Layer 1
10
172.045310
20
170.833170
70
0
0
VERTEX
8
Layer 1
10
172.772920
20
171.164710
70
0
0
VERTEX
8
Layer 1
10
173.632636
20
171.860414
70
0
0
VERTEX
8
Layer 1
10
174.250497
20
172.845062
70
0
0
VERTEX
8
Layer 1
10
174.586813
20
174.009434
70
0
0
VERTEX
8
Layer 1
10
174.601894
20
175.244314
70
0
0
VERTEX
8
Layer 1
10
174.256050
20
176.440481
70
0
0
VERTEX
8
Layer 1
10
173.509591
20
177.488719
70
0
0
VERTEX
8
Layer 1
10
172.322828
20
178.279808
70
0
0
VERTEX
8
Layer 1
10
170.656070
20
178.704530
70
0
0
VERTEX
8
Layer 1
10
169.780800
20
178.559469
70
0
0
VERTEX
8
Layer 1
10
169.031835
20
178.311530
70
0
0
VERTEX
8
Layer 1
10
168.230171
20
177.885441
70
0
0
VERTEX
8
Layer 1
10
167.491951
20
177.235294
70
0
0
VERTEX
8
Layer 1
10
166.933314
20
176.315180
70
0
0
VERTEX
8
Layer 1
10
166.670404
20
175.079192
70
0
0
VERTEX
8
Layer 1
10
166.819360
20
173.481420
70
0
0
VERTEX
8
Layer 1
10
167.090643
20
172.669161
70
0
0
VERTEX
8
Layer 1
10
167.490405
20
172.012676
70
0
0
VERTEX
8
Layer 1
10
168.546901
20
171.110254
70
0
0
VERTEX
8
Layer 1
10
169.731927
20
170.660605
70
0
0
VERTEX
8
Layer 1
10
170.788560
20
170.550180
70
0
0
VERTEX
8
Layer 1
10
172.045310
20
170.833170
70
0
0
VERTEX
8
Layer 1
10
172.045310
20
170.833170
70
0
0
SEQEND
8
Layer 1
0
POLYLINE
8
Layer 1
62
10
70
0
10
0.000000
20
0.000000
66
1
0
VERTEX
8
Layer 1
10
47.458603
20
129.128730
70
0
0
VERTEX
8
Layer 1
10
48.113559
20
130.805634
70
0
0
VERTEX
8
Layer 1
10
48.592865
20
132.700600
70
0
0
VERTEX
8
Layer 1
10
51.008255
20
141.823650
70
0
0
VERTEX
8
Layer 1
10
51.641478
20
143.940320
70
0
0
VERTEX
8
Layer 1
10
55.002052
20
156.590170
70
0
0
VERTEX
8
Layer 1
10
56.855775
20
163.070990
70
0
0
VERTEX
8
Layer 1
10
57.089065
20
163.956482
70
0
0
VERTEX
8
Layer 1
10
57.438618
20
164.630448
70
0
0
VERTEX
8
Layer 1
10
57.886288
20
165.121992
70
0
0
VERTEX
8
Layer 1
10
58.413929
20
165.460221
70
0
0
VERTEX
8
Layer 1
10
59.636540
20
165.793153
70
0
0
VERTEX
8
Layer 1
10
60.961284
20
165.862090
70
0
0
VERTEX
8
Layer 1
10
62.242996
20
165.899876
70
0
0
VERTEX
8
Layer 1
10
63.336507
20
166.139354
70
0
0
VERTEX
8
Layer 1
10
63.767323
20
166.407493
70
0
0
VERTEX
8
Layer 1
10
64.096651
20
166.813371
70
0
0
VERTEX
8
Layer 1
10
64.306346
20
167.386095
70
0
0
VERTEX
8
Layer 1
10
64.378262
20
168.154770
70
0
0
VERTEX
8
Layer 1
10
64.292668
20
169.019867
70
0
0
VERTEX
8
Layer 1
10
63.952868
20
169.561027
70
0
0
VERTEX
8
Layer 1
10
63.223539
20
169.800594
70
0
0
VERTEX
8
Layer 1
10
61.969355
20
169.760910
70
0
0
VERTEX
8
Layer 1
10
60.422353
20
169.817718
70
0
0
VERTEX
8
Layer 1
10
59.671767
20
170.234621
70
0
0
VERTEX
8
Layer 1
10
59.431339
20
170.707664
70
0
0
VERTEX
8
Layer 1
10
59.414809
20
170.932890
70
0
0
VERTEX
8
Layer 1
10
59.959583
20
172.679524
70
0
0
VERTEX
8
Layer 1
10
61.245264
20
176.176994
70
0
0
VERTEX
8
Layer 1
10
62.969528
20
179.851560
70
0
0
VERTEX
8
Layer 1
10
63.901651
20
181.263459
70
0
0
VERTEX
8
Layer 1
10
64.830049
20
182.129480
70
0
0
VERTEX
8
Layer 1
10
66.405223
20
183.024608
70
0
0
VERTEX
8
Layer 1
10
68.078950
20
183.632645
70
0
0
VERTEX
8
Layer 1
10
69.828677
20
184.005484
70
0
0
VERTEX
8
Layer 1
10
71.631851
20
184.195018
70
0
0
VERTEX
8
Layer 1
10
75.308330
20
184.231734
70
0
0
VERTEX
8
Layer 1
10
78.927965
20
184.157930
70
0
0
VERTEX
8
Layer 1
10
85.753472
20
184.239065
70
0
0
VERTEX
8
Layer 1
10
89.607877
20
184.586427
70
0
0
VERTEX
8
Layer 1
10
90.678610
20
184.912190
70
0
0
VERTEX
8
Layer 1
10
91.315799
20
185.367204
70
0
0
VERTEX
8
Layer 1
10
91.622523
20
185.972368
70
0
0
VERTEX
8
Layer 1
10
91.701858
20
186.748580
70
0
0
VERTEX
8
Layer 1
10
91.552187
20
187.411303
70
0
0
VERTEX
8
Layer 1
10
91.039450
20
187.839547
70
0
0
VERTEX
8
Layer 1
10
90.068061
20
188.076133
70
0
0
VERTEX
8
Layer 1
10
88.542434
20
188.163880
70
0
0
VERTEX
8
Layer 1
10
78.392306
20
188.252926
70
0
0
VERTEX
8
Layer 1
10
70.827559
20
188.178043
70
0
0
VERTEX
8
Layer 1
10
65.933741
20
187.941358
70
0
0
VERTEX
8
Layer 1
10
64.515166
20
187.763005
70
0
0
VERTEX
8
Layer 1
10
63.796403
20
187.545000
70
0
0
VERTEX
8
Layer 1
10
62.367551
20
187.266301
70
0
0
VERTEX
8
Layer 1
10
60.867739
20
186.651512
70
0
0
VERTEX
8
Layer 1
10
59.475334
20
185.836170
70
0
0
VERTEX
8
Layer 1
10
58.368707
20
184.955810
70
0
0
VERTEX
8
Layer 1
10
56.648309
20
183.482905
70
0
0
VERTEX
8
Layer 1
10
55.156075
20
181.719107
70
0
0
VERTEX
8
Layer 1
10
53.869193
20
179.824333
70
0
0
VERTEX
8
Layer 1
10
52.764854
20
177.958500
70
0
0
VERTEX
8
Layer 1
10
51.469418
20
175.198499
70
0
0
VERTEX
8
Layer 1
10
50.746588
20
172.960202
70
0
0
VERTEX
8
Layer 1
10
50.218664
20
171.281417
70
0
0
VERTEX
8
Layer 1
10
49.909759
20
170.663656
70
0
0
VERTEX
8
Layer 1
10
49.507943
20
170.199950
70
0
0
VERTEX
8
Layer 1
10
48.472759
20
169.973962
70
0
0
VERTEX
8
Layer 1
10
46.421057
20
169.855420
70
0
0
VERTEX
8
Layer 1
10
43.792157
20
169.680816
70
0
0
VERTEX
8
Layer 1
10
42.932934
20
169.437205
70
0
0
VERTEX
8
Layer 1
10
42.320179
20
169.072200
70
0
0
VERTEX
8
Layer 1
10
41.911134
20
168.572909
70
0
0
VERTEX
8
Layer 1
10
41.663036
20
167.926442
70
0
0
VERTEX
8
Layer 1
10
41.478639
20
166.140410
70
0
0
VERTEX
8
Layer 1
10
41.678356
20
165.973652
70
0
0
VERTEX
8
Layer 1
10
42.441944
20
165.898325
70
0
0
VERTEX
8
Layer 1
10
44.893758
20
165.734348
70
0
0
VERTEX
8
Layer 1
10
46.198497
20
165.501888
70
0
0
VERTEX
8
Layer 1
10
47.300133
20
165.073243
70
0
0
VERTEX
8
Layer 1
10
48.006922
20
164.376509
70
0
0
VERTEX
8
Layer 1
10
48.152329
20
163.905138
70
0
0
VERTEX
8
Layer 1
10
48.127121
20
163.339780
70
0
0
VERTEX
8
Layer 1
10
46.670216
20
158.232890
70
0
0
VERTEX
8
Layer 1
10
44.927758
20
152.367219
70
0
0
VERTEX
8
Layer 1
10
43.377120
20
146.458940
70
0
0
VERTEX
8
Layer 1
10
41.743299
20
141.445677
70
0
0
VERTEX
8
Layer 1
10
40.196646
20
136.404770
70
0
0
VERTEX
8
Layer 1
10
39.292117
20
133.746210
70
0
0
VERTEX
8
Layer 1
10
38.568694
20
130.613620
70
0
0
VERTEX
8
Layer 1
10
38.529962
20
129.664190
70
0
0
VERTEX
8
Layer 1
10
38.715190
20
128.785062
70
0
0
VERTEX
8
Layer 1
10
38.954864
20
128.418111
70
0
0
VERTEX
8
Layer 1
10
39.326219
20
128.124234
70
0
0
VERTEX
8
Layer 1
10
39.854484
20
127.921931
70
0
0
VERTEX
8
Layer 1
10
40.564889
20
127.829700
70
0
0
VERTEX
8
Layer 1
10
42.130341
20
127.657710
70
0
0
VERTEX
8
Layer 1
10
43.414562
20
127.631781
70
0
0
VERTEX
8
Layer 1
10
45.013143
20
127.980874
70
0
0
VERTEX
8
Layer 1
10
46.502388
20
128.536140
70
0
0
VERTEX
8
Layer 1
10
47.458603
20
129.128730
70
0
0
VERTEX
8
Layer 1
10
47.458603
20
129.128730
70
0
0
SEQEND
8
Layer 1
0
POLYLINE
8
Layer 1
62
10
70
0
10
0.000000
20
0.000000
66
1
0
VERTEX
8
Layer 1
10
77.576222
20
128.381040
70
0
0
VERTEX
8
Layer 1
10
80.486639
20
129.385080
70
0
0
VERTEX
8
Layer 1
10
81.901918
20
129.964856
70
0
0
VERTEX
8
Layer 1
10
83.189013
20
130.657995
70
0
0
VERTEX
8
Layer 1
10
85.299645
20
132.228536
70
0
0
VERTEX
8
Layer 1
10
86.660529
20
133.785055
70
0
0
VERTEX
8
Layer 1
10
87.010438
20
134.460665
70
0
0
VERTEX
8
Layer 1
10
87.113658
20
135.015900
70
0
0
VERTEX
8
Layer 1
10
87.043234
20
136.730955
70
0
0
VERTEX
8
Layer 1
10
86.825627
20
137.591545
70
0
0
VERTEX
8
Layer 1
10
86.618715
20
137.913948
70
0
0
VERTEX
8
Layer 1
10
86.326394
20
138.123030
70
0
0
VERTEX
8
Layer 1
10
85.558601
20
138.332867
70
0
0
VERTEX
8
Layer 1
10
84.617502
20
138.425161
70
0
0
VERTEX
8
Layer 1
10
82.555262
20
138.306968
70
0
0
VERTEX
8
Layer 1
10
80.819431
20
137.868153
70
0
0
VERTEX
8
Layer 1
10
80.286342
20
137.559670
70
0
0
VERTEX
8
Layer 1
10
80.089764
20
137.208420
70
0
0
VERTEX
8
Layer 1
10
79.072288
20
135.522785
70
0
0
VERTEX
8
Layer 1
10
77.967885
20
134.532659
70
0
0
VERTEX
8
Layer 1
10
76.622467
20
134.027698
70
0
0
VERTEX
8
Layer 1
10
74.881947
20
133.797560
70
0
0
VERTEX
8
Layer 1
10
73.322401
20
133.811678
70
0
0
VERTEX
8
Layer 1
10
71.832948
20
134.091767
70
0
0
VERTEX
8
Layer 1
10
70.455659
20
134.607574
70
0
0
VERTEX
8
Layer 1
10
69.232609
20
135.328844
70
0
0
VERTEX
8
Layer 1
10
68.205870
20
136.225325
70
0
0
VERTEX
8
Layer 1
10
67.417516
20
137.266763
70
0
0
VERTEX
8
Layer 1
10
66.909619
20
138.422906
70
0
0
VERTEX
8
Layer 1
10
66.724254
20
139.663500
70
0
0
VERTEX
8
Layer 1
10
66.507495
20
140.510380
70
0
0
VERTEX
8
Layer 1
10
66.408527
20
141.295312
70
0
0
VERTEX
8
Layer 1
10
66.512747
20
142.595154
70
0
0
VERTEX
8
Layer 1
10
66.750748
20
143.884749
70
0
0
VERTEX
8
Layer 1
10
67.053126
20
144.638940
70
0
0
VERTEX
8
Layer 1
10
67.354078
20
144.881027
70
0
0
VERTEX
8
Layer 1
10
68.370260
20
144.999212
70
0
0
VERTEX
8
Layer 1
10
77.061505
20
145.048610
70
0
0
VERTEX
8
Layer 1
10
85.674913
20
145.058610
70
0
0
VERTEX
8
Layer 1
10
86.301896
20
145.726000
70
0
0
VERTEX
8
Layer 1
10
86.686743
20
146.197346
70
0
0
VERTEX
8
Layer 1
10
86.731569
20
146.393390
70
0
0
VERTEX
8
Layer 1
10
87.287402
20
148.203594
70
0
0
VERTEX
8
Layer 1
10
87.321164
20
150.028054
70
0
0
VERTEX
8
Layer 1
10
86.959096
20
151.870730
70
0
0
VERTEX
8
Layer 1
10
86.327437
20
153.735580
70
0
0
VERTEX
8
Layer 1
10
85.187529
20
156.050150
70
0
0
VERTEX
8
Layer 1
10
84.550539
20
157.072990
70
0
0
VERTEX
8
Layer 1
10
83.410499
20
158.235850
70
0
0
VERTEX
8
Layer 1
10
82.141403
20
159.255610
70
0
0
VERTEX
8
Layer 1
10
81.117244
20
159.849150
70
0
0
VERTEX
8
Layer 1
10
79.860324
20
160.466868
70
0
0
VERTEX
8
Layer 1
10
79.105659
20
160.689708
70
0
0
VERTEX
8
Layer 1
10
77.955721
20
160.843130
70
0
0
VERTEX
8
Layer 1
10
75.792344
20
161.086158
70
0
0
VERTEX
8
Layer 1
10
74.563094
20
161.132370
70
0
0
VERTEX
8
Layer 1
10
72.985079
20
161.026170
70
0
0
VERTEX
8
Layer 1
10
71.594274
20
160.814435
70
0
0
VERTEX
8
Layer 1
10
69.446446
20
160.333979
70
0
0
VERTEX
8
Layer 1
10
67.040721
20
159.526153
70
0
0
VERTEX
8
Layer 1
10
65.897123
20
158.981149
70
0
0
VERTEX
8
Layer 1
10
64.876222
20
158.332310
70
0
0
VERTEX
8
Layer 1
10
63.012227
20
156.705901
70
0
0
VERTEX
8
Layer 1
10
61.444232
20
154.810872
70
0
0
VERTEX
8
Layer 1
10
60.237424
20
152.650947
70
0
0
VERTEX
8
Layer 1
10
59.456989
20
150.229850
70
0
0
VERTEX
8
Layer 1
10
58.772123
20
146.616258
70
0
0
VERTEX
8
Layer 1
10
58.628873
20
144.797343
70
0
0
VERTEX
8
Layer 1
10
58.753512
20
142.953810
70
0
0
VERTEX
8
Layer 1
10
59.369779
20
140.171099
70
0
0
VERTEX
8
Layer 1
10
59.983997
20
138.087227
70
0
0
VERTEX
8
Layer 1
10
60.733883
20
136.400120
70
0
0
VERTEX
8
Layer 1
10
61.804228
20
134.459220
70
0
0
VERTEX
8
Layer 1
10
62.563592
20
133.377943
70
0
0
VERTEX
8
Layer 1
10
63.771244
20
132.075007
70
0
0
VERTEX
8
Layer 1
10
64.993161
20
130.978971
70
0
0
VERTEX
8
Layer 1
10
65.795318
20
130.518390
70
0
0
VERTEX
8
Layer 1
10
66.080516
20
130.439690
70
0
0
VERTEX
8
Layer 1
10
66.199138
20
130.250470
70
0
0
VERTEX
8
Layer 1
10
66.627898
20
129.882220
70
0
0
VERTEX
8
Layer 1
10
67.651177
20
129.340361
70
0
0
VERTEX
8
Layer 1
10
69.903305
20
128.487050
70
0
0
VERTEX
8
Layer 1
10
72.253994
20
128.075420
70
0
0
VERTEX
8
Layer 1
10
74.132393
20
127.923144
70
0
0
VERTEX
8
Layer 1
10
75.814477
20
128.026420
70
0
0
VERTEX
8
Layer 1
10
77.576222
20
128.381450
70
0
0
VERTEX
8
Layer 1
10
77.576222
20
128.381040
70
0
0
SEQEND
8
Layer 1
0
POLYLINE
8
Layer 1
62
10
70
0
10
0.000000
20
0.000000
66
1
0
VERTEX
8
Layer 1
10
68.651806
20
149.214570
70
0
0
VERTEX
8
Layer 1
10
68.043253
20
149.417699
70
0
0
VERTEX
8
Layer 1
10
67.592547
20
149.735066
70
0
0
VERTEX
8
Layer 1
10
67.308271
20
150.161258
70
0
0
VERTEX
8
Layer 1
10
67.199003
20
150.690865
70
0
0
VERTEX
8
Layer 1
10
67.273326
20
151.318474
70
0
0
VERTEX
8
Layer 1
10
67.539821
20
152.038674
70
0
0
VERTEX
8
Layer 1
10
68.683646
20
153.735200
70
0
0
VERTEX
8
Layer 1
10
69.972228
20
154.831786
70
0
0
VERTEX
8
Layer 1
10
70.673581
20
155.270694
70
0
0
VERTEX
8
Layer 1
10
71.091263
20
155.384450
70
0
0
VERTEX
8
Layer 1
10
71.504947
20
155.617370
70
0
0
VERTEX
8
Layer 1
10
72.292532
20
155.723489
70
0
0
VERTEX
8
Layer 1
10
74.503024
20
155.614874
70
0
0
VERTEX
8
Layer 1
10
76.749982
20
155.177705
70
0
0
VERTEX
8
Layer 1
10
77.583149
20
154.873130
70
0
0
VERTEX
8
Layer 1
10
78.060648
20
154.531080
70
0
0
VERTEX
8
Layer 1
10
79.090364
20
153.419280
70
0
0
VERTEX
8
Layer 1
10
79.592324
20
152.581467
70
0
0
VERTEX
8
Layer 1
10
79.731477
20
151.506919
70
0
0
VERTEX
8
Layer 1
10
79.533886
20
150.428851
70
0
0
VERTEX
8
Layer 1
10
79.025614
20
149.580480
70
0
0
VERTEX
8
Layer 1
10
77.457545
20
149.305197
70
0
0
VERTEX
8
Layer 1
10
74.283205
20
149.119884
70
0
0
VERTEX
8
Layer 1
10
70.886618
20
149.073371
70
0
0
VERTEX
8
Layer 1
10
68.651804
20
149.214490
70
0
0
VERTEX
8
Layer 1
10
68.651806
20
149.214570
70
0
0
SEQEND
8
Layer 1
0
POLYLINE
8
Layer 1
62
10
70
0
10
0.000000
20
0.000000
66
1
0
VERTEX
8
Layer 1
10
98.938906
20
129.372260
70
0
0
VERTEX
8
Layer 1
10
99.415730
20
129.881559
70
0
0
VERTEX
8
Layer 1
10
99.677059
20
130.548522
70
0
0
VERTEX
8
Layer 1
10
99.929738
20
131.708044
70
0
0
VERTEX
8
Layer 1
10
100.337361
20
136.157817
70
0
0
VERTEX
8
Layer 1
10
100.495030
20
144.536980
70
0
0
VERTEX
8
Layer 1
10
100.364438
20
157.521150
70
0
0
VERTEX
8
Layer 1
10
100.117985
20
159.104436
70
0
0
VERTEX
8
Layer 1
10
99.918209
20
159.354257
70
0
0
VERTEX
8
Layer 1
10
99.655493
20
159.503960
70
0
0
VERTEX
8
Layer 1
10
98.357940
20
160.000178
70
0
0
VERTEX
8
Layer 1
10
96.896491
20
160.185609
70
0
0
VERTEX
8
Layer 1
10
95.386343
20
160.065412
70
0
0
VERTEX
8
Layer 1
10
93.942696
20
159.644750
70
0
0
VERTEX
8
Layer 1
10
93.630006
20
159.322330
70
0
0
VERTEX
8
Layer 1
10
93.431963
20
158.796583
70
0
0
VERTEX
8
Layer 1
10
93.248286
20
156.582014
70
0
0
VERTEX
8
Layer 1
10
93.128607
20
151.894865
70
0
0
VERTEX
8
Layer 1
10
92.809866
20
143.628960
70
0
0
VERTEX
8
Layer 1
10
92.550176
20
140.016202
70
0
0
VERTEX
8
Layer 1
10
92.325577
20
135.881821
70
0
0
VERTEX
8
Layer 1
10
92.346586
20
133.882106
70
0
0
VERTEX
8
Layer 1
10
92.520546
20
132.067685
70
0
0
VERTEX
8
Layer 1
10
92.895516
20
130.543792
70
0
0
VERTEX
8
Layer 1
10
93.519556
20
129.415660
70
0
0
VERTEX
8
Layer 1
10
94.045310
20
129.050000
70
0
0
VERTEX
8
Layer 1
10
94.774794
20
128.859053
70
0
0
VERTEX
8
Layer 1
10
96.524161
20
128.857721
70
0
0
VERTEX
8
Layer 1
10
98.126063
20
129.124509
70
0
0
VERTEX
8
Layer 1
10
98.938906
20
129.372260
70
0
0
VERTEX
8
Layer 1
10
98.938906
20
129.372260
70
0
0
SEQEND
8
Layer 1
0
POLYLINE
8
Layer 1
62
10
70
0
10
0.000000
20
0.000000
66
1
0
VERTEX
8
Layer 1
10
98.414336
20
170.259070
70
0
0
VERTEX
8
Layer 1
10
99.141946
20
170.590610
70
0
0
VERTEX
8
Layer 1
10
100.001660
20
171.286314
70
0
0
VERTEX
8
Layer 1
10
100.619520
20
172.270962
70
0
0
VERTEX
8
Layer 1
10
100.955835
20
173.435334
70
0
0
VERTEX
8
Layer 1
10
100.970915
20
174.670214
70
0
0
VERTEX
8
Layer 1
10
100.625072
20
175.866381
70
0
0
VERTEX
8
Layer 1
10
99.878614
20
176.914619
70
0
0
VERTEX
8
Layer 1
10
98.691852
20
177.705708
70
0
0
VERTEX
8
Layer 1
10
97.025096
20
178.130430
70
0
0
VERTEX
8
Layer 1
10
96.149826
20
177.985369
70
0
0
VERTEX
8
Layer 1
10
95.400861
20
177.737430
70
0
0
VERTEX
8
Layer 1
10
94.599197
20
177.311341
70
0
0
VERTEX
8
Layer 1
10
93.860977
20
176.661194
70
0
0
VERTEX
8
Layer 1
10
93.302340
20
175.741080
70
0
0
VERTEX
8
Layer 1
10
93.039430
20
174.505092
70
0
0
VERTEX
8
Layer 1
10
93.188386
20
172.907320
70
0
0
VERTEX
8
Layer 1
10
93.459669
20
172.095061
70
0
0
VERTEX
8
Layer 1
10
93.859431
20
171.438576
70
0
0
VERTEX
8
Layer 1
10
94.915927
20
170.536154
70
0
0
VERTEX
8
Layer 1
10
96.100953
20
170.086505
70
0
0
VERTEX
8
Layer 1
10
97.157586
20
169.976080
70
0
0
VERTEX
8
Layer 1
10
98.414336
20
170.259070
70
0
0
VERTEX
8
Layer 1
10
98.414336
20
170.259070
70
0
0
SEQEND
8
Layer 1
 0 
ENDSEC
 0 
EOF
