999
"DXF R12 Output" (www.mydxf.blogspot.com)
 0 
SECTION
 2 
HEADER
 9 
$ACADVER
 1 
AC1009
 9 
$EXTMIN
 10 
 0 
 20 
 0 
 9 
$EXTMAX
 10 
 8.5 
 20 
 11 
 0 
ENDSEC
 0 
SECTION
 2 
ENTITIES
0
POLYLINE
8
Layer 1
62
7
70
0
10
0.000000
20
0.000000
66
1
0
VERTEX
8
Layer 1
10
31.473119
20
170.166020
70
0
0
VERTEX
8
Layer 1
10
31.965755
20
172.411247
70
0
0
VERTEX
8
Layer 1
10
32.709935
20
174.596014
70
0
0
VERTEX
8
Layer 1
10
33.625327
20
176.521369
70
0
0
VERTEX
8
Layer 1
10
34.631599
20
177.988360
70
0
0
VERTEX
8
Layer 1
10
35.502503
20
178.666878
70
0
0
VERTEX
8
Layer 1
10
36.528553
20
178.917672
70
0
0
VERTEX
8
Layer 1
10
37.670858
20
178.739441
70
0
0
VERTEX
8
Layer 1
10
38.890529
20
178.130880
70
0
0
VERTEX
8
Layer 1
10
39.698583
20
177.439410
70
0
0
VERTEX
8
Layer 1
10
40.011909
20
176.692858
70
0
0
VERTEX
8
Layer 1
10
39.839857
20
175.781489
70
0
0
VERTEX
8
Layer 1
10
39.191779
20
174.595570
70
0
0
VERTEX
8
Layer 1
10
38.416174
20
173.148362
70
0
0
VERTEX
8
Layer 1
10
38.167268
20
172.045058
70
0
0
VERTEX
8
Layer 1
10
38.240056
20
171.639932
70
0
0
VERTEX
8
Layer 1
10
38.444193
20
171.341859
70
0
0
VERTEX
8
Layer 1
10
38.779570
20
171.157863
70
0
0
VERTEX
8
Layer 1
10
39.246079
20
171.094970
70
0
0
VERTEX
8
Layer 1
10
39.701399
20
171.262331
70
0
0
VERTEX
8
Layer 1
10
40.246848
20
171.721349
70
0
0
VERTEX
8
Layer 1
10
41.355879
20
173.255970
70
0
0
VERTEX
8
Layer 1
10
42.240782
20
174.686550
70
0
0
VERTEX
8
Layer 1
10
43.203039
20
175.888780
70
0
0
VERTEX
8
Layer 1
10
44.242309
20
176.862475
70
0
0
VERTEX
8
Layer 1
10
45.358252
20
177.607449
70
0
0
VERTEX
8
Layer 1
10
46.550526
20
178.123514
70
0
0
VERTEX
8
Layer 1
10
47.818793
20
178.410485
70
0
0
VERTEX
8
Layer 1
10
49.162711
20
178.468176
70
0
0
VERTEX
8
Layer 1
10
50.581939
20
178.296400
70
0
0
VERTEX
8
Layer 1
10
52.470883
20
177.721878
70
0
0
VERTEX
8
Layer 1
10
54.039599
20
176.737480
70
0
0
VERTEX
8
Layer 1
10
54.723066
20
176.079245
70
0
0
VERTEX
8
Layer 1
10
55.334327
20
175.280457
70
0
0
VERTEX
8
Layer 1
10
56.335305
20
173.320708
70
0
0
VERTEX
8
Layer 1
10
57.032672
20
170.977204
70
0
0
VERTEX
8
Layer 1
10
57.416567
20
168.368919
70
0
0
VERTEX
8
Layer 1
10
57.477128
20
165.614823
70
0
0
VERTEX
8
Layer 1
10
57.204494
20
162.833890
70
0
0
VERTEX
8
Layer 1
10
56.588805
20
160.145092
70
0
0
VERTEX
8
Layer 1
10
55.620199
20
157.667400
70
0
0
VERTEX
8
Layer 1
10
54.317024
20
155.539950
70
0
0
VERTEX
8
Layer 1
10
53.700032
20
154.908456
70
0
0
VERTEX
8
Layer 1
10
53.136969
20
154.603200
70
0
0
VERTEX
8
Layer 1
10
52.203081
20
154.554968
70
0
0
VERTEX
8
Layer 1
10
51.129364
20
154.777864
70
0
0
VERTEX
8
Layer 1
10
50.091467
20
155.216833
70
0
0
VERTEX
8
Layer 1
10
49.265039
20
155.816820
70
0
0
VERTEX
8
Layer 1
10
48.894412
20
156.378826
70
0
0
VERTEX
8
Layer 1
10
48.888130
20
157.082313
70
0
0
VERTEX
8
Layer 1
10
49.280363
20
158.077688
70
0
0
VERTEX
8
Layer 1
10
50.105279
20
159.515360
70
0
0
VERTEX
8
Layer 1
10
50.614293
20
160.609570
70
0
0
VERTEX
8
Layer 1
10
50.710119
20
161.497946
70
0
0
VERTEX
8
Layer 1
10
50.404920
20
162.094230
70
0
0
VERTEX
8
Layer 1
10
49.710859
20
162.312160
70
0
0
VERTEX
8
Layer 1
10
49.178310
20
162.182058
70
0
0
VERTEX
8
Layer 1
10
48.628685
20
161.765971
70
0
0
VERTEX
8
Layer 1
10
47.323769
20
159.921150
70
0
0
VERTEX
8
Layer 1
10
46.383891
20
158.504042
70
0
0
VERTEX
8
Layer 1
10
45.356504
20
157.303048
70
0
0
VERTEX
8
Layer 1
10
44.271315
20
156.348476
70
0
0
VERTEX
8
Layer 1
10
43.158029
20
155.670640
70
0
0
VERTEX
8
Layer 1
10
41.888535
20
155.209859
70
0
0
VERTEX
8
Layer 1
10
39.913749
20
155.141710
70
0
0
VERTEX
8
Layer 1
10
38.010473
20
155.218423
70
0
0
VERTEX
8
Layer 1
10
36.830969
20
155.534010
70
0
0
VERTEX
8
Layer 1
10
35.897325
20
155.984572
70
0
0
VERTEX
8
Layer 1
10
35.043086
20
156.564276
70
0
0
VERTEX
8
Layer 1
10
33.582628
20
158.097613
70
0
0
VERTEX
8
Layer 1
10
32.469208
20
160.107023
70
0
0
VERTEX
8
Layer 1
10
31.722439
20
162.565510
70
0
0
VERTEX
8
Layer 1
10
31.387780
20
166.401724
70
0
0
VERTEX
8
Layer 1
10
31.473129
20
170.166020
70
0
0
VERTEX
8
Layer 1
10
31.473119
20
170.166020
70
0
0
SEQEND
8
Layer 1
0
POLYLINE
8
Layer 1
62
7
70
0
10
0.000000
20
0.000000
66
1
0
VERTEX
8
Layer 1
10
31.911949
20
209.519790
70
0
0
VERTEX
8
Layer 1
10
32.182541
20
214.450716
70
0
0
VERTEX
8
Layer 1
10
32.515999
20
217.420126
70
0
0
VERTEX
8
Layer 1
10
33.107149
20
218.492095
70
0
0
VERTEX
8
Layer 1
10
33.370287
20
218.735626
70
0
0
VERTEX
8
Layer 1
10
33.710397
20
218.857391
70
0
0
VERTEX
8
Layer 1
10
35.431909
20
218.865938
70
0
0
VERTEX
8
Layer 1
10
37.357729
20
218.809308
70
0
0
VERTEX
8
Layer 1
10
39.438009
20
217.757331
70
0
0
VERTEX
8
Layer 1
10
45.234099
20
214.282160
70
0
0
VERTEX
8
Layer 1
10
49.750609
20
211.392080
70
0
0
VERTEX
8
Layer 1
10
50.551319
20
210.925190
70
0
0
VERTEX
8
Layer 1
10
50.742649
20
211.404790
70
0
0
VERTEX
8
Layer 1
10
50.847361
20
212.130235
70
0
0
VERTEX
8
Layer 1
10
50.728949
20
213.488950
70
0
0
VERTEX
8
Layer 1
10
50.409987
20
216.719925
70
0
0
VERTEX
8
Layer 1
10
50.508879
20
217.381282
70
0
0
VERTEX
8
Layer 1
10
50.785449
20
217.822911
70
0
0
VERTEX
8
Layer 1
10
51.542311
20
218.352464
70
0
0
VERTEX
8
Layer 1
10
52.613596
20
218.664906
70
0
0
VERTEX
8
Layer 1
10
53.780615
20
218.723941
70
0
0
VERTEX
8
Layer 1
10
54.824679
20
218.493275
70
0
0
VERTEX
8
Layer 1
10
55.505829
20
218.098489
70
0
0
VERTEX
8
Layer 1
10
56.049081
20
217.513817
70
0
0
VERTEX
8
Layer 1
10
56.466514
20
216.674804
70
0
0
VERTEX
8
Layer 1
10
56.770204
20
215.516992
70
0
0
VERTEX
8
Layer 1
10
57.084669
20
211.987150
70
0
0
VERTEX
8
Layer 1
10
57.089099
20
206.408640
70
0
0
VERTEX
8
Layer 1
10
56.840109
20
199.541039
70
0
0
VERTEX
8
Layer 1
10
56.621721
20
197.792138
70
0
0
VERTEX
8
Layer 1
10
56.310589
20
196.794200
70
0
0
VERTEX
8
Layer 1
10
55.928839
20
196.245087
70
0
0
VERTEX
8
Layer 1
10
55.398097
20
195.919545
70
0
0
VERTEX
8
Layer 1
10
54.608900
20
195.778916
70
0
0
VERTEX
8
Layer 1
10
53.451789
20
195.784540
70
0
0
VERTEX
8
Layer 1
10
51.888836
20
196.010523
70
0
0
VERTEX
8
Layer 1
10
50.099709
20
196.715301
70
0
0
VERTEX
8
Layer 1
10
47.531077
20
198.173522
70
0
0
VERTEX
8
Layer 1
10
43.629609
20
200.659835
70
0
0
VERTEX
8
Layer 1
10
39.465045
20
203.275297
70
0
0
VERTEX
8
Layer 1
10
38.693172
20
203.613340
70
0
0
VERTEX
8
Layer 1
10
38.394779
20
203.523835
70
0
0
VERTEX
8
Layer 1
10
38.238793
20
202.367520
70
0
0
VERTEX
8
Layer 1
10
38.476279
20
199.933475
70
0
0
VERTEX
8
Layer 1
10
38.619666
20
197.773359
70
0
0
VERTEX
8
Layer 1
10
38.456372
20
197.167537
70
0
0
VERTEX
8
Layer 1
10
38.117349
20
196.706410
70
0
0
VERTEX
8
Layer 1
10
37.239528
20
196.224171
70
0
0
VERTEX
8
Layer 1
10
35.661829
20
196.092220
70
0
0
VERTEX
8
Layer 1
10
34.445351
20
196.273015
70
0
0
VERTEX
8
Layer 1
10
33.496036
20
196.848804
70
0
0
VERTEX
8
Layer 1
10
32.761031
20
197.869689
70
0
0
VERTEX
8
Layer 1
10
32.187479
20
199.385775
70
0
0
VERTEX
8
Layer 1
10
31.911940
20
203.383515
70
0
0
VERTEX
8
Layer 1
10
31.912049
20
209.519790
70
0
0
VERTEX
8
Layer 1
10
31.911949
20
209.519790
70
0
0
SEQEND
8
Layer 1
0
POLYLINE
8
Layer 1
62
7
70
0
10
0.000000
20
0.000000
66
1
0
VERTEX
8
Layer 1
10
31.981049
20
189.615460
70
0
0
VERTEX
8
Layer 1
10
32.528176
20
191.497516
70
0
0
VERTEX
8
Layer 1
10
33.284899
20
192.754470
70
0
0
VERTEX
8
Layer 1
10
34.025616
20
193.204099
70
0
0
VERTEX
8
Layer 1
10
35.563038
20
193.464180
70
0
0
VERTEX
8
Layer 1
10
44.077959
20
193.676160
70
0
0
VERTEX
8
Layer 1
10
51.327034
20
193.700564
70
0
0
VERTEX
8
Layer 1
10
52.754142
20
193.625913
70
0
0
VERTEX
8
Layer 1
10
53.536379
20
193.475990
70
0
0
VERTEX
8
Layer 1
10
55.118059
20
192.802948
70
0
0
VERTEX
8
Layer 1
10
55.642674
20
192.349786
70
0
0
VERTEX
8
Layer 1
10
56.061249
20
191.770610
70
0
0
VERTEX
8
Layer 1
10
56.532168
20
190.799438
70
0
0
VERTEX
8
Layer 1
10
56.828125
20
189.709857
70
0
0
VERTEX
8
Layer 1
10
57.024109
20
186.464900
70
0
0
VERTEX
8
Layer 1
10
56.858056
20
183.415939
70
0
0
VERTEX
8
Layer 1
10
56.606830
20
182.560029
70
0
0
VERTEX
8
Layer 1
10
56.202659
20
181.923550
70
0
0
VERTEX
8
Layer 1
10
55.583263
20
181.391076
70
0
0
VERTEX
8
Layer 1
10
54.203731
20
181.128505
70
0
0
VERTEX
8
Layer 1
10
45.045709
20
181.114360
70
0
0
VERTEX
8
Layer 1
10
34.709109
20
181.406970
70
0
0
VERTEX
8
Layer 1
10
33.815944
20
181.694969
70
0
0
VERTEX
8
Layer 1
10
33.100231
20
182.135984
70
0
0
VERTEX
8
Layer 1
10
32.566465
20
182.726307
70
0
0
VERTEX
8
Layer 1
10
32.219139
20
183.462230
70
0
0
VERTEX
8
Layer 1
10
32.009856
20
184.681047
70
0
0
VERTEX
8
Layer 1
10
31.887885
20
186.436635
70
0
0
VERTEX
8
Layer 1
10
31.981049
20
189.615460
70
0
0
VERTEX
8
Layer 1
10
31.981049
20
189.615460
70
0
0
SEQEND
8
Layer 1
0
POLYLINE
8
Layer 1
62
7
70
0
10
0.000000
20
0.000000
66
1
0
VERTEX
8
Layer 1
10
32.082379
20
229.787830
70
0
0
VERTEX
8
Layer 1
10
32.468695
20
231.342413
70
0
0
VERTEX
8
Layer 1
10
32.987739
20
232.450492
70
0
0
VERTEX
8
Layer 1
10
33.539017
20
232.870209
70
0
0
VERTEX
8
Layer 1
10
34.458559
20
233.261627
70
0
0
VERTEX
8
Layer 1
10
35.976729
20
234.027129
70
0
0
VERTEX
8
Layer 1
10
36.195868
20
234.303133
70
0
0
VERTEX
8
Layer 1
10
36.312389
20
234.739182
70
0
0
VERTEX
8
Layer 1
10
36.366829
20
237.114359
70
0
0
VERTEX
8
Layer 1
10
36.310659
20
239.506273
70
0
0
VERTEX
8
Layer 1
10
36.189068
20
239.967549
70
0
0
VERTEX
8
Layer 1
10
35.959469
20
240.295604
70
0
0
VERTEX
8
Layer 1
10
35.400000
20
240.733804
70
0
0
VERTEX
8
Layer 1
10
34.566039
20
241.089132
70
0
0
VERTEX
8
Layer 1
10
33.366447
20
241.579964
70
0
0
VERTEX
8
Layer 1
10
32.669164
20
242.240383
70
0
0
VERTEX
8
Layer 1
10
32.365443
20
243.252042
70
0
0
VERTEX
8
Layer 1
10
32.346539
20
244.796591
70
0
0
VERTEX
8
Layer 1
10
32.544985
20
246.424786
70
0
0
VERTEX
8
Layer 1
10
32.749415
20
246.963851
70
0
0
VERTEX
8
Layer 1
10
33.048173
20
247.340189
70
0
0
VERTEX
8
Layer 1
10
33.459400
20
247.569268
70
0
0
VERTEX
8
Layer 1
10
34.001238
20
247.666561
70
0
0
VERTEX
8
Layer 1
10
35.549319
20
247.527662
70
0
0
VERTEX
8
Layer 1
10
39.177276
20
246.515689
70
0
0
VERTEX
8
Layer 1
10
44.032306
20
244.691803
70
0
0
VERTEX
8
Layer 1
10
49.081553
20
242.477157
70
0
0
VERTEX
8
Layer 1
10
53.292159
20
240.292908
70
0
0
VERTEX
8
Layer 1
10
55.721704
20
238.577344
70
0
0
VERTEX
8
Layer 1
10
56.515287
20
237.745240
70
0
0
VERTEX
8
Layer 1
10
57.050699
20
236.909897
70
0
0
VERTEX
8
Layer 1
10
57.408506
20
235.885433
70
0
0
VERTEX
8
Layer 1
10
57.487809
20
234.342171
70
0
0
VERTEX
8
Layer 1
10
57.316065
20
232.162198
70
0
0
VERTEX
8
Layer 1
10
57.021695
20
231.392864
70
0
0
VERTEX
8
Layer 1
10
56.522489
20
230.580873
70
0
0
VERTEX
8
Layer 1
10
55.641439
20
229.623164
70
0
0
VERTEX
8
Layer 1
10
54.176851
20
228.558563
70
0
0
VERTEX
8
Layer 1
10
51.949713
20
227.273116
70
0
0
VERTEX
8
Layer 1
10
48.781009
20
225.652867
70
0
0
VERTEX
8
Layer 1
10
44.932348
20
223.824307
70
0
0
VERTEX
8
Layer 1
10
41.705171
20
222.454781
70
0
0
VERTEX
8
Layer 1
10
38.944588
20
221.483744
70
0
0
VERTEX
8
Layer 1
10
36.495709
20
220.850652
70
0
0
VERTEX
8
Layer 1
10
34.294751
20
220.585997
70
0
0
VERTEX
8
Layer 1
10
33.642661
20
220.728212
70
0
0
VERTEX
8
Layer 1
10
33.159529
20
221.061675
70
0
0
VERTEX
8
Layer 1
10
32.656873
20
221.755854
70
0
0
VERTEX
8
Layer 1
10
32.329913
20
222.748851
70
0
0
VERTEX
8
Layer 1
10
32.142331
20
224.214184
70
0
0
VERTEX
8
Layer 1
10
32.057809
20
226.325373
70
0
0
VERTEX
8
Layer 1
10
32.082409
20
229.787830
70
0
0
VERTEX
8
Layer 1
10
32.082379
20
229.787830
70
0
0
SEQEND
8
Layer 1
0
POLYLINE
8
Layer 1
62
7
70
0
10
0.000000
20
0.000000
66
1
0
VERTEX
8
Layer 1
10
40.677199
20
236.177130
70
0
0
VERTEX
8
Layer 1
10
40.931859
20
235.788472
70
0
0
VERTEX
8
Layer 1
10
41.985129
20
236.186249
70
0
0
VERTEX
8
Layer 1
10
43.857951
20
236.975433
70
0
0
VERTEX
8
Layer 1
10
44.753839
20
237.515584
70
0
0
VERTEX
8
Layer 1
10
44.456109
20
237.998227
70
0
0
VERTEX
8
Layer 1
10
42.643988
20
238.817314
70
0
0
VERTEX
8
Layer 1
10
40.941269
20
239.293390
70
0
0
VERTEX
8
Layer 1
10
40.544865
20
238.875702
70
0
0
VERTEX
8
Layer 1
10
40.351479
20
238.013629
70
0
0
VERTEX
8
Layer 1
10
40.386970
20
237.012371
70
0
0
VERTEX
8
Layer 1
10
40.677199
20
236.177130
70
0
0
VERTEX
8
Layer 1
10
40.677199
20
236.177130
70
0
0
SEQEND
8
Layer 1
0
POLYLINE
8
Layer 1
62
7
70
0
10
0.000000
20
0.000000
66
1
0
VERTEX
8
Layer 1
10
32.430809
20
275.644271
70
0
0
VERTEX
8
Layer 1
10
32.771975
20
276.141671
70
0
0
VERTEX
8
Layer 1
10
33.284248
20
276.534006
70
0
0
VERTEX
8
Layer 1
10
34.057442
20
276.833662
70
0
0
VERTEX
8
Layer 1
10
35.181371
20
277.053031
70
0
0
VERTEX
8
Layer 1
10
38.840699
20
277.300458
70
0
0
VERTEX
8
Layer 1
10
44.980749
20
277.375399
70
0
0
VERTEX
8
Layer 1
10
50.485146
20
277.320951
70
0
0
VERTEX
8
Layer 1
10
54.517473
20
277.106754
70
0
0
VERTEX
8
Layer 1
10
57.326202
20
276.710641
70
0
0
VERTEX
8
Layer 1
10
59.159809
20
276.110446
70
0
0
VERTEX
8
Layer 1
10
59.877415
20
275.608010
70
0
0
VERTEX
8
Layer 1
10
60.435129
20
274.727262
70
0
0
VERTEX
8
Layer 1
10
60.941829
20
273.725802
70
0
0
VERTEX
8
Layer 1
10
60.941829
20
270.335853
70
0
0
VERTEX
8
Layer 1
10
60.941829
20
266.945904
70
0
0
VERTEX
8
Layer 1
10
60.444339
20
265.932502
70
0
0
VERTEX
8
Layer 1
10
59.910389
20
265.052813
70
0
0
VERTEX
8
Layer 1
10
59.007480
20
264.008905
70
0
0
VERTEX
8
Layer 1
10
55.068179
20
260.365348
70
0
0
VERTEX
8
Layer 1
10
52.297519
20
257.669493
70
0
0
VERTEX
8
Layer 1
10
53.140713
20
257.544125
70
0
0
VERTEX
8
Layer 1
10
55.613049
20
257.536999
70
0
0
VERTEX
8
Layer 1
10
57.858166
20
257.540669
70
0
0
VERTEX
8
Layer 1
10
59.199878
20
257.424742
70
0
0
VERTEX
8
Layer 1
10
59.954442
20
257.126774
70
0
0
VERTEX
8
Layer 1
10
60.438119
20
256.584317
70
0
0
VERTEX
8
Layer 1
10
60.872703
20
255.362622
70
0
0
VERTEX
8
Layer 1
10
60.989288
20
253.778522
70
0
0
VERTEX
8
Layer 1
10
60.797853
20
252.247487
70
0
0
VERTEX
8
Layer 1
10
60.308379
20
251.184988
70
0
0
VERTEX
8
Layer 1
10
59.749117
20
250.722396
70
0
0
VERTEX
8
Layer 1
10
58.942278
20
250.430838
70
0
0
VERTEX
8
Layer 1
10
55.541869
20
250.129683
70
0
0
VERTEX
8
Layer 1
10
45.462432
20
249.984207
70
0
0
VERTEX
8
Layer 1
10
36.704629
20
250.144823
70
0
0
VERTEX
8
Layer 1
10
34.945841
20
250.335263
70
0
0
VERTEX
8
Layer 1
10
33.776597
20
250.632766
70
0
0
VERTEX
8
Layer 1
10
33.026298
20
251.105814
70
0
0
VERTEX
8
Layer 1
10
32.524349
20
251.822889
70
0
0
VERTEX
8
Layer 1
10
32.204040
20
252.888036
70
0
0
VERTEX
8
Layer 1
10
32.144319
20
255.312523
70
0
0
VERTEX
8
Layer 1
10
32.190289
20
257.236604
70
0
0
VERTEX
8
Layer 1
10
32.355730
20
258.641261
70
0
0
VERTEX
8
Layer 1
10
32.681944
20
259.736492
70
0
0
VERTEX
8
Layer 1
10
33.210229
20
260.732292
70
0
0
VERTEX
8
Layer 1
10
36.341159
20
264.279199
70
0
0
VERTEX
8
Layer 1
10
39.729168
20
267.941279
70
0
0
VERTEX
8
Layer 1
10
40.927139
20
269.430000
70
0
0
VERTEX
8
Layer 1
10
40.744951
20
269.686826
70
0
0
VERTEX
8
Layer 1
10
40.123162
20
269.834840
70
0
0
VERTEX
8
Layer 1
10
37.109429
20
269.854633
70
0
0
VERTEX
8
Layer 1
10
35.067822
20
269.821697
70
0
0
VERTEX
8
Layer 1
10
33.835447
20
269.925837
70
0
0
VERTEX
8
Layer 1
10
33.107562
20
270.230627
70
0
0
VERTEX
8
Layer 1
10
32.579429
20
270.799639
70
0
0
VERTEX
8
Layer 1
10
32.280069
20
271.721761
70
0
0
VERTEX
8
Layer 1
10
32.145955
20
273.148124
70
0
0
VERTEX
8
Layer 1
10
32.191424
20
274.611403
70
0
0
VERTEX
8
Layer 1
10
32.430809
20
275.644273
70
0
0
VERTEX
8
Layer 1
10
32.430809
20
275.644271
70
0
0
SEQEND
8
Layer 1
0
POLYLINE
8
Layer 1
62
7
70
0
10
0.000000
20
0.000000
66
1
0
VERTEX
8
Layer 1
10
68.026919
20
221.258363
70
0
0
VERTEX
8
Layer 1
10
68.835820
20
224.069161
70
0
0
VERTEX
8
Layer 1
10
69.425688
20
225.325616
70
0
0
VERTEX
8
Layer 1
10
70.132771
20
226.473637
70
0
0
VERTEX
8
Layer 1
10
70.952274
20
227.506372
70
0
0
VERTEX
8
Layer 1
10
71.879397
20
228.416968
70
0
0
VERTEX
8
Layer 1
10
72.909345
20
229.198572
70
0
0
VERTEX
8
Layer 1
10
74.037319
20
229.844330
70
0
0
VERTEX
8
Layer 1
10
75.903876
20
230.593798
70
0
0
VERTEX
8
Layer 1
10
77.882151
20
231.087589
70
0
0
VERTEX
8
Layer 1
10
79.921600
20
231.328959
70
0
0
VERTEX
8
Layer 1
10
81.971680
20
231.321163
70
0
0
VERTEX
8
Layer 1
10
83.981848
20
231.067457
70
0
0
VERTEX
8
Layer 1
10
85.901559
20
230.571095
70
0
0
VERTEX
8
Layer 1
10
87.680271
20
229.835333
70
0
0
VERTEX
8
Layer 1
10
89.267439
20
228.863427
70
0
0
VERTEX
8
Layer 1
10
90.666075
20
227.608174
70
0
0
VERTEX
8
Layer 1
10
91.842647
20
226.078666
70
0
0
VERTEX
8
Layer 1
10
92.785185
20
224.293623
70
0
0
VERTEX
8
Layer 1
10
93.481719
20
222.271765
70
0
0
VERTEX
8
Layer 1
10
93.793753
20
220.612998
70
0
0
VERTEX
8
Layer 1
10
93.871119
20
218.218157
70
0
0
VERTEX
8
Layer 1
10
93.813689
20
216.113222
70
0
0
VERTEX
8
Layer 1
10
93.596939
20
214.420652
70
0
0
VERTEX
8
Layer 1
10
93.172176
20
212.895605
70
0
0
VERTEX
8
Layer 1
10
92.490709
20
211.293240
70
0
0
VERTEX
8
Layer 1
10
91.595544
20
209.716397
70
0
0
VERTEX
8
Layer 1
10
90.265829
20
208.235300
70
0
0
VERTEX
8
Layer 1
10
88.753814
20
206.886392
70
0
0
VERTEX
8
Layer 1
10
87.036929
20
205.915830
70
0
0
VERTEX
8
Layer 1
10
85.544680
20
205.281769
70
0
0
VERTEX
8
Layer 1
10
84.052630
20
204.854812
70
0
0
VERTEX
8
Layer 1
10
82.463398
20
204.613850
70
0
0
VERTEX
8
Layer 1
10
80.679599
20
204.537775
70
0
0
VERTEX
8
Layer 1
10
79.032652
20
204.617829
70
0
0
VERTEX
8
Layer 1
10
77.472696
20
204.857870
70
0
0
VERTEX
8
Layer 1
10
76.004801
20
205.255466
70
0
0
VERTEX
8
Layer 1
10
74.634039
20
205.808186
70
0
0
VERTEX
8
Layer 1
10
73.365479
20
206.513598
70
0
0
VERTEX
8
Layer 1
10
72.204192
20
207.369271
70
0
0
VERTEX
8
Layer 1
10
71.155249
20
208.372772
70
0
0
VERTEX
8
Layer 1
10
70.223719
20
209.521670
70
0
0
VERTEX
8
Layer 1
10
69.200847
20
211.220872
70
0
0
VERTEX
8
Layer 1
10
68.488911
20
213.061355
70
0
0
VERTEX
8
Layer 1
10
68.054367
20
215.158329
70
0
0
VERTEX
8
Layer 1
10
67.863669
20
217.627006
70
0
0
VERTEX
8
Layer 1
10
67.869525
20
219.717168
70
0
0
VERTEX
8
Layer 1
10
68.026919
20
221.258363
70
0
0
VERTEX
8
Layer 1
10
68.026919
20
221.258363
70
0
0
SEQEND
8
Layer 1
0
POLYLINE
8
Layer 1
62
7
70
0
10
0.000000
20
0.000000
66
1
0
VERTEX
8
Layer 1
10
75.406639
20
216.415990
70
0
0
VERTEX
8
Layer 1
10
76.084146
20
215.912390
70
0
0
VERTEX
8
Layer 1
10
77.138076
20
215.521250
70
0
0
VERTEX
8
Layer 1
10
78.473043
20
215.268290
70
0
0
VERTEX
8
Layer 1
10
79.993659
20
215.179230
70
0
0
VERTEX
8
Layer 1
10
81.913338
20
215.278204
70
0
0
VERTEX
8
Layer 1
10
83.564039
20
215.564346
70
0
0
VERTEX
8
Layer 1
10
84.899702
20
216.025983
70
0
0
VERTEX
8
Layer 1
10
85.874269
20
216.651444
70
0
0
VERTEX
8
Layer 1
10
86.582018
20
217.573296
70
0
0
VERTEX
8
Layer 1
10
86.748910
20
218.505336
70
0
0
VERTEX
8
Layer 1
10
86.384902
20
219.357455
70
0
0
VERTEX
8
Layer 1
10
85.499949
20
220.039540
70
0
0
VERTEX
8
Layer 1
10
83.879844
20
220.508010
70
0
0
VERTEX
8
Layer 1
10
81.779497
20
220.669564
70
0
0
VERTEX
8
Layer 1
10
79.583498
20
220.522871
70
0
0
VERTEX
8
Layer 1
10
77.676439
20
220.066600
70
0
0
VERTEX
8
Layer 1
10
76.192236
20
219.301128
70
0
0
VERTEX
8
Layer 1
10
75.281310
20
218.376592
70
0
0
VERTEX
8
Layer 1
10
75.058588
20
217.883243
70
0
0
VERTEX
8
Layer 1
10
75.000499
20
217.384408
70
0
0
VERTEX
8
Layer 1
10
75.114147
20
216.891515
70
0
0
VERTEX
8
Layer 1
10
75.406639
20
216.415990
70
0
0
VERTEX
8
Layer 1
10
75.406639
20
216.415990
70
0
0
SEQEND
8
Layer 1
0
POLYLINE
8
Layer 1
62
7
70
0
10
0.000000
20
0.000000
66
1
0
VERTEX
8
Layer 1
10
68.127139
20
183.788090
70
0
0
VERTEX
8
Layer 1
10
68.295277
20
184.584070
70
0
0
VERTEX
8
Layer 1
10
68.591594
20
185.277056
70
0
0
VERTEX
8
Layer 1
10
69.004408
20
185.846256
70
0
0
VERTEX
8
Layer 1
10
69.522039
20
186.270880
70
0
0
VERTEX
8
Layer 1
10
72.004799
20
187.393790
70
0
0
VERTEX
8
Layer 1
10
74.672384
20
188.589171
70
0
0
VERTEX
8
Layer 1
10
75.321482
20
188.984921
70
0
0
VERTEX
8
Layer 1
10
75.500279
20
189.238740
70
0
0
VERTEX
8
Layer 1
10
74.801019
20
189.400084
70
0
0
VERTEX
8
Layer 1
10
73.004659
20
189.526110
70
0
0
VERTEX
8
Layer 1
10
70.442959
20
189.652790
70
0
0
VERTEX
8
Layer 1
10
69.647909
20
190.278290
70
0
0
VERTEX
8
Layer 1
10
68.976648
20
191.051706
70
0
0
VERTEX
8
Layer 1
10
68.537825
20
192.028672
70
0
0
VERTEX
8
Layer 1
10
68.282515
20
193.372805
70
0
0
VERTEX
8
Layer 1
10
68.161789
20
195.247720
70
0
0
VERTEX
8
Layer 1
10
68.239598
20
198.400319
70
0
0
VERTEX
8
Layer 1
10
68.454336
20
199.540417
70
0
0
VERTEX
8
Layer 1
10
68.810244
20
200.432874
70
0
0
VERTEX
8
Layer 1
10
69.325283
20
201.110061
70
0
0
VERTEX
8
Layer 1
10
70.017415
20
201.604346
70
0
0
VERTEX
8
Layer 1
10
70.904600
20
201.948101
70
0
0
VERTEX
8
Layer 1
10
72.004799
20
202.173695
70
0
0
VERTEX
8
Layer 1
10
74.618515
20
202.353298
70
0
0
VERTEX
8
Layer 1
10
78.729546
20
202.455209
70
0
0
VERTEX
8
Layer 1
10
86.558489
20
202.362555
70
0
0
VERTEX
8
Layer 1
10
89.320384
20
202.131291
70
0
0
VERTEX
8
Layer 1
10
91.012056
20
201.790728
70
0
0
VERTEX
8
Layer 1
10
91.962171
20
201.228558
70
0
0
VERTEX
8
Layer 1
10
92.499389
20
200.332475
70
0
0
VERTEX
8
Layer 1
10
92.840928
20
199.052434
70
0
0
VERTEX
8
Layer 1
10
93.100898
20
197.227424
70
0
0
VERTEX
8
Layer 1
10
93.364644
20
192.595512
70
0
0
VERTEX
8
Layer 1
10
93.267663
20
187.742779
70
0
0
VERTEX
8
Layer 1
10
93.076723
20
185.641740
70
0
0
VERTEX
8
Layer 1
10
92.786989
20
183.975260
70
0
0
VERTEX
8
Layer 1
10
91.924639
20
181.549821
70
0
0
VERTEX
8
Layer 1
10
91.341569
20
180.529375
70
0
0
VERTEX
8
Layer 1
10
90.662689
20
179.643255
70
0
0
VERTEX
8
Layer 1
10
89.892087
20
178.896069
70
0
0
VERTEX
8
Layer 1
10
89.033854
20
178.292424
70
0
0
VERTEX
8
Layer 1
10
88.092078
20
177.836928
70
0
0
VERTEX
8
Layer 1
10
87.070849
20
177.534190
70
0
0
VERTEX
8
Layer 1
10
84.794050
20
177.353659
70
0
0
VERTEX
8
Layer 1
10
82.596639
20
177.595490
70
0
0
VERTEX
8
Layer 1
10
81.529146
20
177.979835
70
0
0
VERTEX
8
Layer 1
10
80.598825
20
178.538415
70
0
0
VERTEX
8
Layer 1
10
79.813736
20
179.265190
70
0
0
VERTEX
8
Layer 1
10
79.181939
20
180.154120
70
0
0
VERTEX
8
Layer 1
10
78.879649
20
180.683780
70
0
0
VERTEX
8
Layer 1
10
77.595129
20
179.731870
70
0
0
VERTEX
8
Layer 1
10
75.147306
20
178.184987
70
0
0
VERTEX
8
Layer 1
10
72.818782
20
177.202045
70
0
0
VERTEX
8
Layer 1
10
70.813263
20
176.845983
70
0
0
VERTEX
8
Layer 1
10
69.995290
20
176.922701
70
0
0
VERTEX
8
Layer 1
10
69.334459
20
177.179740
70
0
0
VERTEX
8
Layer 1
10
68.854120
20
177.592052
70
0
0
VERTEX
8
Layer 1
10
68.523040
20
178.191574
70
0
0
VERTEX
8
Layer 1
10
68.313064
20
179.054396
70
0
0
VERTEX
8
Layer 1
10
68.196039
20
180.256610
70
0
0
VERTEX
8
Layer 1
10
68.059999
20
182.326870
70
0
0
VERTEX
8
Layer 1
10
68.127099
20
183.788110
70
0
0
VERTEX
8
Layer 1
10
68.127139
20
183.788090
70
0
0
SEQEND
8
Layer 1
0
POLYLINE
8
Layer 1
62
7
70
0
10
0.000000
20
0.000000
66
1
0
VERTEX
8
Layer 1
10
83.381199
20
184.483180
70
0
0
VERTEX
8
Layer 1
10
83.699198
20
184.045951
70
0
0
VERTEX
8
Layer 1
10
84.131074
20
183.712335
70
0
0
VERTEX
8
Layer 1
10
84.645930
20
183.500144
70
0
0
VERTEX
8
Layer 1
10
85.212869
20
183.427190
70
0
0
VERTEX
8
Layer 1
10
86.096226
20
183.599891
70
0
0
VERTEX
8
Layer 1
10
86.717694
20
184.115255
70
0
0
VERTEX
8
Layer 1
10
87.083997
20
184.982677
70
0
0
VERTEX
8
Layer 1
10
87.201859
20
186.211550
70
0
0
VERTEX
8
Layer 1
10
87.121974
20
187.284462
70
0
0
VERTEX
8
Layer 1
10
86.887473
20
188.101443
70
0
0
VERTEX
8
Layer 1
10
86.494832
20
188.670072
70
0
0
VERTEX
8
Layer 1
10
85.940529
20
188.997930
70
0
0
VERTEX
8
Layer 1
10
85.109955
20
189.122503
70
0
0
VERTEX
8
Layer 1
10
84.330344
20
188.966731
70
0
0
VERTEX
8
Layer 1
10
83.675510
20
188.559584
70
0
0
VERTEX
8
Layer 1
10
83.219269
20
187.930030
70
0
0
VERTEX
8
Layer 1
10
83.056726
20
187.201426
70
0
0
VERTEX
8
Layer 1
10
83.037104
20
186.222936
70
0
0
VERTEX
8
Layer 1
10
83.149047
20
185.236281
70
0
0
VERTEX
8
Layer 1
10
83.381199
20
184.483180
70
0
0
VERTEX
8
Layer 1
10
83.381199
20
184.483180
70
0
0
SEQEND
8
Layer 1
0
POLYLINE
8
Layer 1
62
7
70
0
10
0.000000
20
0.000000
66
1
0
VERTEX
8
Layer 1
10
68.456779
20
250.072107
70
0
0
VERTEX
8
Layer 1
10
68.966844
20
251.852059
70
0
0
VERTEX
8
Layer 1
10
69.355221
20
252.540271
70
0
0
VERTEX
8
Layer 1
10
69.788249
20
252.996784
70
0
0
VERTEX
8
Layer 1
10
70.943101
20
253.483060
70
0
0
VERTEX
8
Layer 1
10
72.951763
20
253.800242
70
0
0
VERTEX
8
Layer 1
10
76.069598
20
253.972720
70
0
0
VERTEX
8
Layer 1
10
80.551969
20
254.024887
70
0
0
VERTEX
8
Layer 1
10
85.267706
20
253.969976
70
0
0
VERTEX
8
Layer 1
10
88.617404
20
253.796082
70
0
0
VERTEX
8
Layer 1
10
90.753047
20
253.489904
70
0
0
VERTEX
8
Layer 1
10
91.826619
20
253.038139
70
0
0
VERTEX
8
Layer 1
10
92.244194
20
252.512563
70
0
0
VERTEX
8
Layer 1
10
92.632938
20
251.728815
70
0
0
VERTEX
8
Layer 1
10
93.236569
20
249.599870
70
0
0
VERTEX
8
Layer 1
10
93.463127
20
247.227705
70
0
0
VERTEX
8
Layer 1
10
93.533765
20
243.917649
70
0
0
VERTEX
8
Layer 1
10
93.449980
20
240.440448
70
0
0
VERTEX
8
Layer 1
10
93.213269
20
237.566845
70
0
0
VERTEX
8
Layer 1
10
92.631076
20
234.303107
70
0
0
VERTEX
8
Layer 1
10
92.009239
20
232.450842
70
0
0
VERTEX
8
Layer 1
10
91.577660
20
231.948741
70
0
0
VERTEX
8
Layer 1
10
91.037275
20
231.620652
70
0
0
VERTEX
8
Layer 1
10
90.352068
20
231.451975
70
0
0
VERTEX
8
Layer 1
10
89.486019
20
231.428111
70
0
0
VERTEX
8
Layer 1
10
88.508041
20
231.548393
70
0
0
VERTEX
8
Layer 1
10
87.704208
20
231.801408
70
0
0
VERTEX
8
Layer 1
10
87.118593
20
232.167516
70
0
0
VERTEX
8
Layer 1
10
86.795269
20
232.627078
70
0
0
VERTEX
8
Layer 1
10
86.749330
20
233.492339
70
0
0
VERTEX
8
Layer 1
10
86.933259
20
235.229855
70
0
0
VERTEX
8
Layer 1
10
87.118875
20
238.046446
70
0
0
VERTEX
8
Layer 1
10
86.986085
20
238.946622
70
0
0
VERTEX
8
Layer 1
10
86.701229
20
239.538989
70
0
0
VERTEX
8
Layer 1
10
86.168475
20
239.851539
70
0
0
VERTEX
8
Layer 1
10
85.367644
20
239.999602
70
0
0
VERTEX
8
Layer 1
10
84.550156
20
239.965476
70
0
0
VERTEX
8
Layer 1
10
83.967429
20
239.731460
70
0
0
VERTEX
8
Layer 1
10
83.608131
20
239.305178
70
0
0
VERTEX
8
Layer 1
10
83.355109
20
238.724387
70
0
0
VERTEX
8
Layer 1
10
83.076149
20
236.797194
70
0
0
VERTEX
8
Layer 1
10
82.835625
20
234.486798
70
0
0
VERTEX
8
Layer 1
10
82.631261
20
234.068426
70
0
0
VERTEX
8
Layer 1
10
82.288569
20
233.831520
70
0
0
VERTEX
8
Layer 1
10
81.588458
20
233.653376
70
0
0
VERTEX
8
Layer 1
10
80.558173
20
233.571614
70
0
0
VERTEX
8
Layer 1
10
79.506519
20
233.594908
70
0
0
VERTEX
8
Layer 1
10
78.742299
20
233.731930
70
0
0
VERTEX
8
Layer 1
10
78.296040
20
233.977200
70
0
0
VERTEX
8
Layer 1
10
78.028601
20
234.419461
70
0
0
VERTEX
8
Layer 1
10
77.773289
20
236.675280
70
0
0
VERTEX
8
Layer 1
10
77.646506
20
238.251647
70
0
0
VERTEX
8
Layer 1
10
77.432211
20
239.205720
70
0
0
VERTEX
8
Layer 1
10
77.055148
20
239.724998
70
0
0
VERTEX
8
Layer 1
10
76.440059
20
239.996979
70
0
0
VERTEX
8
Layer 1
10
73.693839
20
240.175201
70
0
0
VERTEX
8
Layer 1
10
70.910789
20
240.363590
70
0
0
VERTEX
8
Layer 1
10
70.218491
20
240.683257
70
0
0
VERTEX
8
Layer 1
10
69.588673
20
241.215400
70
0
0
VERTEX
8
Layer 1
10
69.069095
20
241.909080
70
0
0
VERTEX
8
Layer 1
10
68.707519
20
242.713360
70
0
0
VERTEX
8
Layer 1
10
68.492176
20
244.069075
70
0
0
VERTEX
8
Layer 1
10
68.365129
20
246.143158
70
0
0
VERTEX
8
Layer 1
10
68.346599
20
248.342028
70
0
0
VERTEX
8
Layer 1
10
68.456809
20
250.072107
70
0
0
VERTEX
8
Layer 1
10
68.456779
20
250.072107
70
0
0
SEQEND
8
Layer 1
0
POLYLINE
8
Layer 1
62
7
70
0
10
0.000000
20
0.000000
66
1
0
VERTEX
8
Layer 1
10
95.360220
20
222.773397
70
0
0
VERTEX
8
Layer 1
10
95.726751
20
223.266918
70
0
0
VERTEX
8
Layer 1
10
96.250134
20
223.640855
70
0
0
VERTEX
8
Layer 1
10
96.897219
20
223.877907
70
0
0
VERTEX
8
Layer 1
10
97.634858
20
223.960769
70
0
0
VERTEX
8
Layer 1
10
98.799555
20
223.787673
70
0
0
VERTEX
8
Layer 1
10
99.657879
20
223.281016
70
0
0
VERTEX
8
Layer 1
10
100.189991
20
222.459747
70
0
0
VERTEX
8
Layer 1
10
100.376050
20
221.342813
70
0
0
VERTEX
8
Layer 1
10
100.198072
20
220.306111
70
0
0
VERTEX
8
Layer 1
10
99.673782
20
219.524727
70
0
0
VERTEX
8
Layer 1
10
98.835642
20
219.029053
70
0
0
VERTEX
8
Layer 1
10
97.716118
20
218.849482
70
0
0
VERTEX
8
Layer 1
10
96.881302
20
218.915622
70
0
0
VERTEX
8
Layer 1
10
96.212583
20
219.129870
70
0
0
VERTEX
8
Layer 1
10
95.712646
20
219.490904
70
0
0
VERTEX
8
Layer 1
10
95.384180
20
219.997404
70
0
0
VERTEX
8
Layer 1
10
95.154731
20
221.439729
70
0
0
VERTEX
8
Layer 1
10
95.360180
20
222.773397
70
0
0
VERTEX
8
Layer 1
10
95.360220
20
222.773397
70
0
0
SEQEND
8
Layer 1
0
POLYLINE
8
Layer 1
62
7
70
0
10
0.000000
20
0.000000
66
1
0
VERTEX
8
Layer 1
10
95.571920
20
215.998220
70
0
0
VERTEX
8
Layer 1
10
96.035873
20
216.412900
70
0
0
VERTEX
8
Layer 1
10
96.610212
20
216.691397
70
0
0
VERTEX
8
Layer 1
10
97.284352
20
216.830172
70
0
0
VERTEX
8
Layer 1
10
98.047705
20
216.825686
70
0
0
VERTEX
8
Layer 1
10
99.015486
20
216.563982
70
0
0
VERTEX
8
Layer 1
10
99.749953
20
216.011261
70
0
0
VERTEX
8
Layer 1
10
100.216310
20
215.206851
70
0
0
VERTEX
8
Layer 1
10
100.379760
20
214.190080
70
0
0
VERTEX
8
Layer 1
10
100.169547
20
213.065270
70
0
0
VERTEX
8
Layer 1
10
99.571008
20
212.241934
70
0
0
VERTEX
8
Layer 1
10
98.633648
20
211.762073
70
0
0
VERTEX
8
Layer 1
10
97.406968
20
211.667690
70
0
0
VERTEX
8
Layer 1
10
96.366010
20
211.890648
70
0
0
VERTEX
8
Layer 1
10
95.666443
20
212.385355
70
0
0
VERTEX
8
Layer 1
10
95.272054
20
213.194987
70
0
0
VERTEX
8
Layer 1
10
95.146633
20
214.362720
70
0
0
VERTEX
8
Layer 1
10
95.221619
20
215.378463
70
0
0
VERTEX
8
Layer 1
10
95.571920
20
215.998220
70
0
0
VERTEX
8
Layer 1
10
95.571920
20
215.998220
70
0
0
SEQEND
8
Layer 1
0
POLYLINE
8
Layer 1
62
7
70
0
10
0.000000
20
0.000000
66
1
0
VERTEX
8
Layer 1
10
104.436200
20
190.503180
70
0
0
VERTEX
8
Layer 1
10
104.920784
20
192.480728
70
0
0
VERTEX
8
Layer 1
10
105.700830
20
193.822590
70
0
0
VERTEX
8
Layer 1
10
106.430841
20
194.360475
70
0
0
VERTEX
8
Layer 1
10
107.747617
20
194.639300
70
0
0
VERTEX
8
Layer 1
10
110.278798
20
194.717260
70
0
0
VERTEX
8
Layer 1
10
114.652020
20
194.652550
70
0
0
VERTEX
8
Layer 1
10
121.725780
20
194.511090
70
0
0
VERTEX
8
Layer 1
10
122.312234
20
194.596457
70
0
0
VERTEX
8
Layer 1
10
122.718020
20
194.918930
70
0
0
VERTEX
8
Layer 1
10
122.981630
20
195.509916
70
0
0
VERTEX
8
Layer 1
10
122.950400
20
196.818450
70
0
0
VERTEX
8
Layer 1
10
122.923796
20
198.030666
70
0
0
VERTEX
8
Layer 1
10
123.073091
20
198.860423
70
0
0
VERTEX
8
Layer 1
10
123.438890
20
199.417012
70
0
0
VERTEX
8
Layer 1
10
124.061800
20
199.809725
70
0
0
VERTEX
8
Layer 1
10
124.844679
20
200.040094
70
0
0
VERTEX
8
Layer 1
10
125.782512
20
200.137120
70
0
0
VERTEX
8
Layer 1
10
126.711709
20
200.095914
70
0
0
VERTEX
8
Layer 1
10
127.468680
20
199.911585
70
0
0
VERTEX
8
Layer 1
10
127.969311
20
199.607739
70
0
0
VERTEX
8
Layer 1
10
128.387767
20
199.146505
70
0
0
VERTEX
8
Layer 1
10
128.992290
20
197.731655
70
0
0
VERTEX
8
Layer 1
10
129.252126
20
195.752313
70
0
0
VERTEX
8
Layer 1
10
129.451003
20
192.422272
70
0
0
VERTEX
8
Layer 1
10
129.551950
20
184.419650
70
0
0
VERTEX
8
Layer 1
10
129.384911
20
180.500461
70
0
0
VERTEX
8
Layer 1
10
129.038918
20
177.870144
70
0
0
VERTEX
8
Layer 1
10
128.462528
20
176.294122
70
0
0
VERTEX
8
Layer 1
10
128.071859
20
175.828167
70
0
0
VERTEX
8
Layer 1
10
127.604300
20
175.537820
70
0
0
VERTEX
8
Layer 1
10
126.843921
20
175.369240
70
0
0
VERTEX
8
Layer 1
10
125.884760
20
175.357368
70
0
0
VERTEX
8
Layer 1
10
124.909377
20
175.490736
70
0
0
VERTEX
8
Layer 1
10
124.100330
20
175.757880
70
0
0
VERTEX
8
Layer 1
10
123.400441
20
176.192123
70
0
0
VERTEX
8
Layer 1
10
122.996950
20
176.739689
70
0
0
VERTEX
8
Layer 1
10
122.820027
20
177.565855
70
0
0
VERTEX
8
Layer 1
10
122.799840
20
178.835900
70
0
0
VERTEX
8
Layer 1
10
122.670190
20
181.058988
70
0
0
VERTEX
8
Layer 1
10
122.423544
20
181.635555
70
0
0
VERTEX
8
Layer 1
10
122.027300
20
181.970700
70
0
0
VERTEX
8
Layer 1
10
120.202098
20
182.175528
70
0
0
VERTEX
8
Layer 1
10
114.652020
20
182.314550
70
0
0
VERTEX
8
Layer 1
10
109.074396
20
182.456516
70
0
0
VERTEX
8
Layer 1
10
106.880180
20
182.666800
70
0
0
VERTEX
8
Layer 1
10
106.132964
20
182.982738
70
0
0
VERTEX
8
Layer 1
10
105.502110
20
183.469505
70
0
0
VERTEX
8
Layer 1
10
105.007089
20
184.107652
70
0
0
VERTEX
8
Layer 1
10
104.667370
20
184.877730
70
0
0
VERTEX
8
Layer 1
10
104.357715
20
187.512041
70
0
0
VERTEX
8
Layer 1
10
104.436200
20
190.503180
70
0
0
VERTEX
8
Layer 1
10
104.436200
20
190.503180
70
0
0
SEQEND
8
Layer 1
0
POLYLINE
8
Layer 1
62
7
70
0
10
0.000000
20
0.000000
66
1
0
VERTEX
8
Layer 1
10
104.461500
20
168.561470
70
0
0
VERTEX
8
Layer 1
10
104.843816
20
171.591201
70
0
0
VERTEX
8
Layer 1
10
105.154605
20
172.439785
70
0
0
VERTEX
8
Layer 1
10
105.573360
20
172.955670
70
0
0
VERTEX
8
Layer 1
10
106.245185
20
173.251277
70
0
0
VERTEX
8
Layer 1
10
107.809780
20
173.262320
70
0
0
VERTEX
8
Layer 1
10
109.546639
20
173.110838
70
0
0
VERTEX
8
Layer 1
10
111.091520
20
172.482460
70
0
0
VERTEX
8
Layer 1
10
113.991534
20
170.908689
70
0
0
VERTEX
8
Layer 1
10
118.367810
20
168.130920
70
0
0
VERTEX
8
Layer 1
10
121.889962
20
165.884540
70
0
0
VERTEX
8
Layer 1
10
122.955520
20
165.407950
70
0
0
VERTEX
8
Layer 1
10
123.095762
20
165.825857
70
0
0
VERTEX
8
Layer 1
10
123.138040
20
166.630998
70
0
0
VERTEX
8
Layer 1
10
122.931520
20
168.984970
70
0
0
VERTEX
8
Layer 1
10
122.746950
20
171.511280
70
0
0
VERTEX
8
Layer 1
10
122.934432
20
172.012539
70
0
0
VERTEX
8
Layer 1
10
123.293385
20
172.414879
70
0
0
VERTEX
8
Layer 1
10
123.829338
20
172.722687
70
0
0
VERTEX
8
Layer 1
10
124.547820
20
172.940350
70
0
0
VERTEX
8
Layer 1
10
126.113142
20
173.102994
70
0
0
VERTEX
8
Layer 1
10
127.353010
20
172.767750
70
0
0
VERTEX
8
Layer 1
10
128.031623
20
172.301780
70
0
0
VERTEX
8
Layer 1
10
128.548170
20
171.613570
70
0
0
VERTEX
8
Layer 1
10
128.931270
20
170.650590
70
0
0
VERTEX
8
Layer 1
10
129.209540
20
169.360310
70
0
0
VERTEX
8
Layer 1
10
129.440001
20
165.666509
70
0
0
VERTEX
8
Layer 1
10
129.443549
20
160.262272
70
0
0
VERTEX
8
Layer 1
10
129.252882
20
155.009833
70
0
0
VERTEX
8
Layer 1
10
128.900700
20
151.771420
70
0
0
VERTEX
8
Layer 1
10
128.228800
20
150.612410
70
0
0
VERTEX
8
Layer 1
10
127.913265
20
150.325350
70
0
0
VERTEX
8
Layer 1
10
127.575220
20
150.184209
70
0
0
VERTEX
8
Layer 1
10
126.000520
20
150.177470
70
0
0
VERTEX
8
Layer 1
10
124.302557
20
150.338841
70
0
0
VERTEX
8
Layer 1
10
122.755150
20
150.967560
70
0
0
VERTEX
8
Layer 1
10
119.821764
20
152.569344
70
0
0
VERTEX
8
Layer 1
10
116.125500
20
154.916710
70
0
0
VERTEX
8
Layer 1
10
112.673255
20
157.128778
70
0
0
VERTEX
8
Layer 1
10
110.909680
20
158.089650
70
0
0
VERTEX
8
Layer 1
10
110.680228
20
157.866873
70
0
0
VERTEX
8
Layer 1
10
110.581320
20
157.198764
70
0
0
VERTEX
8
Layer 1
10
110.775200
20
154.527880
70
0
0
VERTEX
8
Layer 1
10
110.990549
20
152.427139
70
0
0
VERTEX
8
Layer 1
10
110.793900
20
151.571270
70
0
0
VERTEX
8
Layer 1
10
110.443280
20
151.080464
70
0
0
VERTEX
8
Layer 1
10
109.914120
20
150.743211
70
0
0
VERTEX
8
Layer 1
10
109.171473
20
150.544793
70
0
0
VERTEX
8
Layer 1
10
108.180390
20
150.470490
70
0
0
VERTEX
8
Layer 1
10
107.107891
20
150.553745
70
0
0
VERTEX
8
Layer 1
10
106.266874
20
150.863040
70
0
0
VERTEX
8
Layer 1
10
105.598654
20
151.432548
70
0
0
VERTEX
8
Layer 1
10
105.044550
20
152.296440
70
0
0
VERTEX
8
Layer 1
10
104.638663
20
153.334317
70
0
0
VERTEX
8
Layer 1
10
104.406190
20
154.755038
70
0
0
VERTEX
8
Layer 1
10
104.291660
20
160.623150
70
0
0
VERTEX
8
Layer 1
10
104.461550
20
168.561470
70
0
0
VERTEX
8
Layer 1
10
104.461500
20
168.561470
70
0
0
SEQEND
8
Layer 1
0
POLYLINE
8
Layer 1
62
7
70
0
10
0.000000
20
0.000000
66
1
0
VERTEX
8
Layer 1
10
104.683540
20
207.041510
70
0
0
VERTEX
8
Layer 1
10
104.966030
20
208.061426
70
0
0
VERTEX
8
Layer 1
10
105.316819
20
208.747651
70
0
0
VERTEX
8
Layer 1
10
105.818385
20
209.211473
70
0
0
VERTEX
8
Layer 1
10
106.553210
20
209.564180
70
0
0
VERTEX
8
Layer 1
10
107.888913
20
210.120670
70
0
0
VERTEX
8
Layer 1
10
108.294695
20
210.398833
70
0
0
VERTEX
8
Layer 1
10
108.561881
20
210.746825
70
0
0
VERTEX
8
Layer 1
10
108.788811
20
211.861950
70
0
0
VERTEX
8
Layer 1
10
108.786400
20
213.885350
70
0
0
VERTEX
8
Layer 1
10
108.740500
20
216.561914
70
0
0
VERTEX
8
Layer 1
10
108.257540
20
216.946638
70
0
0
VERTEX
8
Layer 1
10
106.788100
20
217.630050
70
0
0
VERTEX
8
Layer 1
10
105.942972
20
217.982304
70
0
0
VERTEX
8
Layer 1
10
105.328710
20
218.422039
70
0
0
VERTEX
8
Layer 1
10
104.918405
20
219.086736
70
0
0
VERTEX
8
Layer 1
10
104.796220
20
220.540362
70
0
0
VERTEX
8
Layer 1
10
104.905530
20
222.665657
70
0
0
VERTEX
8
Layer 1
10
105.149674
20
223.354412
70
0
0
VERTEX
8
Layer 1
10
105.550745
20
223.816125
70
0
0
VERTEX
8
Layer 1
10
106.131694
20
224.067460
70
0
0
VERTEX
8
Layer 1
10
106.915472
20
224.125083
70
0
0
VERTEX
8
Layer 1
10
109.183320
20
223.725845
70
0
0
VERTEX
8
Layer 1
10
113.409565
20
222.351842
70
0
0
VERTEX
8
Layer 1
10
118.490837
20
220.295264
70
0
0
VERTEX
8
Layer 1
10
123.358244
20
218.021378
70
0
0
VERTEX
8
Layer 1
10
126.942890
20
215.995452
70
0
0
VERTEX
8
Layer 1
10
128.485362
20
214.741401
70
0
0
VERTEX
8
Layer 1
10
129.487070
20
213.404500
70
0
0
VERTEX
8
Layer 1
10
129.788997
20
212.492810
70
0
0
VERTEX
8
Layer 1
10
129.852920
20
210.702090
70
0
0
VERTEX
8
Layer 1
10
129.784595
20
208.871463
70
0
0
VERTEX
8
Layer 1
10
129.439520
20
207.835190
70
0
0
VERTEX
8
Layer 1
10
128.616884
20
206.619254
70
0
0
VERTEX
8
Layer 1
10
127.216861
20
205.424849
70
0
0
VERTEX
8
Layer 1
10
124.920275
20
204.028260
70
0
0
VERTEX
8
Layer 1
10
121.407950
20
202.205775
70
0
0
VERTEX
8
Layer 1
10
116.675250
20
199.975687
70
0
0
VERTEX
8
Layer 1
10
112.686136
20
198.381754
70
0
0
VERTEX
8
Layer 1
10
109.442930
20
197.424794
70
0
0
VERTEX
8
Layer 1
10
106.947950
20
197.105625
70
0
0
VERTEX
8
Layer 1
10
106.041515
20
197.183919
70
0
0
VERTEX
8
Layer 1
10
105.522200
20
197.553775
70
0
0
VERTEX
8
Layer 1
10
105.052017
20
198.245621
70
0
0
VERTEX
8
Layer 1
10
104.749892
20
199.228307
70
0
0
VERTEX
8
Layer 1
10
104.498610
20
202.848235
70
0
0
VERTEX
8
Layer 1
10
104.510246
20
205.504987
70
0
0
VERTEX
8
Layer 1
10
104.683500
20
207.041510
70
0
0
VERTEX
8
Layer 1
10
104.683540
20
207.041510
70
0
0
SEQEND
8
Layer 1
0
POLYLINE
8
Layer 1
62
7
70
0
10
0.000000
20
0.000000
66
1
0
VERTEX
8
Layer 1
10
112.890030
20
213.099590
70
0
0
VERTEX
8
Layer 1
10
113.289620
20
212.372020
70
0
0
VERTEX
8
Layer 1
10
114.929179
20
212.863765
70
0
0
VERTEX
8
Layer 1
10
116.903320
20
213.763210
70
0
0
VERTEX
8
Layer 1
10
117.332050
20
214.044120
70
0
0
VERTEX
8
Layer 1
10
116.894550
20
214.420450
70
0
0
VERTEX
8
Layer 1
10
116.104371
20
214.876632
70
0
0
VERTEX
8
Layer 1
10
114.945079
20
215.346570
70
0
0
VERTEX
8
Layer 1
10
113.841937
20
215.679375
70
0
0
VERTEX
8
Layer 1
10
113.220210
20
215.724158
70
0
0
VERTEX
8
Layer 1
10
112.925403
20
215.341423
70
0
0
VERTEX
8
Layer 1
10
112.763482
20
214.707881
70
0
0
VERTEX
8
Layer 1
10
112.747381
20
213.926335
70
0
0
VERTEX
8
Layer 1
10
112.890030
20
213.099590
70
0
0
VERTEX
8
Layer 1
10
112.890030
20
213.099590
70
0
0
SEQEND
8
Layer 1
0
POLYLINE
8
Layer 1
62
7
70
0
10
0.000000
20
0.000000
66
1
0
VERTEX
8
Layer 1
10
104.766090
20
275.313625
70
0
0
VERTEX
8
Layer 1
10
105.127689
20
276.821426
70
0
0
VERTEX
8
Layer 1
10
105.777002
20
278.021425
70
0
0
VERTEX
8
Layer 1
10
106.685407
20
278.875874
70
0
0
VERTEX
8
Layer 1
10
107.824280
20
279.347021
70
0
0
VERTEX
8
Layer 1
10
109.497378
20
279.619444
70
0
0
VERTEX
8
Layer 1
10
111.677512
20
279.794461
70
0
0
VERTEX
8
Layer 1
10
118.790050
20
279.916179
70
0
0
VERTEX
8
Layer 1
10
124.544540
20
279.853426
70
0
0
VERTEX
8
Layer 1
10
128.365336
20
279.635107
70
0
0
VERTEX
8
Layer 1
10
130.656712
20
279.219277
70
0
0
VERTEX
8
Layer 1
10
131.355202
20
278.924189
70
0
0
VERTEX
8
Layer 1
10
131.822940
20
278.563995
70
0
0
VERTEX
8
Layer 1
10
132.594241
20
277.377545
70
0
0
VERTEX
8
Layer 1
10
133.102120
20
275.445697
70
0
0
VERTEX
8
Layer 1
10
133.345481
20
272.899649
70
0
0
VERTEX
8
Layer 1
10
133.393340
20
266.861454
70
0
0
VERTEX
8
Layer 1
10
133.386340
20
259.852090
70
0
0
VERTEX
8
Layer 1
10
132.930920
20
258.163087
70
0
0
VERTEX
8
Layer 1
10
132.105450
20
255.765913
70
0
0
VERTEX
8
Layer 1
10
131.046111
20
253.833936
70
0
0
VERTEX
8
Layer 1
10
129.750240
20
252.363303
70
0
0
VERTEX
8
Layer 1
10
128.215170
20
251.350161
70
0
0
VERTEX
8
Layer 1
10
127.110494
20
250.908225
70
0
0
VERTEX
8
Layer 1
10
125.969809
20
250.632094
70
0
0
VERTEX
8
Layer 1
10
123.224340
20
250.517867
70
0
0
VERTEX
8
Layer 1
10
121.713324
20
250.658594
70
0
0
VERTEX
8
Layer 1
10
120.512646
20
250.952676
70
0
0
VERTEX
8
Layer 1
10
119.502988
20
251.442427
70
0
0
VERTEX
8
Layer 1
10
118.565030
20
252.170159
70
0
0
VERTEX
8
Layer 1
10
117.507746
20
253.392354
70
0
0
VERTEX
8
Layer 1
10
116.686259
20
254.959942
70
0
0
VERTEX
8
Layer 1
10
116.053320
20
256.989784
70
0
0
VERTEX
8
Layer 1
10
115.561680
20
259.598739
70
0
0
VERTEX
8
Layer 1
10
115.049079
20
262.469060
70
0
0
VERTEX
8
Layer 1
10
114.801887
20
263.092514
70
0
0
VERTEX
8
Layer 1
10
114.471310
20
263.494448
70
0
0
VERTEX
8
Layer 1
10
114.160934
20
263.728369
70
0
0
VERTEX
8
Layer 1
10
113.661946
20
263.860945
70
0
0
VERTEX
8
Layer 1
10
110.880300
20
263.990177
70
0
0
VERTEX
8
Layer 1
10
108.079472
20
264.124299
70
0
0
VERTEX
8
Layer 1
10
107.465562
20
264.261206
70
0
0
VERTEX
8
Layer 1
10
106.973510
20
264.496878
70
0
0
VERTEX
8
Layer 1
10
106.344806
20
264.967774
70
0
0
VERTEX
8
Layer 1
10
105.804872
20
265.622517
70
0
0
VERTEX
8
Layer 1
10
105.358842
20
266.453371
70
0
0
VERTEX
8
Layer 1
10
105.011850
20
267.452605
70
0
0
VERTEX
8
Layer 1
10
104.806411
20
268.921405
70
0
0
VERTEX
8
Layer 1
10
104.683542
20
271.147225
70
0
0
VERTEX
8
Layer 1
10
104.765590
20
275.313625
70
0
0
VERTEX
8
Layer 1
10
104.766090
20
275.313625
70
0
0
SEQEND
8
Layer 1
0
POLYLINE
8
Layer 1
62
7
70
0
10
0.000000
20
0.000000
66
1
0
VERTEX
8
Layer 1
10
122.084280
20
258.692072
70
0
0
VERTEX
8
Layer 1
10
122.471527
20
258.082371
70
0
0
VERTEX
8
Layer 1
10
122.969029
20
257.681294
70
0
0
VERTEX
8
Layer 1
10
123.603996
20
257.474227
70
0
0
VERTEX
8
Layer 1
10
124.403640
20
257.446557
70
0
0
VERTEX
8
Layer 1
10
125.415609
20
257.668058
70
0
0
VERTEX
8
Layer 1
10
126.080965
20
258.224001
70
0
0
VERTEX
8
Layer 1
10
126.446134
20
259.182618
70
0
0
VERTEX
8
Layer 1
10
126.557540
20
260.612141
70
0
0
VERTEX
8
Layer 1
10
126.374684
20
262.312402
70
0
0
VERTEX
8
Layer 1
10
126.132657
20
262.907152
70
0
0
VERTEX
8
Layer 1
10
125.778270
20
263.374045
70
0
0
VERTEX
8
Layer 1
10
125.300006
20
263.720994
70
0
0
VERTEX
8
Layer 1
10
124.748597
20
263.908076
70
0
0
VERTEX
8
Layer 1
10
123.564141
20
263.842538
70
0
0
VERTEX
8
Layer 1
10
122.500505
20
263.257221
70
0
0
VERTEX
8
Layer 1
10
122.100120
20
262.794580
70
0
0
VERTEX
8
Layer 1
10
121.833290
20
262.231917
70
0
0
VERTEX
8
Layer 1
10
121.718876
20
261.448980
70
0
0
VERTEX
8
Layer 1
10
121.733436
20
260.444760
70
0
0
VERTEX
8
Layer 1
10
121.860671
20
259.449157
70
0
0
VERTEX
8
Layer 1
10
122.084280
20
258.692072
70
0
0
VERTEX
8
Layer 1
10
122.084280
20
258.692072
70
0
0
SEQEND
8
Layer 1
0
POLYLINE
8
Layer 1
62
7
70
0
10
0.000000
20
0.000000
66
1
0
VERTEX
8
Layer 1
10
104.719100
20
243.722108
70
0
0
VERTEX
8
Layer 1
10
105.217764
20
245.420261
70
0
0
VERTEX
8
Layer 1
10
105.881480
20
246.746041
70
0
0
VERTEX
8
Layer 1
10
106.658296
20
247.360160
70
0
0
VERTEX
8
Layer 1
10
108.152240
20
247.732647
70
0
0
VERTEX
8
Layer 1
10
111.041236
20
247.955601
70
0
0
VERTEX
8
Layer 1
10
116.003210
20
248.121122
70
0
0
VERTEX
8
Layer 1
10
121.063174
20
248.207079
70
0
0
VERTEX
8
Layer 1
10
124.259869
20
248.085459
70
0
0
VERTEX
8
Layer 1
10
126.269717
20
247.688949
70
0
0
VERTEX
8
Layer 1
10
127.769140
20
246.950234
70
0
0
VERTEX
8
Layer 1
10
128.753711
20
246.053211
70
0
0
VERTEX
8
Layer 1
10
129.366309
20
244.696573
70
0
0
VERTEX
8
Layer 1
10
129.680165
20
242.607990
70
0
0
VERTEX
8
Layer 1
10
129.768510
20
239.515131
70
0
0
VERTEX
8
Layer 1
10
129.718567
20
237.634662
70
0
0
VERTEX
8
Layer 1
10
129.526246
20
236.422472
70
0
0
VERTEX
8
Layer 1
10
129.127813
20
235.666185
70
0
0
VERTEX
8
Layer 1
10
128.459530
20
235.153421
70
0
0
VERTEX
8
Layer 1
10
127.508468
20
234.774484
70
0
0
VERTEX
8
Layer 1
10
125.986840
20
234.561591
70
0
0
VERTEX
8
Layer 1
10
119.043400
20
234.476636
70
0
0
VERTEX
8
Layer 1
10
113.694156
20
234.462530
70
0
0
VERTEX
8
Layer 1
10
111.831460
20
234.313329
70
0
0
VERTEX
8
Layer 1
10
111.401949
20
233.950835
70
0
0
VERTEX
8
Layer 1
10
111.156630
20
233.239467
70
0
0
VERTEX
8
Layer 1
10
111.117380
20
230.185126
70
0
0
VERTEX
8
Layer 1
10
111.170508
20
227.939749
70
0
0
VERTEX
8
Layer 1
10
111.067590
20
227.531099
70
0
0
VERTEX
8
Layer 1
10
110.845980
20
227.248152
70
0
0
VERTEX
8
Layer 1
10
110.424371
20
226.917443
70
0
0
VERTEX
8
Layer 1
10
109.868846
20
226.682609
70
0
0
VERTEX
8
Layer 1
10
108.338220
20
226.495216
70
0
0
VERTEX
8
Layer 1
10
107.280650
20
226.652108
70
0
0
VERTEX
8
Layer 1
10
106.483379
20
227.176529
70
0
0
VERTEX
8
Layer 1
10
105.874055
20
228.145272
70
0
0
VERTEX
8
Layer 1
10
105.380330
20
229.635130
70
0
0
VERTEX
8
Layer 1
10
105.001155
20
231.386158
70
0
0
VERTEX
8
Layer 1
10
104.764844
20
233.289351
70
0
0
VERTEX
8
Layer 1
10
104.625510
20
238.696211
70
0
0
VERTEX
8
Layer 1
10
104.719110
20
243.722108
70
0
0
VERTEX
8
Layer 1
10
104.719100
20
243.722108
70
0
0
SEQEND
8
Layer 1
0
POLYLINE
8
Layer 1
62
7
70
0
10
0.000000
20
0.000000
66
1
0
VERTEX
8
Layer 1
10
146.334460
20
204.791025
70
0
0
VERTEX
8
Layer 1
10
146.581502
20
207.335405
70
0
0
VERTEX
8
Layer 1
10
146.984559
20
209.195724
70
0
0
VERTEX
8
Layer 1
10
147.565813
20
210.441995
70
0
0
VERTEX
8
Layer 1
10
148.347450
20
211.144230
70
0
0
VERTEX
8
Layer 1
10
150.036440
20
211.632720
70
0
0
VERTEX
8
Layer 1
10
153.742080
20
211.880032
70
0
0
VERTEX
8
Layer 1
10
159.309070
20
211.908977
70
0
0
VERTEX
8
Layer 1
10
164.830843
20
211.743099
70
0
0
VERTEX
8
Layer 1
10
168.400830
20
211.405940
70
0
0
VERTEX
8
Layer 1
10
169.164371
20
211.198773
70
0
0
VERTEX
8
Layer 1
10
169.702035
20
210.916906
70
0
0
VERTEX
8
Layer 1
10
170.102066
20
210.494019
70
0
0
VERTEX
8
Layer 1
10
170.452710
20
209.863790
70
0
0
VERTEX
8
Layer 1
10
170.928580
20
208.582812
70
0
0
VERTEX
8
Layer 1
10
171.217711
20
206.982402
70
0
0
VERTEX
8
Layer 1
10
171.392650
20
201.412575
70
0
0
VERTEX
8
Layer 1
10
171.318934
20
196.991885
70
0
0
VERTEX
8
Layer 1
10
171.021620
20
194.234320
70
0
0
VERTEX
8
Layer 1
10
170.582424
20
191.883454
70
0
0
VERTEX
8
Layer 1
10
170.102660
20
190.356169
70
0
0
VERTEX
8
Layer 1
10
169.494489
20
189.456520
70
0
0
VERTEX
8
Layer 1
10
168.670070
20
188.988560
70
0
0
VERTEX
8
Layer 1
10
167.619216
20
188.848576
70
0
0
VERTEX
8
Layer 1
10
166.469715
20
189.002626
70
0
0
VERTEX
8
Layer 1
10
165.446281
20
189.394279
70
0
0
VERTEX
8
Layer 1
10
164.773630
20
189.967100
70
0
0
VERTEX
8
Layer 1
10
164.590191
20
190.609202
70
0
0
VERTEX
8
Layer 1
10
164.786230
20
192.266880
70
0
0
VERTEX
8
Layer 1
10
165.031721
20
194.458807
70
0
0
VERTEX
8
Layer 1
10
164.994679
20
195.986794
70
0
0
VERTEX
8
Layer 1
10
164.660912
20
196.946019
70
0
0
VERTEX
8
Layer 1
10
164.016230
20
197.431665
70
0
0
VERTEX
8
Layer 1
10
163.224092
20
197.597526
70
0
0
VERTEX
8
Layer 1
10
162.462420
20
197.353265
70
0
0
VERTEX
8
Layer 1
10
161.984366
20
196.992369
70
0
0
VERTEX
8
Layer 1
10
161.616150
20
196.466540
70
0
0
VERTEX
8
Layer 1
10
161.231520
20
194.691734
70
0
0
VERTEX
8
Layer 1
10
161.020920
20
192.242040
70
0
0
VERTEX
8
Layer 1
10
160.600320
20
191.439770
70
0
0
VERTEX
8
Layer 1
10
160.032021
20
191.093362
70
0
0
VERTEX
8
Layer 1
10
158.836280
20
191.025190
70
0
0
VERTEX
8
Layer 1
10
157.640604
20
191.094376
70
0
0
VERTEX
8
Layer 1
10
157.023320
20
191.423880
70
0
0
VERTEX
8
Layer 1
10
156.759528
20
191.692769
70
0
0
VERTEX
8
Layer 1
10
156.609398
20
192.066032
70
0
0
VERTEX
8
Layer 1
10
156.458470
20
193.999610
70
0
0
VERTEX
8
Layer 1
10
156.173254
20
196.444484
70
0
0
VERTEX
8
Layer 1
10
155.882311
20
197.045255
70
0
0
VERTEX
8
Layer 1
10
155.441180
20
197.403225
70
0
0
VERTEX
8
Layer 1
10
154.874582
20
197.565402
70
0
0
VERTEX
8
Layer 1
10
154.223854
20
197.546755
70
0
0
VERTEX
8
Layer 1
10
153.596224
20
197.364165
70
0
0
VERTEX
8
Layer 1
10
153.098920
20
197.034515
70
0
0
VERTEX
8
Layer 1
10
152.654330
20
196.588620
70
0
0
VERTEX
8
Layer 1
10
152.715730
20
194.186930
70
0
0
VERTEX
8
Layer 1
10
152.777064
20
190.145706
70
0
0
VERTEX
8
Layer 1
10
152.646063
20
189.668479
70
0
0
VERTEX
8
Layer 1
10
152.346630
20
189.440100
70
0
0
VERTEX
8
Layer 1
10
151.668914
20
189.142561
70
0
0
VERTEX
8
Layer 1
10
150.386060
20
189.024700
70
0
0
VERTEX
8
Layer 1
10
149.008845
20
189.045701
70
0
0
VERTEX
8
Layer 1
10
148.258750
20
189.531410
70
0
0
VERTEX
8
Layer 1
10
147.317960
20
190.771840
70
0
0
VERTEX
8
Layer 1
10
146.732094
20
193.011577
70
0
0
VERTEX
8
Layer 1
10
146.353675
20
196.368359
70
0
0
VERTEX
8
Layer 1
10
146.211506
20
200.431672
70
0
0
VERTEX
8
Layer 1
10
146.334390
20
204.791005
70
0
0
VERTEX
8
Layer 1
10
146.334460
20
204.791025
70
0
0
SEQEND
8
Layer 1
0
POLYLINE
8
Layer 1
62
7
70
0
10
0.000000
20
0.000000
66
1
0
VERTEX
8
Layer 1
10
146.426960
20
185.234040
70
0
0
VERTEX
8
Layer 1
10
146.886217
20
185.839257
70
0
0
VERTEX
8
Layer 1
10
147.684397
20
186.232056
70
0
0
VERTEX
8
Layer 1
10
149.035759
20
186.475892
70
0
0
VERTEX
8
Layer 1
10
151.154560
20
186.634220
70
0
0
VERTEX
8
Layer 1
10
157.434766
20
186.790063
70
0
0
VERTEX
8
Layer 1
10
163.365330
20
186.631220
70
0
0
VERTEX
8
Layer 1
10
166.314017
20
186.396606
70
0
0
VERTEX
8
Layer 1
10
168.334206
20
186.084312
70
0
0
VERTEX
8
Layer 1
10
169.640525
20
185.645903
70
0
0
VERTEX
8
Layer 1
10
170.447600
20
185.032940
70
0
0
VERTEX
8
Layer 1
10
170.945777
20
184.343080
70
0
0
VERTEX
8
Layer 1
10
171.232740
20
183.524225
70
0
0
VERTEX
8
Layer 1
10
171.358580
20
182.332380
70
0
0
VERTEX
8
Layer 1
10
171.373390
20
180.523550
70
0
0
VERTEX
8
Layer 1
10
171.271232
20
178.173350
70
0
0
VERTEX
8
Layer 1
10
171.088716
20
177.310865
70
0
0
VERTEX
8
Layer 1
10
170.748350
20
176.533794
70
0
0
VERTEX
8
Layer 1
10
169.383383
20
174.866905
70
0
0
VERTEX
8
Layer 1
10
166.754970
20
172.434710
70
0
0
VERTEX
8
Layer 1
10
163.769240
20
169.506390
70
0
0
VERTEX
8
Layer 1
10
164.588821
20
169.367239
70
0
0
VERTEX
8
Layer 1
10
166.963850
20
169.321680
70
0
0
VERTEX
8
Layer 1
10
169.673196
20
169.269780
70
0
0
VERTEX
8
Layer 1
10
170.186360
20
169.168286
70
0
0
VERTEX
8
Layer 1
10
170.476890
20
168.983880
70
0
0
VERTEX
8
Layer 1
10
170.872240
20
168.519739
70
0
0
VERTEX
8
Layer 1
10
171.131993
20
167.916966
70
0
0
VERTEX
8
Layer 1
10
171.317850
20
166.039430
70
0
0
VERTEX
8
Layer 1
10
171.245123
20
164.652323
70
0
0
VERTEX
8
Layer 1
10
170.804730
20
163.935370
70
0
0
VERTEX
8
Layer 1
10
170.209840
20
163.436913
70
0
0
VERTEX
8
Layer 1
10
169.411310
20
163.152490
70
0
0
VERTEX
8
Layer 1
10
166.252777
20
162.971206
70
0
0
VERTEX
8
Layer 1
10
160.304663
20
162.862451
70
0
0
VERTEX
8
Layer 1
10
154.072984
20
162.850966
70
0
0
VERTEX
8
Layer 1
10
150.063760
20
162.961490
70
0
0
VERTEX
8
Layer 1
10
148.573295
20
163.135882
70
0
0
VERTEX
8
Layer 1
10
147.612956
20
163.395913
70
0
0
VERTEX
8
Layer 1
10
146.998136
20
163.821997
70
0
0
VERTEX
8
Layer 1
10
146.544230
20
164.494550
70
0
0
VERTEX
8
Layer 1
10
146.214733
20
165.487947
70
0
0
VERTEX
8
Layer 1
10
146.151740
20
167.544140
70
0
0
VERTEX
8
Layer 1
10
146.347765
20
170.412855
70
0
0
VERTEX
8
Layer 1
10
146.643815
20
171.367430
70
0
0
VERTEX
8
Layer 1
10
147.117240
20
172.221880
70
0
0
VERTEX
8
Layer 1
10
150.520670
20
176.022140
70
0
0
VERTEX
8
Layer 1
10
153.359615
20
179.159746
70
0
0
VERTEX
8
Layer 1
10
153.705871
20
179.773645
70
0
0
VERTEX
8
Layer 1
10
153.573710
20
180.064850
70
0
0
VERTEX
8
Layer 1
10
150.451660
20
180.179430
70
0
0
VERTEX
8
Layer 1
10
148.514255
20
180.181128
70
0
0
VERTEX
8
Layer 1
10
147.377449
20
180.319766
70
0
0
VERTEX
8
Layer 1
10
146.762581
20
180.673709
70
0
0
VERTEX
8
Layer 1
10
146.390990
20
181.321320
70
0
0
VERTEX
8
Layer 1
10
146.207449
20
182.169912
70
0
0
VERTEX
8
Layer 1
10
146.154178
20
183.312856
70
0
0
VERTEX
8
Layer 1
10
146.228312
20
184.438252
70
0
0
VERTEX
8
Layer 1
10
146.426990
20
185.234200
70
0
0
VERTEX
8
Layer 1
10
146.426960
20
185.234040
70
0
0
SEQEND
8
Layer 1
0
POLYLINE
8
Layer 1
62
7
70
0
10
0.000000
20
0.000000
66
1
0
VERTEX
8
Layer 1
10
146.493560
20
262.723396
70
0
0
VERTEX
8
Layer 1
10
146.702452
20
264.535098
70
0
0
VERTEX
8
Layer 1
10
147.045516
20
265.791142
70
0
0
VERTEX
8
Layer 1
10
147.559777
20
266.579833
70
0
0
VERTEX
8
Layer 1
10
148.282260
20
266.989476
70
0
0
VERTEX
8
Layer 1
10
149.738161
20
267.301019
70
0
0
VERTEX
8
Layer 1
10
151.857555
20
267.492468
70
0
0
VERTEX
8
Layer 1
10
159.917040
20
267.613193
70
0
0
VERTEX
8
Layer 1
10
166.296869
20
267.545511
70
0
0
VERTEX
8
Layer 1
10
170.566260
20
267.325622
70
0
0
VERTEX
8
Layer 1
10
173.106953
20
266.918365
70
0
0
VERTEX
8
Layer 1
10
173.848333
20
266.633486
70
0
0
VERTEX
8
Layer 1
10
174.300690
20
266.288578
70
0
0
VERTEX
8
Layer 1
10
174.755321
20
265.453932
70
0
0
VERTEX
8
Layer 1
10
175.057620
20
264.108752
70
0
0
VERTEX
8
Layer 1
10
175.226711
20
262.117687
70
0
0
VERTEX
8
Layer 1
10
175.281720
20
259.345389
70
0
0
VERTEX
8
Layer 1
10
175.232624
20
255.902802
70
0
0
VERTEX
8
Layer 1
10
175.117145
20
255.244079
70
0
0
VERTEX
8
Layer 1
10
174.897950
20
254.782179
70
0
0
VERTEX
8
Layer 1
10
173.897500
20
253.684327
70
0
0
VERTEX
8
Layer 1
10
173.474579
20
253.443853
70
0
0
VERTEX
8
Layer 1
10
172.830823
20
253.309337
70
0
0
VERTEX
8
Layer 1
10
169.237590
20
253.180527
70
0
0
VERTEX
8
Layer 1
10
165.863221
20
253.062300
70
0
0
VERTEX
8
Layer 1
10
165.243172
20
252.966081
70
0
0
VERTEX
8
Layer 1
10
165.013750
20
252.817558
70
0
0
VERTEX
8
Layer 1
10
164.957477
20
252.378747
70
0
0
VERTEX
8
Layer 1
10
165.436118
20
251.850854
70
0
0
VERTEX
8
Layer 1
10
168.609050
20
250.059099
70
0
0
VERTEX
8
Layer 1
10
172.481671
20
247.886876
70
0
0
VERTEX
8
Layer 1
10
173.576005
20
247.040858
70
0
0
VERTEX
8
Layer 1
10
174.288560
20
246.233988
70
0
0
VERTEX
8
Layer 1
10
174.568658
20
245.789018
70
0
0
VERTEX
8
Layer 1
10
174.715098
20
245.325543
70
0
0
VERTEX
8
Layer 1
10
174.780270
20
243.314298
70
0
0
VERTEX
8
Layer 1
10
174.737949
20
241.718438
70
0
0
VERTEX
8
Layer 1
10
174.581954
20
240.691543
70
0
0
VERTEX
8
Layer 1
10
174.268734
20
240.081700
70
0
0
VERTEX
8
Layer 1
10
173.754740
20
239.736997
70
0
0
VERTEX
8
Layer 1
10
173.129590
20
239.596819
70
0
0
VERTEX
8
Layer 1
10
172.221510
20
239.766107
70
0
0
VERTEX
8
Layer 1
10
169.479054
20
240.961895
70
0
0
VERTEX
8
Layer 1
10
165.580600
20
243.254327
70
0
0
VERTEX
8
Layer 1
10
162.765794
20
244.969581
70
0
0
VERTEX
8
Layer 1
10
162.271940
20
244.950894
70
0
0
VERTEX
8
Layer 1
10
161.742730
20
244.568680
70
0
0
VERTEX
8
Layer 1
10
157.832482
20
241.977440
70
0
0
VERTEX
8
Layer 1
10
154.326629
20
240.090992
70
0
0
VERTEX
8
Layer 1
10
151.364899
20
238.974215
70
0
0
VERTEX
8
Layer 1
10
150.131745
20
238.724730
70
0
0
VERTEX
8
Layer 1
10
149.087020
20
238.691994
70
0
0
VERTEX
8
Layer 1
10
147.903324
20
238.963640
70
0
0
VERTEX
8
Layer 1
10
147.479834
20
239.250057
70
0
0
VERTEX
8
Layer 1
10
147.149800
20
239.669042
70
0
0
VERTEX
8
Layer 1
10
146.713751
20
241.001241
70
0
0
VERTEX
8
Layer 1
10
146.482480
20
243.153275
70
0
0
VERTEX
8
Layer 1
10
146.429469
20
246.235959
70
0
0
VERTEX
8
Layer 1
10
146.586093
20
247.331991
70
0
0
VERTEX
8
Layer 1
10
146.902958
20
248.204223
70
0
0
VERTEX
8
Layer 1
10
147.408676
20
248.907460
70
0
0
VERTEX
8
Layer 1
10
148.131865
20
249.496508
70
0
0
VERTEX
8
Layer 1
10
150.345110
20
250.551256
70
0
0
VERTEX
8
Layer 1
10
153.151329
20
251.868124
70
0
0
VERTEX
8
Layer 1
10
154.098685
20
252.477189
70
0
0
VERTEX
8
Layer 1
10
154.539830
20
252.938183
70
0
0
VERTEX
8
Layer 1
10
154.544830
20
253.259446
70
0
0
VERTEX
8
Layer 1
10
154.186357
20
253.471685
70
0
0
VERTEX
8
Layer 1
10
151.919980
20
253.703119
70
0
0
VERTEX
8
Layer 1
10
149.815239
20
253.908978
70
0
0
VERTEX
8
Layer 1
10
148.419211
20
254.359059
70
0
0
VERTEX
8
Layer 1
10
147.525138
20
255.166936
70
0
0
VERTEX
8
Layer 1
10
146.926260
20
256.446184
70
0
0
VERTEX
8
Layer 1
10
146.522944
20
258.574641
70
0
0
VERTEX
8
Layer 1
10
146.348580
20
260.696588
70
0
0
VERTEX
8
Layer 1
10
146.493560
20
262.723392
70
0
0
VERTEX
8
Layer 1
10
146.493560
20
262.723396
70
0
0
SEQEND
8
Layer 1
0
POLYLINE
8
Layer 1
62
7
70
0
10
0.000000
20
0.000000
66
1
0
VERTEX
8
Layer 1
10
146.489560
20
230.947244
70
0
0
VERTEX
8
Layer 1
10
146.902040
20
233.651284
70
0
0
VERTEX
8
Layer 1
10
147.190119
20
234.718535
70
0
0
VERTEX
8
Layer 1
10
147.600215
20
235.533990
70
0
0
VERTEX
8
Layer 1
10
148.254520
20
236.129422
70
0
0
VERTEX
8
Layer 1
10
149.275231
20
236.536607
70
0
0
VERTEX
8
Layer 1
10
150.784541
20
236.787321
70
0
0
VERTEX
8
Layer 1
10
152.904645
20
236.913338
70
0
0
VERTEX
8
Layer 1
10
159.466010
20
236.918384
70
0
0
VERTEX
8
Layer 1
10
164.829189
20
236.818854
70
0
0
VERTEX
8
Layer 1
10
167.924734
20
236.609054
70
0
0
VERTEX
8
Layer 1
10
169.488890
20
236.189553
70
0
0
VERTEX
8
Layer 1
10
169.926773
20
235.870092
70
0
0
VERTEX
8
Layer 1
10
170.257900
20
235.460920
70
0
0
VERTEX
8
Layer 1
10
170.860833
20
234.202870
70
0
0
VERTEX
8
Layer 1
10
171.261889
20
232.437333
70
0
0
VERTEX
8
Layer 1
10
171.484705
20
230.005266
70
0
0
VERTEX
8
Layer 1
10
171.552920
20
226.747624
70
0
0
VERTEX
8
Layer 1
10
171.380816
20
221.605133
70
0
0
VERTEX
8
Layer 1
10
170.808250
20
217.526396
70
0
0
VERTEX
8
Layer 1
10
170.188963
20
215.451693
70
0
0
VERTEX
8
Layer 1
10
169.786680
20
214.818365
70
0
0
VERTEX
8
Layer 1
10
169.276770
20
214.359530
70
0
0
VERTEX
8
Layer 1
10
168.584058
20
214.042224
70
0
0
VERTEX
8
Layer 1
10
167.433560
20
214.035440
70
0
0
VERTEX
8
Layer 1
10
166.367121
20
214.168948
70
0
0
VERTEX
8
Layer 1
10
165.610560
20
214.397510
70
0
0
VERTEX
8
Layer 1
10
165.074234
20
214.770797
70
0
0
VERTEX
8
Layer 1
10
164.815916
20
215.328067
70
0
0
VERTEX
8
Layer 1
10
164.792456
20
216.304134
70
0
0
VERTEX
8
Layer 1
10
164.960700
20
217.933808
70
0
0
VERTEX
8
Layer 1
10
165.128434
20
220.844596
70
0
0
VERTEX
8
Layer 1
10
164.980771
20
221.700990
70
0
0
VERTEX
8
Layer 1
10
164.673780
20
222.232626
70
0
0
VERTEX
8
Layer 1
10
163.513560
20
222.570284
70
0
0
VERTEX
8
Layer 1
10
162.688412
20
222.556613
70
0
0
VERTEX
8
Layer 1
10
162.155960
20
222.184015
70
0
0
VERTEX
8
Layer 1
10
161.783096
20
221.700838
70
0
0
VERTEX
8
Layer 1
10
161.529122
20
221.057386
70
0
0
VERTEX
8
Layer 1
10
161.248710
20
218.809308
70
0
0
VERTEX
8
Layer 1
10
160.912550
20
216.748659
70
0
0
VERTEX
8
Layer 1
10
160.581309
20
216.427103
70
0
0
VERTEX
8
Layer 1
10
160.087154
20
216.203247
70
0
0
VERTEX
8
Layer 1
10
158.831916
20
216.043615
70
0
0
VERTEX
8
Layer 1
10
157.590466
20
216.259728
70
0
0
VERTEX
8
Layer 1
10
157.113544
20
216.505552
70
0
0
VERTEX
8
Layer 1
10
156.806430
20
216.841549
70
0
0
VERTEX
8
Layer 1
10
156.623940
20
218.705438
70
0
0
VERTEX
8
Layer 1
10
156.475078
20
220.761084
70
0
0
VERTEX
8
Layer 1
10
156.007704
20
222.062134
70
0
0
VERTEX
8
Layer 1
10
155.644829
20
222.444052
70
0
0
VERTEX
8
Layer 1
10
155.190632
20
222.654560
70
0
0
VERTEX
8
Layer 1
10
154.641215
20
222.699406
70
0
0
VERTEX
8
Layer 1
10
153.992680
20
222.584336
70
0
0
VERTEX
8
Layer 1
10
153.375086
20
222.313305
70
0
0
VERTEX
8
Layer 1
10
152.991076
20
221.849825
70
0
0
VERTEX
8
Layer 1
10
152.794509
20
221.097257
70
0
0
VERTEX
8
Layer 1
10
152.739240
20
219.958963
70
0
0
VERTEX
8
Layer 1
10
152.936440
20
216.762561
70
0
0
VERTEX
8
Layer 1
10
153.133650
20
215.157800
70
0
0
VERTEX
8
Layer 1
10
152.711140
20
214.735280
70
0
0
VERTEX
8
Layer 1
10
152.133097
20
214.368515
70
0
0
VERTEX
8
Layer 1
10
151.204940
20
214.127300
70
0
0
VERTEX
8
Layer 1
10
150.269401
20
214.025816
70
0
0
VERTEX
8
Layer 1
10
149.496582
20
214.078870
70
0
0
VERTEX
8
Layer 1
10
148.846985
20
214.293901
70
0
0
VERTEX
8
Layer 1
10
148.281110
20
214.678350
70
0
0
VERTEX
8
Layer 1
10
147.820022
20
215.184571
70
0
0
VERTEX
8
Layer 1
10
147.435862
20
215.844541
70
0
0
VERTEX
8
Layer 1
10
146.873965
20
217.758344
70
0
0
VERTEX
8
Layer 1
10
146.546697
20
220.684992
70
0
0
VERTEX
8
Layer 1
10
146.405340
20
224.889718
70
0
0
VERTEX
8
Layer 1
10
146.489540
20
230.947241
70
0
0
VERTEX
8
Layer 1
10
146.489560
20
230.947244
70
0
0
SEQEND
8
Layer 1
 0 
ENDSEC
 0 
EOF
