999
"DXF R12 Output" (www.mydxf.blogspot.com)
 0 
SECTION
 2 
HEADER
 9 
$ACADVER
 1 
AC1009
 9 
$EXTMIN
 10 
 0 
 20 
 0 
 9 
$EXTMAX
 10 
 8.5 
 20 
 11 
 0 
ENDSEC
 0 
SECTION
 2 
ENTITIES
0
POLYLINE
8
Ebene 1
62
10
70
0
10
0.000000
20
0.000000
66
1
0
VERTEX
8
Ebene 1
10
98.269978
20
132.209950
70
0
0
VERTEX
8
Ebene 1
10
92.979853
20
132.603996
70
0
0
VERTEX
8
Ebene 1
10
87.314139
20
133.498877
70
0
0
VERTEX
8
Ebene 1
10
81.596947
20
134.831177
70
0
0
VERTEX
8
Ebene 1
10
76.152387
20
136.537480
70
0
0
VERTEX
8
Ebene 1
10
72.720355
20
137.898330
70
0
0
VERTEX
8
Ebene 1
10
70.495887
20
138.824050
70
0
0
VERTEX
8
Ebene 1
10
70.225390
20
138.984670
70
0
0
VERTEX
8
Ebene 1
10
67.200438
20
140.461990
70
0
0
VERTEX
8
Ebene 1
10
64.267383
20
142.216810
70
0
0
VERTEX
8
Ebene 1
10
63.981376
20
142.370920
70
0
0
VERTEX
8
Ebene 1
10
62.686256
20
143.047760
70
0
0
VERTEX
8
Ebene 1
10
60.256717
20
144.587051
70
0
0
VERTEX
8
Ebene 1
10
57.793120
20
146.265455
70
0
0
VERTEX
8
Ebene 1
10
56.395828
20
147.359630
70
0
0
VERTEX
8
Ebene 1
10
55.943801
20
147.707430
70
0
0
VERTEX
8
Ebene 1
10
53.582803
20
149.547330
70
0
0
VERTEX
8
Ebene 1
10
51.155419
20
151.704772
70
0
0
VERTEX
8
Ebene 1
10
48.483690
20
154.303117
70
0
0
VERTEX
8
Ebene 1
10
45.971816
20
156.934564
70
0
0
VERTEX
8
Ebene 1
10
44.023997
20
159.191310
70
0
0
VERTEX
8
Ebene 1
10
40.339076
20
164.029044
70
0
0
VERTEX
8
Ebene 1
10
38.564094
20
166.774390
70
0
0
VERTEX
8
Ebene 1
10
38.034238
20
167.632390
70
0
0
VERTEX
8
Ebene 1
10
37.347729
20
168.776420
70
0
0
VERTEX
8
Ebene 1
10
36.929711
20
169.450610
70
0
0
VERTEX
8
Ebene 1
10
36.121326
20
170.842888
70
0
0
VERTEX
8
Ebene 1
10
34.712044
20
173.667814
70
0
0
VERTEX
8
Ebene 1
10
33.371459
20
176.538502
70
0
0
VERTEX
8
Ebene 1
10
32.769166
20
178.068070
70
0
0
VERTEX
8
Ebene 1
10
32.483161
20
178.680010
70
0
0
VERTEX
8
Ebene 1
10
32.202047
20
179.347350
70
0
0
VERTEX
8
Ebene 1
10
31.916042
20
180.190720
70
0
0
VERTEX
8
Ebene 1
10
31.624742
20
180.953390
70
0
0
VERTEX
8
Ebene 1
10
31.249873
20
181.932610
70
0
0
VERTEX
8
Ebene 1
10
30.875003
20
183.086170
70
0
0
VERTEX
8
Ebene 1
10
30.678976
20
183.666600
70
0
0
VERTEX
8
Ebene 1
10
30.450501
20
184.419750
70
0
0
VERTEX
8
Ebene 1
10
30.183155
20
185.364670
70
0
0
VERTEX
8
Ebene 1
10
29.599378
20
187.315797
70
0
0
VERTEX
8
Ebene 1
10
29.411801
20
189.288840
70
0
0
VERTEX
8
Ebene 1
10
29.916336
20
190.549902
70
0
0
VERTEX
8
Ebene 1
10
30.278750
20
191.046588
70
0
0
VERTEX
8
Ebene 1
10
30.631289
20
191.315590
70
0
0
VERTEX
8
Ebene 1
10
31.087404
20
191.622610
70
0
0
VERTEX
8
Ebene 1
10
31.906325
20
192.046010
70
0
0
VERTEX
8
Ebene 1
10
32.652819
20
192.188592
70
0
0
VERTEX
8
Ebene 1
10
33.557238
20
192.033110
70
0
0
VERTEX
8
Ebene 1
10
34.819804
20
191.528290
70
0
0
VERTEX
8
Ebene 1
10
35.761331
20
190.373041
70
0
0
VERTEX
8
Ebene 1
10
36.213752
20
189.197220
70
0
0
VERTEX
8
Ebene 1
10
36.588622
20
187.843480
70
0
0
VERTEX
8
Ebene 1
10
36.963491
20
186.588230
70
0
0
VERTEX
8
Ebene 1
10
37.096487
20
185.969140
70
0
0
VERTEX
8
Ebene 1
10
37.582944
20
184.811994
70
0
0
VERTEX
8
Ebene 1
10
37.923311
20
183.513060
70
0
0
VERTEX
8
Ebene 1
10
38.083801
20
183.172060
70
0
0
VERTEX
8
Ebene 1
10
38.481729
20
182.361720
70
0
0
VERTEX
8
Ebene 1
10
39.299800
20
180.192583
70
0
0
VERTEX
8
Ebene 1
10
40.565901
20
177.336529
70
0
0
VERTEX
8
Ebene 1
10
41.801878
20
174.820230
70
0
0
VERTEX
8
Ebene 1
10
42.529575
20
173.670360
70
0
0
VERTEX
8
Ebene 1
10
42.690050
20
173.409300
70
0
0
VERTEX
8
Ebene 1
10
43.402863
20
172.042840
70
0
0
VERTEX
8
Ebene 1
10
44.070207
20
170.730880
70
0
0
VERTEX
8
Ebene 1
10
44.201607
20
170.587880
70
0
0
VERTEX
8
Ebene 1
10
45.098841
20
169.396190
70
0
0
VERTEX
8
Ebene 1
10
46.065994
20
167.952540
70
0
0
VERTEX
8
Ebene 1
10
46.312776
20
167.537160
70
0
0
VERTEX
8
Ebene 1
10
46.557059
20
167.121780
70
0
0
VERTEX
8
Ebene 1
10
47.746456
20
165.630470
70
0
0
VERTEX
8
Ebene 1
10
49.013710
20
164.009770
70
0
0
VERTEX
8
Ebene 1
10
50.525301
20
162.198420
70
0
0
VERTEX
8
Ebene 1
10
52.483349
20
160.052037
70
0
0
VERTEX
8
Ebene 1
10
55.003540
20
157.544751
70
0
0
VERTEX
8
Ebene 1
10
57.465319
20
155.271962
70
0
0
VERTEX
8
Ebene 1
10
59.248133
20
153.829070
70
0
0
VERTEX
8
Ebene 1
10
60.040917
20
153.240490
70
0
0
VERTEX
8
Ebene 1
10
61.106780
20
152.353141
70
0
0
VERTEX
8
Ebene 1
10
63.125833
20
150.940330
70
0
0
VERTEX
8
Ebene 1
10
67.572315
20
148.184020
70
0
0
VERTEX
8
Ebene 1
10
69.192996
20
147.238170
70
0
0
VERTEX
8
Ebene 1
10
71.781779
20
145.907124
70
0
0
VERTEX
8
Ebene 1
10
75.215050
20
144.365680
70
0
0
VERTEX
8
Ebene 1
10
76.714864
20
143.679620
70
0
0
VERTEX
8
Ebene 1
10
77.318658
20
143.512790
70
0
0
VERTEX
8
Ebene 1
10
77.804868
20
143.369790
70
0
0
VERTEX
8
Ebene 1
10
79.870436
20
142.588740
70
0
0
VERTEX
8
Ebene 1
10
82.349121
20
141.785280
70
0
0
VERTEX
8
Ebene 1
10
84.947415
20
141.072265
70
0
0
VERTEX
8
Ebene 1
10
88.530056
20
140.326344
70
0
0
VERTEX
8
Ebene 1
10
92.454277
20
139.667773
70
0
0
VERTEX
8
Ebene 1
10
96.077308
20
139.216810
70
0
0
VERTEX
8
Ebene 1
10
101.337166
20
139.122330
70
0
0
VERTEX
8
Ebene 1
10
106.754780
20
139.319420
70
0
0
VERTEX
8
Ebene 1
10
109.900840
20
139.619560
70
0
0
VERTEX
8
Ebene 1
10
111.902870
20
139.890710
70
0
0
VERTEX
8
Ebene 1
10
113.618890
20
140.192150
70
0
0
VERTEX
8
Ebene 1
10
115.525590
20
140.600080
70
0
0
VERTEX
8
Ebene 1
10
117.050950
20
140.889260
70
0
0
VERTEX
8
Ebene 1
10
119.529650
20
141.600160
70
0
0
VERTEX
8
Ebene 1
10
121.722350
20
142.271900
70
0
0
VERTEX
8
Ebene 1
10
123.819710
20
142.941820
70
0
0
VERTEX
8
Ebene 1
10
125.440410
20
143.503670
70
0
0
VERTEX
8
Ebene 1
10
127.728440
20
144.374980
70
0
0
VERTEX
8
Ebene 1
10
130.969830
20
145.955360
70
0
0
VERTEX
8
Ebene 1
10
135.048920
20
148.065860
70
0
0
VERTEX
8
Ebene 1
10
136.907950
20
149.042270
70
0
0
VERTEX
8
Ebene 1
10
137.071250
20
149.185700
70
0
0
VERTEX
8
Ebene 1
10
138.644270
20
150.277410
70
0
0
VERTEX
8
Ebene 1
10
140.369770
20
151.468670
70
0
0
VERTEX
8
Ebene 1
10
140.714480
20
151.711650
70
0
0
VERTEX
8
Ebene 1
10
142.128118
20
152.632157
70
0
0
VERTEX
8
Ebene 1
10
144.838506
20
154.856727
70
0
0
VERTEX
8
Ebene 1
10
147.905214
20
157.579931
70
0
0
VERTEX
8
Ebene 1
10
150.387810
20
159.996340
70
0
0
VERTEX
8
Ebene 1
10
152.086470
20
161.758940
70
0
0
VERTEX
8
Ebene 1
10
152.896830
20
162.753510
70
0
0
VERTEX
8
Ebene 1
10
153.039830
20
162.992930
70
0
0
VERTEX
8
Ebene 1
10
154.508300
20
164.677170
70
0
0
VERTEX
8
Ebene 1
10
155.985990
20
166.361420
70
0
0
VERTEX
8
Ebene 1
10
156.138210
20
166.688460
70
0
0
VERTEX
8
Ebene 1
10
156.710210
20
167.603420
70
0
0
VERTEX
8
Ebene 1
10
157.282220
20
168.347480
70
0
0
VERTEX
8
Ebene 1
10
159.189770
20
171.198160
70
0
0
VERTEX
8
Ebene 1
10
161.408999
20
175.163440
70
0
0
VERTEX
8
Ebene 1
10
163.760880
20
179.930740
70
0
0
VERTEX
8
Ebene 1
10
164.584680
20
181.837440
70
0
0
VERTEX
8
Ebene 1
10
165.390660
20
183.890030
70
0
0
VERTEX
8
Ebene 1
10
165.888360
20
184.999550
70
0
0
VERTEX
8
Ebene 1
10
165.949560
20
185.282660
70
0
0
VERTEX
8
Ebene 1
10
166.035860
20
185.460160
70
0
0
VERTEX
8
Ebene 1
10
166.143705
20
185.539797
70
0
0
VERTEX
8
Ebene 1
10
166.127860
20
185.731260
70
0
0
VERTEX
8
Ebene 1
10
166.240710
20
186.407480
70
0
0
VERTEX
8
Ebene 1
10
167.401319
20
190.373812
70
0
0
VERTEX
8
Ebene 1
10
168.552140
20
195.374980
70
0
0
VERTEX
8
Ebene 1
10
169.205220
20
199.855714
70
0
0
VERTEX
8
Ebene 1
10
169.662750
20
206.190324
70
0
0
VERTEX
8
Ebene 1
10
169.579050
20
210.701894
70
0
0
VERTEX
8
Ebene 1
10
169.140074
20
215.760893
70
0
0
VERTEX
8
Ebene 1
10
168.640520
20
219.406460
70
0
0
VERTEX
8
Ebene 1
10
168.263710
20
221.210708
70
0
0
VERTEX
8
Ebene 1
10
167.402050
20
224.906716
70
0
0
VERTEX
8
Ebene 1
10
166.815940
20
227.512533
70
0
0
VERTEX
8
Ebene 1
10
166.664880
20
228.011257
70
0
0
VERTEX
8
Ebene 1
10
165.974480
20
229.790840
70
0
0
VERTEX
8
Ebene 1
10
165.067580
20
232.216667
70
0
0
VERTEX
8
Ebene 1
10
164.756980
20
232.985522
70
0
0
VERTEX
8
Ebene 1
10
163.634240
20
235.653373
70
0
0
VERTEX
8
Ebene 1
10
163.288210
20
236.749723
70
0
0
VERTEX
8
Ebene 1
10
163.230610
20
236.940950
70
0
0
VERTEX
8
Ebene 1
10
162.476598
20
238.123312
70
0
0
VERTEX
8
Ebene 1
10
161.858500
20
239.565655
70
0
0
VERTEX
8
Ebene 1
10
161.609700
20
239.855667
70
0
0
VERTEX
8
Ebene 1
10
161.101600
20
240.736810
70
0
0
VERTEX
8
Ebene 1
10
160.587730
20
241.733765
70
0
0
VERTEX
8
Ebene 1
10
160.333140
20
242.207709
70
0
0
VERTEX
8
Ebene 1
10
160.155320
20
242.470368
70
0
0
VERTEX
8
Ebene 1
10
159.843620
20
242.899374
70
0
0
VERTEX
8
Ebene 1
10
159.568900
20
243.423716
70
0
0
VERTEX
8
Ebene 1
10
158.335730
20
245.215948
70
0
0
VERTEX
8
Ebene 1
10
156.092324
20
248.496908
70
0
0
VERTEX
8
Ebene 1
10
154.332060
20
250.772849
70
0
0
VERTEX
8
Ebene 1
10
152.922380
20
252.371798
70
0
0
VERTEX
8
Ebene 1
10
151.657670
20
253.811843
70
0
0
VERTEX
8
Ebene 1
10
148.760770
20
256.770586
70
0
0
VERTEX
8
Ebene 1
10
147.814390
20
257.628599
70
0
0
VERTEX
8
Ebene 1
10
146.868040
20
258.486613
70
0
0
VERTEX
8
Ebene 1
10
146.066560
20
259.149551
70
0
0
VERTEX
8
Ebene 1
10
143.672470
20
261.155987
70
0
0
VERTEX
8
Ebene 1
10
143.028220
20
261.619866
70
0
0
VERTEX
8
Ebene 1
10
139.636410
20
264.030454
70
0
0
VERTEX
8
Ebene 1
10
136.244172
20
266.121090
70
0
0
VERTEX
8
Ebene 1
10
132.781390
20
268.020098
70
0
0
VERTEX
8
Ebene 1
10
131.306620
20
268.874256
70
0
0
VERTEX
8
Ebene 1
10
131.163630
20
268.919646
70
0
0
VERTEX
8
Ebene 1
10
130.350350
20
269.219757
70
0
0
VERTEX
8
Ebene 1
10
128.538990
20
270.026227
70
0
0
VERTEX
8
Ebene 1
10
127.537970
20
270.547715
70
0
0
VERTEX
8
Ebene 1
10
127.356740
20
270.599965
70
0
0
VERTEX
8
Ebene 1
10
126.453880
20
270.874716
70
0
0
VERTEX
8
Ebene 1
10
125.472260
20
271.261480
70
0
0
VERTEX
8
Ebene 1
10
124.611410
20
271.530586
70
0
0
VERTEX
8
Ebene 1
10
120.483200
20
272.857063
70
0
0
VERTEX
8
Ebene 1
10
117.174350
20
273.641538
70
0
0
VERTEX
8
Ebene 1
10
114.784730
20
274.203498
70
0
0
VERTEX
8
Ebene 1
10
113.757840
20
274.389053
70
0
0
VERTEX
8
Ebene 1
10
112.429410
20
274.588529
70
0
0
VERTEX
8
Ebene 1
10
108.566360
20
274.997040
70
0
0
VERTEX
8
Ebene 1
10
104.628368
20
275.250671
70
0
0
VERTEX
8
Ebene 1
10
100.734212
20
275.293305
70
0
0
VERTEX
8
Ebene 1
10
96.990404
20
275.126669
70
0
0
VERTEX
8
Ebene 1
10
93.503458
20
274.752495
70
0
0
VERTEX
8
Ebene 1
10
90.815358
20
274.410829
70
0
0
VERTEX
8
Ebene 1
10
90.052668
20
274.267987
70
0
0
VERTEX
8
Ebene 1
10
89.022738
20
274.031138
70
0
0
VERTEX
8
Ebene 1
10
87.399081
20
273.645246
70
0
0
VERTEX
8
Ebene 1
10
85.735173
20
273.294948
70
0
0
VERTEX
8
Ebene 1
10
84.627369
20
273.066670
70
0
0
VERTEX
8
Ebene 1
10
83.421315
20
273.061670
70
0
0
VERTEX
8
Ebene 1
10
82.498185
20
273.326913
70
0
0
VERTEX
8
Ebene 1
10
81.680005
20
273.847838
70
0
0
VERTEX
8
Ebene 1
10
81.031173
20
274.569885
70
0
0
VERTEX
8
Ebene 1
10
80.616090
20
275.438489
70
0
0
VERTEX
8
Ebene 1
10
80.470736
20
276.289945
70
0
0
VERTEX
8
Ebene 1
10
80.711590
20
277.242152
70
0
0
VERTEX
8
Ebene 1
10
81.328241
20
278.468633
70
0
0
VERTEX
8
Ebene 1
10
81.774413
20
278.932124
70
0
0
VERTEX
8
Ebene 1
10
82.367049
20
279.325095
70
0
0
VERTEX
8
Ebene 1
10
84.155398
20
279.987413
70
0
0
VERTEX
8
Ebene 1
10
87.020674
20
280.631461
70
0
0
VERTEX
8
Ebene 1
10
88.260028
20
280.867648
70
0
0
VERTEX
8
Ebene 1
10
89.022708
20
281.042970
70
0
0
VERTEX
8
Ebene 1
10
90.262058
20
281.255105
70
0
0
VERTEX
8
Ebene 1
10
93.217438
20
281.652303
70
0
0
VERTEX
8
Ebene 1
10
98.193123
20
282.102409
70
0
0
VERTEX
8
Ebene 1
10
103.757268
20
282.167757
70
0
0
VERTEX
8
Ebene 1
10
109.461744
20
281.858062
70
0
0
VERTEX
8
Ebene 1
10
114.858420
20
281.183043
70
0
0
VERTEX
8
Ebene 1
10
118.671800
20
280.420189
70
0
0
VERTEX
8
Ebene 1
10
120.197160
20
280.040600
70
0
0
VERTEX
8
Ebene 1
10
121.817860
20
279.661810
70
0
0
VERTEX
8
Ebene 1
10
123.152550
20
279.268452
70
0
0
VERTEX
8
Ebene 1
10
127.251940
20
277.942835
70
0
0
VERTEX
8
Ebene 1
10
128.231470
20
277.585735
70
0
0
VERTEX
8
Ebene 1
10
129.947490
20
276.940720
70
0
0
VERTEX
8
Ebene 1
10
130.970000
20
276.496460
70
0
0
VERTEX
8
Ebene 1
10
134.737878
20
274.762222
70
0
0
VERTEX
8
Ebene 1
10
139.099410
20
272.478936
70
0
0
VERTEX
8
Ebene 1
10
140.968860
20
271.369654
70
0
0
VERTEX
8
Ebene 1
10
142.818914
20
270.202187
70
0
0
VERTEX
8
Ebene 1
10
143.935520
20
269.324023
70
0
0
VERTEX
8
Ebene 1
10
144.207920
20
269.164106
70
0
0
VERTEX
8
Ebene 1
10
144.732260
20
268.925769
70
0
0
VERTEX
8
Ebene 1
10
146.512420
20
267.638749
70
0
0
VERTEX
8
Ebene 1
10
147.520610
20
266.923738
70
0
0
VERTEX
8
Ebene 1
10
148.767260
20
265.922723
70
0
0
VERTEX
8
Ebene 1
10
151.235890
20
263.792102
70
0
0
VERTEX
8
Ebene 1
10
154.200026
20
260.987626
70
0
0
VERTEX
8
Ebene 1
10
157.029405
20
258.125729
70
0
0
VERTEX
8
Ebene 1
10
159.093760
20
255.822845
70
0
0
VERTEX
8
Ebene 1
10
160.762110
20
253.831654
70
0
0
VERTEX
8
Ebene 1
10
161.286460
20
253.097320
70
0
0
VERTEX
8
Ebene 1
10
161.480870
20
252.710806
70
0
0
VERTEX
8
Ebene 1
10
162.620920
20
251.219715
70
0
0
VERTEX
8
Ebene 1
10
163.210390
20
250.361701
70
0
0
VERTEX
8
Ebene 1
10
164.050970
20
249.048464
70
0
0
VERTEX
8
Ebene 1
10
164.820340
20
247.904446
70
0
0
VERTEX
8
Ebene 1
10
165.603300
20
246.760428
70
0
0
VERTEX
8
Ebene 1
10
166.436360
20
245.330408
70
0
0
VERTEX
8
Ebene 1
10
166.913030
20
244.472394
70
0
0
VERTEX
8
Ebene 1
10
167.401160
20
243.614381
70
0
0
VERTEX
8
Ebene 1
10
170.424710
20
237.441049
70
0
0
VERTEX
8
Ebene 1
10
170.819940
20
236.249365
70
0
0
VERTEX
8
Ebene 1
10
171.010610
20
235.987597
70
0
0
VERTEX
8
Ebene 1
10
171.201280
20
235.510923
70
0
0
VERTEX
8
Ebene 1
10
171.368760
20
235.034251
70
0
0
VERTEX
8
Ebene 1
10
171.731010
20
234.319239
70
0
0
VERTEX
8
Ebene 1
10
172.612230
20
231.698221
70
0
0
VERTEX
8
Ebene 1
10
173.298640
20
229.455267
70
0
0
VERTEX
8
Ebene 1
10
173.485640
20
228.787233
70
0
0
VERTEX
8
Ebene 1
10
174.173533
20
226.549448
70
0
0
VERTEX
8
Ebene 1
10
174.554960
20
224.596165
70
0
0
VERTEX
8
Ebene 1
10
174.628760
20
224.266937
70
0
0
VERTEX
8
Ebene 1
10
174.907380
20
223.391380
70
0
0
VERTEX
8
Ebene 1
10
175.192830
20
221.973383
70
0
0
VERTEX
8
Ebene 1
10
176.056470
20
216.443965
70
0
0
VERTEX
8
Ebene 1
10
176.334040
20
212.850057
70
0
0
VERTEX
8
Ebene 1
10
176.448819
20
208.054156
70
0
0
VERTEX
8
Ebene 1
10
176.392768
20
203.353763
70
0
0
VERTEX
8
Ebene 1
10
176.157850
20
200.046374
70
0
0
VERTEX
8
Ebene 1
10
175.861220
20
197.377004
70
0
0
VERTEX
8
Ebene 1
10
175.643510
20
195.697740
70
0
0
VERTEX
8
Ebene 1
10
175.485160
20
195.125730
70
0
0
VERTEX
8
Ebene 1
10
174.723028
20
191.148285
70
0
0
VERTEX
8
Ebene 1
10
173.690670
20
187.080840
70
0
0
VERTEX
8
Ebene 1
10
173.027880
20
184.792800
70
0
0
VERTEX
8
Ebene 1
10
172.959080
20
184.506800
70
0
0
VERTEX
8
Ebene 1
10
172.150150
20
182.314100
70
0
0
VERTEX
8
Ebene 1
10
171.772630
20
181.220410
70
0
0
VERTEX
8
Ebene 1
10
171.378020
20
180.398810
70
0
0
VERTEX
8
Ebene 1
10
171.201260
20
179.959790
70
0
0
VERTEX
8
Ebene 1
10
170.819910
20
178.882050
70
0
0
VERTEX
8
Ebene 1
10
170.438580
20
177.975350
70
0
0
VERTEX
8
Ebene 1
10
168.216040
20
173.352620
70
0
0
VERTEX
8
Ebene 1
10
167.731250
20
172.399280
70
0
0
VERTEX
8
Ebene 1
10
166.226320
20
169.771770
70
0
0
VERTEX
8
Ebene 1
10
164.734700
20
167.197710
70
0
0
VERTEX
8
Ebene 1
10
163.768330
20
165.725840
70
0
0
VERTEX
8
Ebene 1
10
162.947750
20
164.438820
70
0
0
VERTEX
8
Ebene 1
10
162.627100
20
164.105140
70
0
0
VERTEX
8
Ebene 1
10
162.430450
20
163.919850
70
0
0
VERTEX
8
Ebene 1
10
159.677320
20
160.173660
70
0
0
VERTEX
8
Ebene 1
10
158.617050
20
158.940280
70
0
0
VERTEX
8
Ebene 1
10
155.029183
20
154.928860
70
0
0
VERTEX
8
Ebene 1
10
151.635790
20
151.648030
70
0
0
VERTEX
8
Ebene 1
10
147.882940
20
148.489040
70
0
0
VERTEX
8
Ebene 1
10
146.834060
20
147.693260
70
0
0
VERTEX
8
Ebene 1
10
143.445900
20
145.228860
70
0
0
VERTEX
8
Ebene 1
10
142.899110
20
144.867600
70
0
0
VERTEX
8
Ebene 1
10
141.838130
20
144.144260
70
0
0
VERTEX
8
Ebene 1
10
140.098070
20
143.084740
70
0
0
VERTEX
8
Ebene 1
10
138.286700
20
141.985460
70
0
0
VERTEX
8
Ebene 1
10
136.404060
20
140.936550
70
0
0
VERTEX
8
Ebene 1
10
134.942250
20
140.280470
70
0
0
VERTEX
8
Ebene 1
10
134.560920
20
140.109720
70
0
0
VERTEX
8
Ebene 1
10
133.224703
20
139.347020
70
0
0
VERTEX
8
Ebene 1
10
131.634970
20
138.670030
70
0
0
VERTEX
8
Ebene 1
10
131.132210
20
138.427680
70
0
0
VERTEX
8
Ebene 1
10
129.130656
20
137.531217
70
0
0
VERTEX
8
Ebene 1
10
127.123410
20
136.839400
70
0
0
VERTEX
8
Ebene 1
10
126.670370
20
136.680430
70
0
0
VERTEX
8
Ebene 1
10
124.773220
20
135.989610
70
0
0
VERTEX
8
Ebene 1
10
122.675850
20
135.292500
70
0
0
VERTEX
8
Ebene 1
10
116.265800
20
133.702700
70
0
0
VERTEX
8
Ebene 1
10
114.381710
20
133.387280
70
0
0
VERTEX
8
Ebene 1
10
112.761030
20
133.126130
70
0
0
VERTEX
8
Ebene 1
10
109.424310
20
132.684990
70
0
0
VERTEX
8
Ebene 1
10
107.803620
20
132.479940
70
0
0
VERTEX
8
Ebene 1
10
103.733072
20
132.238011
70
0
0
VERTEX
8
Ebene 1
10
98.270148
20
132.210080
70
0
0
VERTEX
8
Ebene 1
10
98.269978
20
132.209950
70
0
0
SEQEND
8
Ebene 1
0
POLYLINE
8
Ebene 1
62
10
70
0
10
0.000000
20
0.000000
66
1
0
VERTEX
8
Ebene 1
10
97.771038
20
144.169630
70
0
0
VERTEX
8
Ebene 1
10
95.886318
20
144.341720
70
0
0
VERTEX
8
Ebene 1
10
93.788948
20
144.549210
70
0
0
VERTEX
8
Ebene 1
10
91.405878
20
144.938510
70
0
0
VERTEX
8
Ebene 1
10
89.975858
20
145.165590
70
0
0
VERTEX
8
Ebene 1
10
88.736508
20
145.348440
70
0
0
VERTEX
8
Ebene 1
10
87.687831
20
145.544480
70
0
0
VERTEX
8
Ebene 1
10
87.030374
20
145.738620
70
0
0
VERTEX
8
Ebene 1
10
83.823252
20
146.595935
70
0
0
VERTEX
8
Ebene 1
10
79.796544
20
147.978014
70
0
0
VERTEX
8
Ebene 1
10
75.928413
20
149.522278
70
0
0
VERTEX
8
Ebene 1
10
73.197022
20
150.866150
70
0
0
VERTEX
8
Ebene 1
10
71.862351
20
151.542140
70
0
0
VERTEX
8
Ebene 1
10
70.051000
20
152.522580
70
0
0
VERTEX
8
Ebene 1
10
66.237621
20
154.933870
70
0
0
VERTEX
8
Ebene 1
10
62.138255
20
157.986530
70
0
0
VERTEX
8
Ebene 1
10
60.994251
20
158.959040
70
0
0
VERTEX
8
Ebene 1
10
56.725155
20
162.938699
70
0
0
VERTEX
8
Ebene 1
10
54.764433
20
164.956214
70
0
0
VERTEX
8
Ebene 1
10
53.935073
20
165.981930
70
0
0
VERTEX
8
Ebene 1
10
53.315416
20
166.796910
70
0
0
VERTEX
8
Ebene 1
10
51.922912
20
168.477276
70
0
0
VERTEX
8
Ebene 1
10
51.137378
20
169.782149
70
0
0
VERTEX
8
Ebene 1
10
50.874711
20
170.906427
70
0
0
VERTEX
8
Ebene 1
10
51.050808
20
172.045010
70
0
0
VERTEX
8
Ebene 1
10
51.532676
20
172.937672
70
0
0
VERTEX
8
Ebene 1
10
52.327846
20
173.685762
70
0
0
VERTEX
8
Ebene 1
10
53.312648
20
174.201469
70
0
0
VERTEX
8
Ebene 1
10
54.363410
20
174.396980
70
0
0
VERTEX
8
Ebene 1
10
55.136000
20
174.282028
70
0
0
VERTEX
8
Ebene 1
10
55.930178
20
173.970115
70
0
0
VERTEX
8
Ebene 1
10
56.622697
20
173.524154
70
0
0
VERTEX
8
Ebene 1
10
57.090315
20
173.007060
70
0
0
VERTEX
8
Ebene 1
10
57.782973
20
172.017946
70
0
0
VERTEX
8
Ebene 1
10
58.563216
20
171.181780
70
0
0
VERTEX
8
Ebene 1
10
58.896893
20
170.726670
70
0
0
VERTEX
8
Ebene 1
10
59.959220
20
169.485899
70
0
0
VERTEX
8
Ebene 1
10
62.402019
20
167.067225
70
0
0
VERTEX
8
Ebene 1
10
65.109019
20
164.542238
70
0
0
VERTEX
8
Ebene 1
10
66.963948
20
162.982530
70
0
0
VERTEX
8
Ebene 1
10
67.534115
20
162.448170
70
0
0
VERTEX
8
Ebene 1
10
67.875832
20
162.198310
70
0
0
VERTEX
8
Ebene 1
10
68.295352
20
162.004820
70
0
0
VERTEX
8
Ebene 1
10
71.290984
20
159.899350
70
0
0
VERTEX
8
Ebene 1
10
72.434348
20
159.157160
70
0
0
VERTEX
8
Ebene 1
10
75.518213
20
157.429639
70
0
0
VERTEX
8
Ebene 1
10
78.678352
20
155.889220
70
0
0
VERTEX
8
Ebene 1
10
79.079319
20
155.660030
70
0
0
VERTEX
8
Ebene 1
10
79.588776
20
155.409290
70
0
0
VERTEX
8
Ebene 1
10
81.798514
20
154.590580
70
0
0
VERTEX
8
Ebene 1
10
84.015542
20
153.808850
70
0
0
VERTEX
8
Ebene 1
10
84.834346
20
153.519460
70
0
0
VERTEX
8
Ebene 1
10
85.921220
20
153.161380
70
0
0
VERTEX
8
Ebene 1
10
87.058301
20
152.934522
70
0
0
VERTEX
8
Ebene 1
10
87.783161
20
152.657370
70
0
0
VERTEX
8
Ebene 1
10
89.117848
20
152.314920
70
0
0
VERTEX
8
Ebene 1
10
91.691888
20
151.817300
70
0
0
VERTEX
8
Ebene 1
10
94.456598
20
151.409570
70
0
0
VERTEX
8
Ebene 1
10
97.411978
20
151.138000
70
0
0
VERTEX
8
Ebene 1
10
99.813413
20
151.026563
70
0
0
VERTEX
8
Ebene 1
10
102.873251
20
151.059896
70
0
0
VERTEX
8
Ebene 1
10
105.990993
20
151.219246
70
0
0
VERTEX
8
Ebene 1
10
108.566140
20
151.485860
70
0
0
VERTEX
8
Ebene 1
10
110.949500
20
151.812250
70
0
0
VERTEX
8
Ebene 1
10
112.154620
20
152.035650
70
0
0
VERTEX
8
Ebene 1
10
115.334900
20
152.732460
70
0
0
VERTEX
8
Ebene 1
10
116.196420
20
152.988920
70
0
0
VERTEX
8
Ebene 1
10
117.340450
20
153.340110
70
0
0
VERTEX
8
Ebene 1
10
118.290290
20
153.617460
70
0
0
VERTEX
8
Ebene 1
10
118.957630
20
153.860690
70
0
0
VERTEX
8
Ebene 1
10
120.959660
20
154.565500
70
0
0
VERTEX
8
Ebene 1
10
122.675690
20
155.221950
70
0
0
VERTEX
8
Ebene 1
10
126.791600
20
157.143261
70
0
0
VERTEX
8
Ebene 1
10
130.588820
20
159.249020
70
0
0
VERTEX
8
Ebene 1
10
131.351500
20
159.714530
70
0
0
VERTEX
8
Ebene 1
10
132.347575
20
160.247441
70
0
0
VERTEX
8
Ebene 1
10
133.475650
20
161.101960
70
0
0
VERTEX
8
Ebene 1
10
134.516830
20
161.818030
70
0
0
VERTEX
8
Ebene 1
10
135.800569
20
162.719291
70
0
0
VERTEX
8
Ebene 1
10
137.810150
20
164.391020
70
0
0
VERTEX
8
Ebene 1
10
142.769930
20
169.192560
70
0
0
VERTEX
8
Ebene 1
10
144.218840
20
170.778450
70
0
0
VERTEX
8
Ebene 1
10
147.280830
20
174.832035
70
0
0
VERTEX
8
Ebene 1
10
150.232780
20
179.453910
70
0
0
VERTEX
8
Ebene 1
10
151.549460
20
181.837280
70
0
0
VERTEX
8
Ebene 1
10
153.080940
20
184.983340
70
0
0
VERTEX
8
Ebene 1
10
153.526590
20
186.032020
70
0
0
VERTEX
8
Ebene 1
10
154.917486
20
189.905245
70
0
0
VERTEX
8
Ebene 1
10
156.151760
20
194.230810
70
0
0
VERTEX
8
Ebene 1
10
156.555580
20
195.489900
70
0
0
VERTEX
8
Ebene 1
10
156.683150
20
196.157250
70
0
0
VERTEX
8
Ebene 1
10
156.975250
20
198.234864
70
0
0
VERTEX
8
Ebene 1
10
157.394580
20
200.808907
70
0
0
VERTEX
8
Ebene 1
10
157.662030
20
203.302462
70
0
0
VERTEX
8
Ebene 1
10
157.752739
20
207.942275
70
0
0
VERTEX
8
Ebene 1
10
157.572930
20
212.773427
70
0
0
VERTEX
8
Ebene 1
10
157.385660
20
214.489454
70
0
0
VERTEX
8
Ebene 1
10
157.018600
20
216.723466
70
0
0
VERTEX
8
Ebene 1
10
156.836150
20
218.304842
70
0
0
VERTEX
8
Ebene 1
10
156.749050
20
218.692536
70
0
0
VERTEX
8
Ebene 1
10
156.471020
20
219.589864
70
0
0
VERTEX
8
Ebene 1
10
155.909722
20
222.095849
70
0
0
VERTEX
8
Ebene 1
10
155.253130
20
224.195354
70
0
0
VERTEX
8
Ebene 1
10
154.992850
20
225.053367
70
0
0
VERTEX
8
Ebene 1
10
154.706850
20
225.951424
70
0
0
VERTEX
8
Ebene 1
10
154.422010
20
226.780621
70
0
0
VERTEX
8
Ebene 1
10
154.178860
20
227.604696
70
0
0
VERTEX
8
Ebene 1
10
153.572830
20
228.932674
70
0
0
VERTEX
8
Ebene 1
10
153.193450
20
229.979446
70
0
0
VERTEX
8
Ebene 1
10
152.906630
20
230.646791
70
0
0
VERTEX
8
Ebene 1
10
152.264895
20
231.828080
70
0
0
VERTEX
8
Ebene 1
10
151.752640
20
233.119437
70
0
0
VERTEX
8
Ebene 1
10
151.511500
20
233.542792
70
0
0
VERTEX
8
Ebene 1
10
150.796480
20
234.748097
70
0
0
VERTEX
8
Ebene 1
10
150.212350
20
235.796780
70
0
0
VERTEX
8
Ebene 1
10
149.814490
20
236.464123
70
0
0
VERTEX
8
Ebene 1
10
148.410240
20
238.792395
70
0
0
VERTEX
8
Ebene 1
10
146.969760
20
240.740138
70
0
0
VERTEX
8
Ebene 1
10
144.742490
20
243.581395
70
0
0
VERTEX
8
Ebene 1
10
143.308260
20
245.216138
70
0
0
VERTEX
8
Ebene 1
10
140.852339
20
247.739310
70
0
0
VERTEX
8
Ebene 1
10
138.084710
20
250.287668
70
0
0
VERTEX
8
Ebene 1
10
136.530850
20
251.670023
70
0
0
VERTEX
8
Ebene 1
10
136.197180
20
251.813025
70
0
0
VERTEX
8
Ebene 1
10
135.925750
20
251.956027
70
0
0
VERTEX
8
Ebene 1
10
135.210750
20
252.575703
70
0
0
VERTEX
8
Ebene 1
10
134.306380
20
253.202645
70
0
0
VERTEX
8
Ebene 1
10
130.814070
20
255.435746
70
0
0
VERTEX
8
Ebene 1
10
130.021440
20
256.055423
70
0
0
VERTEX
8
Ebene 1
10
129.723590
20
256.198426
70
0
0
VERTEX
8
Ebene 1
10
129.008590
20
256.460418
70
0
0
VERTEX
8
Ebene 1
10
126.699617
20
257.697870
70
0
0
VERTEX
8
Ebene 1
10
124.935220
20
258.486460
70
0
0
VERTEX
8
Ebene 1
10
124.677570
20
258.677130
70
0
0
VERTEX
8
Ebene 1
10
124.334360
20
258.867800
70
0
0
VERTEX
8
Ebene 1
10
123.810010
20
259.020366
70
0
0
VERTEX
8
Ebene 1
10
121.054840
20
260.113195
70
0
0
VERTEX
8
Ebene 1
10
120.006160
20
260.478145
70
0
0
VERTEX
8
Ebene 1
10
116.806416
20
261.494790
70
0
0
VERTEX
8
Ebene 1
10
113.332720
20
262.239349
70
0
0
VERTEX
8
Ebene 1
10
112.340060
20
262.532687
70
0
0
VERTEX
8
Ebene 1
10
111.911060
20
262.591017
70
0
0
VERTEX
8
Ebene 1
10
111.479740
20
262.611577
70
0
0
VERTEX
8
Ebene 1
10
110.764710
20
262.796789
70
0
0
VERTEX
8
Ebene 1
10
109.519320
20
262.960907
70
0
0
VERTEX
8
Ebene 1
10
106.714997
20
263.197092
70
0
0
VERTEX
8
Ebene 1
10
102.778396
20
263.306157
70
0
0
VERTEX
8
Ebene 1
10
98.899377
20
263.276078
70
0
0
VERTEX
8
Ebene 1
10
96.267798
20
263.094831
70
0
0
VERTEX
8
Ebene 1
10
94.075098
20
262.786916
70
0
0
VERTEX
8
Ebene 1
10
92.416298
20
262.511978
70
0
0
VERTEX
8
Ebene 1
10
91.605658
20
262.449488
70
0
0
VERTEX
8
Ebene 1
10
91.071778
20
262.354468
70
0
0
VERTEX
8
Ebene 1
10
88.450348
20
261.637188
70
0
0
VERTEX
8
Ebene 1
10
85.876330
20
260.956096
70
0
0
VERTEX
8
Ebene 1
10
84.636989
20
260.559243
70
0
0
VERTEX
8
Ebene 1
10
83.588295
20
260.194335
70
0
0
VERTEX
8
Ebene 1
10
82.348961
20
259.728504
70
0
0
VERTEX
8
Ebene 1
10
77.799900
20
257.749319
70
0
0
VERTEX
8
Ebene 1
10
73.366092
20
255.472037
70
0
0
VERTEX
8
Ebene 1
10
68.401259
20
252.039935
70
0
0
VERTEX
8
Ebene 1
10
67.413337
20
251.471872
70
0
0
VERTEX
8
Ebene 1
10
66.295197
20
251.239188
70
0
0
VERTEX
8
Ebene 1
10
65.167210
20
251.348494
70
0
0
VERTEX
8
Ebene 1
10
64.149743
20
251.806402
70
0
0
VERTEX
8
Ebene 1
10
63.278319
20
252.586531
70
0
0
VERTEX
8
Ebene 1
10
62.797672
20
253.882322
70
0
0
VERTEX
8
Ebene 1
10
62.703173
20
255.238942
70
0
0
VERTEX
8
Ebene 1
10
62.850693
20
255.851499
70
0
0
VERTEX
8
Ebene 1
10
63.118499
20
256.346834
70
0
0
VERTEX
8
Ebene 1
10
64.323690
20
257.557492
70
0
0
VERTEX
8
Ebene 1
10
65.331797
20
258.291591
70
0
0
VERTEX
8
Ebene 1
10
65.570137
20
258.476058
70
0
0
VERTEX
8
Ebene 1
10
66.016854
20
258.905064
70
0
0
VERTEX
8
Ebene 1
10
69.489113
20
261.113705
70
0
0
VERTEX
8
Ebene 1
10
70.193840
20
261.469614
70
0
0
VERTEX
8
Ebene 1
10
70.527507
20
261.721350
70
0
0
VERTEX
8
Ebene 1
10
71.385534
20
262.214876
70
0
0
VERTEX
8
Ebene 1
10
72.243538
20
262.731538
70
0
0
VERTEX
8
Ebene 1
10
72.421028
20
262.784668
70
0
0
VERTEX
8
Ebene 1
10
72.701025
20
262.840848
70
0
0
VERTEX
8
Ebene 1
10
74.378898
20
263.780336
70
0
0
VERTEX
8
Ebene 1
10
78.344925
20
265.603220
70
0
0
VERTEX
8
Ebene 1
10
81.109617
20
266.579734
70
0
0
VERTEX
8
Ebene 1
10
81.872294
20
266.869114
70
0
0
VERTEX
8
Ebene 1
10
83.119886
20
267.296075
70
0
0
VERTEX
8
Ebene 1
10
84.446319
20
267.582838
70
0
0
VERTEX
8
Ebene 1
10
85.399653
20
267.914955
70
0
0
VERTEX
8
Ebene 1
10
86.829664
20
268.391699
70
0
0
VERTEX
8
Ebene 1
10
88.545688
20
268.794270
70
0
0
VERTEX
8
Ebene 1
10
91.313748
20
269.252766
70
0
0
VERTEX
8
Ebene 1
10
91.810678
20
269.405637
70
0
0
VERTEX
8
Ebene 1
10
92.856018
20
269.632754
70
0
0
VERTEX
8
Ebene 1
10
94.361108
20
269.833554
70
0
0
VERTEX
8
Ebene 1
10
96.398288
20
270.007429
70
0
0
VERTEX
8
Ebene 1
10
97.923638
20
270.170615
70
0
0
VERTEX
8
Ebene 1
10
99.384134
20
270.306966
70
0
0
VERTEX
8
Ebene 1
10
102.437226
20
270.277730
70
0
0
VERTEX
8
Ebene 1
10
109.996010
20
269.819275
70
0
0
VERTEX
8
Ebene 1
10
112.673372
20
269.420745
70
0
0
VERTEX
8
Ebene 1
10
116.025555
20
268.759922
70
0
0
VERTEX
8
Ebene 1
10
119.103838
20
268.040447
70
0
0
VERTEX
8
Ebene 1
10
120.959500
20
267.465962
70
0
0
VERTEX
8
Ebene 1
10
122.866200
20
266.782766
70
0
0
VERTEX
8
Ebene 1
10
124.825950
20
265.996995
70
0
0
VERTEX
8
Ebene 1
10
125.445620
20
265.830568
70
0
0
VERTEX
8
Ebene 1
10
125.630910
20
265.766998
70
0
0
VERTEX
8
Ebene 1
10
126.173560
20
265.480379
70
0
0
VERTEX
8
Ebene 1
10
127.714368
20
264.858830
70
0
0
VERTEX
8
Ebene 1
10
130.333111
20
263.585655
70
0
0
VERTEX
8
Ebene 1
10
135.069060
20
260.975917
70
0
0
VERTEX
8
Ebene 1
10
137.261750
20
259.530611
70
0
0
VERTEX
8
Ebene 1
10
139.182140
20
258.208997
70
0
0
VERTEX
8
Ebene 1
10
140.314250
20
257.342450
70
0
0
VERTEX
8
Ebene 1
10
141.248620
20
256.532105
70
0
0
VERTEX
8
Ebene 1
10
141.697840
20
256.198433
70
0
0
VERTEX
8
Ebene 1
10
142.973739
20
255.226155
70
0
0
VERTEX
8
Ebene 1
10
145.406564
20
252.922460
70
0
0
VERTEX
8
Ebene 1
10
148.063637
20
250.207053
70
0
0
VERTEX
8
Ebene 1
10
150.012280
20
247.999641
70
0
0
VERTEX
8
Ebene 1
10
151.344030
20
246.359773
70
0
0
VERTEX
8
Ebene 1
10
152.420320
20
244.929750
70
0
0
VERTEX
8
Ebene 1
10
153.367210
20
243.708930
70
0
0
VERTEX
8
Ebene 1
10
154.034330
20
242.660247
70
0
0
VERTEX
8
Ebene 1
10
154.806720
20
241.421540
70
0
0
VERTEX
8
Ebene 1
10
156.240110
20
239.133505
70
0
0
VERTEX
8
Ebene 1
10
158.189000
20
235.510783
70
0
0
VERTEX
8
Ebene 1
10
159.100550
20
233.508752
70
0
0
VERTEX
8
Ebene 1
10
159.531040
20
232.610668
70
0
0
VERTEX
8
Ebene 1
10
159.951430
20
231.418983
70
0
0
VERTEX
8
Ebene 1
10
160.113140
20
231.030047
70
0
0
VERTEX
8
Ebene 1
10
160.570455
20
230.101505
70
0
0
VERTEX
8
Ebene 1
10
160.904770
20
228.831340
70
0
0
VERTEX
8
Ebene 1
10
161.059230
20
228.519565
70
0
0
VERTEX
8
Ebene 1
10
161.505615
20
227.453995
70
0
0
VERTEX
8
Ebene 1
10
161.988660
20
225.691300
70
0
0
VERTEX
8
Ebene 1
10
162.344240
20
224.630544
70
0
0
VERTEX
8
Ebene 1
10
162.729000
20
223.200521
70
0
0
VERTEX
8
Ebene 1
10
163.120810
20
221.530122
70
0
0
VERTEX
8
Ebene 1
10
163.284220
20
220.536862
70
0
0
VERTEX
8
Ebene 1
10
163.366420
20
220.026634
70
0
0
VERTEX
8
Ebene 1
10
163.927715
20
217.285271
70
0
0
VERTEX
8
Ebene 1
10
164.432580
20
213.488446
70
0
0
VERTEX
8
Ebene 1
10
164.656101
20
208.001915
70
0
0
VERTEX
8
Ebene 1
10
164.528480
20
203.285305
70
0
0
VERTEX
8
Ebene 1
10
164.219640
20
199.855574
70
0
0
VERTEX
8
Ebene 1
10
163.749390
20
196.804840
70
0
0
VERTEX
8
Ebene 1
10
163.252840
20
194.087800
70
0
0
VERTEX
8
Ebene 1
10
162.966100
20
193.468130
70
0
0
VERTEX
8
Ebene 1
10
162.903200
20
193.283500
70
0
0
VERTEX
8
Ebene 1
10
162.736650
20
192.091810
70
0
0
VERTEX
8
Ebene 1
10
161.323550
20
187.366700
70
0
0
VERTEX
8
Ebene 1
10
160.807470
20
185.841350
70
0
0
VERTEX
8
Ebene 1
10
159.665117
20
182.946657
70
0
0
VERTEX
8
Ebene 1
10
157.859487
20
179.150903
70
0
0
VERTEX
8
Ebene 1
10
155.903975
20
175.474087
70
0
0
VERTEX
8
Ebene 1
10
154.311970
20
172.936210
70
0
0
VERTEX
8
Ebene 1
10
153.850120
20
172.213470
70
0
0
VERTEX
8
Ebene 1
10
152.887580
20
170.778450
70
0
0
VERTEX
8
Ebene 1
10
152.318290
20
170.015770
70
0
0
VERTEX
8
Ebene 1
10
150.390360
20
167.537060
70
0
0
VERTEX
8
Ebene 1
10
148.400380
20
165.201150
70
0
0
VERTEX
8
Ebene 1
10
145.650620
20
162.388990
70
0
0
VERTEX
8
Ebene 1
10
141.841096
20
158.859835
70
0
0
VERTEX
8
Ebene 1
10
138.310550
20
156.089140
70
0
0
VERTEX
8
Ebene 1
10
137.261860
20
155.315450
70
0
0
VERTEX
8
Ebene 1
10
135.836500
20
154.362120
70
0
0
VERTEX
8
Ebene 1
10
133.067140
20
152.743850
70
0
0
VERTEX
8
Ebene 1
10
132.304460
20
152.309730
70
0
0
VERTEX
8
Ebene 1
10
130.088640
20
151.060415
70
0
0
VERTEX
8
Ebene 1
10
127.803400
20
149.995450
70
0
0
VERTEX
8
Ebene 1
10
126.520390
20
149.437160
70
0
0
VERTEX
8
Ebene 1
10
124.200785
20
148.369889
70
0
0
VERTEX
8
Ebene 1
10
123.330450
20
148.087590
70
0
0
VERTEX
8
Ebene 1
10
122.545490
20
147.819550
70
0
0
VERTEX
8
Ebene 1
10
121.401460
20
147.417370
70
0
0
VERTEX
8
Ebene 1
10
120.551440
20
147.107340
70
0
0
VERTEX
8
Ebene 1
10
119.683370
20
146.849340
70
0
0
VERTEX
8
Ebene 1
10
118.375520
20
146.492890
70
0
0
VERTEX
8
Ebene 1
10
115.716210
20
145.808730
70
0
0
VERTEX
8
Ebene 1
10
113.142160
20
145.225400
70
0
0
VERTEX
8
Ebene 1
10
107.231410
20
144.365970
70
0
0
VERTEX
8
Ebene 1
10
102.033478
20
144.178048
70
0
0
VERTEX
8
Ebene 1
10
97.770998
20
144.169630
70
0
0
VERTEX
8
Ebene 1
10
97.771038
20
144.169630
70
0
0
SEQEND
8
Ebene 1
0
POLYLINE
8
Ebene 1
62
10
70
0
10
0.000000
20
0.000000
66
1
0
VERTEX
8
Ebene 1
10
98.748438
20
156.056980
70
0
0
VERTEX
8
Ebene 1
10
96.771578
20
156.279680
70
0
0
VERTEX
8
Ebene 1
10
96.007118
20
156.359180
70
0
0
VERTEX
8
Ebene 1
10
93.503238
20
156.666650
70
0
0
VERTEX
8
Ebene 1
10
90.309028
20
157.314060
70
0
0
VERTEX
8
Ebene 1
10
87.420931
20
157.997497
70
0
0
VERTEX
8
Ebene 1
10
84.434649
20
158.968354
70
0
0
VERTEX
8
Ebene 1
10
81.227734
20
160.271594
70
0
0
VERTEX
8
Ebene 1
10
77.677738
20
161.952180
70
0
0
VERTEX
8
Ebene 1
10
75.592327
20
163.198907
70
0
0
VERTEX
8
Ebene 1
10
75.012098
20
163.809741
70
0
0
VERTEX
8
Ebene 1
10
74.562346
20
164.561150
70
0
0
VERTEX
8
Ebene 1
10
74.277958
20
165.263016
70
0
0
VERTEX
8
Ebene 1
10
74.175042
20
165.905685
70
0
0
VERTEX
8
Ebene 1
10
74.252378
20
166.550521
70
0
0
VERTEX
8
Ebene 1
10
74.508746
20
167.258890
70
0
0
VERTEX
8
Ebene 1
10
74.897412
20
167.937132
70
0
0
VERTEX
8
Ebene 1
10
75.381547
20
168.488715
70
0
0
VERTEX
8
Ebene 1
10
75.946768
20
168.908962
70
0
0
VERTEX
8
Ebene 1
10
76.578688
20
169.193199
70
0
0
VERTEX
8
Ebene 1
10
77.985093
20
169.334941
70
0
0
VERTEX
8
Ebene 1
10
79.485686
20
168.876540
70
0
0
VERTEX
8
Ebene 1
10
82.635088
20
167.176610
70
0
0
VERTEX
8
Ebene 1
10
84.732446
20
166.315220
70
0
0
VERTEX
8
Ebene 1
10
87.372151
20
165.227900
70
0
0
VERTEX
8
Ebene 1
10
88.389618
20
164.867620
70
0
0
VERTEX
8
Ebene 1
10
90.039968
20
164.500870
70
0
0
VERTEX
8
Ebene 1
10
93.310712
20
163.672869
70
0
0
VERTEX
8
Ebene 1
10
95.123928
20
163.410780
70
0
0
VERTEX
8
Ebene 1
10
97.311188
20
163.134670
70
0
0
VERTEX
8
Ebene 1
10
101.340308
20
162.973409
70
0
0
VERTEX
8
Ebene 1
10
105.992070
20
163.160770
70
0
0
VERTEX
8
Ebene 1
10
108.089430
20
163.407030
70
0
0
VERTEX
8
Ebene 1
10
109.042790
20
163.589540
70
0
0
VERTEX
8
Ebene 1
10
110.377470
20
163.881140
70
0
0
VERTEX
8
Ebene 1
10
112.570170
20
164.388270
70
0
0
VERTEX
8
Ebene 1
10
114.143200
20
164.718000
70
0
0
VERTEX
8
Ebene 1
10
114.572200
20
164.870350
70
0
0
VERTEX
8
Ebene 1
10
115.859230
20
165.350720
70
0
0
VERTEX
8
Ebene 1
10
117.569080
20
165.944250
70
0
0
VERTEX
8
Ebene 1
10
118.903770
20
166.565490
70
0
0
VERTEX
8
Ebene 1
10
121.347873
20
167.680246
70
0
0
VERTEX
8
Ebene 1
10
123.973158
20
169.124600
70
0
0
VERTEX
8
Ebene 1
10
126.555913
20
170.766009
70
0
0
VERTEX
8
Ebene 1
10
128.872430
20
172.471930
70
0
0
VERTEX
8
Ebene 1
10
130.097830
20
173.447500
70
0
0
VERTEX
8
Ebene 1
10
133.019480
20
176.107700
70
0
0
VERTEX
8
Ebene 1
10
133.639160
20
176.787290
70
0
0
VERTEX
8
Ebene 1
10
134.458360
20
177.691320
70
0
0
VERTEX
8
Ebene 1
10
136.661981
20
180.356863
70
0
0
VERTEX
8
Ebene 1
10
138.361700
20
182.772670
70
0
0
VERTEX
8
Ebene 1
10
138.611670
20
183.171980
70
0
0
VERTEX
8
Ebene 1
10
141.180820
20
187.652710
70
0
0
VERTEX
8
Ebene 1
10
141.885630
20
188.860280
70
0
0
VERTEX
8
Ebene 1
10
142.028620
20
189.251160
70
0
0
VERTEX
8
Ebene 1
10
142.191160
20
189.759610
70
0
0
VERTEX
8
Ebene 1
10
143.062890
20
191.942780
70
0
0
VERTEX
8
Ebene 1
10
143.882510
20
194.230820
70
0
0
VERTEX
8
Ebene 1
10
144.044780
20
194.770050
70
0
0
VERTEX
8
Ebene 1
10
144.240820
20
195.342060
70
0
0
VERTEX
8
Ebene 1
10
144.425210
20
195.946840
70
0
0
VERTEX
8
Ebene 1
10
144.890220
20
198.234874
70
0
0
VERTEX
8
Ebene 1
10
145.374840
20
200.713582
70
0
0
VERTEX
8
Ebene 1
10
145.557450
20
202.019069
70
0
0
VERTEX
8
Ebene 1
10
145.766130
20
203.639761
70
0
0
VERTEX
8
Ebene 1
10
145.861120
20
207.524069
70
0
0
VERTEX
8
Ebene 1
10
145.774130
20
210.819072
70
0
0
VERTEX
8
Ebene 1
10
145.581060
20
212.535097
70
0
0
VERTEX
8
Ebene 1
10
145.399500
20
214.251124
70
0
0
VERTEX
8
Ebene 1
10
145.074900
20
215.967150
70
0
0
VERTEX
8
Ebene 1
10
144.563890
20
218.255184
70
0
0
VERTEX
8
Ebene 1
10
144.218440
20
219.589872
70
0
0
VERTEX
8
Ebene 1
10
143.332079
20
222.382534
70
0
0
VERTEX
8
Ebene 1
10
141.788590
20
226.072639
70
0
0
VERTEX
8
Ebene 1
10
141.015320
20
227.931666
70
0
0
VERTEX
8
Ebene 1
10
140.883240
20
228.170004
70
0
0
VERTEX
8
Ebene 1
10
140.390680
20
228.880481
70
0
0
VERTEX
8
Ebene 1
10
137.598870
20
233.351443
70
0
0
VERTEX
8
Ebene 1
10
137.071600
20
234.097905
70
0
0
VERTEX
8
Ebene 1
10
136.451930
20
234.874891
70
0
0
VERTEX
8
Ebene 1
10
136.118260
20
235.313387
70
0
0
VERTEX
8
Ebene 1
10
135.157555
20
236.460007
70
0
0
VERTEX
8
Ebene 1
10
133.017479
20
238.641607
70
0
0
VERTEX
8
Ebene 1
10
130.811085
20
240.757636
70
0
0
VERTEX
8
Ebene 1
10
129.651430
20
241.707545
70
0
0
VERTEX
8
Ebene 1
10
129.217300
20
242.041215
70
0
0
VERTEX
8
Ebene 1
10
127.728790
20
243.224926
70
0
0
VERTEX
8
Ebene 1
10
126.425880
20
244.225941
70
0
0
VERTEX
8
Ebene 1
10
126.183750
20
244.376919
70
0
0
VERTEX
8
Ebene 1
10
125.198640
20
244.890558
70
0
0
VERTEX
8
Ebene 1
10
121.436690
20
246.956841
70
0
0
VERTEX
8
Ebene 1
10
119.466880
20
247.914906
70
0
0
VERTEX
8
Ebene 1
10
118.733020
20
248.190310
70
0
0
VERTEX
8
Ebene 1
10
117.938130
20
248.465332
70
0
0
VERTEX
8
Ebene 1
10
115.504483
20
249.367762
70
0
0
VERTEX
8
Ebene 1
10
112.434458
20
250.201349
70
0
0
VERTEX
8
Ebene 1
10
109.153686
20
250.865701
70
0
0
VERTEX
8
Ebene 1
10
106.087800
20
251.260425
70
0
0
VERTEX
8
Ebene 1
10
103.084916
20
251.429164
70
0
0
VERTEX
8
Ebene 1
10
100.341609
20
251.419761
70
0
0
VERTEX
8
Ebene 1
10
97.706692
20
251.226517
70
0
0
VERTEX
8
Ebene 1
10
95.028978
20
250.843736
70
0
0
VERTEX
8
Ebene 1
10
92.264268
20
250.380216
70
0
0
VERTEX
8
Ebene 1
10
89.779308
20
249.717485
70
0
0
VERTEX
8
Ebene 1
10
88.825948
20
249.431890
70
0
0
VERTEX
8
Ebene 1
10
87.974198
20
249.147933
70
0
0
VERTEX
8
Ebene 1
10
87.211524
20
248.869241
70
0
0
VERTEX
8
Ebene 1
10
84.410979
20
247.732292
70
0
0
VERTEX
8
Ebene 1
10
83.105728
20
247.236963
70
0
0
VERTEX
8
Ebene 1
10
82.378911
20
246.880522
70
0
0
VERTEX
8
Ebene 1
10
80.994434
20
246.072269
70
0
0
VERTEX
8
Ebene 1
10
80.008483
20
245.674831
70
0
0
VERTEX
8
Ebene 1
10
79.749756
20
245.427370
70
0
0
VERTEX
8
Ebene 1
10
79.565749
20
245.224130
70
0
0
VERTEX
8
Ebene 1
10
79.278379
20
245.139597
70
0
0
VERTEX
8
Ebene 1
10
78.917439
20
244.986650
70
0
0
VERTEX
8
Ebene 1
10
77.192421
20
243.724661
70
0
0
VERTEX
8
Ebene 1
10
75.238070
20
242.386902
70
0
0
VERTEX
8
Ebene 1
10
74.150736
20
241.503329
70
0
0
VERTEX
8
Ebene 1
10
72.457372
20
240.062182
70
0
0
VERTEX
8
Ebene 1
10
70.545335
20
238.201344
70
0
0
VERTEX
8
Ebene 1
10
68.671079
20
236.183523
70
0
0
VERTEX
8
Ebene 1
10
67.091058
20
234.271430
70
0
0
VERTEX
8
Ebene 1
10
66.338251
20
233.318083
70
0
0
VERTEX
8
Ebene 1
10
66.047314
20
232.917600
70
0
0
VERTEX
8
Ebene 1
10
63.939366
20
229.695360
70
0
0
VERTEX
8
Ebene 1
10
62.928483
20
228.482603
70
0
0
VERTEX
8
Ebene 1
10
61.566618
20
227.867403
70
0
0
VERTEX
8
Ebene 1
10
60.434828
20
227.779436
70
0
0
VERTEX
8
Ebene 1
10
59.385350
20
228.024243
70
0
0
VERTEX
8
Ebene 1
10
58.359218
20
228.863441
70
0
0
VERTEX
8
Ebene 1
10
57.942523
20
229.311358
70
0
0
VERTEX
8
Ebene 1
10
57.866999
20
229.507611
70
0
0
VERTEX
8
Ebene 1
10
57.775299
20
229.677703
70
0
0
VERTEX
8
Ebene 1
10
57.572023
20
230.107518
70
0
0
VERTEX
8
Ebene 1
10
57.489292
20
231.058958
70
0
0
VERTEX
8
Ebene 1
10
57.500792
20
231.778826
70
0
0
VERTEX
8
Ebene 1
10
57.627716
20
232.356398
70
0
0
VERTEX
8
Ebene 1
10
58.591586
20
234.082583
70
0
0
VERTEX
8
Ebene 1
10
60.515453
20
236.930361
70
0
0
VERTEX
8
Ebene 1
10
62.267475
20
239.228839
70
0
0
VERTEX
8
Ebene 1
10
63.140289
20
240.259522
70
0
0
VERTEX
8
Ebene 1
10
65.969496
20
243.359009
70
0
0
VERTEX
8
Ebene 1
10
69.002686
20
246.120108
70
0
0
VERTEX
8
Ebene 1
10
70.611647
20
247.474749
70
0
0
VERTEX
8
Ebene 1
10
71.185474
20
247.808971
70
0
0
VERTEX
8
Ebene 1
10
71.614891
20
248.169647
70
0
0
VERTEX
8
Ebene 1
10
73.043115
20
249.247950
70
0
0
VERTEX
8
Ebene 1
10
74.627406
20
250.298683
70
0
0
VERTEX
8
Ebene 1
10
75.890124
20
251.104464
70
0
0
VERTEX
8
Ebene 1
10
79.203459
20
252.881409
70
0
0
VERTEX
8
Ebene 1
10
82.874351
20
254.551534
70
0
0
VERTEX
8
Ebene 1
10
85.541233
20
255.499310
70
0
0
VERTEX
8
Ebene 1
10
85.781520
20
255.658203
70
0
0
VERTEX
8
Ebene 1
10
86.246930
20
255.817094
70
0
0
VERTEX
8
Ebene 1
10
86.816837
20
255.986149
70
0
0
VERTEX
8
Ebene 1
10
87.473274
20
256.253800
70
0
0
VERTEX
8
Ebene 1
10
88.907378
20
256.508056
70
0
0
VERTEX
8
Ebene 1
10
89.670068
20
256.749256
70
0
0
VERTEX
8
Ebene 1
10
90.854281
20
257.116904
70
0
0
VERTEX
8
Ebene 1
10
92.597438
20
257.448434
70
0
0
VERTEX
8
Ebene 1
10
95.028978
20
257.848353
70
0
0
VERTEX
8
Ebene 1
10
98.279427
20
258.220007
70
0
0
VERTEX
8
Ebene 1
10
102.369750
20
258.362105
70
0
0
VERTEX
8
Ebene 1
10
106.744237
20
258.129835
70
0
0
VERTEX
8
Ebene 1
10
109.849680
20
257.792045
70
0
0
VERTEX
8
Ebene 1
10
110.869920
20
257.617618
70
0
0
VERTEX
8
Ebene 1
10
114.474594
20
256.857501
70
0
0
VERTEX
8
Ebene 1
10
117.527980
20
256.004776
70
0
0
VERTEX
8
Ebene 1
10
118.671990
20
255.560031
70
0
0
VERTEX
8
Ebene 1
10
121.219490
20
254.673590
70
0
0
VERTEX
8
Ebene 1
10
124.487410
20
253.180597
70
0
0
VERTEX
8
Ebene 1
10
127.608674
20
251.461053
70
0
0
VERTEX
8
Ebene 1
10
130.665970
20
249.564445
70
0
0
VERTEX
8
Ebene 1
10
134.358040
20
246.790884
70
0
0
VERTEX
8
Ebene 1
10
136.414790
20
244.982019
70
0
0
VERTEX
8
Ebene 1
10
138.679054
20
242.792715
70
0
0
VERTEX
8
Ebene 1
10
141.483550
20
239.610179
70
0
0
VERTEX
8
Ebene 1
10
142.768914
20
237.956750
70
0
0
VERTEX
8
Ebene 1
10
144.744030
20
235.055242
70
0
0
VERTEX
8
Ebene 1
10
145.309580
20
234.080761
70
0
0
VERTEX
8
Ebene 1
10
145.956830
20
233.032078
70
0
0
VERTEX
8
Ebene 1
10
146.500470
20
232.031063
70
0
0
VERTEX
8
Ebene 1
10
146.808610
20
231.602056
70
0
0
VERTEX
8
Ebene 1
10
146.986420
20
231.385497
70
0
0
VERTEX
8
Ebene 1
10
147.734250
20
229.621804
70
0
0
VERTEX
8
Ebene 1
10
148.511438
20
227.920868
70
0
0
VERTEX
8
Ebene 1
10
148.698480
20
227.237972
70
0
0
VERTEX
8
Ebene 1
10
148.848710
20
227.047304
70
0
0
VERTEX
8
Ebene 1
10
149.364520
20
225.881968
70
0
0
VERTEX
8
Ebene 1
10
149.946350
20
224.261277
70
0
0
VERTEX
8
Ebene 1
10
150.518060
20
222.668180
70
0
0
VERTEX
8
Ebene 1
10
150.799820
20
221.487442
70
0
0
VERTEX
8
Ebene 1
10
151.189470
20
219.948384
70
0
0
VERTEX
8
Ebene 1
10
151.825980
20
217.206502
70
0
0
VERTEX
8
Ebene 1
10
151.992150
20
216.539159
70
0
0
VERTEX
8
Ebene 1
10
152.302170
20
214.727798
70
0
0
VERTEX
8
Ebene 1
10
152.661473
20
210.965300
70
0
0
VERTEX
8
Ebene 1
10
152.771400
20
207.249359
70
0
0
VERTEX
8
Ebene 1
10
152.632237
20
203.649915
70
0
0
VERTEX
8
Ebene 1
10
152.244270
20
200.236908
70
0
0
VERTEX
8
Ebene 1
10
151.502162
20
195.921695
70
0
0
VERTEX
8
Ebene 1
10
150.980870
20
194.022080
70
0
0
VERTEX
8
Ebene 1
10
150.665680
20
193.018480
70
0
0
VERTEX
8
Ebene 1
10
149.813904
20
190.325087
70
0
0
VERTEX
8
Ebene 1
10
148.500990
20
187.080700
70
0
0
VERTEX
8
Ebene 1
10
147.880090
20
185.650680
70
0
0
VERTEX
8
Ebene 1
10
146.578951
20
183.065630
70
0
0
VERTEX
8
Ebene 1
10
144.574980
20
179.677060
70
0
0
VERTEX
8
Ebene 1
10
143.554420
20
178.008690
70
0
0
VERTEX
8
Ebene 1
10
143.386980
20
177.833230
70
0
0
VERTEX
8
Ebene 1
10
142.481300
20
176.742850
70
0
0
VERTEX
8
Ebene 1
10
140.395504
20
174.111178
70
0
0
VERTEX
8
Ebene 1
10
137.557592
20
171.060243
70
0
0
VERTEX
8
Ebene 1
10
134.637440
20
168.269628
70
0
0
VERTEX
8
Ebene 1
10
132.304920
20
166.418920
70
0
0
VERTEX
8
Ebene 1
10
131.732910
20
166.008550
70
0
0
VERTEX
8
Ebene 1
10
126.690330
20
162.730770
70
0
0
VERTEX
8
Ebene 1
10
123.354877
20
161.036264
70
0
0
VERTEX
8
Ebene 1
10
121.211430
20
160.100960
70
0
0
VERTEX
8
Ebene 1
10
120.516870
20
159.797860
70
0
0
VERTEX
8
Ebene 1
10
118.187125
20
158.853661
70
0
0
VERTEX
8
Ebene 1
10
115.839980
20
158.194260
70
0
0
VERTEX
8
Ebene 1
10
115.044080
20
157.938690
70
0
0
VERTEX
8
Ebene 1
10
113.736682
20
157.493848
70
0
0
VERTEX
8
Ebene 1
10
111.807940
20
157.125310
70
0
0
VERTEX
8
Ebene 1
10
110.187240
20
156.800500
70
0
0
VERTEX
8
Ebene 1
10
107.803407
20
156.425159
70
0
0
VERTEX
8
Ebene 1
10
104.181160
20
156.166300
70
0
0
VERTEX
8
Ebene 1
10
101.225770
20
156.047730
70
0
0
VERTEX
8
Ebene 1
10
98.748858
20
156.057730
70
0
0
VERTEX
8
Ebene 1
10
98.748438
20
156.056980
70
0
0
SEQEND
8
Ebene 1
0
POLYLINE
8
Ebene 1
62
10
70
0
10
0.000000
20
0.000000
66
1
0
VERTEX
8
Ebene 1
10
98.929958
20
167.985560
70
0
0
VERTEX
8
Ebene 1
10
97.467448
20
168.178930
70
0
0
VERTEX
8
Ebene 1
10
95.451158
20
168.556230
70
0
0
VERTEX
8
Ebene 1
10
94.271112
20
169.493115
70
0
0
VERTEX
8
Ebene 1
10
93.818489
20
170.055838
70
0
0
VERTEX
8
Ebene 1
10
93.705938
20
170.416560
70
0
0
VERTEX
8
Ebene 1
10
93.601698
20
170.681190
70
0
0
VERTEX
8
Ebene 1
10
93.460090
20
171.059732
70
0
0
VERTEX
8
Ebene 1
10
93.412038
20
171.741320
70
0
0
VERTEX
8
Ebene 1
10
93.458066
20
172.393831
70
0
0
VERTEX
8
Ebene 1
10
93.598698
20
172.685140
70
0
0
VERTEX
8
Ebene 1
10
93.789368
20
173.051850
70
0
0
VERTEX
8
Ebene 1
10
93.933184
20
173.478693
70
0
0
VERTEX
8
Ebene 1
10
94.276245
20
173.987374
70
0
0
VERTEX
8
Ebene 1
10
94.685970
20
174.413290
70
0
0
VERTEX
8
Ebene 1
10
95.029778
20
174.591840
70
0
0
VERTEX
8
Ebene 1
10
95.362228
20
174.830170
70
0
0
VERTEX
8
Ebene 1
10
95.764828
20
175.007431
70
0
0
VERTEX
8
Ebene 1
10
96.855808
20
175.054620
70
0
0
VERTEX
8
Ebene 1
10
101.606810
20
175.002220
70
0
0
VERTEX
8
Ebene 1
10
105.467880
20
175.063820
70
0
0
VERTEX
8
Ebene 1
10
106.421220
20
175.242530
70
0
0
VERTEX
8
Ebene 1
10
110.997300
20
176.230100
70
0
0
VERTEX
8
Ebene 1
10
114.936740
20
177.756891
70
0
0
VERTEX
8
Ebene 1
10
116.663110
20
178.609950
70
0
0
VERTEX
8
Ebene 1
10
117.763810
20
179.167910
70
0
0
VERTEX
8
Ebene 1
10
118.190000
20
179.447820
70
0
0
VERTEX
8
Ebene 1
10
118.547020
20
179.691420
70
0
0
VERTEX
8
Ebene 1
10
119.234731
20
180.015235
70
0
0
VERTEX
8
Ebene 1
10
120.006420
20
180.599480
70
0
0
VERTEX
8
Ebene 1
10
121.245780
20
181.543660
70
0
0
VERTEX
8
Ebene 1
10
123.182663
20
183.168762
70
0
0
VERTEX
8
Ebene 1
10
125.400769
20
185.457935
70
0
0
VERTEX
8
Ebene 1
10
127.537378
20
188.008093
70
0
0
VERTEX
8
Ebene 1
10
129.229770
20
190.416150
70
0
0
VERTEX
8
Ebene 1
10
130.852871
20
193.547639
70
0
0
VERTEX
8
Ebene 1
10
132.113940
20
196.614170
70
0
0
VERTEX
8
Ebene 1
10
132.589600
20
197.948864
70
0
0
VERTEX
8
Ebene 1
10
133.283036
20
200.587767
70
0
0
VERTEX
8
Ebene 1
10
133.789370
20
203.668954
70
0
0
VERTEX
8
Ebene 1
10
133.901459
20
206.199359
70
0
0
VERTEX
8
Ebene 1
10
133.875425
20
208.995859
70
0
0
VERTEX
8
Ebene 1
10
133.727433
20
211.559943
70
0
0
VERTEX
8
Ebene 1
10
133.473650
20
213.393102
70
0
0
VERTEX
8
Ebene 1
10
132.898420
20
215.655276
70
0
0
VERTEX
8
Ebene 1
10
132.604090
20
217.323635
70
0
0
VERTEX
8
Ebene 1
10
132.506590
20
217.492498
70
0
0
VERTEX
8
Ebene 1
10
132.304670
20
217.862585
70
0
0
VERTEX
8
Ebene 1
10
132.138630
20
218.335291
70
0
0
VERTEX
8
Ebene 1
10
131.851940
20
219.061555
70
0
0
VERTEX
8
Ebene 1
10
131.429414
20
220.276753
70
0
0
VERTEX
8
Ebene 1
10
130.942080
20
221.076853
70
0
0
VERTEX
8
Ebene 1
10
130.394510
20
222.268538
70
0
0
VERTEX
8
Ebene 1
10
129.802720
20
223.403255
70
0
0
VERTEX
8
Ebene 1
10
129.635300
20
223.588245
70
0
0
VERTEX
8
Ebene 1
10
128.634280
20
225.219161
70
0
0
VERTEX
8
Ebene 1
10
127.442600
20
226.995388
70
0
0
VERTEX
8
Ebene 1
10
126.803490
20
227.795509
70
0
0
VERTEX
8
Ebene 1
10
125.850130
20
228.920746
70
0
0
VERTEX
8
Ebene 1
10
123.171100
20
231.602048
70
0
0
VERTEX
8
Ebene 1
10
120.119566
20
233.896184
70
0
0
VERTEX
8
Ebene 1
10
116.988030
20
235.820159
70
0
0
VERTEX
8
Ebene 1
10
115.907090
20
236.371671
70
0
0
VERTEX
8
Ebene 1
10
114.550753
20
237.052558
70
0
0
VERTEX
8
Ebene 1
10
112.661762
20
237.748684
70
0
0
VERTEX
8
Ebene 1
10
108.057180
20
238.934789
70
0
0
VERTEX
8
Ebene 1
10
105.103224
20
239.371716
70
0
0
VERTEX
8
Ebene 1
10
102.184051
20
239.517809
70
0
0
VERTEX
8
Ebene 1
10
99.182680
20
239.373093
70
0
0
VERTEX
8
Ebene 1
10
95.982128
20
238.937589
70
0
0
VERTEX
8
Ebene 1
10
94.552108
20
238.718640
70
0
0
VERTEX
8
Ebene 1
10
93.312758
20
238.365809
70
0
0
VERTEX
8
Ebene 1
10
91.978058
20
237.903674
70
0
0
VERTEX
8
Ebene 1
10
90.467993
20
237.419458
70
0
0
VERTEX
8
Ebene 1
10
87.783341
20
236.162019
70
0
0
VERTEX
8
Ebene 1
10
84.892968
20
234.592452
70
0
0
VERTEX
8
Ebene 1
10
82.921288
20
233.275917
70
0
0
VERTEX
8
Ebene 1
10
82.098201
20
232.676423
70
0
0
VERTEX
8
Ebene 1
10
81.227317
20
232.018255
70
0
0
VERTEX
8
Ebene 1
10
79.857726
20
230.727658
70
0
0
VERTEX
8
Ebene 1
10
77.677908
20
228.440454
70
0
0
VERTEX
8
Ebene 1
10
76.104907
20
226.684417
70
0
0
VERTEX
8
Ebene 1
10
75.675890
20
226.065765
70
0
0
VERTEX
8
Ebene 1
10
74.834833
20
224.657107
70
0
0
VERTEX
8
Ebene 1
10
73.085979
20
221.540003
70
0
0
VERTEX
8
Ebene 1
10
71.862521
20
218.948707
70
0
0
VERTEX
8
Ebene 1
10
71.694691
20
218.410539
70
0
0
VERTEX
8
Ebene 1
10
71.536241
20
217.873786
70
0
0
VERTEX
8
Ebene 1
10
71.308774
20
217.335883
70
0
0
VERTEX
8
Ebene 1
10
70.623269
20
215.238529
70
0
0
VERTEX
8
Ebene 1
10
70.068610
20
212.747851
70
0
0
VERTEX
8
Ebene 1
10
69.801253
20
211.302145
70
0
0
VERTEX
8
Ebene 1
10
69.383086
20
210.249439
70
0
0
VERTEX
8
Ebene 1
10
68.735286
20
209.452994
70
0
0
VERTEX
8
Ebene 1
10
67.779032
20
208.776069
70
0
0
VERTEX
8
Ebene 1
10
67.206550
20
208.592860
70
0
0
VERTEX
8
Ebene 1
10
66.457592
20
208.549629
70
0
0
VERTEX
8
Ebene 1
10
65.674211
20
208.641832
70
0
0
VERTEX
8
Ebene 1
10
64.998460
20
208.864929
70
0
0
VERTEX
8
Ebene 1
10
64.326518
20
209.363758
70
0
0
VERTEX
8
Ebene 1
10
63.738946
20
210.093492
70
0
0
VERTEX
8
Ebene 1
10
63.311820
20
210.936228
70
0
0
VERTEX
8
Ebene 1
10
63.121219
20
211.774065
70
0
0
VERTEX
8
Ebene 1
10
63.396352
20
214.361218
70
0
0
VERTEX
8
Ebene 1
10
64.165613
20
217.492431
70
0
0
VERTEX
8
Ebene 1
10
64.732270
20
219.393205
70
0
0
VERTEX
8
Ebene 1
10
64.984530
20
220.060548
70
0
0
VERTEX
8
Ebene 1
10
65.476287
20
221.305822
70
0
0
VERTEX
8
Ebene 1
10
66.215177
20
223.178731
70
0
0
VERTEX
8
Ebene 1
10
67.316443
20
225.371126
70
0
0
VERTEX
8
Ebene 1
10
68.734976
20
227.800272
70
0
0
VERTEX
8
Ebene 1
10
70.425667
20
230.383437
70
0
0
VERTEX
8
Ebene 1
10
71.893282
20
232.161967
70
0
0
VERTEX
8
Ebene 1
10
74.141901
20
234.607675
70
0
0
VERTEX
8
Ebene 1
10
76.270099
20
236.771257
70
0
0
VERTEX
8
Ebene 1
10
77.376448
20
237.703408
70
0
0
VERTEX
8
Ebene 1
10
78.176415
20
238.279455
70
0
0
VERTEX
8
Ebene 1
10
80.244986
20
239.808945
70
0
0
VERTEX
8
Ebene 1
10
83.037644
20
241.465247
70
0
0
VERTEX
8
Ebene 1
10
86.063590
20
242.980814
70
0
0
VERTEX
8
Ebene 1
10
88.832028
20
244.088098
70
0
0
VERTEX
8
Ebene 1
10
90.797088
20
244.793157
70
0
0
VERTEX
8
Ebene 1
10
95.124118
20
245.828014
70
0
0
VERTEX
8
Ebene 1
10
97.749546
20
246.192084
70
0
0
VERTEX
8
Ebene 1
10
101.511540
20
246.394754
70
0
0
VERTEX
8
Ebene 1
10
104.527488
20
246.353870
70
0
0
VERTEX
8
Ebene 1
10
107.577380
20
246.044557
70
0
0
VERTEX
8
Ebene 1
10
110.740402
20
245.455361
70
0
0
VERTEX
8
Ebene 1
10
114.095740
20
244.574828
70
0
0
VERTEX
8
Ebene 1
10
118.503997
20
242.747153
70
0
0
VERTEX
8
Ebene 1
10
120.851132
20
241.630686
70
0
0
VERTEX
8
Ebene 1
10
122.008520
20
240.965337
70
0
0
VERTEX
8
Ebene 1
10
123.819880
20
239.751159
70
0
0
VERTEX
8
Ebene 1
10
124.773230
20
239.100421
70
0
0
VERTEX
8
Ebene 1
10
125.683750
20
238.409327
70
0
0
VERTEX
8
Ebene 1
10
127.085985
20
237.304245
70
0
0
VERTEX
8
Ebene 1
10
129.736580
20
234.748030
70
0
0
VERTEX
8
Ebene 1
10
132.409970
20
231.887985
70
0
0
VERTEX
8
Ebene 1
10
133.015100
20
231.163500
70
0
0
VERTEX
8
Ebene 1
10
133.258030
20
230.809599
70
0
0
VERTEX
8
Ebene 1
10
133.820720
20
229.897694
70
0
0
VERTEX
8
Ebene 1
10
135.695652
20
226.997268
70
0
0
VERTEX
8
Ebene 1
10
137.643320
20
223.117184
70
0
0
VERTEX
8
Ebene 1
10
138.878080
20
219.971136
70
0
0
VERTEX
8
Ebene 1
10
140.026230
20
215.776405
70
0
0
VERTEX
8
Ebene 1
10
140.610740
20
212.344352
70
0
0
VERTEX
8
Ebene 1
10
140.830500
20
208.216808
70
0
0
VERTEX
8
Ebene 1
10
140.723076
20
203.589982
70
0
0
VERTEX
8
Ebene 1
10
140.134070
20
199.664824
70
0
0
VERTEX
8
Ebene 1
10
139.125680
20
195.756090
70
0
0
VERTEX
8
Ebene 1
10
138.573180
20
194.335600
70
0
0
VERTEX
8
Ebene 1
10
138.406100
20
193.808670
70
0
0
VERTEX
8
Ebene 1
10
138.246330
20
193.131800
70
0
0
VERTEX
8
Ebene 1
10
137.613160
20
191.752030
70
0
0
VERTEX
8
Ebene 1
10
135.514716
20
187.580564
70
0
0
VERTEX
8
Ebene 1
10
133.808650
20
184.895230
70
0
0
VERTEX
8
Ebene 1
10
133.258030
20
184.113480
70
0
0
VERTEX
8
Ebene 1
10
133.108470
20
183.934570
70
0
0
VERTEX
8
Ebene 1
10
132.598950
20
183.314900
70
0
0
VERTEX
8
Ebene 1
10
131.679590
20
182.123210
70
0
0
VERTEX
8
Ebene 1
10
130.832470
20
181.122200
70
0
0
VERTEX
8
Ebene 1
10
130.269470
20
180.693190
70
0
0
VERTEX
8
Ebene 1
10
130.105152
20
180.644423
70
0
0
VERTEX
8
Ebene 1
10
130.096760
20
180.527150
70
0
0
VERTEX
8
Ebene 1
10
129.019619
20
179.272256
70
0
0
VERTEX
8
Ebene 1
10
126.367740
20
176.823250
70
0
0
VERTEX
8
Ebene 1
10
123.438540
20
174.725890
70
0
0
VERTEX
8
Ebene 1
10
120.629744
20
172.941481
70
0
0
VERTEX
8
Ebene 1
10
117.165020
20
171.233940
70
0
0
VERTEX
8
Ebene 1
10
115.592000
20
170.665000
70
0
0
VERTEX
8
Ebene 1
10
114.953750
20
170.355420
70
0
0
VERTEX
8
Ebene 1
10
114.869746
20
170.253593
70
0
0
VERTEX
8
Ebene 1
10
114.667730
20
170.275320
70
0
0
VERTEX
8
Ebene 1
10
114.381730
20
170.200420
70
0
0
VERTEX
8
Ebene 1
10
113.916310
20
170.015730
70
0
0
VERTEX
8
Ebene 1
10
113.343670
20
169.842230
70
0
0
VERTEX
8
Ebene 1
10
110.806040
20
169.092690
70
0
0
VERTEX
8
Ebene 1
10
108.238727
20
168.537644
70
0
0
VERTEX
8
Ebene 1
10
105.694080
20
168.185930
70
0
0
VERTEX
8
Ebene 1
10
98.930138
20
167.985520
70
0
0
VERTEX
8
Ebene 1
10
98.929958
20
167.985560
70
0
0
SEQEND
8
Ebene 1
 0 
ENDSEC
 0 
EOF
